M48
; DRILL file {KiCad (5.1.2)-2} date 8/5/2019 12:08:09 AM
; FORMAT={-:-/ absolute / inch / decimal}
; #@! TF.CreationDate,2019-08-05T00:08:09-07:00
; #@! TF.GenerationSoftware,Kicad,Pcbnew,(5.1.2)-2
; #@! TF.FileFunction,Plated,1,2,PTH
FMAT,2
INCH
T1C0.0276
T2C0.0320
T3C0.0394
T4C0.0433
%
G90
G05
T1
X5.1413Y-4.2724
X5.3413Y-4.2724
X4.95Y-3.7
X5.15Y-3.7
X4.95Y-3.1
X5.15Y-3.1
X4.9949Y-4.0795
X4.9949Y-4.2795
X4.95Y-3.55
X5.15Y-3.55
X5.0579Y-3.8787
X5.2579Y-3.8787
T2
X5.25Y-4.05
X5.325Y-4.0
X5.325Y-4.1
X5.25Y-3.675
X5.325Y-3.625
X5.325Y-3.725
T3
X4.81Y-4.43
X4.8Y-3.3
X4.8Y-3.4
X4.8Y-3.1
X4.8059Y-3.885
X4.8Y-3.65
X4.8098Y-4.2449
X4.8059Y-3.985
T4
X5.3Y-3.1
X5.3Y-3.5
T0
M30
