G04 #@! TF.GenerationSoftware,KiCad,Pcbnew,(5.1.2)-2*
G04 #@! TF.CreationDate,2019-08-05T00:07:49-07:00*
G04 #@! TF.ProjectId,Pi LED and FAN,5069204c-4544-4206-916e-642046414e2e,rev?*
G04 #@! TF.SameCoordinates,Original*
G04 #@! TF.FileFunction,Legend,Top*
G04 #@! TF.FilePolarity,Positive*
%FSLAX46Y46*%
G04 Gerber Fmt 4.6, Leading zero omitted, Abs format (unit mm)*
G04 Created by KiCad (PCBNEW (5.1.2)-2) date 2019-08-05 00:07:49*
%MOMM*%
%LPD*%
G04 APERTURE LIST*
%ADD10C,0.150000*%
%ADD11C,0.120000*%
%ADD12C,0.050000*%
G04 APERTURE END LIST*
D10*
X124795595Y-111387380D02*
X124795595Y-110387380D01*
X125033690Y-110387380D01*
X125176547Y-110435000D01*
X125271785Y-110530238D01*
X125319404Y-110625476D01*
X125367023Y-110815952D01*
X125367023Y-110958809D01*
X125319404Y-111149285D01*
X125271785Y-111244523D01*
X125176547Y-111339761D01*
X125033690Y-111387380D01*
X124795595Y-111387380D01*
X126176547Y-111339761D02*
X126081309Y-111387380D01*
X125890833Y-111387380D01*
X125795595Y-111339761D01*
X125747976Y-111244523D01*
X125747976Y-110863571D01*
X125795595Y-110768333D01*
X125890833Y-110720714D01*
X126081309Y-110720714D01*
X126176547Y-110768333D01*
X126224166Y-110863571D01*
X126224166Y-110958809D01*
X125747976Y-111054047D01*
X126605119Y-111339761D02*
X126700357Y-111387380D01*
X126890833Y-111387380D01*
X126986071Y-111339761D01*
X127033690Y-111244523D01*
X127033690Y-111196904D01*
X126986071Y-111101666D01*
X126890833Y-111054047D01*
X126747976Y-111054047D01*
X126652738Y-111006428D01*
X126605119Y-110911190D01*
X126605119Y-110863571D01*
X126652738Y-110768333D01*
X126747976Y-110720714D01*
X126890833Y-110720714D01*
X126986071Y-110768333D01*
X127462261Y-111387380D02*
X127462261Y-110720714D01*
X127462261Y-110387380D02*
X127414642Y-110435000D01*
X127462261Y-110482619D01*
X127509880Y-110435000D01*
X127462261Y-110387380D01*
X127462261Y-110482619D01*
X128367023Y-110720714D02*
X128367023Y-111530238D01*
X128319404Y-111625476D01*
X128271785Y-111673095D01*
X128176547Y-111720714D01*
X128033690Y-111720714D01*
X127938452Y-111673095D01*
X128367023Y-111339761D02*
X128271785Y-111387380D01*
X128081309Y-111387380D01*
X127986071Y-111339761D01*
X127938452Y-111292142D01*
X127890833Y-111196904D01*
X127890833Y-110911190D01*
X127938452Y-110815952D01*
X127986071Y-110768333D01*
X128081309Y-110720714D01*
X128271785Y-110720714D01*
X128367023Y-110768333D01*
X128843214Y-110720714D02*
X128843214Y-111387380D01*
X128843214Y-110815952D02*
X128890833Y-110768333D01*
X128986071Y-110720714D01*
X129128928Y-110720714D01*
X129224166Y-110768333D01*
X129271785Y-110863571D01*
X129271785Y-111387380D01*
X130128928Y-111339761D02*
X130033690Y-111387380D01*
X129843214Y-111387380D01*
X129747976Y-111339761D01*
X129700357Y-111244523D01*
X129700357Y-110863571D01*
X129747976Y-110768333D01*
X129843214Y-110720714D01*
X130033690Y-110720714D01*
X130128928Y-110768333D01*
X130176547Y-110863571D01*
X130176547Y-110958809D01*
X129700357Y-111054047D01*
X131033690Y-111387380D02*
X131033690Y-110387380D01*
X131033690Y-111339761D02*
X130938452Y-111387380D01*
X130747976Y-111387380D01*
X130652738Y-111339761D01*
X130605119Y-111292142D01*
X130557500Y-111196904D01*
X130557500Y-110911190D01*
X130605119Y-110815952D01*
X130652738Y-110768333D01*
X130747976Y-110720714D01*
X130938452Y-110720714D01*
X131033690Y-110768333D01*
X132271785Y-111387380D02*
X132271785Y-110387380D01*
X132271785Y-110768333D02*
X132367023Y-110720714D01*
X132557500Y-110720714D01*
X132652738Y-110768333D01*
X132700357Y-110815952D01*
X132747976Y-110911190D01*
X132747976Y-111196904D01*
X132700357Y-111292142D01*
X132652738Y-111339761D01*
X132557500Y-111387380D01*
X132367023Y-111387380D01*
X132271785Y-111339761D01*
X133081309Y-110720714D02*
X133319404Y-111387380D01*
X133557500Y-110720714D02*
X133319404Y-111387380D01*
X133224166Y-111625476D01*
X133176547Y-111673095D01*
X133081309Y-111720714D01*
X133938452Y-111292142D02*
X133986071Y-111339761D01*
X133938452Y-111387380D01*
X133890833Y-111339761D01*
X133938452Y-111292142D01*
X133938452Y-111387380D01*
X133938452Y-110768333D02*
X133986071Y-110815952D01*
X133938452Y-110863571D01*
X133890833Y-110815952D01*
X133938452Y-110768333D01*
X133938452Y-110863571D01*
X124747976Y-112751666D02*
X125224166Y-112751666D01*
X124652738Y-113037380D02*
X124986071Y-112037380D01*
X125319404Y-113037380D01*
X125795595Y-113037380D02*
X125700357Y-112989761D01*
X125652738Y-112894523D01*
X125652738Y-112037380D01*
X126557500Y-112989761D02*
X126462261Y-113037380D01*
X126271785Y-113037380D01*
X126176547Y-112989761D01*
X126128928Y-112894523D01*
X126128928Y-112513571D01*
X126176547Y-112418333D01*
X126271785Y-112370714D01*
X126462261Y-112370714D01*
X126557500Y-112418333D01*
X126605119Y-112513571D01*
X126605119Y-112608809D01*
X126128928Y-112704047D01*
X126938452Y-113037380D02*
X127462261Y-112370714D01*
X126938452Y-112370714D02*
X127462261Y-113037380D01*
X128271785Y-113037380D02*
X128271785Y-112513571D01*
X128224166Y-112418333D01*
X128128928Y-112370714D01*
X127938452Y-112370714D01*
X127843214Y-112418333D01*
X128271785Y-112989761D02*
X128176547Y-113037380D01*
X127938452Y-113037380D01*
X127843214Y-112989761D01*
X127795595Y-112894523D01*
X127795595Y-112799285D01*
X127843214Y-112704047D01*
X127938452Y-112656428D01*
X128176547Y-112656428D01*
X128271785Y-112608809D01*
X128747976Y-112370714D02*
X128747976Y-113037380D01*
X128747976Y-112465952D02*
X128795595Y-112418333D01*
X128890833Y-112370714D01*
X129033690Y-112370714D01*
X129128928Y-112418333D01*
X129176547Y-112513571D01*
X129176547Y-113037380D01*
X130081309Y-113037380D02*
X130081309Y-112037380D01*
X130081309Y-112989761D02*
X129986071Y-113037380D01*
X129795595Y-113037380D01*
X129700357Y-112989761D01*
X129652738Y-112942142D01*
X129605119Y-112846904D01*
X129605119Y-112561190D01*
X129652738Y-112465952D01*
X129700357Y-112418333D01*
X129795595Y-112370714D01*
X129986071Y-112370714D01*
X130081309Y-112418333D01*
X130938452Y-112989761D02*
X130843214Y-113037380D01*
X130652738Y-113037380D01*
X130557500Y-112989761D01*
X130509880Y-112894523D01*
X130509880Y-112513571D01*
X130557500Y-112418333D01*
X130652738Y-112370714D01*
X130843214Y-112370714D01*
X130938452Y-112418333D01*
X130986071Y-112513571D01*
X130986071Y-112608809D01*
X130509880Y-112704047D01*
X131414642Y-113037380D02*
X131414642Y-112370714D01*
X131414642Y-112561190D02*
X131462261Y-112465952D01*
X131509880Y-112418333D01*
X131605119Y-112370714D01*
X131700357Y-112370714D01*
X132700357Y-112037380D02*
X132938452Y-113037380D01*
X133128928Y-112323095D01*
X133319404Y-113037380D01*
X133557500Y-112037380D01*
X134367023Y-113037380D02*
X134367023Y-112513571D01*
X134319404Y-112418333D01*
X134224166Y-112370714D01*
X134033690Y-112370714D01*
X133938452Y-112418333D01*
X134367023Y-112989761D02*
X134271785Y-113037380D01*
X134033690Y-113037380D01*
X133938452Y-112989761D01*
X133890833Y-112894523D01*
X133890833Y-112799285D01*
X133938452Y-112704047D01*
X134033690Y-112656428D01*
X134271785Y-112656428D01*
X134367023Y-112608809D01*
X134843214Y-112370714D02*
X134843214Y-113037380D01*
X134843214Y-112465952D02*
X134890833Y-112418333D01*
X134986071Y-112370714D01*
X135128928Y-112370714D01*
X135224166Y-112418333D01*
X135271785Y-112513571D01*
X135271785Y-113037380D01*
X136176547Y-112370714D02*
X136176547Y-113180238D01*
X136128928Y-113275476D01*
X136081309Y-113323095D01*
X135986071Y-113370714D01*
X135843214Y-113370714D01*
X135747976Y-113323095D01*
X136176547Y-112989761D02*
X136081309Y-113037380D01*
X135890833Y-113037380D01*
X135795595Y-112989761D01*
X135747976Y-112942142D01*
X135700357Y-112846904D01*
X135700357Y-112561190D01*
X135747976Y-112465952D01*
X135795595Y-112418333D01*
X135890833Y-112370714D01*
X136081309Y-112370714D01*
X136176547Y-112418333D01*
D11*
X123400000Y-102550000D02*
X122070000Y-102550000D01*
X123400000Y-101220000D02*
X123400000Y-102550000D01*
X123400000Y-99950000D02*
X120740000Y-99950000D01*
X120740000Y-99950000D02*
X120740000Y-97350000D01*
X123400000Y-99950000D02*
X123400000Y-97350000D01*
X123400000Y-97350000D02*
X120740000Y-97350000D01*
X136090000Y-81100000D02*
X133150000Y-81100000D01*
X133150000Y-81100000D02*
X133150000Y-86540000D01*
X133150000Y-86540000D02*
X136090000Y-86540000D01*
X136090000Y-86540000D02*
X136090000Y-81100000D01*
X134620000Y-80080000D02*
X134620000Y-81100000D01*
X134620000Y-87560000D02*
X134620000Y-86540000D01*
X136090000Y-82000000D02*
X133150000Y-82000000D01*
X136090000Y-82120000D02*
X133150000Y-82120000D01*
X136090000Y-81880000D02*
X133150000Y-81880000D01*
X120840000Y-106490000D02*
X122170000Y-106490000D01*
X120840000Y-107820000D02*
X120840000Y-106490000D01*
X120840000Y-109090000D02*
X123500000Y-109090000D01*
X123500000Y-109090000D02*
X123500000Y-109150000D01*
X120840000Y-109090000D02*
X120840000Y-109150000D01*
X120840000Y-109150000D02*
X123500000Y-109150000D01*
X120590000Y-94040000D02*
X123250000Y-94040000D01*
X120590000Y-93980000D02*
X120590000Y-94040000D01*
X123250000Y-93980000D02*
X123250000Y-94040000D01*
X120590000Y-93980000D02*
X123250000Y-93980000D01*
X120590000Y-92710000D02*
X120590000Y-91380000D01*
X120590000Y-91380000D02*
X121920000Y-91380000D01*
X120590000Y-80070000D02*
X123250000Y-80070000D01*
X120590000Y-80010000D02*
X120590000Y-80070000D01*
X123250000Y-80010000D02*
X123250000Y-80070000D01*
X120590000Y-80010000D02*
X123250000Y-80010000D01*
X120590000Y-78740000D02*
X120590000Y-77410000D01*
X120590000Y-77410000D02*
X121920000Y-77410000D01*
X120844000Y-111192000D02*
X122174000Y-111192000D01*
X120844000Y-112522000D02*
X120844000Y-111192000D01*
X120844000Y-113792000D02*
X123504000Y-113792000D01*
X123504000Y-113792000D02*
X123504000Y-113852000D01*
X120844000Y-113792000D02*
X120844000Y-113852000D01*
X120844000Y-113852000D02*
X123504000Y-113852000D01*
X120590000Y-87690000D02*
X123250000Y-87690000D01*
X120590000Y-85090000D02*
X120590000Y-87690000D01*
X123250000Y-85090000D02*
X123250000Y-87690000D01*
X120590000Y-85090000D02*
X123250000Y-85090000D01*
X120590000Y-83820000D02*
X120590000Y-82490000D01*
X120590000Y-82490000D02*
X121920000Y-82490000D01*
X135050000Y-107600000D02*
X131210000Y-107600000D01*
X135050000Y-109440000D02*
X131210000Y-109440000D01*
X127790000Y-104240000D02*
X127790000Y-108080000D01*
X125950000Y-104240000D02*
X125950000Y-108080000D01*
X130190000Y-93060000D02*
X126350000Y-93060000D01*
X130190000Y-94900000D02*
X126350000Y-94900000D01*
X130190000Y-91090000D02*
X126350000Y-91090000D01*
X130190000Y-89250000D02*
X126350000Y-89250000D01*
X129090000Y-99440000D02*
X132930000Y-99440000D01*
X129090000Y-97600000D02*
X132930000Y-97600000D01*
X130190000Y-79660000D02*
X126350000Y-79660000D01*
X130190000Y-77820000D02*
X126350000Y-77820000D01*
D10*
X121331904Y-104002380D02*
X121331904Y-103002380D01*
X121570000Y-103002380D01*
X121712857Y-103050000D01*
X121808095Y-103145238D01*
X121855714Y-103240476D01*
X121903333Y-103430952D01*
X121903333Y-103573809D01*
X121855714Y-103764285D01*
X121808095Y-103859523D01*
X121712857Y-103954761D01*
X121570000Y-104002380D01*
X121331904Y-104002380D01*
X122855714Y-104002380D02*
X122284285Y-104002380D01*
X122570000Y-104002380D02*
X122570000Y-103002380D01*
X122474761Y-103145238D01*
X122379523Y-103240476D01*
X122284285Y-103288095D01*
X132532380Y-84558095D02*
X131532380Y-84558095D01*
X131532380Y-84320000D01*
X131580000Y-84177142D01*
X131675238Y-84081904D01*
X131770476Y-84034285D01*
X131960952Y-83986666D01*
X132103809Y-83986666D01*
X132294285Y-84034285D01*
X132389523Y-84081904D01*
X132484761Y-84177142D01*
X132532380Y-84320000D01*
X132532380Y-84558095D01*
X131627619Y-83605714D02*
X131580000Y-83558095D01*
X131532380Y-83462857D01*
X131532380Y-83224761D01*
X131580000Y-83129523D01*
X131627619Y-83081904D01*
X131722857Y-83034285D01*
X131818095Y-83034285D01*
X131960952Y-83081904D01*
X132532380Y-83653333D01*
X132532380Y-83034285D01*
X137172380Y-79001904D02*
X136172380Y-79001904D01*
X137172380Y-78430476D02*
X136600952Y-78859047D01*
X136172380Y-78430476D02*
X136743809Y-79001904D01*
X121836666Y-104942380D02*
X121836666Y-105656666D01*
X121789047Y-105799523D01*
X121693809Y-105894761D01*
X121550952Y-105942380D01*
X121455714Y-105942380D01*
X122836666Y-105942380D02*
X122265238Y-105942380D01*
X122550952Y-105942380D02*
X122550952Y-104942380D01*
X122455714Y-105085238D01*
X122360476Y-105180476D01*
X122265238Y-105228095D01*
X121586666Y-94702380D02*
X121586666Y-95416666D01*
X121539047Y-95559523D01*
X121443809Y-95654761D01*
X121300952Y-95702380D01*
X121205714Y-95702380D01*
X122015238Y-94797619D02*
X122062857Y-94750000D01*
X122158095Y-94702380D01*
X122396190Y-94702380D01*
X122491428Y-94750000D01*
X122539047Y-94797619D01*
X122586666Y-94892857D01*
X122586666Y-94988095D01*
X122539047Y-95130952D01*
X121967619Y-95702380D01*
X122586666Y-95702380D01*
X121586666Y-80972380D02*
X121586666Y-81686666D01*
X121539047Y-81829523D01*
X121443809Y-81924761D01*
X121300952Y-81972380D01*
X121205714Y-81972380D01*
X121967619Y-80972380D02*
X122586666Y-80972380D01*
X122253333Y-81353333D01*
X122396190Y-81353333D01*
X122491428Y-81400952D01*
X122539047Y-81448571D01*
X122586666Y-81543809D01*
X122586666Y-81781904D01*
X122539047Y-81877142D01*
X122491428Y-81924761D01*
X122396190Y-81972380D01*
X122110476Y-81972380D01*
X122015238Y-81924761D01*
X121967619Y-81877142D01*
X121840666Y-109644380D02*
X121840666Y-110358666D01*
X121793047Y-110501523D01*
X121697809Y-110596761D01*
X121554952Y-110644380D01*
X121459714Y-110644380D01*
X122745428Y-109977714D02*
X122745428Y-110644380D01*
X122507333Y-109596761D02*
X122269238Y-110311047D01*
X122888285Y-110311047D01*
X121110476Y-89352380D02*
X121110476Y-88352380D01*
X121443809Y-89066666D01*
X121777142Y-88352380D01*
X121777142Y-89352380D01*
X122777142Y-89352380D02*
X122205714Y-89352380D01*
X122491428Y-89352380D02*
X122491428Y-88352380D01*
X122396190Y-88495238D01*
X122300952Y-88590476D01*
X122205714Y-88638095D01*
D12*
X138868810Y-102946314D02*
X138830653Y-103022629D01*
X138754338Y-103098944D01*
X138639866Y-103213417D01*
X138601708Y-103289732D01*
X138601708Y-103366047D01*
X138792496Y-103327889D02*
X138754338Y-103404204D01*
X138678023Y-103480519D01*
X138525393Y-103518677D01*
X138258291Y-103518677D01*
X138105661Y-103480519D01*
X138029346Y-103404204D01*
X137991189Y-103327889D01*
X137991189Y-103175259D01*
X138029346Y-103098944D01*
X138105661Y-103022629D01*
X138258291Y-102984472D01*
X138525393Y-102984472D01*
X138678023Y-103022629D01*
X138754338Y-103098944D01*
X138792496Y-103175259D01*
X138792496Y-103327889D01*
X138792496Y-102221322D02*
X138792496Y-102679212D01*
X138792496Y-102450267D02*
X137991189Y-102450267D01*
X138105661Y-102526582D01*
X138181976Y-102602897D01*
X138220133Y-102679212D01*
X138084847Y-105173526D02*
X137444131Y-105173526D01*
X137444131Y-104929444D01*
X137474642Y-104868423D01*
X137505152Y-104837913D01*
X137566172Y-104807403D01*
X137657703Y-104807403D01*
X137718724Y-104837913D01*
X137749234Y-104868423D01*
X137779744Y-104929444D01*
X137779744Y-105173526D01*
X137505152Y-104563320D02*
X137474642Y-104532810D01*
X137444131Y-104471790D01*
X137444131Y-104319238D01*
X137474642Y-104258218D01*
X137505152Y-104227707D01*
X137566172Y-104197197D01*
X137627193Y-104197197D01*
X137718724Y-104227707D01*
X138084847Y-104593831D01*
X138084847Y-104197197D01*
X138084847Y-103922604D02*
X137444131Y-103922604D01*
X138084847Y-103556481D01*
X137444131Y-103556481D01*
X137505152Y-103281888D02*
X137474642Y-103251378D01*
X137444131Y-103190358D01*
X137444131Y-103037806D01*
X137474642Y-102976786D01*
X137505152Y-102946275D01*
X137566172Y-102915765D01*
X137627193Y-102915765D01*
X137718724Y-102946275D01*
X138084847Y-103312399D01*
X138084847Y-102915765D01*
X137505152Y-102671683D02*
X137474642Y-102641172D01*
X137444131Y-102580152D01*
X137444131Y-102427600D01*
X137474642Y-102366580D01*
X137505152Y-102336070D01*
X137566172Y-102305559D01*
X137627193Y-102305559D01*
X137718724Y-102336070D01*
X138084847Y-102702193D01*
X138084847Y-102305559D01*
X137505152Y-102061477D02*
X137474642Y-102030967D01*
X137444131Y-101969946D01*
X137444131Y-101817395D01*
X137474642Y-101756374D01*
X137505152Y-101725864D01*
X137566172Y-101695354D01*
X137627193Y-101695354D01*
X137718724Y-101725864D01*
X138084847Y-102091987D01*
X138084847Y-101695354D01*
X137505152Y-101451271D02*
X137474642Y-101420761D01*
X137444131Y-101359740D01*
X137444131Y-101207189D01*
X137474642Y-101146168D01*
X137505152Y-101115658D01*
X137566172Y-101085148D01*
X137627193Y-101085148D01*
X137718724Y-101115658D01*
X138084847Y-101481782D01*
X138084847Y-101085148D01*
X137901786Y-100841066D02*
X137901786Y-100535963D01*
X138084847Y-100902086D02*
X137444131Y-100688514D01*
X138084847Y-100474942D01*
X137598810Y-90246314D02*
X137560653Y-90322629D01*
X137484338Y-90398944D01*
X137369866Y-90513417D01*
X137331708Y-90589732D01*
X137331708Y-90666047D01*
X137522496Y-90627889D02*
X137484338Y-90704204D01*
X137408023Y-90780519D01*
X137255393Y-90818677D01*
X136988291Y-90818677D01*
X136835661Y-90780519D01*
X136759346Y-90704204D01*
X136721189Y-90627889D01*
X136721189Y-90475259D01*
X136759346Y-90398944D01*
X136835661Y-90322629D01*
X136988291Y-90284472D01*
X137255393Y-90284472D01*
X137408023Y-90322629D01*
X137484338Y-90398944D01*
X137522496Y-90475259D01*
X137522496Y-90627889D01*
X136797503Y-89979212D02*
X136759346Y-89941055D01*
X136721189Y-89864740D01*
X136721189Y-89673952D01*
X136759346Y-89597637D01*
X136797503Y-89559480D01*
X136873818Y-89521322D01*
X136950133Y-89521322D01*
X137064606Y-89559480D01*
X137522496Y-90017370D01*
X137522496Y-89521322D01*
X138084847Y-95648526D02*
X137444131Y-95648526D01*
X137444131Y-95404444D01*
X137474642Y-95343423D01*
X137505152Y-95312913D01*
X137566172Y-95282403D01*
X137657703Y-95282403D01*
X137718724Y-95312913D01*
X137749234Y-95343423D01*
X137779744Y-95404444D01*
X137779744Y-95648526D01*
X137505152Y-95038320D02*
X137474642Y-95007810D01*
X137444131Y-94946790D01*
X137444131Y-94794238D01*
X137474642Y-94733218D01*
X137505152Y-94702707D01*
X137566172Y-94672197D01*
X137627193Y-94672197D01*
X137718724Y-94702707D01*
X138084847Y-95068831D01*
X138084847Y-94672197D01*
X138084847Y-94397604D02*
X137444131Y-94397604D01*
X138084847Y-94031481D01*
X137444131Y-94031481D01*
X137505152Y-93756888D02*
X137474642Y-93726378D01*
X137444131Y-93665358D01*
X137444131Y-93512806D01*
X137474642Y-93451786D01*
X137505152Y-93421275D01*
X137566172Y-93390765D01*
X137627193Y-93390765D01*
X137718724Y-93421275D01*
X138084847Y-93787399D01*
X138084847Y-93390765D01*
X137505152Y-93146683D02*
X137474642Y-93116172D01*
X137444131Y-93055152D01*
X137444131Y-92902600D01*
X137474642Y-92841580D01*
X137505152Y-92811070D01*
X137566172Y-92780559D01*
X137627193Y-92780559D01*
X137718724Y-92811070D01*
X138084847Y-93177193D01*
X138084847Y-92780559D01*
X137505152Y-92536477D02*
X137474642Y-92505967D01*
X137444131Y-92444946D01*
X137444131Y-92292395D01*
X137474642Y-92231374D01*
X137505152Y-92200864D01*
X137566172Y-92170354D01*
X137627193Y-92170354D01*
X137718724Y-92200864D01*
X138084847Y-92566987D01*
X138084847Y-92170354D01*
X137505152Y-91926271D02*
X137474642Y-91895761D01*
X137444131Y-91834740D01*
X137444131Y-91682189D01*
X137474642Y-91621168D01*
X137505152Y-91590658D01*
X137566172Y-91560148D01*
X137627193Y-91560148D01*
X137718724Y-91590658D01*
X138084847Y-91956782D01*
X138084847Y-91560148D01*
X137901786Y-91316066D02*
X137901786Y-91010963D01*
X138084847Y-91377086D02*
X137444131Y-91163514D01*
X138084847Y-90949942D01*
D10*
X131913333Y-107132380D02*
X131580000Y-106656190D01*
X131341904Y-107132380D02*
X131341904Y-106132380D01*
X131722857Y-106132380D01*
X131818095Y-106180000D01*
X131865714Y-106227619D01*
X131913333Y-106322857D01*
X131913333Y-106465714D01*
X131865714Y-106560952D01*
X131818095Y-106608571D01*
X131722857Y-106656190D01*
X131341904Y-106656190D01*
X132865714Y-107132380D02*
X132294285Y-107132380D01*
X132580000Y-107132380D02*
X132580000Y-106132380D01*
X132484761Y-106275238D01*
X132389523Y-106370476D01*
X132294285Y-106418095D01*
X129242380Y-106326666D02*
X128766190Y-106660000D01*
X129242380Y-106898095D02*
X128242380Y-106898095D01*
X128242380Y-106517142D01*
X128290000Y-106421904D01*
X128337619Y-106374285D01*
X128432857Y-106326666D01*
X128575714Y-106326666D01*
X128670952Y-106374285D01*
X128718571Y-106421904D01*
X128766190Y-106517142D01*
X128766190Y-106898095D01*
X128337619Y-105945714D02*
X128290000Y-105898095D01*
X128242380Y-105802857D01*
X128242380Y-105564761D01*
X128290000Y-105469523D01*
X128337619Y-105421904D01*
X128432857Y-105374285D01*
X128528095Y-105374285D01*
X128670952Y-105421904D01*
X129242380Y-105993333D01*
X129242380Y-105374285D01*
X125563333Y-96352380D02*
X125230000Y-95876190D01*
X124991904Y-96352380D02*
X124991904Y-95352380D01*
X125372857Y-95352380D01*
X125468095Y-95400000D01*
X125515714Y-95447619D01*
X125563333Y-95542857D01*
X125563333Y-95685714D01*
X125515714Y-95780952D01*
X125468095Y-95828571D01*
X125372857Y-95876190D01*
X124991904Y-95876190D01*
X125896666Y-95352380D02*
X126515714Y-95352380D01*
X126182380Y-95733333D01*
X126325238Y-95733333D01*
X126420476Y-95780952D01*
X126468095Y-95828571D01*
X126515714Y-95923809D01*
X126515714Y-96161904D01*
X126468095Y-96257142D01*
X126420476Y-96304761D01*
X126325238Y-96352380D01*
X126039523Y-96352380D01*
X125944285Y-96304761D01*
X125896666Y-96257142D01*
X128103333Y-88082380D02*
X127770000Y-87606190D01*
X127531904Y-88082380D02*
X127531904Y-87082380D01*
X127912857Y-87082380D01*
X128008095Y-87130000D01*
X128055714Y-87177619D01*
X128103333Y-87272857D01*
X128103333Y-87415714D01*
X128055714Y-87510952D01*
X128008095Y-87558571D01*
X127912857Y-87606190D01*
X127531904Y-87606190D01*
X128960476Y-87415714D02*
X128960476Y-88082380D01*
X128722380Y-87034761D02*
X128484285Y-87749047D01*
X129103333Y-87749047D01*
X131913333Y-97052380D02*
X131580000Y-96576190D01*
X131341904Y-97052380D02*
X131341904Y-96052380D01*
X131722857Y-96052380D01*
X131818095Y-96100000D01*
X131865714Y-96147619D01*
X131913333Y-96242857D01*
X131913333Y-96385714D01*
X131865714Y-96480952D01*
X131818095Y-96528571D01*
X131722857Y-96576190D01*
X131341904Y-96576190D01*
X132818095Y-96052380D02*
X132341904Y-96052380D01*
X132294285Y-96528571D01*
X132341904Y-96480952D01*
X132437142Y-96433333D01*
X132675238Y-96433333D01*
X132770476Y-96480952D01*
X132818095Y-96528571D01*
X132865714Y-96623809D01*
X132865714Y-96861904D01*
X132818095Y-96957142D01*
X132770476Y-97004761D01*
X132675238Y-97052380D01*
X132437142Y-97052380D01*
X132341904Y-97004761D01*
X132294285Y-96957142D01*
X125563333Y-81112380D02*
X125230000Y-80636190D01*
X124991904Y-81112380D02*
X124991904Y-80112380D01*
X125372857Y-80112380D01*
X125468095Y-80160000D01*
X125515714Y-80207619D01*
X125563333Y-80302857D01*
X125563333Y-80445714D01*
X125515714Y-80540952D01*
X125468095Y-80588571D01*
X125372857Y-80636190D01*
X124991904Y-80636190D01*
X126420476Y-80112380D02*
X126230000Y-80112380D01*
X126134761Y-80160000D01*
X126087142Y-80207619D01*
X125991904Y-80350476D01*
X125944285Y-80540952D01*
X125944285Y-80921904D01*
X125991904Y-81017142D01*
X126039523Y-81064761D01*
X126134761Y-81112380D01*
X126325238Y-81112380D01*
X126420476Y-81064761D01*
X126468095Y-81017142D01*
X126515714Y-80921904D01*
X126515714Y-80683809D01*
X126468095Y-80588571D01*
X126420476Y-80540952D01*
X126325238Y-80493333D01*
X126134761Y-80493333D01*
X126039523Y-80540952D01*
X125991904Y-80588571D01*
X125944285Y-80683809D01*
M02*
