G04 #@! TF.GenerationSoftware,KiCad,Pcbnew,(5.1.2)-2*
G04 #@! TF.CreationDate,2019-08-05T00:07:48-07:00*
G04 #@! TF.ProjectId,Pi LED and FAN,5069204c-4544-4206-916e-642046414e2e,rev?*
G04 #@! TF.SameCoordinates,Original*
G04 #@! TF.FileFunction,Copper,L2,Bot*
G04 #@! TF.FilePolarity,Positive*
%FSLAX46Y46*%
G04 Gerber Fmt 4.6, Leading zero omitted, Abs format (unit mm)*
G04 Created by KiCad (PCBNEW (5.1.2)-2) date 2019-08-05 00:07:48*
%MOMM*%
%LPD*%
G04 APERTURE LIST*
%ADD10O,1.700000X1.700000*%
%ADD11R,1.700000X1.700000*%
%ADD12R,2.200000X2.200000*%
%ADD13O,2.200000X2.200000*%
%ADD14C,1.676400*%
%ADD15O,1.400000X1.400000*%
%ADD16C,1.400000*%
%ADD17C,0.254000*%
G04 APERTURE END LIST*
D10*
X122070000Y-98680000D03*
D11*
X122070000Y-101220000D03*
D12*
X134620000Y-78740000D03*
D13*
X134620000Y-88900000D03*
D11*
X122170000Y-107820000D03*
X121920000Y-92710000D03*
X121920000Y-78740000D03*
X122174000Y-112522000D03*
X121920000Y-83820000D03*
D10*
X121920000Y-86360000D03*
D14*
X135255000Y-101600000D03*
X133350000Y-102870000D03*
X135255000Y-104140000D03*
X135255000Y-94615000D03*
X133350000Y-93345000D03*
X135255000Y-92075000D03*
D15*
X130590000Y-108520000D03*
D16*
X135670000Y-108520000D03*
X126870000Y-103620000D03*
D15*
X126870000Y-108700000D03*
X125730000Y-93980000D03*
D16*
X130810000Y-93980000D03*
X130810000Y-90170000D03*
D15*
X125730000Y-90170000D03*
X133550000Y-98520000D03*
D16*
X128470000Y-98520000D03*
X130810000Y-78740000D03*
D15*
X125730000Y-78740000D03*
D17*
G36*
X124984725Y-77624618D02*
G01*
X124781445Y-77791445D01*
X124614618Y-77994725D01*
X124490653Y-78226646D01*
X124414317Y-78478294D01*
X124388541Y-78740000D01*
X124414317Y-79001706D01*
X124490653Y-79253354D01*
X124614618Y-79485275D01*
X124781445Y-79688555D01*
X124984725Y-79855382D01*
X125216646Y-79979347D01*
X125468294Y-80055683D01*
X125664421Y-80075000D01*
X125795579Y-80075000D01*
X125991706Y-80055683D01*
X126243354Y-79979347D01*
X126475275Y-79855382D01*
X126678555Y-79688555D01*
X126845382Y-79485275D01*
X126969347Y-79253354D01*
X127045683Y-79001706D01*
X127071459Y-78740000D01*
X127045683Y-78478294D01*
X126969347Y-78226646D01*
X126845382Y-77994725D01*
X126678555Y-77791445D01*
X126475275Y-77624618D01*
X126423606Y-77597000D01*
X130117685Y-77597000D01*
X129958987Y-77703038D01*
X129773038Y-77888987D01*
X129626939Y-78107641D01*
X129526304Y-78350595D01*
X129475000Y-78608514D01*
X129475000Y-78871486D01*
X129526304Y-79129405D01*
X129626939Y-79372359D01*
X129773038Y-79591013D01*
X129958987Y-79776962D01*
X130177641Y-79923061D01*
X130420595Y-80023696D01*
X130678514Y-80075000D01*
X130941486Y-80075000D01*
X131199405Y-80023696D01*
X131442359Y-79923061D01*
X131661013Y-79776962D01*
X131846962Y-79591013D01*
X131993061Y-79372359D01*
X132093696Y-79129405D01*
X132145000Y-78871486D01*
X132145000Y-78608514D01*
X132093696Y-78350595D01*
X131993061Y-78107641D01*
X131846962Y-77888987D01*
X131661013Y-77703038D01*
X131502315Y-77597000D01*
X132886163Y-77597000D01*
X132881928Y-77640000D01*
X132881928Y-79840000D01*
X132894188Y-79964482D01*
X132930498Y-80084180D01*
X132989463Y-80194494D01*
X133068815Y-80291185D01*
X133165506Y-80370537D01*
X133275820Y-80429502D01*
X133395518Y-80465812D01*
X133520000Y-80478072D01*
X135720000Y-80478072D01*
X135844482Y-80465812D01*
X135964180Y-80429502D01*
X136074494Y-80370537D01*
X136171185Y-80291185D01*
X136250537Y-80194494D01*
X136309502Y-80084180D01*
X136345812Y-79964482D01*
X136358072Y-79840000D01*
X136358072Y-77640000D01*
X136353837Y-77597000D01*
X137107394Y-77597000D01*
X138303000Y-78792606D01*
X138303000Y-112977394D01*
X137107394Y-114173000D01*
X120777000Y-114173000D01*
X120777000Y-113695694D01*
X120793463Y-113726494D01*
X120872815Y-113823185D01*
X120969506Y-113902537D01*
X121079820Y-113961502D01*
X121199518Y-113997812D01*
X121324000Y-114010072D01*
X121888250Y-114007000D01*
X122047000Y-113848250D01*
X122047000Y-112649000D01*
X122301000Y-112649000D01*
X122301000Y-113848250D01*
X122459750Y-114007000D01*
X123024000Y-114010072D01*
X123148482Y-113997812D01*
X123268180Y-113961502D01*
X123378494Y-113902537D01*
X123475185Y-113823185D01*
X123554537Y-113726494D01*
X123613502Y-113616180D01*
X123649812Y-113496482D01*
X123662072Y-113372000D01*
X123659000Y-112807750D01*
X123500250Y-112649000D01*
X122301000Y-112649000D01*
X122047000Y-112649000D01*
X122027000Y-112649000D01*
X122027000Y-112395000D01*
X122047000Y-112395000D01*
X122047000Y-111195750D01*
X122301000Y-111195750D01*
X122301000Y-112395000D01*
X123500250Y-112395000D01*
X123659000Y-112236250D01*
X123662072Y-111672000D01*
X123649812Y-111547518D01*
X123613502Y-111427820D01*
X123554537Y-111317506D01*
X123475185Y-111220815D01*
X123378494Y-111141463D01*
X123268180Y-111082498D01*
X123148482Y-111046188D01*
X123024000Y-111033928D01*
X122459750Y-111037000D01*
X122301000Y-111195750D01*
X122047000Y-111195750D01*
X121888250Y-111037000D01*
X121324000Y-111033928D01*
X121199518Y-111046188D01*
X121079820Y-111082498D01*
X120969506Y-111141463D01*
X120872815Y-111220815D01*
X120793463Y-111317506D01*
X120777000Y-111348306D01*
X120777000Y-109001178D01*
X120789463Y-109024494D01*
X120868815Y-109121185D01*
X120965506Y-109200537D01*
X121075820Y-109259502D01*
X121195518Y-109295812D01*
X121320000Y-109308072D01*
X123020000Y-109308072D01*
X123144482Y-109295812D01*
X123264180Y-109259502D01*
X123374494Y-109200537D01*
X123471185Y-109121185D01*
X123550537Y-109024494D01*
X123609502Y-108914180D01*
X123645812Y-108794482D01*
X123655117Y-108700000D01*
X125528541Y-108700000D01*
X125554317Y-108961706D01*
X125630653Y-109213354D01*
X125754618Y-109445275D01*
X125921445Y-109648555D01*
X126124725Y-109815382D01*
X126356646Y-109939347D01*
X126608294Y-110015683D01*
X126804421Y-110035000D01*
X126935579Y-110035000D01*
X127131706Y-110015683D01*
X127383354Y-109939347D01*
X127615275Y-109815382D01*
X127818555Y-109648555D01*
X127985382Y-109445275D01*
X128109347Y-109213354D01*
X128185683Y-108961706D01*
X128211459Y-108700000D01*
X128193731Y-108520000D01*
X129248541Y-108520000D01*
X129274317Y-108781706D01*
X129350653Y-109033354D01*
X129474618Y-109265275D01*
X129641445Y-109468555D01*
X129844725Y-109635382D01*
X130076646Y-109759347D01*
X130328294Y-109835683D01*
X130524421Y-109855000D01*
X130655579Y-109855000D01*
X130851706Y-109835683D01*
X131103354Y-109759347D01*
X131335275Y-109635382D01*
X131538555Y-109468555D01*
X131560947Y-109441269D01*
X134928336Y-109441269D01*
X134987797Y-109675037D01*
X135226242Y-109785934D01*
X135481740Y-109848183D01*
X135744473Y-109859390D01*
X136004344Y-109819125D01*
X136251366Y-109728935D01*
X136352203Y-109675037D01*
X136411664Y-109441269D01*
X135670000Y-108699605D01*
X134928336Y-109441269D01*
X131560947Y-109441269D01*
X131705382Y-109265275D01*
X131829347Y-109033354D01*
X131905683Y-108781706D01*
X131924123Y-108594473D01*
X134330610Y-108594473D01*
X134370875Y-108854344D01*
X134461065Y-109101366D01*
X134514963Y-109202203D01*
X134748731Y-109261664D01*
X135490395Y-108520000D01*
X135849605Y-108520000D01*
X136591269Y-109261664D01*
X136825037Y-109202203D01*
X136935934Y-108963758D01*
X136998183Y-108708260D01*
X137009390Y-108445527D01*
X136969125Y-108185656D01*
X136878935Y-107938634D01*
X136825037Y-107837797D01*
X136591269Y-107778336D01*
X135849605Y-108520000D01*
X135490395Y-108520000D01*
X134748731Y-107778336D01*
X134514963Y-107837797D01*
X134404066Y-108076242D01*
X134341817Y-108331740D01*
X134330610Y-108594473D01*
X131924123Y-108594473D01*
X131931459Y-108520000D01*
X131905683Y-108258294D01*
X131829347Y-108006646D01*
X131705382Y-107774725D01*
X131560948Y-107598731D01*
X134928336Y-107598731D01*
X135670000Y-108340395D01*
X136411664Y-107598731D01*
X136352203Y-107364963D01*
X136113758Y-107254066D01*
X135858260Y-107191817D01*
X135595527Y-107180610D01*
X135335656Y-107220875D01*
X135088634Y-107311065D01*
X134987797Y-107364963D01*
X134928336Y-107598731D01*
X131560948Y-107598731D01*
X131538555Y-107571445D01*
X131335275Y-107404618D01*
X131103354Y-107280653D01*
X130851706Y-107204317D01*
X130655579Y-107185000D01*
X130524421Y-107185000D01*
X130328294Y-107204317D01*
X130076646Y-107280653D01*
X129844725Y-107404618D01*
X129641445Y-107571445D01*
X129474618Y-107774725D01*
X129350653Y-108006646D01*
X129274317Y-108258294D01*
X129248541Y-108520000D01*
X128193731Y-108520000D01*
X128185683Y-108438294D01*
X128109347Y-108186646D01*
X127985382Y-107954725D01*
X127818555Y-107751445D01*
X127615275Y-107584618D01*
X127383354Y-107460653D01*
X127131706Y-107384317D01*
X126935579Y-107365000D01*
X126804421Y-107365000D01*
X126608294Y-107384317D01*
X126356646Y-107460653D01*
X126124725Y-107584618D01*
X125921445Y-107751445D01*
X125754618Y-107954725D01*
X125630653Y-108186646D01*
X125554317Y-108438294D01*
X125528541Y-108700000D01*
X123655117Y-108700000D01*
X123658072Y-108670000D01*
X123658072Y-106970000D01*
X123645812Y-106845518D01*
X123609502Y-106725820D01*
X123550537Y-106615506D01*
X123471185Y-106518815D01*
X123374494Y-106439463D01*
X123264180Y-106380498D01*
X123144482Y-106344188D01*
X123020000Y-106331928D01*
X121320000Y-106331928D01*
X121195518Y-106344188D01*
X121075820Y-106380498D01*
X120965506Y-106439463D01*
X120868815Y-106518815D01*
X120789463Y-106615506D01*
X120777000Y-106638822D01*
X120777000Y-105159975D01*
X134414630Y-105159975D01*
X134490838Y-105407844D01*
X134752865Y-105532563D01*
X135034189Y-105603768D01*
X135323999Y-105618719D01*
X135611157Y-105576845D01*
X135884628Y-105479754D01*
X136019162Y-105407844D01*
X136095370Y-105159975D01*
X135255000Y-104319605D01*
X134414630Y-105159975D01*
X120777000Y-105159975D01*
X120777000Y-103488514D01*
X125535000Y-103488514D01*
X125535000Y-103751486D01*
X125586304Y-104009405D01*
X125686939Y-104252359D01*
X125833038Y-104471013D01*
X126018987Y-104656962D01*
X126237641Y-104803061D01*
X126480595Y-104903696D01*
X126738514Y-104955000D01*
X127001486Y-104955000D01*
X127259405Y-104903696D01*
X127502359Y-104803061D01*
X127721013Y-104656962D01*
X127906962Y-104471013D01*
X128053061Y-104252359D01*
X128153696Y-104009405D01*
X128205000Y-103751486D01*
X128205000Y-103488514D01*
X128153696Y-103230595D01*
X128053061Y-102987641D01*
X127906962Y-102768987D01*
X127862877Y-102724902D01*
X131876800Y-102724902D01*
X131876800Y-103015098D01*
X131933414Y-103299717D01*
X132044467Y-103567822D01*
X132205691Y-103809110D01*
X132410890Y-104014309D01*
X132652178Y-104175533D01*
X132920283Y-104286586D01*
X133204902Y-104343200D01*
X133495098Y-104343200D01*
X133779717Y-104286586D01*
X133787146Y-104283509D01*
X133818155Y-104496157D01*
X133915246Y-104769628D01*
X133987156Y-104904162D01*
X134235025Y-104980370D01*
X135075395Y-104140000D01*
X135434605Y-104140000D01*
X136274975Y-104980370D01*
X136522844Y-104904162D01*
X136647563Y-104642135D01*
X136718768Y-104360811D01*
X136733719Y-104071001D01*
X136691845Y-103783843D01*
X136594754Y-103510372D01*
X136522844Y-103375838D01*
X136274975Y-103299630D01*
X135434605Y-104140000D01*
X135075395Y-104140000D01*
X135061253Y-104125858D01*
X135240858Y-103946253D01*
X135255000Y-103960395D01*
X136095370Y-103120025D01*
X136019162Y-102872156D01*
X136009592Y-102867601D01*
X136194110Y-102744309D01*
X136399309Y-102539110D01*
X136560533Y-102297822D01*
X136671586Y-102029717D01*
X136728200Y-101745098D01*
X136728200Y-101454902D01*
X136671586Y-101170283D01*
X136560533Y-100902178D01*
X136399309Y-100660890D01*
X136194110Y-100455691D01*
X135952822Y-100294467D01*
X135684717Y-100183414D01*
X135400098Y-100126800D01*
X135109902Y-100126800D01*
X134825283Y-100183414D01*
X134557178Y-100294467D01*
X134315890Y-100455691D01*
X134110691Y-100660890D01*
X133949467Y-100902178D01*
X133838414Y-101170283D01*
X133781915Y-101454324D01*
X133779717Y-101453414D01*
X133495098Y-101396800D01*
X133204902Y-101396800D01*
X132920283Y-101453414D01*
X132652178Y-101564467D01*
X132410890Y-101725691D01*
X132205691Y-101930890D01*
X132044467Y-102172178D01*
X131933414Y-102440283D01*
X131876800Y-102724902D01*
X127862877Y-102724902D01*
X127721013Y-102583038D01*
X127502359Y-102436939D01*
X127259405Y-102336304D01*
X127001486Y-102285000D01*
X126738514Y-102285000D01*
X126480595Y-102336304D01*
X126237641Y-102436939D01*
X126018987Y-102583038D01*
X125833038Y-102768987D01*
X125686939Y-102987641D01*
X125586304Y-103230595D01*
X125535000Y-103488514D01*
X120777000Y-103488514D01*
X120777000Y-102527902D01*
X120865506Y-102600537D01*
X120975820Y-102659502D01*
X121095518Y-102695812D01*
X121220000Y-102708072D01*
X122920000Y-102708072D01*
X123044482Y-102695812D01*
X123164180Y-102659502D01*
X123274494Y-102600537D01*
X123371185Y-102521185D01*
X123450537Y-102424494D01*
X123509502Y-102314180D01*
X123545812Y-102194482D01*
X123558072Y-102070000D01*
X123558072Y-100370000D01*
X123545812Y-100245518D01*
X123509502Y-100125820D01*
X123450537Y-100015506D01*
X123371185Y-99918815D01*
X123274494Y-99839463D01*
X123164180Y-99780498D01*
X123095313Y-99759607D01*
X123125134Y-99735134D01*
X123310706Y-99509014D01*
X123448599Y-99251034D01*
X123533513Y-98971111D01*
X123562185Y-98680000D01*
X123533513Y-98388889D01*
X123533400Y-98388514D01*
X127135000Y-98388514D01*
X127135000Y-98651486D01*
X127186304Y-98909405D01*
X127286939Y-99152359D01*
X127433038Y-99371013D01*
X127618987Y-99556962D01*
X127837641Y-99703061D01*
X128080595Y-99803696D01*
X128338514Y-99855000D01*
X128601486Y-99855000D01*
X128859405Y-99803696D01*
X129102359Y-99703061D01*
X129321013Y-99556962D01*
X129506962Y-99371013D01*
X129653061Y-99152359D01*
X129753696Y-98909405D01*
X129805000Y-98651486D01*
X129805000Y-98520000D01*
X132208541Y-98520000D01*
X132234317Y-98781706D01*
X132310653Y-99033354D01*
X132434618Y-99265275D01*
X132601445Y-99468555D01*
X132804725Y-99635382D01*
X133036646Y-99759347D01*
X133288294Y-99835683D01*
X133484421Y-99855000D01*
X133615579Y-99855000D01*
X133811706Y-99835683D01*
X134063354Y-99759347D01*
X134295275Y-99635382D01*
X134498555Y-99468555D01*
X134665382Y-99265275D01*
X134789347Y-99033354D01*
X134865683Y-98781706D01*
X134891459Y-98520000D01*
X134865683Y-98258294D01*
X134789347Y-98006646D01*
X134665382Y-97774725D01*
X134498555Y-97571445D01*
X134295275Y-97404618D01*
X134063354Y-97280653D01*
X133811706Y-97204317D01*
X133615579Y-97185000D01*
X133484421Y-97185000D01*
X133288294Y-97204317D01*
X133036646Y-97280653D01*
X132804725Y-97404618D01*
X132601445Y-97571445D01*
X132434618Y-97774725D01*
X132310653Y-98006646D01*
X132234317Y-98258294D01*
X132208541Y-98520000D01*
X129805000Y-98520000D01*
X129805000Y-98388514D01*
X129753696Y-98130595D01*
X129653061Y-97887641D01*
X129506962Y-97668987D01*
X129321013Y-97483038D01*
X129102359Y-97336939D01*
X128859405Y-97236304D01*
X128601486Y-97185000D01*
X128338514Y-97185000D01*
X128080595Y-97236304D01*
X127837641Y-97336939D01*
X127618987Y-97483038D01*
X127433038Y-97668987D01*
X127286939Y-97887641D01*
X127186304Y-98130595D01*
X127135000Y-98388514D01*
X123533400Y-98388514D01*
X123448599Y-98108966D01*
X123310706Y-97850986D01*
X123125134Y-97624866D01*
X122899014Y-97439294D01*
X122641034Y-97301401D01*
X122361111Y-97216487D01*
X122142950Y-97195000D01*
X121997050Y-97195000D01*
X121778889Y-97216487D01*
X121498966Y-97301401D01*
X121240986Y-97439294D01*
X121014866Y-97624866D01*
X120829294Y-97850986D01*
X120777000Y-97948821D01*
X120777000Y-95634975D01*
X134414630Y-95634975D01*
X134490838Y-95882844D01*
X134752865Y-96007563D01*
X135034189Y-96078768D01*
X135323999Y-96093719D01*
X135611157Y-96051845D01*
X135884628Y-95954754D01*
X136019162Y-95882844D01*
X136095370Y-95634975D01*
X135255000Y-94794605D01*
X134414630Y-95634975D01*
X120777000Y-95634975D01*
X120777000Y-94123407D01*
X120825820Y-94149502D01*
X120945518Y-94185812D01*
X121070000Y-94198072D01*
X122770000Y-94198072D01*
X122894482Y-94185812D01*
X123014180Y-94149502D01*
X123124494Y-94090537D01*
X123221185Y-94011185D01*
X123246777Y-93980000D01*
X124388541Y-93980000D01*
X124414317Y-94241706D01*
X124490653Y-94493354D01*
X124614618Y-94725275D01*
X124781445Y-94928555D01*
X124984725Y-95095382D01*
X125216646Y-95219347D01*
X125468294Y-95295683D01*
X125664421Y-95315000D01*
X125795579Y-95315000D01*
X125991706Y-95295683D01*
X126243354Y-95219347D01*
X126475275Y-95095382D01*
X126678555Y-94928555D01*
X126700947Y-94901269D01*
X130068336Y-94901269D01*
X130127797Y-95135037D01*
X130366242Y-95245934D01*
X130621740Y-95308183D01*
X130884473Y-95319390D01*
X131144344Y-95279125D01*
X131391366Y-95188935D01*
X131492203Y-95135037D01*
X131551664Y-94901269D01*
X130810000Y-94159605D01*
X130068336Y-94901269D01*
X126700947Y-94901269D01*
X126845382Y-94725275D01*
X126969347Y-94493354D01*
X127045683Y-94241706D01*
X127064123Y-94054473D01*
X129470610Y-94054473D01*
X129510875Y-94314344D01*
X129601065Y-94561366D01*
X129654963Y-94662203D01*
X129888731Y-94721664D01*
X130630395Y-93980000D01*
X130989605Y-93980000D01*
X131731269Y-94721664D01*
X131965037Y-94662203D01*
X132075934Y-94423758D01*
X132135538Y-94179118D01*
X132205691Y-94284110D01*
X132410890Y-94489309D01*
X132652178Y-94650533D01*
X132920283Y-94761586D01*
X133204902Y-94818200D01*
X133495098Y-94818200D01*
X133779717Y-94761586D01*
X133787146Y-94758509D01*
X133818155Y-94971157D01*
X133915246Y-95244628D01*
X133987156Y-95379162D01*
X134235025Y-95455370D01*
X135075395Y-94615000D01*
X135434605Y-94615000D01*
X136274975Y-95455370D01*
X136522844Y-95379162D01*
X136647563Y-95117135D01*
X136718768Y-94835811D01*
X136733719Y-94546001D01*
X136691845Y-94258843D01*
X136594754Y-93985372D01*
X136522844Y-93850838D01*
X136274975Y-93774630D01*
X135434605Y-94615000D01*
X135075395Y-94615000D01*
X135061253Y-94600858D01*
X135240858Y-94421253D01*
X135255000Y-94435395D01*
X136095370Y-93595025D01*
X136019162Y-93347156D01*
X136009592Y-93342601D01*
X136194110Y-93219309D01*
X136399309Y-93014110D01*
X136560533Y-92772822D01*
X136671586Y-92504717D01*
X136728200Y-92220098D01*
X136728200Y-91929902D01*
X136671586Y-91645283D01*
X136560533Y-91377178D01*
X136399309Y-91135890D01*
X136194110Y-90930691D01*
X135952822Y-90769467D01*
X135684717Y-90658414D01*
X135400098Y-90601800D01*
X135109902Y-90601800D01*
X134825283Y-90658414D01*
X134557178Y-90769467D01*
X134315890Y-90930691D01*
X134110691Y-91135890D01*
X133949467Y-91377178D01*
X133838414Y-91645283D01*
X133781915Y-91929324D01*
X133779717Y-91928414D01*
X133495098Y-91871800D01*
X133204902Y-91871800D01*
X132920283Y-91928414D01*
X132652178Y-92039467D01*
X132410890Y-92200691D01*
X132205691Y-92405890D01*
X132044467Y-92647178D01*
X131933414Y-92915283D01*
X131876800Y-93199902D01*
X131876800Y-93275353D01*
X131731269Y-93238336D01*
X130989605Y-93980000D01*
X130630395Y-93980000D01*
X129888731Y-93238336D01*
X129654963Y-93297797D01*
X129544066Y-93536242D01*
X129481817Y-93791740D01*
X129470610Y-94054473D01*
X127064123Y-94054473D01*
X127071459Y-93980000D01*
X127045683Y-93718294D01*
X126969347Y-93466646D01*
X126845382Y-93234725D01*
X126700948Y-93058731D01*
X130068336Y-93058731D01*
X130810000Y-93800395D01*
X131551664Y-93058731D01*
X131492203Y-92824963D01*
X131253758Y-92714066D01*
X130998260Y-92651817D01*
X130735527Y-92640610D01*
X130475656Y-92680875D01*
X130228634Y-92771065D01*
X130127797Y-92824963D01*
X130068336Y-93058731D01*
X126700948Y-93058731D01*
X126678555Y-93031445D01*
X126475275Y-92864618D01*
X126243354Y-92740653D01*
X125991706Y-92664317D01*
X125795579Y-92645000D01*
X125664421Y-92645000D01*
X125468294Y-92664317D01*
X125216646Y-92740653D01*
X124984725Y-92864618D01*
X124781445Y-93031445D01*
X124614618Y-93234725D01*
X124490653Y-93466646D01*
X124414317Y-93718294D01*
X124388541Y-93980000D01*
X123246777Y-93980000D01*
X123300537Y-93914494D01*
X123359502Y-93804180D01*
X123395812Y-93684482D01*
X123408072Y-93560000D01*
X123408072Y-91860000D01*
X123395812Y-91735518D01*
X123359502Y-91615820D01*
X123300537Y-91505506D01*
X123221185Y-91408815D01*
X123124494Y-91329463D01*
X123014180Y-91270498D01*
X122894482Y-91234188D01*
X122770000Y-91221928D01*
X121070000Y-91221928D01*
X120945518Y-91234188D01*
X120825820Y-91270498D01*
X120777000Y-91296593D01*
X120777000Y-90170000D01*
X124388541Y-90170000D01*
X124414317Y-90431706D01*
X124490653Y-90683354D01*
X124614618Y-90915275D01*
X124781445Y-91118555D01*
X124984725Y-91285382D01*
X125216646Y-91409347D01*
X125468294Y-91485683D01*
X125664421Y-91505000D01*
X125795579Y-91505000D01*
X125991706Y-91485683D01*
X126243354Y-91409347D01*
X126475275Y-91285382D01*
X126678555Y-91118555D01*
X126845382Y-90915275D01*
X126969347Y-90683354D01*
X127045683Y-90431706D01*
X127071459Y-90170000D01*
X127058509Y-90038514D01*
X129475000Y-90038514D01*
X129475000Y-90301486D01*
X129526304Y-90559405D01*
X129626939Y-90802359D01*
X129773038Y-91021013D01*
X129958987Y-91206962D01*
X130177641Y-91353061D01*
X130420595Y-91453696D01*
X130678514Y-91505000D01*
X130941486Y-91505000D01*
X131199405Y-91453696D01*
X131442359Y-91353061D01*
X131661013Y-91206962D01*
X131846962Y-91021013D01*
X131993061Y-90802359D01*
X132093696Y-90559405D01*
X132145000Y-90301486D01*
X132145000Y-90038514D01*
X132093696Y-89780595D01*
X131993061Y-89537641D01*
X131846962Y-89318987D01*
X131661013Y-89133038D01*
X131442359Y-88986939D01*
X131232471Y-88900000D01*
X132876606Y-88900000D01*
X132910105Y-89240119D01*
X133009314Y-89567168D01*
X133170421Y-89868578D01*
X133387234Y-90132766D01*
X133651422Y-90349579D01*
X133952832Y-90510686D01*
X134279881Y-90609895D01*
X134534775Y-90635000D01*
X134705225Y-90635000D01*
X134960119Y-90609895D01*
X135287168Y-90510686D01*
X135588578Y-90349579D01*
X135852766Y-90132766D01*
X136069579Y-89868578D01*
X136230686Y-89567168D01*
X136329895Y-89240119D01*
X136363394Y-88900000D01*
X136329895Y-88559881D01*
X136230686Y-88232832D01*
X136069579Y-87931422D01*
X135852766Y-87667234D01*
X135588578Y-87450421D01*
X135287168Y-87289314D01*
X134960119Y-87190105D01*
X134705225Y-87165000D01*
X134534775Y-87165000D01*
X134279881Y-87190105D01*
X133952832Y-87289314D01*
X133651422Y-87450421D01*
X133387234Y-87667234D01*
X133170421Y-87931422D01*
X133009314Y-88232832D01*
X132910105Y-88559881D01*
X132876606Y-88900000D01*
X131232471Y-88900000D01*
X131199405Y-88886304D01*
X130941486Y-88835000D01*
X130678514Y-88835000D01*
X130420595Y-88886304D01*
X130177641Y-88986939D01*
X129958987Y-89133038D01*
X129773038Y-89318987D01*
X129626939Y-89537641D01*
X129526304Y-89780595D01*
X129475000Y-90038514D01*
X127058509Y-90038514D01*
X127045683Y-89908294D01*
X126969347Y-89656646D01*
X126845382Y-89424725D01*
X126678555Y-89221445D01*
X126475275Y-89054618D01*
X126243354Y-88930653D01*
X125991706Y-88854317D01*
X125795579Y-88835000D01*
X125664421Y-88835000D01*
X125468294Y-88854317D01*
X125216646Y-88930653D01*
X124984725Y-89054618D01*
X124781445Y-89221445D01*
X124614618Y-89424725D01*
X124490653Y-89656646D01*
X124414317Y-89908294D01*
X124388541Y-90170000D01*
X120777000Y-90170000D01*
X120777000Y-87308069D01*
X120864866Y-87415134D01*
X121090986Y-87600706D01*
X121348966Y-87738599D01*
X121628889Y-87823513D01*
X121847050Y-87845000D01*
X121992950Y-87845000D01*
X122211111Y-87823513D01*
X122491034Y-87738599D01*
X122749014Y-87600706D01*
X122975134Y-87415134D01*
X123160706Y-87189014D01*
X123298599Y-86931034D01*
X123383513Y-86651111D01*
X123412185Y-86360000D01*
X123383513Y-86068889D01*
X123298599Y-85788966D01*
X123160706Y-85530986D01*
X122975134Y-85304866D01*
X122945313Y-85280393D01*
X123014180Y-85259502D01*
X123124494Y-85200537D01*
X123221185Y-85121185D01*
X123300537Y-85024494D01*
X123359502Y-84914180D01*
X123395812Y-84794482D01*
X123408072Y-84670000D01*
X123408072Y-82970000D01*
X123395812Y-82845518D01*
X123359502Y-82725820D01*
X123300537Y-82615506D01*
X123221185Y-82518815D01*
X123124494Y-82439463D01*
X123014180Y-82380498D01*
X122894482Y-82344188D01*
X122770000Y-82331928D01*
X121070000Y-82331928D01*
X120945518Y-82344188D01*
X120825820Y-82380498D01*
X120777000Y-82406593D01*
X120777000Y-80153407D01*
X120825820Y-80179502D01*
X120945518Y-80215812D01*
X121070000Y-80228072D01*
X122770000Y-80228072D01*
X122894482Y-80215812D01*
X123014180Y-80179502D01*
X123124494Y-80120537D01*
X123221185Y-80041185D01*
X123300537Y-79944494D01*
X123359502Y-79834180D01*
X123395812Y-79714482D01*
X123408072Y-79590000D01*
X123408072Y-77890000D01*
X123395812Y-77765518D01*
X123359502Y-77645820D01*
X123333407Y-77597000D01*
X125036394Y-77597000D01*
X124984725Y-77624618D01*
X124984725Y-77624618D01*
G37*
X124984725Y-77624618D02*
X124781445Y-77791445D01*
X124614618Y-77994725D01*
X124490653Y-78226646D01*
X124414317Y-78478294D01*
X124388541Y-78740000D01*
X124414317Y-79001706D01*
X124490653Y-79253354D01*
X124614618Y-79485275D01*
X124781445Y-79688555D01*
X124984725Y-79855382D01*
X125216646Y-79979347D01*
X125468294Y-80055683D01*
X125664421Y-80075000D01*
X125795579Y-80075000D01*
X125991706Y-80055683D01*
X126243354Y-79979347D01*
X126475275Y-79855382D01*
X126678555Y-79688555D01*
X126845382Y-79485275D01*
X126969347Y-79253354D01*
X127045683Y-79001706D01*
X127071459Y-78740000D01*
X127045683Y-78478294D01*
X126969347Y-78226646D01*
X126845382Y-77994725D01*
X126678555Y-77791445D01*
X126475275Y-77624618D01*
X126423606Y-77597000D01*
X130117685Y-77597000D01*
X129958987Y-77703038D01*
X129773038Y-77888987D01*
X129626939Y-78107641D01*
X129526304Y-78350595D01*
X129475000Y-78608514D01*
X129475000Y-78871486D01*
X129526304Y-79129405D01*
X129626939Y-79372359D01*
X129773038Y-79591013D01*
X129958987Y-79776962D01*
X130177641Y-79923061D01*
X130420595Y-80023696D01*
X130678514Y-80075000D01*
X130941486Y-80075000D01*
X131199405Y-80023696D01*
X131442359Y-79923061D01*
X131661013Y-79776962D01*
X131846962Y-79591013D01*
X131993061Y-79372359D01*
X132093696Y-79129405D01*
X132145000Y-78871486D01*
X132145000Y-78608514D01*
X132093696Y-78350595D01*
X131993061Y-78107641D01*
X131846962Y-77888987D01*
X131661013Y-77703038D01*
X131502315Y-77597000D01*
X132886163Y-77597000D01*
X132881928Y-77640000D01*
X132881928Y-79840000D01*
X132894188Y-79964482D01*
X132930498Y-80084180D01*
X132989463Y-80194494D01*
X133068815Y-80291185D01*
X133165506Y-80370537D01*
X133275820Y-80429502D01*
X133395518Y-80465812D01*
X133520000Y-80478072D01*
X135720000Y-80478072D01*
X135844482Y-80465812D01*
X135964180Y-80429502D01*
X136074494Y-80370537D01*
X136171185Y-80291185D01*
X136250537Y-80194494D01*
X136309502Y-80084180D01*
X136345812Y-79964482D01*
X136358072Y-79840000D01*
X136358072Y-77640000D01*
X136353837Y-77597000D01*
X137107394Y-77597000D01*
X138303000Y-78792606D01*
X138303000Y-112977394D01*
X137107394Y-114173000D01*
X120777000Y-114173000D01*
X120777000Y-113695694D01*
X120793463Y-113726494D01*
X120872815Y-113823185D01*
X120969506Y-113902537D01*
X121079820Y-113961502D01*
X121199518Y-113997812D01*
X121324000Y-114010072D01*
X121888250Y-114007000D01*
X122047000Y-113848250D01*
X122047000Y-112649000D01*
X122301000Y-112649000D01*
X122301000Y-113848250D01*
X122459750Y-114007000D01*
X123024000Y-114010072D01*
X123148482Y-113997812D01*
X123268180Y-113961502D01*
X123378494Y-113902537D01*
X123475185Y-113823185D01*
X123554537Y-113726494D01*
X123613502Y-113616180D01*
X123649812Y-113496482D01*
X123662072Y-113372000D01*
X123659000Y-112807750D01*
X123500250Y-112649000D01*
X122301000Y-112649000D01*
X122047000Y-112649000D01*
X122027000Y-112649000D01*
X122027000Y-112395000D01*
X122047000Y-112395000D01*
X122047000Y-111195750D01*
X122301000Y-111195750D01*
X122301000Y-112395000D01*
X123500250Y-112395000D01*
X123659000Y-112236250D01*
X123662072Y-111672000D01*
X123649812Y-111547518D01*
X123613502Y-111427820D01*
X123554537Y-111317506D01*
X123475185Y-111220815D01*
X123378494Y-111141463D01*
X123268180Y-111082498D01*
X123148482Y-111046188D01*
X123024000Y-111033928D01*
X122459750Y-111037000D01*
X122301000Y-111195750D01*
X122047000Y-111195750D01*
X121888250Y-111037000D01*
X121324000Y-111033928D01*
X121199518Y-111046188D01*
X121079820Y-111082498D01*
X120969506Y-111141463D01*
X120872815Y-111220815D01*
X120793463Y-111317506D01*
X120777000Y-111348306D01*
X120777000Y-109001178D01*
X120789463Y-109024494D01*
X120868815Y-109121185D01*
X120965506Y-109200537D01*
X121075820Y-109259502D01*
X121195518Y-109295812D01*
X121320000Y-109308072D01*
X123020000Y-109308072D01*
X123144482Y-109295812D01*
X123264180Y-109259502D01*
X123374494Y-109200537D01*
X123471185Y-109121185D01*
X123550537Y-109024494D01*
X123609502Y-108914180D01*
X123645812Y-108794482D01*
X123655117Y-108700000D01*
X125528541Y-108700000D01*
X125554317Y-108961706D01*
X125630653Y-109213354D01*
X125754618Y-109445275D01*
X125921445Y-109648555D01*
X126124725Y-109815382D01*
X126356646Y-109939347D01*
X126608294Y-110015683D01*
X126804421Y-110035000D01*
X126935579Y-110035000D01*
X127131706Y-110015683D01*
X127383354Y-109939347D01*
X127615275Y-109815382D01*
X127818555Y-109648555D01*
X127985382Y-109445275D01*
X128109347Y-109213354D01*
X128185683Y-108961706D01*
X128211459Y-108700000D01*
X128193731Y-108520000D01*
X129248541Y-108520000D01*
X129274317Y-108781706D01*
X129350653Y-109033354D01*
X129474618Y-109265275D01*
X129641445Y-109468555D01*
X129844725Y-109635382D01*
X130076646Y-109759347D01*
X130328294Y-109835683D01*
X130524421Y-109855000D01*
X130655579Y-109855000D01*
X130851706Y-109835683D01*
X131103354Y-109759347D01*
X131335275Y-109635382D01*
X131538555Y-109468555D01*
X131560947Y-109441269D01*
X134928336Y-109441269D01*
X134987797Y-109675037D01*
X135226242Y-109785934D01*
X135481740Y-109848183D01*
X135744473Y-109859390D01*
X136004344Y-109819125D01*
X136251366Y-109728935D01*
X136352203Y-109675037D01*
X136411664Y-109441269D01*
X135670000Y-108699605D01*
X134928336Y-109441269D01*
X131560947Y-109441269D01*
X131705382Y-109265275D01*
X131829347Y-109033354D01*
X131905683Y-108781706D01*
X131924123Y-108594473D01*
X134330610Y-108594473D01*
X134370875Y-108854344D01*
X134461065Y-109101366D01*
X134514963Y-109202203D01*
X134748731Y-109261664D01*
X135490395Y-108520000D01*
X135849605Y-108520000D01*
X136591269Y-109261664D01*
X136825037Y-109202203D01*
X136935934Y-108963758D01*
X136998183Y-108708260D01*
X137009390Y-108445527D01*
X136969125Y-108185656D01*
X136878935Y-107938634D01*
X136825037Y-107837797D01*
X136591269Y-107778336D01*
X135849605Y-108520000D01*
X135490395Y-108520000D01*
X134748731Y-107778336D01*
X134514963Y-107837797D01*
X134404066Y-108076242D01*
X134341817Y-108331740D01*
X134330610Y-108594473D01*
X131924123Y-108594473D01*
X131931459Y-108520000D01*
X131905683Y-108258294D01*
X131829347Y-108006646D01*
X131705382Y-107774725D01*
X131560948Y-107598731D01*
X134928336Y-107598731D01*
X135670000Y-108340395D01*
X136411664Y-107598731D01*
X136352203Y-107364963D01*
X136113758Y-107254066D01*
X135858260Y-107191817D01*
X135595527Y-107180610D01*
X135335656Y-107220875D01*
X135088634Y-107311065D01*
X134987797Y-107364963D01*
X134928336Y-107598731D01*
X131560948Y-107598731D01*
X131538555Y-107571445D01*
X131335275Y-107404618D01*
X131103354Y-107280653D01*
X130851706Y-107204317D01*
X130655579Y-107185000D01*
X130524421Y-107185000D01*
X130328294Y-107204317D01*
X130076646Y-107280653D01*
X129844725Y-107404618D01*
X129641445Y-107571445D01*
X129474618Y-107774725D01*
X129350653Y-108006646D01*
X129274317Y-108258294D01*
X129248541Y-108520000D01*
X128193731Y-108520000D01*
X128185683Y-108438294D01*
X128109347Y-108186646D01*
X127985382Y-107954725D01*
X127818555Y-107751445D01*
X127615275Y-107584618D01*
X127383354Y-107460653D01*
X127131706Y-107384317D01*
X126935579Y-107365000D01*
X126804421Y-107365000D01*
X126608294Y-107384317D01*
X126356646Y-107460653D01*
X126124725Y-107584618D01*
X125921445Y-107751445D01*
X125754618Y-107954725D01*
X125630653Y-108186646D01*
X125554317Y-108438294D01*
X125528541Y-108700000D01*
X123655117Y-108700000D01*
X123658072Y-108670000D01*
X123658072Y-106970000D01*
X123645812Y-106845518D01*
X123609502Y-106725820D01*
X123550537Y-106615506D01*
X123471185Y-106518815D01*
X123374494Y-106439463D01*
X123264180Y-106380498D01*
X123144482Y-106344188D01*
X123020000Y-106331928D01*
X121320000Y-106331928D01*
X121195518Y-106344188D01*
X121075820Y-106380498D01*
X120965506Y-106439463D01*
X120868815Y-106518815D01*
X120789463Y-106615506D01*
X120777000Y-106638822D01*
X120777000Y-105159975D01*
X134414630Y-105159975D01*
X134490838Y-105407844D01*
X134752865Y-105532563D01*
X135034189Y-105603768D01*
X135323999Y-105618719D01*
X135611157Y-105576845D01*
X135884628Y-105479754D01*
X136019162Y-105407844D01*
X136095370Y-105159975D01*
X135255000Y-104319605D01*
X134414630Y-105159975D01*
X120777000Y-105159975D01*
X120777000Y-103488514D01*
X125535000Y-103488514D01*
X125535000Y-103751486D01*
X125586304Y-104009405D01*
X125686939Y-104252359D01*
X125833038Y-104471013D01*
X126018987Y-104656962D01*
X126237641Y-104803061D01*
X126480595Y-104903696D01*
X126738514Y-104955000D01*
X127001486Y-104955000D01*
X127259405Y-104903696D01*
X127502359Y-104803061D01*
X127721013Y-104656962D01*
X127906962Y-104471013D01*
X128053061Y-104252359D01*
X128153696Y-104009405D01*
X128205000Y-103751486D01*
X128205000Y-103488514D01*
X128153696Y-103230595D01*
X128053061Y-102987641D01*
X127906962Y-102768987D01*
X127862877Y-102724902D01*
X131876800Y-102724902D01*
X131876800Y-103015098D01*
X131933414Y-103299717D01*
X132044467Y-103567822D01*
X132205691Y-103809110D01*
X132410890Y-104014309D01*
X132652178Y-104175533D01*
X132920283Y-104286586D01*
X133204902Y-104343200D01*
X133495098Y-104343200D01*
X133779717Y-104286586D01*
X133787146Y-104283509D01*
X133818155Y-104496157D01*
X133915246Y-104769628D01*
X133987156Y-104904162D01*
X134235025Y-104980370D01*
X135075395Y-104140000D01*
X135434605Y-104140000D01*
X136274975Y-104980370D01*
X136522844Y-104904162D01*
X136647563Y-104642135D01*
X136718768Y-104360811D01*
X136733719Y-104071001D01*
X136691845Y-103783843D01*
X136594754Y-103510372D01*
X136522844Y-103375838D01*
X136274975Y-103299630D01*
X135434605Y-104140000D01*
X135075395Y-104140000D01*
X135061253Y-104125858D01*
X135240858Y-103946253D01*
X135255000Y-103960395D01*
X136095370Y-103120025D01*
X136019162Y-102872156D01*
X136009592Y-102867601D01*
X136194110Y-102744309D01*
X136399309Y-102539110D01*
X136560533Y-102297822D01*
X136671586Y-102029717D01*
X136728200Y-101745098D01*
X136728200Y-101454902D01*
X136671586Y-101170283D01*
X136560533Y-100902178D01*
X136399309Y-100660890D01*
X136194110Y-100455691D01*
X135952822Y-100294467D01*
X135684717Y-100183414D01*
X135400098Y-100126800D01*
X135109902Y-100126800D01*
X134825283Y-100183414D01*
X134557178Y-100294467D01*
X134315890Y-100455691D01*
X134110691Y-100660890D01*
X133949467Y-100902178D01*
X133838414Y-101170283D01*
X133781915Y-101454324D01*
X133779717Y-101453414D01*
X133495098Y-101396800D01*
X133204902Y-101396800D01*
X132920283Y-101453414D01*
X132652178Y-101564467D01*
X132410890Y-101725691D01*
X132205691Y-101930890D01*
X132044467Y-102172178D01*
X131933414Y-102440283D01*
X131876800Y-102724902D01*
X127862877Y-102724902D01*
X127721013Y-102583038D01*
X127502359Y-102436939D01*
X127259405Y-102336304D01*
X127001486Y-102285000D01*
X126738514Y-102285000D01*
X126480595Y-102336304D01*
X126237641Y-102436939D01*
X126018987Y-102583038D01*
X125833038Y-102768987D01*
X125686939Y-102987641D01*
X125586304Y-103230595D01*
X125535000Y-103488514D01*
X120777000Y-103488514D01*
X120777000Y-102527902D01*
X120865506Y-102600537D01*
X120975820Y-102659502D01*
X121095518Y-102695812D01*
X121220000Y-102708072D01*
X122920000Y-102708072D01*
X123044482Y-102695812D01*
X123164180Y-102659502D01*
X123274494Y-102600537D01*
X123371185Y-102521185D01*
X123450537Y-102424494D01*
X123509502Y-102314180D01*
X123545812Y-102194482D01*
X123558072Y-102070000D01*
X123558072Y-100370000D01*
X123545812Y-100245518D01*
X123509502Y-100125820D01*
X123450537Y-100015506D01*
X123371185Y-99918815D01*
X123274494Y-99839463D01*
X123164180Y-99780498D01*
X123095313Y-99759607D01*
X123125134Y-99735134D01*
X123310706Y-99509014D01*
X123448599Y-99251034D01*
X123533513Y-98971111D01*
X123562185Y-98680000D01*
X123533513Y-98388889D01*
X123533400Y-98388514D01*
X127135000Y-98388514D01*
X127135000Y-98651486D01*
X127186304Y-98909405D01*
X127286939Y-99152359D01*
X127433038Y-99371013D01*
X127618987Y-99556962D01*
X127837641Y-99703061D01*
X128080595Y-99803696D01*
X128338514Y-99855000D01*
X128601486Y-99855000D01*
X128859405Y-99803696D01*
X129102359Y-99703061D01*
X129321013Y-99556962D01*
X129506962Y-99371013D01*
X129653061Y-99152359D01*
X129753696Y-98909405D01*
X129805000Y-98651486D01*
X129805000Y-98520000D01*
X132208541Y-98520000D01*
X132234317Y-98781706D01*
X132310653Y-99033354D01*
X132434618Y-99265275D01*
X132601445Y-99468555D01*
X132804725Y-99635382D01*
X133036646Y-99759347D01*
X133288294Y-99835683D01*
X133484421Y-99855000D01*
X133615579Y-99855000D01*
X133811706Y-99835683D01*
X134063354Y-99759347D01*
X134295275Y-99635382D01*
X134498555Y-99468555D01*
X134665382Y-99265275D01*
X134789347Y-99033354D01*
X134865683Y-98781706D01*
X134891459Y-98520000D01*
X134865683Y-98258294D01*
X134789347Y-98006646D01*
X134665382Y-97774725D01*
X134498555Y-97571445D01*
X134295275Y-97404618D01*
X134063354Y-97280653D01*
X133811706Y-97204317D01*
X133615579Y-97185000D01*
X133484421Y-97185000D01*
X133288294Y-97204317D01*
X133036646Y-97280653D01*
X132804725Y-97404618D01*
X132601445Y-97571445D01*
X132434618Y-97774725D01*
X132310653Y-98006646D01*
X132234317Y-98258294D01*
X132208541Y-98520000D01*
X129805000Y-98520000D01*
X129805000Y-98388514D01*
X129753696Y-98130595D01*
X129653061Y-97887641D01*
X129506962Y-97668987D01*
X129321013Y-97483038D01*
X129102359Y-97336939D01*
X128859405Y-97236304D01*
X128601486Y-97185000D01*
X128338514Y-97185000D01*
X128080595Y-97236304D01*
X127837641Y-97336939D01*
X127618987Y-97483038D01*
X127433038Y-97668987D01*
X127286939Y-97887641D01*
X127186304Y-98130595D01*
X127135000Y-98388514D01*
X123533400Y-98388514D01*
X123448599Y-98108966D01*
X123310706Y-97850986D01*
X123125134Y-97624866D01*
X122899014Y-97439294D01*
X122641034Y-97301401D01*
X122361111Y-97216487D01*
X122142950Y-97195000D01*
X121997050Y-97195000D01*
X121778889Y-97216487D01*
X121498966Y-97301401D01*
X121240986Y-97439294D01*
X121014866Y-97624866D01*
X120829294Y-97850986D01*
X120777000Y-97948821D01*
X120777000Y-95634975D01*
X134414630Y-95634975D01*
X134490838Y-95882844D01*
X134752865Y-96007563D01*
X135034189Y-96078768D01*
X135323999Y-96093719D01*
X135611157Y-96051845D01*
X135884628Y-95954754D01*
X136019162Y-95882844D01*
X136095370Y-95634975D01*
X135255000Y-94794605D01*
X134414630Y-95634975D01*
X120777000Y-95634975D01*
X120777000Y-94123407D01*
X120825820Y-94149502D01*
X120945518Y-94185812D01*
X121070000Y-94198072D01*
X122770000Y-94198072D01*
X122894482Y-94185812D01*
X123014180Y-94149502D01*
X123124494Y-94090537D01*
X123221185Y-94011185D01*
X123246777Y-93980000D01*
X124388541Y-93980000D01*
X124414317Y-94241706D01*
X124490653Y-94493354D01*
X124614618Y-94725275D01*
X124781445Y-94928555D01*
X124984725Y-95095382D01*
X125216646Y-95219347D01*
X125468294Y-95295683D01*
X125664421Y-95315000D01*
X125795579Y-95315000D01*
X125991706Y-95295683D01*
X126243354Y-95219347D01*
X126475275Y-95095382D01*
X126678555Y-94928555D01*
X126700947Y-94901269D01*
X130068336Y-94901269D01*
X130127797Y-95135037D01*
X130366242Y-95245934D01*
X130621740Y-95308183D01*
X130884473Y-95319390D01*
X131144344Y-95279125D01*
X131391366Y-95188935D01*
X131492203Y-95135037D01*
X131551664Y-94901269D01*
X130810000Y-94159605D01*
X130068336Y-94901269D01*
X126700947Y-94901269D01*
X126845382Y-94725275D01*
X126969347Y-94493354D01*
X127045683Y-94241706D01*
X127064123Y-94054473D01*
X129470610Y-94054473D01*
X129510875Y-94314344D01*
X129601065Y-94561366D01*
X129654963Y-94662203D01*
X129888731Y-94721664D01*
X130630395Y-93980000D01*
X130989605Y-93980000D01*
X131731269Y-94721664D01*
X131965037Y-94662203D01*
X132075934Y-94423758D01*
X132135538Y-94179118D01*
X132205691Y-94284110D01*
X132410890Y-94489309D01*
X132652178Y-94650533D01*
X132920283Y-94761586D01*
X133204902Y-94818200D01*
X133495098Y-94818200D01*
X133779717Y-94761586D01*
X133787146Y-94758509D01*
X133818155Y-94971157D01*
X133915246Y-95244628D01*
X133987156Y-95379162D01*
X134235025Y-95455370D01*
X135075395Y-94615000D01*
X135434605Y-94615000D01*
X136274975Y-95455370D01*
X136522844Y-95379162D01*
X136647563Y-95117135D01*
X136718768Y-94835811D01*
X136733719Y-94546001D01*
X136691845Y-94258843D01*
X136594754Y-93985372D01*
X136522844Y-93850838D01*
X136274975Y-93774630D01*
X135434605Y-94615000D01*
X135075395Y-94615000D01*
X135061253Y-94600858D01*
X135240858Y-94421253D01*
X135255000Y-94435395D01*
X136095370Y-93595025D01*
X136019162Y-93347156D01*
X136009592Y-93342601D01*
X136194110Y-93219309D01*
X136399309Y-93014110D01*
X136560533Y-92772822D01*
X136671586Y-92504717D01*
X136728200Y-92220098D01*
X136728200Y-91929902D01*
X136671586Y-91645283D01*
X136560533Y-91377178D01*
X136399309Y-91135890D01*
X136194110Y-90930691D01*
X135952822Y-90769467D01*
X135684717Y-90658414D01*
X135400098Y-90601800D01*
X135109902Y-90601800D01*
X134825283Y-90658414D01*
X134557178Y-90769467D01*
X134315890Y-90930691D01*
X134110691Y-91135890D01*
X133949467Y-91377178D01*
X133838414Y-91645283D01*
X133781915Y-91929324D01*
X133779717Y-91928414D01*
X133495098Y-91871800D01*
X133204902Y-91871800D01*
X132920283Y-91928414D01*
X132652178Y-92039467D01*
X132410890Y-92200691D01*
X132205691Y-92405890D01*
X132044467Y-92647178D01*
X131933414Y-92915283D01*
X131876800Y-93199902D01*
X131876800Y-93275353D01*
X131731269Y-93238336D01*
X130989605Y-93980000D01*
X130630395Y-93980000D01*
X129888731Y-93238336D01*
X129654963Y-93297797D01*
X129544066Y-93536242D01*
X129481817Y-93791740D01*
X129470610Y-94054473D01*
X127064123Y-94054473D01*
X127071459Y-93980000D01*
X127045683Y-93718294D01*
X126969347Y-93466646D01*
X126845382Y-93234725D01*
X126700948Y-93058731D01*
X130068336Y-93058731D01*
X130810000Y-93800395D01*
X131551664Y-93058731D01*
X131492203Y-92824963D01*
X131253758Y-92714066D01*
X130998260Y-92651817D01*
X130735527Y-92640610D01*
X130475656Y-92680875D01*
X130228634Y-92771065D01*
X130127797Y-92824963D01*
X130068336Y-93058731D01*
X126700948Y-93058731D01*
X126678555Y-93031445D01*
X126475275Y-92864618D01*
X126243354Y-92740653D01*
X125991706Y-92664317D01*
X125795579Y-92645000D01*
X125664421Y-92645000D01*
X125468294Y-92664317D01*
X125216646Y-92740653D01*
X124984725Y-92864618D01*
X124781445Y-93031445D01*
X124614618Y-93234725D01*
X124490653Y-93466646D01*
X124414317Y-93718294D01*
X124388541Y-93980000D01*
X123246777Y-93980000D01*
X123300537Y-93914494D01*
X123359502Y-93804180D01*
X123395812Y-93684482D01*
X123408072Y-93560000D01*
X123408072Y-91860000D01*
X123395812Y-91735518D01*
X123359502Y-91615820D01*
X123300537Y-91505506D01*
X123221185Y-91408815D01*
X123124494Y-91329463D01*
X123014180Y-91270498D01*
X122894482Y-91234188D01*
X122770000Y-91221928D01*
X121070000Y-91221928D01*
X120945518Y-91234188D01*
X120825820Y-91270498D01*
X120777000Y-91296593D01*
X120777000Y-90170000D01*
X124388541Y-90170000D01*
X124414317Y-90431706D01*
X124490653Y-90683354D01*
X124614618Y-90915275D01*
X124781445Y-91118555D01*
X124984725Y-91285382D01*
X125216646Y-91409347D01*
X125468294Y-91485683D01*
X125664421Y-91505000D01*
X125795579Y-91505000D01*
X125991706Y-91485683D01*
X126243354Y-91409347D01*
X126475275Y-91285382D01*
X126678555Y-91118555D01*
X126845382Y-90915275D01*
X126969347Y-90683354D01*
X127045683Y-90431706D01*
X127071459Y-90170000D01*
X127058509Y-90038514D01*
X129475000Y-90038514D01*
X129475000Y-90301486D01*
X129526304Y-90559405D01*
X129626939Y-90802359D01*
X129773038Y-91021013D01*
X129958987Y-91206962D01*
X130177641Y-91353061D01*
X130420595Y-91453696D01*
X130678514Y-91505000D01*
X130941486Y-91505000D01*
X131199405Y-91453696D01*
X131442359Y-91353061D01*
X131661013Y-91206962D01*
X131846962Y-91021013D01*
X131993061Y-90802359D01*
X132093696Y-90559405D01*
X132145000Y-90301486D01*
X132145000Y-90038514D01*
X132093696Y-89780595D01*
X131993061Y-89537641D01*
X131846962Y-89318987D01*
X131661013Y-89133038D01*
X131442359Y-88986939D01*
X131232471Y-88900000D01*
X132876606Y-88900000D01*
X132910105Y-89240119D01*
X133009314Y-89567168D01*
X133170421Y-89868578D01*
X133387234Y-90132766D01*
X133651422Y-90349579D01*
X133952832Y-90510686D01*
X134279881Y-90609895D01*
X134534775Y-90635000D01*
X134705225Y-90635000D01*
X134960119Y-90609895D01*
X135287168Y-90510686D01*
X135588578Y-90349579D01*
X135852766Y-90132766D01*
X136069579Y-89868578D01*
X136230686Y-89567168D01*
X136329895Y-89240119D01*
X136363394Y-88900000D01*
X136329895Y-88559881D01*
X136230686Y-88232832D01*
X136069579Y-87931422D01*
X135852766Y-87667234D01*
X135588578Y-87450421D01*
X135287168Y-87289314D01*
X134960119Y-87190105D01*
X134705225Y-87165000D01*
X134534775Y-87165000D01*
X134279881Y-87190105D01*
X133952832Y-87289314D01*
X133651422Y-87450421D01*
X133387234Y-87667234D01*
X133170421Y-87931422D01*
X133009314Y-88232832D01*
X132910105Y-88559881D01*
X132876606Y-88900000D01*
X131232471Y-88900000D01*
X131199405Y-88886304D01*
X130941486Y-88835000D01*
X130678514Y-88835000D01*
X130420595Y-88886304D01*
X130177641Y-88986939D01*
X129958987Y-89133038D01*
X129773038Y-89318987D01*
X129626939Y-89537641D01*
X129526304Y-89780595D01*
X129475000Y-90038514D01*
X127058509Y-90038514D01*
X127045683Y-89908294D01*
X126969347Y-89656646D01*
X126845382Y-89424725D01*
X126678555Y-89221445D01*
X126475275Y-89054618D01*
X126243354Y-88930653D01*
X125991706Y-88854317D01*
X125795579Y-88835000D01*
X125664421Y-88835000D01*
X125468294Y-88854317D01*
X125216646Y-88930653D01*
X124984725Y-89054618D01*
X124781445Y-89221445D01*
X124614618Y-89424725D01*
X124490653Y-89656646D01*
X124414317Y-89908294D01*
X124388541Y-90170000D01*
X120777000Y-90170000D01*
X120777000Y-87308069D01*
X120864866Y-87415134D01*
X121090986Y-87600706D01*
X121348966Y-87738599D01*
X121628889Y-87823513D01*
X121847050Y-87845000D01*
X121992950Y-87845000D01*
X122211111Y-87823513D01*
X122491034Y-87738599D01*
X122749014Y-87600706D01*
X122975134Y-87415134D01*
X123160706Y-87189014D01*
X123298599Y-86931034D01*
X123383513Y-86651111D01*
X123412185Y-86360000D01*
X123383513Y-86068889D01*
X123298599Y-85788966D01*
X123160706Y-85530986D01*
X122975134Y-85304866D01*
X122945313Y-85280393D01*
X123014180Y-85259502D01*
X123124494Y-85200537D01*
X123221185Y-85121185D01*
X123300537Y-85024494D01*
X123359502Y-84914180D01*
X123395812Y-84794482D01*
X123408072Y-84670000D01*
X123408072Y-82970000D01*
X123395812Y-82845518D01*
X123359502Y-82725820D01*
X123300537Y-82615506D01*
X123221185Y-82518815D01*
X123124494Y-82439463D01*
X123014180Y-82380498D01*
X122894482Y-82344188D01*
X122770000Y-82331928D01*
X121070000Y-82331928D01*
X120945518Y-82344188D01*
X120825820Y-82380498D01*
X120777000Y-82406593D01*
X120777000Y-80153407D01*
X120825820Y-80179502D01*
X120945518Y-80215812D01*
X121070000Y-80228072D01*
X122770000Y-80228072D01*
X122894482Y-80215812D01*
X123014180Y-80179502D01*
X123124494Y-80120537D01*
X123221185Y-80041185D01*
X123300537Y-79944494D01*
X123359502Y-79834180D01*
X123395812Y-79714482D01*
X123408072Y-79590000D01*
X123408072Y-77890000D01*
X123395812Y-77765518D01*
X123359502Y-77645820D01*
X123333407Y-77597000D01*
X125036394Y-77597000D01*
X124984725Y-77624618D01*
M02*
