G04 #@! TF.GenerationSoftware,KiCad,Pcbnew,(5.1.2)-2*
G04 #@! TF.CreationDate,2019-08-05T00:07:49-07:00*
G04 #@! TF.ProjectId,Pi LED and FAN,5069204c-4544-4206-916e-642046414e2e,rev?*
G04 #@! TF.SameCoordinates,Original*
G04 #@! TF.FileFunction,Soldermask,Bot*
G04 #@! TF.FilePolarity,Negative*
%FSLAX46Y46*%
G04 Gerber Fmt 4.6, Leading zero omitted, Abs format (unit mm)*
G04 Created by KiCad (PCBNEW (5.1.2)-2) date 2019-08-05 00:07:49*
%MOMM*%
%LPD*%
G04 APERTURE LIST*
%ADD10C,0.100000*%
G04 APERTURE END LIST*
D10*
G36*
X123075000Y-113423000D02*
G01*
X121273000Y-113423000D01*
X121273000Y-111621000D01*
X123075000Y-111621000D01*
X123075000Y-113423000D01*
X123075000Y-113423000D01*
G37*
G36*
X126943665Y-107952622D02*
G01*
X127017222Y-107959867D01*
X127158786Y-108002810D01*
X127289252Y-108072546D01*
X127319040Y-108096992D01*
X127403607Y-108166393D01*
X127473008Y-108250960D01*
X127497454Y-108280748D01*
X127567190Y-108411214D01*
X127610133Y-108552778D01*
X127624633Y-108700000D01*
X127610133Y-108847222D01*
X127567190Y-108988786D01*
X127497454Y-109119252D01*
X127474309Y-109147454D01*
X127403607Y-109233607D01*
X127319040Y-109303008D01*
X127289252Y-109327454D01*
X127158786Y-109397190D01*
X127017222Y-109440133D01*
X126943665Y-109447378D01*
X126906888Y-109451000D01*
X126833112Y-109451000D01*
X126796335Y-109447378D01*
X126722778Y-109440133D01*
X126581214Y-109397190D01*
X126450748Y-109327454D01*
X126420960Y-109303008D01*
X126336393Y-109233607D01*
X126265691Y-109147454D01*
X126242546Y-109119252D01*
X126172810Y-108988786D01*
X126129867Y-108847222D01*
X126115367Y-108700000D01*
X126129867Y-108552778D01*
X126172810Y-108411214D01*
X126242546Y-108280748D01*
X126266992Y-108250960D01*
X126336393Y-108166393D01*
X126420960Y-108096992D01*
X126450748Y-108072546D01*
X126581214Y-108002810D01*
X126722778Y-107959867D01*
X126796335Y-107952622D01*
X126833112Y-107949000D01*
X126906888Y-107949000D01*
X126943665Y-107952622D01*
X126943665Y-107952622D01*
G37*
G36*
X135889059Y-107797860D02*
G01*
X135949294Y-107822810D01*
X136025732Y-107854472D01*
X136148735Y-107936660D01*
X136253340Y-108041265D01*
X136335528Y-108164268D01*
X136392140Y-108300941D01*
X136421000Y-108446033D01*
X136421000Y-108593967D01*
X136392140Y-108739059D01*
X136335528Y-108875732D01*
X136253340Y-108998735D01*
X136148735Y-109103340D01*
X136025732Y-109185528D01*
X136025731Y-109185529D01*
X136025730Y-109185529D01*
X135889059Y-109242140D01*
X135743968Y-109271000D01*
X135596032Y-109271000D01*
X135450941Y-109242140D01*
X135314270Y-109185529D01*
X135314269Y-109185529D01*
X135314268Y-109185528D01*
X135191265Y-109103340D01*
X135086660Y-108998735D01*
X135004472Y-108875732D01*
X134947860Y-108739059D01*
X134919000Y-108593967D01*
X134919000Y-108446033D01*
X134947860Y-108300941D01*
X135004472Y-108164268D01*
X135086660Y-108041265D01*
X135191265Y-107936660D01*
X135314268Y-107854472D01*
X135390707Y-107822810D01*
X135450941Y-107797860D01*
X135596032Y-107769000D01*
X135743968Y-107769000D01*
X135889059Y-107797860D01*
X135889059Y-107797860D01*
G37*
G36*
X130663665Y-107772622D02*
G01*
X130737222Y-107779867D01*
X130878786Y-107822810D01*
X131009252Y-107892546D01*
X131039040Y-107916992D01*
X131123607Y-107986393D01*
X131193008Y-108070960D01*
X131217454Y-108100748D01*
X131287190Y-108231214D01*
X131330133Y-108372778D01*
X131344633Y-108520000D01*
X131330133Y-108667222D01*
X131287190Y-108808786D01*
X131217454Y-108939252D01*
X131193008Y-108969040D01*
X131123607Y-109053607D01*
X131063004Y-109103341D01*
X131009252Y-109147454D01*
X130878786Y-109217190D01*
X130737222Y-109260133D01*
X130663665Y-109267378D01*
X130626888Y-109271000D01*
X130553112Y-109271000D01*
X130516335Y-109267378D01*
X130442778Y-109260133D01*
X130301214Y-109217190D01*
X130170748Y-109147454D01*
X130116996Y-109103341D01*
X130056393Y-109053607D01*
X129986992Y-108969040D01*
X129962546Y-108939252D01*
X129892810Y-108808786D01*
X129849867Y-108667222D01*
X129835367Y-108520000D01*
X129849867Y-108372778D01*
X129892810Y-108231214D01*
X129962546Y-108100748D01*
X129986992Y-108070960D01*
X130056393Y-107986393D01*
X130140960Y-107916992D01*
X130170748Y-107892546D01*
X130301214Y-107822810D01*
X130442778Y-107779867D01*
X130516335Y-107772622D01*
X130553112Y-107769000D01*
X130626888Y-107769000D01*
X130663665Y-107772622D01*
X130663665Y-107772622D01*
G37*
G36*
X123071000Y-108721000D02*
G01*
X121269000Y-108721000D01*
X121269000Y-106919000D01*
X123071000Y-106919000D01*
X123071000Y-108721000D01*
X123071000Y-108721000D01*
G37*
G36*
X135514369Y-103284971D02*
G01*
X135676195Y-103352002D01*
X135821829Y-103449311D01*
X135945689Y-103573171D01*
X136042998Y-103718805D01*
X136110029Y-103880631D01*
X136144200Y-104052420D01*
X136144200Y-104227580D01*
X136110029Y-104399369D01*
X136042998Y-104561195D01*
X135945689Y-104706829D01*
X135821829Y-104830689D01*
X135676195Y-104927998D01*
X135514369Y-104995029D01*
X135342580Y-105029200D01*
X135167420Y-105029200D01*
X134995631Y-104995029D01*
X134833805Y-104927998D01*
X134688171Y-104830689D01*
X134564311Y-104706829D01*
X134467002Y-104561195D01*
X134399971Y-104399369D01*
X134365800Y-104227580D01*
X134365800Y-104052420D01*
X134399971Y-103880631D01*
X134467002Y-103718805D01*
X134564311Y-103573171D01*
X134688171Y-103449311D01*
X134833805Y-103352002D01*
X134995631Y-103284971D01*
X135167420Y-103250800D01*
X135342580Y-103250800D01*
X135514369Y-103284971D01*
X135514369Y-103284971D01*
G37*
G36*
X127089059Y-102897860D02*
G01*
X127225732Y-102954472D01*
X127348735Y-103036660D01*
X127453340Y-103141265D01*
X127453341Y-103141267D01*
X127535529Y-103264270D01*
X127544104Y-103284972D01*
X127592140Y-103400941D01*
X127621000Y-103546033D01*
X127621000Y-103693967D01*
X127592140Y-103839059D01*
X127535528Y-103975732D01*
X127453340Y-104098735D01*
X127348735Y-104203340D01*
X127225732Y-104285528D01*
X127225731Y-104285529D01*
X127225730Y-104285529D01*
X127089059Y-104342140D01*
X126943968Y-104371000D01*
X126796032Y-104371000D01*
X126650941Y-104342140D01*
X126514270Y-104285529D01*
X126514269Y-104285529D01*
X126514268Y-104285528D01*
X126391265Y-104203340D01*
X126286660Y-104098735D01*
X126204472Y-103975732D01*
X126147860Y-103839059D01*
X126119000Y-103693967D01*
X126119000Y-103546033D01*
X126147860Y-103400941D01*
X126195896Y-103284972D01*
X126204471Y-103264270D01*
X126286659Y-103141267D01*
X126286660Y-103141265D01*
X126391265Y-103036660D01*
X126514268Y-102954472D01*
X126650941Y-102897860D01*
X126796032Y-102869000D01*
X126943968Y-102869000D01*
X127089059Y-102897860D01*
X127089059Y-102897860D01*
G37*
G36*
X133609369Y-102014971D02*
G01*
X133771195Y-102082002D01*
X133916829Y-102179311D01*
X134040689Y-102303171D01*
X134137998Y-102448805D01*
X134205029Y-102610631D01*
X134239200Y-102782420D01*
X134239200Y-102957580D01*
X134205029Y-103129369D01*
X134137998Y-103291195D01*
X134040689Y-103436829D01*
X133916829Y-103560689D01*
X133771195Y-103657998D01*
X133609369Y-103725029D01*
X133437580Y-103759200D01*
X133262420Y-103759200D01*
X133090631Y-103725029D01*
X132928805Y-103657998D01*
X132783171Y-103560689D01*
X132659311Y-103436829D01*
X132562002Y-103291195D01*
X132494971Y-103129369D01*
X132460800Y-102957580D01*
X132460800Y-102782420D01*
X132494971Y-102610631D01*
X132562002Y-102448805D01*
X132659311Y-102303171D01*
X132783171Y-102179311D01*
X132928805Y-102082002D01*
X133090631Y-102014971D01*
X133262420Y-101980800D01*
X133437580Y-101980800D01*
X133609369Y-102014971D01*
X133609369Y-102014971D01*
G37*
G36*
X135514369Y-100744971D02*
G01*
X135676195Y-100812002D01*
X135821829Y-100909311D01*
X135945689Y-101033171D01*
X136042998Y-101178805D01*
X136110029Y-101340631D01*
X136144200Y-101512420D01*
X136144200Y-101687580D01*
X136110029Y-101859369D01*
X136042998Y-102021195D01*
X135945689Y-102166829D01*
X135821829Y-102290689D01*
X135676195Y-102387998D01*
X135514369Y-102455029D01*
X135342580Y-102489200D01*
X135167420Y-102489200D01*
X134995631Y-102455029D01*
X134833805Y-102387998D01*
X134688171Y-102290689D01*
X134564311Y-102166829D01*
X134467002Y-102021195D01*
X134399971Y-101859369D01*
X134365800Y-101687580D01*
X134365800Y-101512420D01*
X134399971Y-101340631D01*
X134467002Y-101178805D01*
X134564311Y-101033171D01*
X134688171Y-100909311D01*
X134833805Y-100812002D01*
X134995631Y-100744971D01*
X135167420Y-100710800D01*
X135342580Y-100710800D01*
X135514369Y-100744971D01*
X135514369Y-100744971D01*
G37*
G36*
X122971000Y-102121000D02*
G01*
X121169000Y-102121000D01*
X121169000Y-100319000D01*
X122971000Y-100319000D01*
X122971000Y-102121000D01*
X122971000Y-102121000D01*
G37*
G36*
X122180443Y-97785519D02*
G01*
X122246627Y-97792037D01*
X122416466Y-97843557D01*
X122572991Y-97927222D01*
X122584491Y-97936660D01*
X122710186Y-98039814D01*
X122793448Y-98141271D01*
X122822778Y-98177009D01*
X122906443Y-98333534D01*
X122957963Y-98503373D01*
X122975359Y-98680000D01*
X122957963Y-98856627D01*
X122906443Y-99026466D01*
X122822778Y-99182991D01*
X122820695Y-99185529D01*
X122710186Y-99320186D01*
X122608729Y-99403448D01*
X122572991Y-99432778D01*
X122416466Y-99516443D01*
X122246627Y-99567963D01*
X122180443Y-99574481D01*
X122114260Y-99581000D01*
X122025740Y-99581000D01*
X121959558Y-99574482D01*
X121893373Y-99567963D01*
X121723534Y-99516443D01*
X121567009Y-99432778D01*
X121531271Y-99403448D01*
X121429814Y-99320186D01*
X121319305Y-99185529D01*
X121317222Y-99182991D01*
X121233557Y-99026466D01*
X121182037Y-98856627D01*
X121164641Y-98680000D01*
X121182037Y-98503373D01*
X121233557Y-98333534D01*
X121317222Y-98177009D01*
X121346552Y-98141271D01*
X121429814Y-98039814D01*
X121555509Y-97936660D01*
X121567009Y-97927222D01*
X121723534Y-97843557D01*
X121893373Y-97792037D01*
X121959557Y-97785519D01*
X122025740Y-97779000D01*
X122114260Y-97779000D01*
X122180443Y-97785519D01*
X122180443Y-97785519D01*
G37*
G36*
X128689059Y-97797860D02*
G01*
X128799384Y-97843558D01*
X128825732Y-97854472D01*
X128948735Y-97936660D01*
X129053340Y-98041265D01*
X129135528Y-98164268D01*
X129135529Y-98164270D01*
X129192140Y-98300941D01*
X129221000Y-98446032D01*
X129221000Y-98593968D01*
X129192140Y-98739059D01*
X129143443Y-98856625D01*
X129135528Y-98875732D01*
X129053340Y-98998735D01*
X128948735Y-99103340D01*
X128825732Y-99185528D01*
X128825731Y-99185529D01*
X128825730Y-99185529D01*
X128689059Y-99242140D01*
X128543968Y-99271000D01*
X128396032Y-99271000D01*
X128250941Y-99242140D01*
X128114270Y-99185529D01*
X128114269Y-99185529D01*
X128114268Y-99185528D01*
X127991265Y-99103340D01*
X127886660Y-98998735D01*
X127804472Y-98875732D01*
X127796558Y-98856625D01*
X127747860Y-98739059D01*
X127719000Y-98593968D01*
X127719000Y-98446032D01*
X127747860Y-98300941D01*
X127804471Y-98164270D01*
X127804472Y-98164268D01*
X127886660Y-98041265D01*
X127991265Y-97936660D01*
X128114268Y-97854472D01*
X128140617Y-97843558D01*
X128250941Y-97797860D01*
X128396032Y-97769000D01*
X128543968Y-97769000D01*
X128689059Y-97797860D01*
X128689059Y-97797860D01*
G37*
G36*
X133623665Y-97772622D02*
G01*
X133697222Y-97779867D01*
X133838786Y-97822810D01*
X133969252Y-97892546D01*
X133999040Y-97916992D01*
X134083607Y-97986393D01*
X134153008Y-98070960D01*
X134177454Y-98100748D01*
X134247190Y-98231214D01*
X134290133Y-98372778D01*
X134304633Y-98520000D01*
X134290133Y-98667222D01*
X134247190Y-98808786D01*
X134177454Y-98939252D01*
X134153008Y-98969040D01*
X134083607Y-99053607D01*
X134023004Y-99103341D01*
X133969252Y-99147454D01*
X133838786Y-99217190D01*
X133697222Y-99260133D01*
X133623665Y-99267378D01*
X133586888Y-99271000D01*
X133513112Y-99271000D01*
X133476335Y-99267378D01*
X133402778Y-99260133D01*
X133261214Y-99217190D01*
X133130748Y-99147454D01*
X133076996Y-99103341D01*
X133016393Y-99053607D01*
X132946992Y-98969040D01*
X132922546Y-98939252D01*
X132852810Y-98808786D01*
X132809867Y-98667222D01*
X132795367Y-98520000D01*
X132809867Y-98372778D01*
X132852810Y-98231214D01*
X132922546Y-98100748D01*
X132946992Y-98070960D01*
X133016393Y-97986393D01*
X133100960Y-97916992D01*
X133130748Y-97892546D01*
X133261214Y-97822810D01*
X133402778Y-97779867D01*
X133476335Y-97772622D01*
X133513112Y-97769000D01*
X133586888Y-97769000D01*
X133623665Y-97772622D01*
X133623665Y-97772622D01*
G37*
G36*
X135514369Y-93759971D02*
G01*
X135676195Y-93827002D01*
X135821829Y-93924311D01*
X135945689Y-94048171D01*
X136042998Y-94193805D01*
X136110029Y-94355631D01*
X136144200Y-94527420D01*
X136144200Y-94702580D01*
X136110029Y-94874369D01*
X136042998Y-95036195D01*
X135945689Y-95181829D01*
X135821829Y-95305689D01*
X135676195Y-95402998D01*
X135514369Y-95470029D01*
X135342580Y-95504200D01*
X135167420Y-95504200D01*
X134995631Y-95470029D01*
X134833805Y-95402998D01*
X134688171Y-95305689D01*
X134564311Y-95181829D01*
X134467002Y-95036195D01*
X134399971Y-94874369D01*
X134365800Y-94702580D01*
X134365800Y-94527420D01*
X134399971Y-94355631D01*
X134467002Y-94193805D01*
X134564311Y-94048171D01*
X134688171Y-93924311D01*
X134833805Y-93827002D01*
X134995631Y-93759971D01*
X135167420Y-93725800D01*
X135342580Y-93725800D01*
X135514369Y-93759971D01*
X135514369Y-93759971D01*
G37*
G36*
X131029059Y-93257860D02*
G01*
X131089294Y-93282810D01*
X131165732Y-93314472D01*
X131288735Y-93396660D01*
X131393340Y-93501265D01*
X131475528Y-93624268D01*
X131532140Y-93760941D01*
X131561000Y-93906033D01*
X131561000Y-94053967D01*
X131532140Y-94199059D01*
X131475528Y-94335732D01*
X131393340Y-94458735D01*
X131288735Y-94563340D01*
X131165732Y-94645528D01*
X131165731Y-94645529D01*
X131165730Y-94645529D01*
X131029059Y-94702140D01*
X130883968Y-94731000D01*
X130736032Y-94731000D01*
X130590941Y-94702140D01*
X130454270Y-94645529D01*
X130454269Y-94645529D01*
X130454268Y-94645528D01*
X130331265Y-94563340D01*
X130226660Y-94458735D01*
X130144472Y-94335732D01*
X130087860Y-94199059D01*
X130059000Y-94053967D01*
X130059000Y-93906033D01*
X130087860Y-93760941D01*
X130144472Y-93624268D01*
X130226660Y-93501265D01*
X130331265Y-93396660D01*
X130454268Y-93314472D01*
X130530707Y-93282810D01*
X130590941Y-93257860D01*
X130736032Y-93229000D01*
X130883968Y-93229000D01*
X131029059Y-93257860D01*
X131029059Y-93257860D01*
G37*
G36*
X125803665Y-93232622D02*
G01*
X125877222Y-93239867D01*
X126018786Y-93282810D01*
X126149252Y-93352546D01*
X126179040Y-93376992D01*
X126263607Y-93446393D01*
X126333008Y-93530960D01*
X126357454Y-93560748D01*
X126427190Y-93691214D01*
X126470133Y-93832778D01*
X126484633Y-93980000D01*
X126470133Y-94127222D01*
X126427190Y-94268786D01*
X126357454Y-94399252D01*
X126333008Y-94429040D01*
X126263607Y-94513607D01*
X126203004Y-94563341D01*
X126149252Y-94607454D01*
X126018786Y-94677190D01*
X125877222Y-94720133D01*
X125803665Y-94727378D01*
X125766888Y-94731000D01*
X125693112Y-94731000D01*
X125656335Y-94727378D01*
X125582778Y-94720133D01*
X125441214Y-94677190D01*
X125310748Y-94607454D01*
X125256996Y-94563341D01*
X125196393Y-94513607D01*
X125126992Y-94429040D01*
X125102546Y-94399252D01*
X125032810Y-94268786D01*
X124989867Y-94127222D01*
X124975367Y-93980000D01*
X124989867Y-93832778D01*
X125032810Y-93691214D01*
X125102546Y-93560748D01*
X125126992Y-93530960D01*
X125196393Y-93446393D01*
X125280960Y-93376992D01*
X125310748Y-93352546D01*
X125441214Y-93282810D01*
X125582778Y-93239867D01*
X125656335Y-93232622D01*
X125693112Y-93229000D01*
X125766888Y-93229000D01*
X125803665Y-93232622D01*
X125803665Y-93232622D01*
G37*
G36*
X133609369Y-92489971D02*
G01*
X133771195Y-92557002D01*
X133916829Y-92654311D01*
X134040689Y-92778171D01*
X134137998Y-92923805D01*
X134205029Y-93085631D01*
X134239200Y-93257420D01*
X134239200Y-93432580D01*
X134205029Y-93604369D01*
X134137998Y-93766195D01*
X134040689Y-93911829D01*
X133916829Y-94035689D01*
X133771195Y-94132998D01*
X133609369Y-94200029D01*
X133437580Y-94234200D01*
X133262420Y-94234200D01*
X133090631Y-94200029D01*
X132928805Y-94132998D01*
X132783171Y-94035689D01*
X132659311Y-93911829D01*
X132562002Y-93766195D01*
X132494971Y-93604369D01*
X132460800Y-93432580D01*
X132460800Y-93257420D01*
X132494971Y-93085631D01*
X132562002Y-92923805D01*
X132659311Y-92778171D01*
X132783171Y-92654311D01*
X132928805Y-92557002D01*
X133090631Y-92489971D01*
X133262420Y-92455800D01*
X133437580Y-92455800D01*
X133609369Y-92489971D01*
X133609369Y-92489971D01*
G37*
G36*
X122821000Y-93611000D02*
G01*
X121019000Y-93611000D01*
X121019000Y-91809000D01*
X122821000Y-91809000D01*
X122821000Y-93611000D01*
X122821000Y-93611000D01*
G37*
G36*
X135514369Y-91219971D02*
G01*
X135676195Y-91287002D01*
X135821829Y-91384311D01*
X135945689Y-91508171D01*
X136042998Y-91653805D01*
X136110029Y-91815631D01*
X136144200Y-91987420D01*
X136144200Y-92162580D01*
X136110029Y-92334369D01*
X136042998Y-92496195D01*
X135945689Y-92641829D01*
X135821829Y-92765689D01*
X135676195Y-92862998D01*
X135514369Y-92930029D01*
X135342580Y-92964200D01*
X135167420Y-92964200D01*
X134995631Y-92930029D01*
X134833805Y-92862998D01*
X134688171Y-92765689D01*
X134564311Y-92641829D01*
X134467002Y-92496195D01*
X134399971Y-92334369D01*
X134365800Y-92162580D01*
X134365800Y-91987420D01*
X134399971Y-91815631D01*
X134467002Y-91653805D01*
X134564311Y-91508171D01*
X134688171Y-91384311D01*
X134833805Y-91287002D01*
X134995631Y-91219971D01*
X135167420Y-91185800D01*
X135342580Y-91185800D01*
X135514369Y-91219971D01*
X135514369Y-91219971D01*
G37*
G36*
X131029059Y-89447860D02*
G01*
X131089294Y-89472810D01*
X131165732Y-89504472D01*
X131288735Y-89586660D01*
X131393340Y-89691265D01*
X131475528Y-89814268D01*
X131532140Y-89950941D01*
X131561000Y-90096033D01*
X131561000Y-90243967D01*
X131532140Y-90389059D01*
X131475528Y-90525732D01*
X131393340Y-90648735D01*
X131288735Y-90753340D01*
X131165732Y-90835528D01*
X131165731Y-90835529D01*
X131165730Y-90835529D01*
X131029059Y-90892140D01*
X130883968Y-90921000D01*
X130736032Y-90921000D01*
X130590941Y-90892140D01*
X130454270Y-90835529D01*
X130454269Y-90835529D01*
X130454268Y-90835528D01*
X130331265Y-90753340D01*
X130226660Y-90648735D01*
X130144472Y-90525732D01*
X130087860Y-90389059D01*
X130059000Y-90243967D01*
X130059000Y-90096033D01*
X130087860Y-89950941D01*
X130144472Y-89814268D01*
X130226660Y-89691265D01*
X130331265Y-89586660D01*
X130454268Y-89504472D01*
X130530707Y-89472810D01*
X130590941Y-89447860D01*
X130736032Y-89419000D01*
X130883968Y-89419000D01*
X131029059Y-89447860D01*
X131029059Y-89447860D01*
G37*
G36*
X125803665Y-89422622D02*
G01*
X125877222Y-89429867D01*
X126018786Y-89472810D01*
X126149252Y-89542546D01*
X126179040Y-89566992D01*
X126263607Y-89636393D01*
X126330429Y-89717818D01*
X126357454Y-89750748D01*
X126427190Y-89881214D01*
X126470133Y-90022778D01*
X126484633Y-90170000D01*
X126470133Y-90317222D01*
X126427190Y-90458786D01*
X126357454Y-90589252D01*
X126333008Y-90619040D01*
X126263607Y-90703607D01*
X126203004Y-90753341D01*
X126149252Y-90797454D01*
X126018786Y-90867190D01*
X125877222Y-90910133D01*
X125803665Y-90917378D01*
X125766888Y-90921000D01*
X125693112Y-90921000D01*
X125656335Y-90917378D01*
X125582778Y-90910133D01*
X125441214Y-90867190D01*
X125310748Y-90797454D01*
X125256996Y-90753341D01*
X125196393Y-90703607D01*
X125126992Y-90619040D01*
X125102546Y-90589252D01*
X125032810Y-90458786D01*
X124989867Y-90317222D01*
X124975367Y-90170000D01*
X124989867Y-90022778D01*
X125032810Y-89881214D01*
X125102546Y-89750748D01*
X125129571Y-89717818D01*
X125196393Y-89636393D01*
X125280960Y-89566992D01*
X125310748Y-89542546D01*
X125441214Y-89472810D01*
X125582778Y-89429867D01*
X125656335Y-89422622D01*
X125693112Y-89419000D01*
X125766888Y-89419000D01*
X125803665Y-89422622D01*
X125803665Y-89422622D01*
G37*
G36*
X134789271Y-87760103D02*
G01*
X134845635Y-87765654D01*
X135062600Y-87831470D01*
X135062602Y-87831471D01*
X135262555Y-87938347D01*
X135437818Y-88082182D01*
X135581653Y-88257445D01*
X135688529Y-88457398D01*
X135754346Y-88674366D01*
X135776569Y-88900000D01*
X135754346Y-89125634D01*
X135688529Y-89342602D01*
X135581653Y-89542555D01*
X135437818Y-89717818D01*
X135262555Y-89861653D01*
X135095507Y-89950941D01*
X135062600Y-89968530D01*
X134845635Y-90034346D01*
X134789271Y-90039897D01*
X134676545Y-90051000D01*
X134563455Y-90051000D01*
X134450729Y-90039897D01*
X134394365Y-90034346D01*
X134177400Y-89968530D01*
X134144493Y-89950941D01*
X133977445Y-89861653D01*
X133802182Y-89717818D01*
X133658347Y-89542555D01*
X133551471Y-89342602D01*
X133485654Y-89125634D01*
X133463431Y-88900000D01*
X133485654Y-88674366D01*
X133551471Y-88457398D01*
X133658347Y-88257445D01*
X133802182Y-88082182D01*
X133977445Y-87938347D01*
X134177398Y-87831471D01*
X134177400Y-87831470D01*
X134394365Y-87765654D01*
X134450729Y-87760103D01*
X134563455Y-87749000D01*
X134676545Y-87749000D01*
X134789271Y-87760103D01*
X134789271Y-87760103D01*
G37*
G36*
X122030442Y-85465518D02*
G01*
X122096627Y-85472037D01*
X122266466Y-85523557D01*
X122422991Y-85607222D01*
X122458729Y-85636552D01*
X122560186Y-85719814D01*
X122643448Y-85821271D01*
X122672778Y-85857009D01*
X122756443Y-86013534D01*
X122807963Y-86183373D01*
X122825359Y-86360000D01*
X122807963Y-86536627D01*
X122756443Y-86706466D01*
X122672778Y-86862991D01*
X122643448Y-86898729D01*
X122560186Y-87000186D01*
X122458729Y-87083448D01*
X122422991Y-87112778D01*
X122266466Y-87196443D01*
X122096627Y-87247963D01*
X122030442Y-87254482D01*
X121964260Y-87261000D01*
X121875740Y-87261000D01*
X121809558Y-87254482D01*
X121743373Y-87247963D01*
X121573534Y-87196443D01*
X121417009Y-87112778D01*
X121381271Y-87083448D01*
X121279814Y-87000186D01*
X121196552Y-86898729D01*
X121167222Y-86862991D01*
X121083557Y-86706466D01*
X121032037Y-86536627D01*
X121014641Y-86360000D01*
X121032037Y-86183373D01*
X121083557Y-86013534D01*
X121167222Y-85857009D01*
X121196552Y-85821271D01*
X121279814Y-85719814D01*
X121381271Y-85636552D01*
X121417009Y-85607222D01*
X121573534Y-85523557D01*
X121743373Y-85472037D01*
X121809558Y-85465518D01*
X121875740Y-85459000D01*
X121964260Y-85459000D01*
X122030442Y-85465518D01*
X122030442Y-85465518D01*
G37*
G36*
X122821000Y-84721000D02*
G01*
X121019000Y-84721000D01*
X121019000Y-82919000D01*
X122821000Y-82919000D01*
X122821000Y-84721000D01*
X122821000Y-84721000D01*
G37*
G36*
X135771000Y-79891000D02*
G01*
X133469000Y-79891000D01*
X133469000Y-77589000D01*
X135771000Y-77589000D01*
X135771000Y-79891000D01*
X135771000Y-79891000D01*
G37*
G36*
X122821000Y-79641000D02*
G01*
X121019000Y-79641000D01*
X121019000Y-77839000D01*
X122821000Y-77839000D01*
X122821000Y-79641000D01*
X122821000Y-79641000D01*
G37*
G36*
X125803665Y-77992622D02*
G01*
X125877222Y-77999867D01*
X126018786Y-78042810D01*
X126149252Y-78112546D01*
X126179040Y-78136992D01*
X126263607Y-78206393D01*
X126333008Y-78290960D01*
X126357454Y-78320748D01*
X126427190Y-78451214D01*
X126470133Y-78592778D01*
X126484633Y-78740000D01*
X126470133Y-78887222D01*
X126427190Y-79028786D01*
X126357454Y-79159252D01*
X126333008Y-79189040D01*
X126263607Y-79273607D01*
X126203004Y-79323341D01*
X126149252Y-79367454D01*
X126018786Y-79437190D01*
X125877222Y-79480133D01*
X125803665Y-79487378D01*
X125766888Y-79491000D01*
X125693112Y-79491000D01*
X125656335Y-79487378D01*
X125582778Y-79480133D01*
X125441214Y-79437190D01*
X125310748Y-79367454D01*
X125256996Y-79323341D01*
X125196393Y-79273607D01*
X125126992Y-79189040D01*
X125102546Y-79159252D01*
X125032810Y-79028786D01*
X124989867Y-78887222D01*
X124975367Y-78740000D01*
X124989867Y-78592778D01*
X125032810Y-78451214D01*
X125102546Y-78320748D01*
X125126992Y-78290960D01*
X125196393Y-78206393D01*
X125280960Y-78136992D01*
X125310748Y-78112546D01*
X125441214Y-78042810D01*
X125582778Y-77999867D01*
X125656335Y-77992622D01*
X125693112Y-77989000D01*
X125766888Y-77989000D01*
X125803665Y-77992622D01*
X125803665Y-77992622D01*
G37*
G36*
X131029059Y-78017860D02*
G01*
X131089294Y-78042810D01*
X131165732Y-78074472D01*
X131288735Y-78156660D01*
X131393340Y-78261265D01*
X131475528Y-78384268D01*
X131532140Y-78520941D01*
X131561000Y-78666033D01*
X131561000Y-78813967D01*
X131532140Y-78959059D01*
X131475528Y-79095732D01*
X131393340Y-79218735D01*
X131288735Y-79323340D01*
X131165732Y-79405528D01*
X131165731Y-79405529D01*
X131165730Y-79405529D01*
X131029059Y-79462140D01*
X130883968Y-79491000D01*
X130736032Y-79491000D01*
X130590941Y-79462140D01*
X130454270Y-79405529D01*
X130454269Y-79405529D01*
X130454268Y-79405528D01*
X130331265Y-79323340D01*
X130226660Y-79218735D01*
X130144472Y-79095732D01*
X130087860Y-78959059D01*
X130059000Y-78813967D01*
X130059000Y-78666033D01*
X130087860Y-78520941D01*
X130144472Y-78384268D01*
X130226660Y-78261265D01*
X130331265Y-78156660D01*
X130454268Y-78074472D01*
X130530707Y-78042810D01*
X130590941Y-78017860D01*
X130736032Y-77989000D01*
X130883968Y-77989000D01*
X131029059Y-78017860D01*
X131029059Y-78017860D01*
G37*
M02*
