G04 #@! TF.GenerationSoftware,KiCad,Pcbnew,(5.1.2)-2*
G04 #@! TF.CreationDate,2019-08-05T00:07:48-07:00*
G04 #@! TF.ProjectId,Pi LED and FAN,5069204c-4544-4206-916e-642046414e2e,rev?*
G04 #@! TF.SameCoordinates,Original*
G04 #@! TF.FileFunction,Copper,L1,Top*
G04 #@! TF.FilePolarity,Positive*
%FSLAX46Y46*%
G04 Gerber Fmt 4.6, Leading zero omitted, Abs format (unit mm)*
G04 Created by KiCad (PCBNEW (5.1.2)-2) date 2019-08-05 00:07:48*
%MOMM*%
%LPD*%
G04 APERTURE LIST*
%ADD10O,1.700000X1.700000*%
%ADD11R,1.700000X1.700000*%
%ADD12R,2.200000X2.200000*%
%ADD13O,2.200000X2.200000*%
%ADD14C,1.676400*%
%ADD15O,1.400000X1.400000*%
%ADD16C,1.400000*%
%ADD17C,0.350000*%
%ADD18C,0.254000*%
G04 APERTURE END LIST*
D10*
X122070000Y-98680000D03*
D11*
X122070000Y-101220000D03*
D12*
X134620000Y-78740000D03*
D13*
X134620000Y-88900000D03*
D11*
X122170000Y-107820000D03*
X121920000Y-92710000D03*
X121920000Y-78740000D03*
X122174000Y-112522000D03*
X121920000Y-83820000D03*
D10*
X121920000Y-86360000D03*
D14*
X135255000Y-101600000D03*
X133350000Y-102870000D03*
X135255000Y-104140000D03*
X135255000Y-94615000D03*
X133350000Y-93345000D03*
X135255000Y-92075000D03*
D15*
X130590000Y-108520000D03*
D16*
X135670000Y-108520000D03*
X126870000Y-103620000D03*
D15*
X126870000Y-108700000D03*
X125730000Y-93980000D03*
D16*
X130810000Y-93980000D03*
X130810000Y-90170000D03*
D15*
X125730000Y-90170000D03*
X133550000Y-98520000D03*
D16*
X128470000Y-98520000D03*
X130810000Y-78740000D03*
D15*
X125730000Y-78740000D03*
D17*
X128310000Y-98680000D02*
X128470000Y-98520000D01*
X122070000Y-98680000D02*
X128310000Y-98680000D01*
X134875000Y-101220000D02*
X135255000Y-101600000D01*
X122070000Y-101220000D02*
X134875000Y-101220000D01*
X130810000Y-78740000D02*
X134620000Y-78740000D01*
X125730000Y-83820000D02*
X121920000Y-83820000D01*
X130810000Y-78740000D02*
X125730000Y-83820000D01*
X132080000Y-86360000D02*
X134620000Y-88900000D01*
X121920000Y-86360000D02*
X132080000Y-86360000D01*
X134620000Y-91440000D02*
X135255000Y-92075000D01*
X134620000Y-88900000D02*
X134620000Y-91440000D01*
X125990000Y-107820000D02*
X126870000Y-108700000D01*
X122170000Y-107820000D02*
X125990000Y-107820000D01*
X129890001Y-109219999D02*
X130590000Y-108520000D01*
X129710001Y-109399999D02*
X129890001Y-109219999D01*
X127569999Y-109399999D02*
X129710001Y-109399999D01*
X126870000Y-108700000D02*
X127569999Y-109399999D01*
X124460000Y-92710000D02*
X125730000Y-93980000D01*
X121920000Y-92710000D02*
X124460000Y-92710000D01*
X124460000Y-91440000D02*
X125730000Y-90170000D01*
X124460000Y-92710000D02*
X124460000Y-91440000D01*
X133850000Y-98820000D02*
X133550000Y-98520000D01*
X121920000Y-78740000D02*
X125730000Y-78740000D01*
X138430000Y-93640000D02*
X133550000Y-98520000D01*
X127205001Y-77264999D02*
X136020001Y-77264999D01*
X125730000Y-78740000D02*
X127205001Y-77264999D01*
X136020001Y-77264999D02*
X136095001Y-77339999D01*
X136095001Y-77339999D02*
X136095001Y-77675001D01*
X136095001Y-77675001D02*
X138430000Y-80010000D01*
X138430000Y-80010000D02*
X138430000Y-93640000D01*
X132600000Y-103620000D02*
X133350000Y-102870000D01*
X126870000Y-103620000D02*
X132600000Y-103620000D01*
X133350000Y-92710000D02*
X133350000Y-93345000D01*
X130810000Y-90170000D02*
X133350000Y-92710000D01*
D18*
G36*
X138303000Y-78792606D02*
G01*
X138303000Y-112977394D01*
X137107394Y-114173000D01*
X120777000Y-114173000D01*
X120777000Y-113695694D01*
X120793463Y-113726494D01*
X120872815Y-113823185D01*
X120969506Y-113902537D01*
X121079820Y-113961502D01*
X121199518Y-113997812D01*
X121324000Y-114010072D01*
X123024000Y-114010072D01*
X123148482Y-113997812D01*
X123268180Y-113961502D01*
X123378494Y-113902537D01*
X123475185Y-113823185D01*
X123554537Y-113726494D01*
X123613502Y-113616180D01*
X123649812Y-113496482D01*
X123662072Y-113372000D01*
X123662072Y-111672000D01*
X123649812Y-111547518D01*
X123613502Y-111427820D01*
X123554537Y-111317506D01*
X123475185Y-111220815D01*
X123378494Y-111141463D01*
X123268180Y-111082498D01*
X123148482Y-111046188D01*
X123024000Y-111033928D01*
X121324000Y-111033928D01*
X121199518Y-111046188D01*
X121079820Y-111082498D01*
X120969506Y-111141463D01*
X120872815Y-111220815D01*
X120793463Y-111317506D01*
X120777000Y-111348306D01*
X120777000Y-109001178D01*
X120789463Y-109024494D01*
X120868815Y-109121185D01*
X120965506Y-109200537D01*
X121075820Y-109259502D01*
X121195518Y-109295812D01*
X121320000Y-109308072D01*
X123020000Y-109308072D01*
X123144482Y-109295812D01*
X123264180Y-109259502D01*
X123374494Y-109200537D01*
X123471185Y-109121185D01*
X123550537Y-109024494D01*
X123609502Y-108914180D01*
X123645812Y-108794482D01*
X123658072Y-108670000D01*
X123658072Y-108630000D01*
X125535435Y-108630000D01*
X125528541Y-108700000D01*
X125554317Y-108961706D01*
X125630653Y-109213354D01*
X125754618Y-109445275D01*
X125921445Y-109648555D01*
X126124725Y-109815382D01*
X126356646Y-109939347D01*
X126608294Y-110015683D01*
X126804421Y-110035000D01*
X126935579Y-110035000D01*
X127052864Y-110023448D01*
X127117809Y-110076748D01*
X127193023Y-110116950D01*
X127258526Y-110151962D01*
X127411211Y-110198279D01*
X127530208Y-110209999D01*
X127530210Y-110209999D01*
X127569998Y-110213918D01*
X127609786Y-110209999D01*
X129670213Y-110209999D01*
X129710001Y-110213918D01*
X129749789Y-110209999D01*
X129749792Y-110209999D01*
X129868789Y-110198279D01*
X130021474Y-110151962D01*
X130162190Y-110076748D01*
X130285529Y-109975527D01*
X130310901Y-109944611D01*
X130411622Y-109843890D01*
X130524421Y-109855000D01*
X130655579Y-109855000D01*
X130851706Y-109835683D01*
X131103354Y-109759347D01*
X131335275Y-109635382D01*
X131538555Y-109468555D01*
X131705382Y-109265275D01*
X131829347Y-109033354D01*
X131905683Y-108781706D01*
X131931459Y-108520000D01*
X131918509Y-108388514D01*
X134335000Y-108388514D01*
X134335000Y-108651486D01*
X134386304Y-108909405D01*
X134486939Y-109152359D01*
X134633038Y-109371013D01*
X134818987Y-109556962D01*
X135037641Y-109703061D01*
X135280595Y-109803696D01*
X135538514Y-109855000D01*
X135801486Y-109855000D01*
X136059405Y-109803696D01*
X136302359Y-109703061D01*
X136521013Y-109556962D01*
X136706962Y-109371013D01*
X136853061Y-109152359D01*
X136953696Y-108909405D01*
X137005000Y-108651486D01*
X137005000Y-108388514D01*
X136953696Y-108130595D01*
X136853061Y-107887641D01*
X136706962Y-107668987D01*
X136521013Y-107483038D01*
X136302359Y-107336939D01*
X136059405Y-107236304D01*
X135801486Y-107185000D01*
X135538514Y-107185000D01*
X135280595Y-107236304D01*
X135037641Y-107336939D01*
X134818987Y-107483038D01*
X134633038Y-107668987D01*
X134486939Y-107887641D01*
X134386304Y-108130595D01*
X134335000Y-108388514D01*
X131918509Y-108388514D01*
X131905683Y-108258294D01*
X131829347Y-108006646D01*
X131705382Y-107774725D01*
X131538555Y-107571445D01*
X131335275Y-107404618D01*
X131103354Y-107280653D01*
X130851706Y-107204317D01*
X130655579Y-107185000D01*
X130524421Y-107185000D01*
X130328294Y-107204317D01*
X130076646Y-107280653D01*
X129844725Y-107404618D01*
X129641445Y-107571445D01*
X129474618Y-107774725D01*
X129350653Y-108006646D01*
X129274317Y-108258294D01*
X129248541Y-108520000D01*
X129255435Y-108589999D01*
X128200625Y-108589999D01*
X128185683Y-108438294D01*
X128109347Y-108186646D01*
X127985382Y-107954725D01*
X127818555Y-107751445D01*
X127615275Y-107584618D01*
X127383354Y-107460653D01*
X127131706Y-107384317D01*
X126935579Y-107365000D01*
X126804421Y-107365000D01*
X126691622Y-107376110D01*
X126590899Y-107275387D01*
X126565528Y-107244472D01*
X126442189Y-107143251D01*
X126301473Y-107068037D01*
X126148788Y-107021720D01*
X126029791Y-107010000D01*
X126029788Y-107010000D01*
X125990000Y-107006081D01*
X125950212Y-107010000D01*
X123658072Y-107010000D01*
X123658072Y-106970000D01*
X123645812Y-106845518D01*
X123609502Y-106725820D01*
X123550537Y-106615506D01*
X123471185Y-106518815D01*
X123374494Y-106439463D01*
X123264180Y-106380498D01*
X123144482Y-106344188D01*
X123020000Y-106331928D01*
X121320000Y-106331928D01*
X121195518Y-106344188D01*
X121075820Y-106380498D01*
X120965506Y-106439463D01*
X120868815Y-106518815D01*
X120789463Y-106615506D01*
X120777000Y-106638822D01*
X120777000Y-102527902D01*
X120865506Y-102600537D01*
X120975820Y-102659502D01*
X121095518Y-102695812D01*
X121220000Y-102708072D01*
X122920000Y-102708072D01*
X123044482Y-102695812D01*
X123164180Y-102659502D01*
X123274494Y-102600537D01*
X123371185Y-102521185D01*
X123450537Y-102424494D01*
X123509502Y-102314180D01*
X123545812Y-102194482D01*
X123558072Y-102070000D01*
X123558072Y-102030000D01*
X132139468Y-102030000D01*
X132044467Y-102172178D01*
X131933414Y-102440283D01*
X131876800Y-102724902D01*
X131876800Y-102810000D01*
X127934366Y-102810000D01*
X127906962Y-102768987D01*
X127721013Y-102583038D01*
X127502359Y-102436939D01*
X127259405Y-102336304D01*
X127001486Y-102285000D01*
X126738514Y-102285000D01*
X126480595Y-102336304D01*
X126237641Y-102436939D01*
X126018987Y-102583038D01*
X125833038Y-102768987D01*
X125686939Y-102987641D01*
X125586304Y-103230595D01*
X125535000Y-103488514D01*
X125535000Y-103751486D01*
X125586304Y-104009405D01*
X125686939Y-104252359D01*
X125833038Y-104471013D01*
X126018987Y-104656962D01*
X126237641Y-104803061D01*
X126480595Y-104903696D01*
X126738514Y-104955000D01*
X127001486Y-104955000D01*
X127259405Y-104903696D01*
X127502359Y-104803061D01*
X127721013Y-104656962D01*
X127906962Y-104471013D01*
X127934366Y-104430000D01*
X132560212Y-104430000D01*
X132600000Y-104433919D01*
X132639788Y-104430000D01*
X132639791Y-104430000D01*
X132758788Y-104418280D01*
X132911473Y-104371963D01*
X133030272Y-104308464D01*
X133204902Y-104343200D01*
X133495098Y-104343200D01*
X133779717Y-104286586D01*
X133781915Y-104285676D01*
X133838414Y-104569717D01*
X133949467Y-104837822D01*
X134110691Y-105079110D01*
X134315890Y-105284309D01*
X134557178Y-105445533D01*
X134825283Y-105556586D01*
X135109902Y-105613200D01*
X135400098Y-105613200D01*
X135684717Y-105556586D01*
X135952822Y-105445533D01*
X136194110Y-105284309D01*
X136399309Y-105079110D01*
X136560533Y-104837822D01*
X136671586Y-104569717D01*
X136728200Y-104285098D01*
X136728200Y-103994902D01*
X136671586Y-103710283D01*
X136560533Y-103442178D01*
X136399309Y-103200890D01*
X136194110Y-102995691D01*
X136006001Y-102870000D01*
X136194110Y-102744309D01*
X136399309Y-102539110D01*
X136560533Y-102297822D01*
X136671586Y-102029717D01*
X136728200Y-101745098D01*
X136728200Y-101454902D01*
X136671586Y-101170283D01*
X136560533Y-100902178D01*
X136399309Y-100660890D01*
X136194110Y-100455691D01*
X135952822Y-100294467D01*
X135684717Y-100183414D01*
X135400098Y-100126800D01*
X135109902Y-100126800D01*
X134825283Y-100183414D01*
X134557178Y-100294467D01*
X134384271Y-100410000D01*
X123558072Y-100410000D01*
X123558072Y-100370000D01*
X123545812Y-100245518D01*
X123509502Y-100125820D01*
X123450537Y-100015506D01*
X123371185Y-99918815D01*
X123274494Y-99839463D01*
X123164180Y-99780498D01*
X123095313Y-99759607D01*
X123125134Y-99735134D01*
X123310706Y-99509014D01*
X123320869Y-99490000D01*
X127552025Y-99490000D01*
X127618987Y-99556962D01*
X127837641Y-99703061D01*
X128080595Y-99803696D01*
X128338514Y-99855000D01*
X128601486Y-99855000D01*
X128859405Y-99803696D01*
X129102359Y-99703061D01*
X129321013Y-99556962D01*
X129506962Y-99371013D01*
X129653061Y-99152359D01*
X129753696Y-98909405D01*
X129764850Y-98853329D01*
X132257284Y-98853329D01*
X132289953Y-98961044D01*
X132400208Y-99198392D01*
X132554649Y-99409670D01*
X132747340Y-99586759D01*
X132970877Y-99722853D01*
X133216670Y-99812722D01*
X133423000Y-99690201D01*
X133423000Y-98647000D01*
X133677000Y-98647000D01*
X133677000Y-99690201D01*
X133883330Y-99812722D01*
X134129123Y-99722853D01*
X134352660Y-99586759D01*
X134545351Y-99409670D01*
X134699792Y-99198392D01*
X134810047Y-98961044D01*
X134842716Y-98853329D01*
X134719374Y-98647000D01*
X133677000Y-98647000D01*
X133423000Y-98647000D01*
X132380626Y-98647000D01*
X132257284Y-98853329D01*
X129764850Y-98853329D01*
X129805000Y-98651486D01*
X129805000Y-98388514D01*
X129764851Y-98186671D01*
X132257284Y-98186671D01*
X132380626Y-98393000D01*
X133423000Y-98393000D01*
X133423000Y-97349799D01*
X133677000Y-97349799D01*
X133677000Y-98393000D01*
X134719374Y-98393000D01*
X134842716Y-98186671D01*
X134810047Y-98078956D01*
X134699792Y-97841608D01*
X134545351Y-97630330D01*
X134352660Y-97453241D01*
X134129123Y-97317147D01*
X133883330Y-97227278D01*
X133677000Y-97349799D01*
X133423000Y-97349799D01*
X133216670Y-97227278D01*
X132970877Y-97317147D01*
X132747340Y-97453241D01*
X132554649Y-97630330D01*
X132400208Y-97841608D01*
X132289953Y-98078956D01*
X132257284Y-98186671D01*
X129764851Y-98186671D01*
X129753696Y-98130595D01*
X129653061Y-97887641D01*
X129506962Y-97668987D01*
X129321013Y-97483038D01*
X129102359Y-97336939D01*
X128859405Y-97236304D01*
X128601486Y-97185000D01*
X128338514Y-97185000D01*
X128080595Y-97236304D01*
X127837641Y-97336939D01*
X127618987Y-97483038D01*
X127433038Y-97668987D01*
X127298726Y-97870000D01*
X123320869Y-97870000D01*
X123310706Y-97850986D01*
X123125134Y-97624866D01*
X122899014Y-97439294D01*
X122641034Y-97301401D01*
X122361111Y-97216487D01*
X122142950Y-97195000D01*
X121997050Y-97195000D01*
X121778889Y-97216487D01*
X121498966Y-97301401D01*
X121240986Y-97439294D01*
X121014866Y-97624866D01*
X120829294Y-97850986D01*
X120777000Y-97948821D01*
X120777000Y-94123407D01*
X120825820Y-94149502D01*
X120945518Y-94185812D01*
X121070000Y-94198072D01*
X122770000Y-94198072D01*
X122894482Y-94185812D01*
X123014180Y-94149502D01*
X123124494Y-94090537D01*
X123221185Y-94011185D01*
X123300537Y-93914494D01*
X123359502Y-93804180D01*
X123395812Y-93684482D01*
X123408072Y-93560000D01*
X123408072Y-93520000D01*
X124124488Y-93520000D01*
X124406110Y-93801622D01*
X124388541Y-93980000D01*
X124414317Y-94241706D01*
X124490653Y-94493354D01*
X124614618Y-94725275D01*
X124781445Y-94928555D01*
X124984725Y-95095382D01*
X125216646Y-95219347D01*
X125468294Y-95295683D01*
X125664421Y-95315000D01*
X125795579Y-95315000D01*
X125991706Y-95295683D01*
X126243354Y-95219347D01*
X126475275Y-95095382D01*
X126678555Y-94928555D01*
X126845382Y-94725275D01*
X126969347Y-94493354D01*
X127045683Y-94241706D01*
X127071459Y-93980000D01*
X127045683Y-93718294D01*
X126969347Y-93466646D01*
X126845382Y-93234725D01*
X126678555Y-93031445D01*
X126475275Y-92864618D01*
X126243354Y-92740653D01*
X125991706Y-92664317D01*
X125795579Y-92645000D01*
X125664421Y-92645000D01*
X125551622Y-92656110D01*
X125270000Y-92374488D01*
X125270000Y-91775512D01*
X125551622Y-91493890D01*
X125664421Y-91505000D01*
X125795579Y-91505000D01*
X125991706Y-91485683D01*
X126243354Y-91409347D01*
X126475275Y-91285382D01*
X126678555Y-91118555D01*
X126845382Y-90915275D01*
X126969347Y-90683354D01*
X127045683Y-90431706D01*
X127071459Y-90170000D01*
X127045683Y-89908294D01*
X126969347Y-89656646D01*
X126845382Y-89424725D01*
X126678555Y-89221445D01*
X126475275Y-89054618D01*
X126243354Y-88930653D01*
X125991706Y-88854317D01*
X125795579Y-88835000D01*
X125664421Y-88835000D01*
X125468294Y-88854317D01*
X125216646Y-88930653D01*
X124984725Y-89054618D01*
X124781445Y-89221445D01*
X124614618Y-89424725D01*
X124490653Y-89656646D01*
X124414317Y-89908294D01*
X124388541Y-90170000D01*
X124406110Y-90348378D01*
X123915383Y-90839105D01*
X123884473Y-90864472D01*
X123859108Y-90895380D01*
X123783251Y-90987811D01*
X123708038Y-91128527D01*
X123661721Y-91281213D01*
X123646081Y-91440000D01*
X123650001Y-91479798D01*
X123650001Y-91900000D01*
X123408072Y-91900000D01*
X123408072Y-91860000D01*
X123395812Y-91735518D01*
X123359502Y-91615820D01*
X123300537Y-91505506D01*
X123221185Y-91408815D01*
X123124494Y-91329463D01*
X123014180Y-91270498D01*
X122894482Y-91234188D01*
X122770000Y-91221928D01*
X121070000Y-91221928D01*
X120945518Y-91234188D01*
X120825820Y-91270498D01*
X120777000Y-91296593D01*
X120777000Y-87308069D01*
X120864866Y-87415134D01*
X121090986Y-87600706D01*
X121348966Y-87738599D01*
X121628889Y-87823513D01*
X121847050Y-87845000D01*
X121992950Y-87845000D01*
X122211111Y-87823513D01*
X122491034Y-87738599D01*
X122749014Y-87600706D01*
X122975134Y-87415134D01*
X123160706Y-87189014D01*
X123170869Y-87170000D01*
X131744488Y-87170000D01*
X132962301Y-88387814D01*
X132910105Y-88559881D01*
X132876606Y-88900000D01*
X132910105Y-89240119D01*
X133009314Y-89567168D01*
X133170421Y-89868578D01*
X133387234Y-90132766D01*
X133651422Y-90349579D01*
X133810001Y-90434341D01*
X133810001Y-91400202D01*
X133806081Y-91440000D01*
X133820305Y-91584410D01*
X133821721Y-91598788D01*
X133835825Y-91645283D01*
X133837389Y-91650437D01*
X133781915Y-91929324D01*
X133779717Y-91928414D01*
X133697591Y-91912078D01*
X132135377Y-90349864D01*
X132145000Y-90301486D01*
X132145000Y-90038514D01*
X132093696Y-89780595D01*
X131993061Y-89537641D01*
X131846962Y-89318987D01*
X131661013Y-89133038D01*
X131442359Y-88986939D01*
X131199405Y-88886304D01*
X130941486Y-88835000D01*
X130678514Y-88835000D01*
X130420595Y-88886304D01*
X130177641Y-88986939D01*
X129958987Y-89133038D01*
X129773038Y-89318987D01*
X129626939Y-89537641D01*
X129526304Y-89780595D01*
X129475000Y-90038514D01*
X129475000Y-90301486D01*
X129526304Y-90559405D01*
X129626939Y-90802359D01*
X129773038Y-91021013D01*
X129958987Y-91206962D01*
X130177641Y-91353061D01*
X130420595Y-91453696D01*
X130678514Y-91505000D01*
X130941486Y-91505000D01*
X130989864Y-91495377D01*
X132083399Y-92588912D01*
X132044467Y-92647178D01*
X131933414Y-92915283D01*
X131880825Y-93179667D01*
X131846962Y-93128987D01*
X131661013Y-92943038D01*
X131442359Y-92796939D01*
X131199405Y-92696304D01*
X130941486Y-92645000D01*
X130678514Y-92645000D01*
X130420595Y-92696304D01*
X130177641Y-92796939D01*
X129958987Y-92943038D01*
X129773038Y-93128987D01*
X129626939Y-93347641D01*
X129526304Y-93590595D01*
X129475000Y-93848514D01*
X129475000Y-94111486D01*
X129526304Y-94369405D01*
X129626939Y-94612359D01*
X129773038Y-94831013D01*
X129958987Y-95016962D01*
X130177641Y-95163061D01*
X130420595Y-95263696D01*
X130678514Y-95315000D01*
X130941486Y-95315000D01*
X131199405Y-95263696D01*
X131442359Y-95163061D01*
X131661013Y-95016962D01*
X131846962Y-94831013D01*
X131993061Y-94612359D01*
X132093696Y-94369405D01*
X132132462Y-94174516D01*
X132205691Y-94284110D01*
X132410890Y-94489309D01*
X132652178Y-94650533D01*
X132920283Y-94761586D01*
X133204902Y-94818200D01*
X133495098Y-94818200D01*
X133779717Y-94761586D01*
X133781915Y-94760676D01*
X133838414Y-95044717D01*
X133949467Y-95312822D01*
X134110691Y-95554110D01*
X134315890Y-95759309D01*
X134557178Y-95920533D01*
X134825283Y-96031586D01*
X135109902Y-96088200D01*
X135400098Y-96088200D01*
X135684717Y-96031586D01*
X135952822Y-95920533D01*
X136194110Y-95759309D01*
X136399309Y-95554110D01*
X136560533Y-95312822D01*
X136671586Y-95044717D01*
X136728200Y-94760098D01*
X136728200Y-94469902D01*
X136671586Y-94185283D01*
X136560533Y-93917178D01*
X136399309Y-93675890D01*
X136194110Y-93470691D01*
X136006001Y-93345000D01*
X136194110Y-93219309D01*
X136399309Y-93014110D01*
X136560533Y-92772822D01*
X136671586Y-92504717D01*
X136728200Y-92220098D01*
X136728200Y-91929902D01*
X136671586Y-91645283D01*
X136560533Y-91377178D01*
X136399309Y-91135890D01*
X136194110Y-90930691D01*
X135952822Y-90769467D01*
X135684717Y-90658414D01*
X135430000Y-90607748D01*
X135430000Y-90434341D01*
X135588578Y-90349579D01*
X135852766Y-90132766D01*
X136069579Y-89868578D01*
X136230686Y-89567168D01*
X136329895Y-89240119D01*
X136363394Y-88900000D01*
X136329895Y-88559881D01*
X136230686Y-88232832D01*
X136069579Y-87931422D01*
X135852766Y-87667234D01*
X135588578Y-87450421D01*
X135287168Y-87289314D01*
X134960119Y-87190105D01*
X134705225Y-87165000D01*
X134534775Y-87165000D01*
X134279881Y-87190105D01*
X134107814Y-87242301D01*
X132680900Y-85815387D01*
X132655528Y-85784472D01*
X132532189Y-85683251D01*
X132391473Y-85608037D01*
X132238788Y-85561720D01*
X132119791Y-85550000D01*
X132119788Y-85550000D01*
X132080000Y-85546081D01*
X132040212Y-85550000D01*
X123170869Y-85550000D01*
X123160706Y-85530986D01*
X122975134Y-85304866D01*
X122945313Y-85280393D01*
X123014180Y-85259502D01*
X123124494Y-85200537D01*
X123221185Y-85121185D01*
X123300537Y-85024494D01*
X123359502Y-84914180D01*
X123395812Y-84794482D01*
X123408072Y-84670000D01*
X123408072Y-84630000D01*
X125690212Y-84630000D01*
X125730000Y-84633919D01*
X125769788Y-84630000D01*
X125769791Y-84630000D01*
X125888788Y-84618280D01*
X126041473Y-84571963D01*
X126182189Y-84496749D01*
X126305528Y-84395528D01*
X126330900Y-84364612D01*
X130630136Y-80065377D01*
X130678514Y-80075000D01*
X130941486Y-80075000D01*
X131199405Y-80023696D01*
X131442359Y-79923061D01*
X131661013Y-79776962D01*
X131846962Y-79591013D01*
X131874366Y-79550000D01*
X132881928Y-79550000D01*
X132881928Y-79840000D01*
X132894188Y-79964482D01*
X132930498Y-80084180D01*
X132989463Y-80194494D01*
X133068815Y-80291185D01*
X133165506Y-80370537D01*
X133275820Y-80429502D01*
X133395518Y-80465812D01*
X133520000Y-80478072D01*
X135720000Y-80478072D01*
X135844482Y-80465812D01*
X135964180Y-80429502D01*
X136074494Y-80370537D01*
X136171185Y-80291185D01*
X136250537Y-80194494D01*
X136309502Y-80084180D01*
X136345812Y-79964482D01*
X136358072Y-79840000D01*
X136358072Y-77640000D01*
X136353837Y-77597000D01*
X137107394Y-77597000D01*
X138303000Y-78792606D01*
X138303000Y-78792606D01*
G37*
X138303000Y-78792606D02*
X138303000Y-112977394D01*
X137107394Y-114173000D01*
X120777000Y-114173000D01*
X120777000Y-113695694D01*
X120793463Y-113726494D01*
X120872815Y-113823185D01*
X120969506Y-113902537D01*
X121079820Y-113961502D01*
X121199518Y-113997812D01*
X121324000Y-114010072D01*
X123024000Y-114010072D01*
X123148482Y-113997812D01*
X123268180Y-113961502D01*
X123378494Y-113902537D01*
X123475185Y-113823185D01*
X123554537Y-113726494D01*
X123613502Y-113616180D01*
X123649812Y-113496482D01*
X123662072Y-113372000D01*
X123662072Y-111672000D01*
X123649812Y-111547518D01*
X123613502Y-111427820D01*
X123554537Y-111317506D01*
X123475185Y-111220815D01*
X123378494Y-111141463D01*
X123268180Y-111082498D01*
X123148482Y-111046188D01*
X123024000Y-111033928D01*
X121324000Y-111033928D01*
X121199518Y-111046188D01*
X121079820Y-111082498D01*
X120969506Y-111141463D01*
X120872815Y-111220815D01*
X120793463Y-111317506D01*
X120777000Y-111348306D01*
X120777000Y-109001178D01*
X120789463Y-109024494D01*
X120868815Y-109121185D01*
X120965506Y-109200537D01*
X121075820Y-109259502D01*
X121195518Y-109295812D01*
X121320000Y-109308072D01*
X123020000Y-109308072D01*
X123144482Y-109295812D01*
X123264180Y-109259502D01*
X123374494Y-109200537D01*
X123471185Y-109121185D01*
X123550537Y-109024494D01*
X123609502Y-108914180D01*
X123645812Y-108794482D01*
X123658072Y-108670000D01*
X123658072Y-108630000D01*
X125535435Y-108630000D01*
X125528541Y-108700000D01*
X125554317Y-108961706D01*
X125630653Y-109213354D01*
X125754618Y-109445275D01*
X125921445Y-109648555D01*
X126124725Y-109815382D01*
X126356646Y-109939347D01*
X126608294Y-110015683D01*
X126804421Y-110035000D01*
X126935579Y-110035000D01*
X127052864Y-110023448D01*
X127117809Y-110076748D01*
X127193023Y-110116950D01*
X127258526Y-110151962D01*
X127411211Y-110198279D01*
X127530208Y-110209999D01*
X127530210Y-110209999D01*
X127569998Y-110213918D01*
X127609786Y-110209999D01*
X129670213Y-110209999D01*
X129710001Y-110213918D01*
X129749789Y-110209999D01*
X129749792Y-110209999D01*
X129868789Y-110198279D01*
X130021474Y-110151962D01*
X130162190Y-110076748D01*
X130285529Y-109975527D01*
X130310901Y-109944611D01*
X130411622Y-109843890D01*
X130524421Y-109855000D01*
X130655579Y-109855000D01*
X130851706Y-109835683D01*
X131103354Y-109759347D01*
X131335275Y-109635382D01*
X131538555Y-109468555D01*
X131705382Y-109265275D01*
X131829347Y-109033354D01*
X131905683Y-108781706D01*
X131931459Y-108520000D01*
X131918509Y-108388514D01*
X134335000Y-108388514D01*
X134335000Y-108651486D01*
X134386304Y-108909405D01*
X134486939Y-109152359D01*
X134633038Y-109371013D01*
X134818987Y-109556962D01*
X135037641Y-109703061D01*
X135280595Y-109803696D01*
X135538514Y-109855000D01*
X135801486Y-109855000D01*
X136059405Y-109803696D01*
X136302359Y-109703061D01*
X136521013Y-109556962D01*
X136706962Y-109371013D01*
X136853061Y-109152359D01*
X136953696Y-108909405D01*
X137005000Y-108651486D01*
X137005000Y-108388514D01*
X136953696Y-108130595D01*
X136853061Y-107887641D01*
X136706962Y-107668987D01*
X136521013Y-107483038D01*
X136302359Y-107336939D01*
X136059405Y-107236304D01*
X135801486Y-107185000D01*
X135538514Y-107185000D01*
X135280595Y-107236304D01*
X135037641Y-107336939D01*
X134818987Y-107483038D01*
X134633038Y-107668987D01*
X134486939Y-107887641D01*
X134386304Y-108130595D01*
X134335000Y-108388514D01*
X131918509Y-108388514D01*
X131905683Y-108258294D01*
X131829347Y-108006646D01*
X131705382Y-107774725D01*
X131538555Y-107571445D01*
X131335275Y-107404618D01*
X131103354Y-107280653D01*
X130851706Y-107204317D01*
X130655579Y-107185000D01*
X130524421Y-107185000D01*
X130328294Y-107204317D01*
X130076646Y-107280653D01*
X129844725Y-107404618D01*
X129641445Y-107571445D01*
X129474618Y-107774725D01*
X129350653Y-108006646D01*
X129274317Y-108258294D01*
X129248541Y-108520000D01*
X129255435Y-108589999D01*
X128200625Y-108589999D01*
X128185683Y-108438294D01*
X128109347Y-108186646D01*
X127985382Y-107954725D01*
X127818555Y-107751445D01*
X127615275Y-107584618D01*
X127383354Y-107460653D01*
X127131706Y-107384317D01*
X126935579Y-107365000D01*
X126804421Y-107365000D01*
X126691622Y-107376110D01*
X126590899Y-107275387D01*
X126565528Y-107244472D01*
X126442189Y-107143251D01*
X126301473Y-107068037D01*
X126148788Y-107021720D01*
X126029791Y-107010000D01*
X126029788Y-107010000D01*
X125990000Y-107006081D01*
X125950212Y-107010000D01*
X123658072Y-107010000D01*
X123658072Y-106970000D01*
X123645812Y-106845518D01*
X123609502Y-106725820D01*
X123550537Y-106615506D01*
X123471185Y-106518815D01*
X123374494Y-106439463D01*
X123264180Y-106380498D01*
X123144482Y-106344188D01*
X123020000Y-106331928D01*
X121320000Y-106331928D01*
X121195518Y-106344188D01*
X121075820Y-106380498D01*
X120965506Y-106439463D01*
X120868815Y-106518815D01*
X120789463Y-106615506D01*
X120777000Y-106638822D01*
X120777000Y-102527902D01*
X120865506Y-102600537D01*
X120975820Y-102659502D01*
X121095518Y-102695812D01*
X121220000Y-102708072D01*
X122920000Y-102708072D01*
X123044482Y-102695812D01*
X123164180Y-102659502D01*
X123274494Y-102600537D01*
X123371185Y-102521185D01*
X123450537Y-102424494D01*
X123509502Y-102314180D01*
X123545812Y-102194482D01*
X123558072Y-102070000D01*
X123558072Y-102030000D01*
X132139468Y-102030000D01*
X132044467Y-102172178D01*
X131933414Y-102440283D01*
X131876800Y-102724902D01*
X131876800Y-102810000D01*
X127934366Y-102810000D01*
X127906962Y-102768987D01*
X127721013Y-102583038D01*
X127502359Y-102436939D01*
X127259405Y-102336304D01*
X127001486Y-102285000D01*
X126738514Y-102285000D01*
X126480595Y-102336304D01*
X126237641Y-102436939D01*
X126018987Y-102583038D01*
X125833038Y-102768987D01*
X125686939Y-102987641D01*
X125586304Y-103230595D01*
X125535000Y-103488514D01*
X125535000Y-103751486D01*
X125586304Y-104009405D01*
X125686939Y-104252359D01*
X125833038Y-104471013D01*
X126018987Y-104656962D01*
X126237641Y-104803061D01*
X126480595Y-104903696D01*
X126738514Y-104955000D01*
X127001486Y-104955000D01*
X127259405Y-104903696D01*
X127502359Y-104803061D01*
X127721013Y-104656962D01*
X127906962Y-104471013D01*
X127934366Y-104430000D01*
X132560212Y-104430000D01*
X132600000Y-104433919D01*
X132639788Y-104430000D01*
X132639791Y-104430000D01*
X132758788Y-104418280D01*
X132911473Y-104371963D01*
X133030272Y-104308464D01*
X133204902Y-104343200D01*
X133495098Y-104343200D01*
X133779717Y-104286586D01*
X133781915Y-104285676D01*
X133838414Y-104569717D01*
X133949467Y-104837822D01*
X134110691Y-105079110D01*
X134315890Y-105284309D01*
X134557178Y-105445533D01*
X134825283Y-105556586D01*
X135109902Y-105613200D01*
X135400098Y-105613200D01*
X135684717Y-105556586D01*
X135952822Y-105445533D01*
X136194110Y-105284309D01*
X136399309Y-105079110D01*
X136560533Y-104837822D01*
X136671586Y-104569717D01*
X136728200Y-104285098D01*
X136728200Y-103994902D01*
X136671586Y-103710283D01*
X136560533Y-103442178D01*
X136399309Y-103200890D01*
X136194110Y-102995691D01*
X136006001Y-102870000D01*
X136194110Y-102744309D01*
X136399309Y-102539110D01*
X136560533Y-102297822D01*
X136671586Y-102029717D01*
X136728200Y-101745098D01*
X136728200Y-101454902D01*
X136671586Y-101170283D01*
X136560533Y-100902178D01*
X136399309Y-100660890D01*
X136194110Y-100455691D01*
X135952822Y-100294467D01*
X135684717Y-100183414D01*
X135400098Y-100126800D01*
X135109902Y-100126800D01*
X134825283Y-100183414D01*
X134557178Y-100294467D01*
X134384271Y-100410000D01*
X123558072Y-100410000D01*
X123558072Y-100370000D01*
X123545812Y-100245518D01*
X123509502Y-100125820D01*
X123450537Y-100015506D01*
X123371185Y-99918815D01*
X123274494Y-99839463D01*
X123164180Y-99780498D01*
X123095313Y-99759607D01*
X123125134Y-99735134D01*
X123310706Y-99509014D01*
X123320869Y-99490000D01*
X127552025Y-99490000D01*
X127618987Y-99556962D01*
X127837641Y-99703061D01*
X128080595Y-99803696D01*
X128338514Y-99855000D01*
X128601486Y-99855000D01*
X128859405Y-99803696D01*
X129102359Y-99703061D01*
X129321013Y-99556962D01*
X129506962Y-99371013D01*
X129653061Y-99152359D01*
X129753696Y-98909405D01*
X129764850Y-98853329D01*
X132257284Y-98853329D01*
X132289953Y-98961044D01*
X132400208Y-99198392D01*
X132554649Y-99409670D01*
X132747340Y-99586759D01*
X132970877Y-99722853D01*
X133216670Y-99812722D01*
X133423000Y-99690201D01*
X133423000Y-98647000D01*
X133677000Y-98647000D01*
X133677000Y-99690201D01*
X133883330Y-99812722D01*
X134129123Y-99722853D01*
X134352660Y-99586759D01*
X134545351Y-99409670D01*
X134699792Y-99198392D01*
X134810047Y-98961044D01*
X134842716Y-98853329D01*
X134719374Y-98647000D01*
X133677000Y-98647000D01*
X133423000Y-98647000D01*
X132380626Y-98647000D01*
X132257284Y-98853329D01*
X129764850Y-98853329D01*
X129805000Y-98651486D01*
X129805000Y-98388514D01*
X129764851Y-98186671D01*
X132257284Y-98186671D01*
X132380626Y-98393000D01*
X133423000Y-98393000D01*
X133423000Y-97349799D01*
X133677000Y-97349799D01*
X133677000Y-98393000D01*
X134719374Y-98393000D01*
X134842716Y-98186671D01*
X134810047Y-98078956D01*
X134699792Y-97841608D01*
X134545351Y-97630330D01*
X134352660Y-97453241D01*
X134129123Y-97317147D01*
X133883330Y-97227278D01*
X133677000Y-97349799D01*
X133423000Y-97349799D01*
X133216670Y-97227278D01*
X132970877Y-97317147D01*
X132747340Y-97453241D01*
X132554649Y-97630330D01*
X132400208Y-97841608D01*
X132289953Y-98078956D01*
X132257284Y-98186671D01*
X129764851Y-98186671D01*
X129753696Y-98130595D01*
X129653061Y-97887641D01*
X129506962Y-97668987D01*
X129321013Y-97483038D01*
X129102359Y-97336939D01*
X128859405Y-97236304D01*
X128601486Y-97185000D01*
X128338514Y-97185000D01*
X128080595Y-97236304D01*
X127837641Y-97336939D01*
X127618987Y-97483038D01*
X127433038Y-97668987D01*
X127298726Y-97870000D01*
X123320869Y-97870000D01*
X123310706Y-97850986D01*
X123125134Y-97624866D01*
X122899014Y-97439294D01*
X122641034Y-97301401D01*
X122361111Y-97216487D01*
X122142950Y-97195000D01*
X121997050Y-97195000D01*
X121778889Y-97216487D01*
X121498966Y-97301401D01*
X121240986Y-97439294D01*
X121014866Y-97624866D01*
X120829294Y-97850986D01*
X120777000Y-97948821D01*
X120777000Y-94123407D01*
X120825820Y-94149502D01*
X120945518Y-94185812D01*
X121070000Y-94198072D01*
X122770000Y-94198072D01*
X122894482Y-94185812D01*
X123014180Y-94149502D01*
X123124494Y-94090537D01*
X123221185Y-94011185D01*
X123300537Y-93914494D01*
X123359502Y-93804180D01*
X123395812Y-93684482D01*
X123408072Y-93560000D01*
X123408072Y-93520000D01*
X124124488Y-93520000D01*
X124406110Y-93801622D01*
X124388541Y-93980000D01*
X124414317Y-94241706D01*
X124490653Y-94493354D01*
X124614618Y-94725275D01*
X124781445Y-94928555D01*
X124984725Y-95095382D01*
X125216646Y-95219347D01*
X125468294Y-95295683D01*
X125664421Y-95315000D01*
X125795579Y-95315000D01*
X125991706Y-95295683D01*
X126243354Y-95219347D01*
X126475275Y-95095382D01*
X126678555Y-94928555D01*
X126845382Y-94725275D01*
X126969347Y-94493354D01*
X127045683Y-94241706D01*
X127071459Y-93980000D01*
X127045683Y-93718294D01*
X126969347Y-93466646D01*
X126845382Y-93234725D01*
X126678555Y-93031445D01*
X126475275Y-92864618D01*
X126243354Y-92740653D01*
X125991706Y-92664317D01*
X125795579Y-92645000D01*
X125664421Y-92645000D01*
X125551622Y-92656110D01*
X125270000Y-92374488D01*
X125270000Y-91775512D01*
X125551622Y-91493890D01*
X125664421Y-91505000D01*
X125795579Y-91505000D01*
X125991706Y-91485683D01*
X126243354Y-91409347D01*
X126475275Y-91285382D01*
X126678555Y-91118555D01*
X126845382Y-90915275D01*
X126969347Y-90683354D01*
X127045683Y-90431706D01*
X127071459Y-90170000D01*
X127045683Y-89908294D01*
X126969347Y-89656646D01*
X126845382Y-89424725D01*
X126678555Y-89221445D01*
X126475275Y-89054618D01*
X126243354Y-88930653D01*
X125991706Y-88854317D01*
X125795579Y-88835000D01*
X125664421Y-88835000D01*
X125468294Y-88854317D01*
X125216646Y-88930653D01*
X124984725Y-89054618D01*
X124781445Y-89221445D01*
X124614618Y-89424725D01*
X124490653Y-89656646D01*
X124414317Y-89908294D01*
X124388541Y-90170000D01*
X124406110Y-90348378D01*
X123915383Y-90839105D01*
X123884473Y-90864472D01*
X123859108Y-90895380D01*
X123783251Y-90987811D01*
X123708038Y-91128527D01*
X123661721Y-91281213D01*
X123646081Y-91440000D01*
X123650001Y-91479798D01*
X123650001Y-91900000D01*
X123408072Y-91900000D01*
X123408072Y-91860000D01*
X123395812Y-91735518D01*
X123359502Y-91615820D01*
X123300537Y-91505506D01*
X123221185Y-91408815D01*
X123124494Y-91329463D01*
X123014180Y-91270498D01*
X122894482Y-91234188D01*
X122770000Y-91221928D01*
X121070000Y-91221928D01*
X120945518Y-91234188D01*
X120825820Y-91270498D01*
X120777000Y-91296593D01*
X120777000Y-87308069D01*
X120864866Y-87415134D01*
X121090986Y-87600706D01*
X121348966Y-87738599D01*
X121628889Y-87823513D01*
X121847050Y-87845000D01*
X121992950Y-87845000D01*
X122211111Y-87823513D01*
X122491034Y-87738599D01*
X122749014Y-87600706D01*
X122975134Y-87415134D01*
X123160706Y-87189014D01*
X123170869Y-87170000D01*
X131744488Y-87170000D01*
X132962301Y-88387814D01*
X132910105Y-88559881D01*
X132876606Y-88900000D01*
X132910105Y-89240119D01*
X133009314Y-89567168D01*
X133170421Y-89868578D01*
X133387234Y-90132766D01*
X133651422Y-90349579D01*
X133810001Y-90434341D01*
X133810001Y-91400202D01*
X133806081Y-91440000D01*
X133820305Y-91584410D01*
X133821721Y-91598788D01*
X133835825Y-91645283D01*
X133837389Y-91650437D01*
X133781915Y-91929324D01*
X133779717Y-91928414D01*
X133697591Y-91912078D01*
X132135377Y-90349864D01*
X132145000Y-90301486D01*
X132145000Y-90038514D01*
X132093696Y-89780595D01*
X131993061Y-89537641D01*
X131846962Y-89318987D01*
X131661013Y-89133038D01*
X131442359Y-88986939D01*
X131199405Y-88886304D01*
X130941486Y-88835000D01*
X130678514Y-88835000D01*
X130420595Y-88886304D01*
X130177641Y-88986939D01*
X129958987Y-89133038D01*
X129773038Y-89318987D01*
X129626939Y-89537641D01*
X129526304Y-89780595D01*
X129475000Y-90038514D01*
X129475000Y-90301486D01*
X129526304Y-90559405D01*
X129626939Y-90802359D01*
X129773038Y-91021013D01*
X129958987Y-91206962D01*
X130177641Y-91353061D01*
X130420595Y-91453696D01*
X130678514Y-91505000D01*
X130941486Y-91505000D01*
X130989864Y-91495377D01*
X132083399Y-92588912D01*
X132044467Y-92647178D01*
X131933414Y-92915283D01*
X131880825Y-93179667D01*
X131846962Y-93128987D01*
X131661013Y-92943038D01*
X131442359Y-92796939D01*
X131199405Y-92696304D01*
X130941486Y-92645000D01*
X130678514Y-92645000D01*
X130420595Y-92696304D01*
X130177641Y-92796939D01*
X129958987Y-92943038D01*
X129773038Y-93128987D01*
X129626939Y-93347641D01*
X129526304Y-93590595D01*
X129475000Y-93848514D01*
X129475000Y-94111486D01*
X129526304Y-94369405D01*
X129626939Y-94612359D01*
X129773038Y-94831013D01*
X129958987Y-95016962D01*
X130177641Y-95163061D01*
X130420595Y-95263696D01*
X130678514Y-95315000D01*
X130941486Y-95315000D01*
X131199405Y-95263696D01*
X131442359Y-95163061D01*
X131661013Y-95016962D01*
X131846962Y-94831013D01*
X131993061Y-94612359D01*
X132093696Y-94369405D01*
X132132462Y-94174516D01*
X132205691Y-94284110D01*
X132410890Y-94489309D01*
X132652178Y-94650533D01*
X132920283Y-94761586D01*
X133204902Y-94818200D01*
X133495098Y-94818200D01*
X133779717Y-94761586D01*
X133781915Y-94760676D01*
X133838414Y-95044717D01*
X133949467Y-95312822D01*
X134110691Y-95554110D01*
X134315890Y-95759309D01*
X134557178Y-95920533D01*
X134825283Y-96031586D01*
X135109902Y-96088200D01*
X135400098Y-96088200D01*
X135684717Y-96031586D01*
X135952822Y-95920533D01*
X136194110Y-95759309D01*
X136399309Y-95554110D01*
X136560533Y-95312822D01*
X136671586Y-95044717D01*
X136728200Y-94760098D01*
X136728200Y-94469902D01*
X136671586Y-94185283D01*
X136560533Y-93917178D01*
X136399309Y-93675890D01*
X136194110Y-93470691D01*
X136006001Y-93345000D01*
X136194110Y-93219309D01*
X136399309Y-93014110D01*
X136560533Y-92772822D01*
X136671586Y-92504717D01*
X136728200Y-92220098D01*
X136728200Y-91929902D01*
X136671586Y-91645283D01*
X136560533Y-91377178D01*
X136399309Y-91135890D01*
X136194110Y-90930691D01*
X135952822Y-90769467D01*
X135684717Y-90658414D01*
X135430000Y-90607748D01*
X135430000Y-90434341D01*
X135588578Y-90349579D01*
X135852766Y-90132766D01*
X136069579Y-89868578D01*
X136230686Y-89567168D01*
X136329895Y-89240119D01*
X136363394Y-88900000D01*
X136329895Y-88559881D01*
X136230686Y-88232832D01*
X136069579Y-87931422D01*
X135852766Y-87667234D01*
X135588578Y-87450421D01*
X135287168Y-87289314D01*
X134960119Y-87190105D01*
X134705225Y-87165000D01*
X134534775Y-87165000D01*
X134279881Y-87190105D01*
X134107814Y-87242301D01*
X132680900Y-85815387D01*
X132655528Y-85784472D01*
X132532189Y-85683251D01*
X132391473Y-85608037D01*
X132238788Y-85561720D01*
X132119791Y-85550000D01*
X132119788Y-85550000D01*
X132080000Y-85546081D01*
X132040212Y-85550000D01*
X123170869Y-85550000D01*
X123160706Y-85530986D01*
X122975134Y-85304866D01*
X122945313Y-85280393D01*
X123014180Y-85259502D01*
X123124494Y-85200537D01*
X123221185Y-85121185D01*
X123300537Y-85024494D01*
X123359502Y-84914180D01*
X123395812Y-84794482D01*
X123408072Y-84670000D01*
X123408072Y-84630000D01*
X125690212Y-84630000D01*
X125730000Y-84633919D01*
X125769788Y-84630000D01*
X125769791Y-84630000D01*
X125888788Y-84618280D01*
X126041473Y-84571963D01*
X126182189Y-84496749D01*
X126305528Y-84395528D01*
X126330900Y-84364612D01*
X130630136Y-80065377D01*
X130678514Y-80075000D01*
X130941486Y-80075000D01*
X131199405Y-80023696D01*
X131442359Y-79923061D01*
X131661013Y-79776962D01*
X131846962Y-79591013D01*
X131874366Y-79550000D01*
X132881928Y-79550000D01*
X132881928Y-79840000D01*
X132894188Y-79964482D01*
X132930498Y-80084180D01*
X132989463Y-80194494D01*
X133068815Y-80291185D01*
X133165506Y-80370537D01*
X133275820Y-80429502D01*
X133395518Y-80465812D01*
X133520000Y-80478072D01*
X135720000Y-80478072D01*
X135844482Y-80465812D01*
X135964180Y-80429502D01*
X136074494Y-80370537D01*
X136171185Y-80291185D01*
X136250537Y-80194494D01*
X136309502Y-80084180D01*
X136345812Y-79964482D01*
X136358072Y-79840000D01*
X136358072Y-77640000D01*
X136353837Y-77597000D01*
X137107394Y-77597000D01*
X138303000Y-78792606D01*
G36*
X124927340Y-77673241D02*
G01*
X124734649Y-77850330D01*
X124580208Y-78061608D01*
X124469953Y-78298956D01*
X124437284Y-78406671D01*
X124560626Y-78613000D01*
X125603000Y-78613000D01*
X125603000Y-78593000D01*
X125857000Y-78593000D01*
X125857000Y-78613000D01*
X126899374Y-78613000D01*
X127022716Y-78406671D01*
X126990047Y-78298956D01*
X126879792Y-78061608D01*
X126725351Y-77850330D01*
X126532660Y-77673241D01*
X126407433Y-77597000D01*
X130117685Y-77597000D01*
X129958987Y-77703038D01*
X129773038Y-77888987D01*
X129626939Y-78107641D01*
X129526304Y-78350595D01*
X129475000Y-78608514D01*
X129475000Y-78871486D01*
X129484623Y-78919864D01*
X125394488Y-83010000D01*
X123408072Y-83010000D01*
X123408072Y-82970000D01*
X123395812Y-82845518D01*
X123359502Y-82725820D01*
X123300537Y-82615506D01*
X123221185Y-82518815D01*
X123124494Y-82439463D01*
X123014180Y-82380498D01*
X122894482Y-82344188D01*
X122770000Y-82331928D01*
X121070000Y-82331928D01*
X120945518Y-82344188D01*
X120825820Y-82380498D01*
X120777000Y-82406593D01*
X120777000Y-80153407D01*
X120825820Y-80179502D01*
X120945518Y-80215812D01*
X121070000Y-80228072D01*
X121634250Y-80225000D01*
X121793000Y-80066250D01*
X121793000Y-78867000D01*
X122047000Y-78867000D01*
X122047000Y-80066250D01*
X122205750Y-80225000D01*
X122770000Y-80228072D01*
X122894482Y-80215812D01*
X123014180Y-80179502D01*
X123124494Y-80120537D01*
X123221185Y-80041185D01*
X123300537Y-79944494D01*
X123359502Y-79834180D01*
X123395812Y-79714482D01*
X123408072Y-79590000D01*
X123405260Y-79073329D01*
X124437284Y-79073329D01*
X124469953Y-79181044D01*
X124580208Y-79418392D01*
X124734649Y-79629670D01*
X124927340Y-79806759D01*
X125150877Y-79942853D01*
X125396670Y-80032722D01*
X125603000Y-79910201D01*
X125603000Y-78867000D01*
X125857000Y-78867000D01*
X125857000Y-79910201D01*
X126063330Y-80032722D01*
X126309123Y-79942853D01*
X126532660Y-79806759D01*
X126725351Y-79629670D01*
X126879792Y-79418392D01*
X126990047Y-79181044D01*
X127022716Y-79073329D01*
X126899374Y-78867000D01*
X125857000Y-78867000D01*
X125603000Y-78867000D01*
X124560626Y-78867000D01*
X124437284Y-79073329D01*
X123405260Y-79073329D01*
X123405000Y-79025750D01*
X123246250Y-78867000D01*
X122047000Y-78867000D01*
X121793000Y-78867000D01*
X121773000Y-78867000D01*
X121773000Y-78613000D01*
X121793000Y-78613000D01*
X121793000Y-78593000D01*
X122047000Y-78593000D01*
X122047000Y-78613000D01*
X123246250Y-78613000D01*
X123405000Y-78454250D01*
X123408072Y-77890000D01*
X123395812Y-77765518D01*
X123359502Y-77645820D01*
X123333407Y-77597000D01*
X125052567Y-77597000D01*
X124927340Y-77673241D01*
X124927340Y-77673241D01*
G37*
X124927340Y-77673241D02*
X124734649Y-77850330D01*
X124580208Y-78061608D01*
X124469953Y-78298956D01*
X124437284Y-78406671D01*
X124560626Y-78613000D01*
X125603000Y-78613000D01*
X125603000Y-78593000D01*
X125857000Y-78593000D01*
X125857000Y-78613000D01*
X126899374Y-78613000D01*
X127022716Y-78406671D01*
X126990047Y-78298956D01*
X126879792Y-78061608D01*
X126725351Y-77850330D01*
X126532660Y-77673241D01*
X126407433Y-77597000D01*
X130117685Y-77597000D01*
X129958987Y-77703038D01*
X129773038Y-77888987D01*
X129626939Y-78107641D01*
X129526304Y-78350595D01*
X129475000Y-78608514D01*
X129475000Y-78871486D01*
X129484623Y-78919864D01*
X125394488Y-83010000D01*
X123408072Y-83010000D01*
X123408072Y-82970000D01*
X123395812Y-82845518D01*
X123359502Y-82725820D01*
X123300537Y-82615506D01*
X123221185Y-82518815D01*
X123124494Y-82439463D01*
X123014180Y-82380498D01*
X122894482Y-82344188D01*
X122770000Y-82331928D01*
X121070000Y-82331928D01*
X120945518Y-82344188D01*
X120825820Y-82380498D01*
X120777000Y-82406593D01*
X120777000Y-80153407D01*
X120825820Y-80179502D01*
X120945518Y-80215812D01*
X121070000Y-80228072D01*
X121634250Y-80225000D01*
X121793000Y-80066250D01*
X121793000Y-78867000D01*
X122047000Y-78867000D01*
X122047000Y-80066250D01*
X122205750Y-80225000D01*
X122770000Y-80228072D01*
X122894482Y-80215812D01*
X123014180Y-80179502D01*
X123124494Y-80120537D01*
X123221185Y-80041185D01*
X123300537Y-79944494D01*
X123359502Y-79834180D01*
X123395812Y-79714482D01*
X123408072Y-79590000D01*
X123405260Y-79073329D01*
X124437284Y-79073329D01*
X124469953Y-79181044D01*
X124580208Y-79418392D01*
X124734649Y-79629670D01*
X124927340Y-79806759D01*
X125150877Y-79942853D01*
X125396670Y-80032722D01*
X125603000Y-79910201D01*
X125603000Y-78867000D01*
X125857000Y-78867000D01*
X125857000Y-79910201D01*
X126063330Y-80032722D01*
X126309123Y-79942853D01*
X126532660Y-79806759D01*
X126725351Y-79629670D01*
X126879792Y-79418392D01*
X126990047Y-79181044D01*
X127022716Y-79073329D01*
X126899374Y-78867000D01*
X125857000Y-78867000D01*
X125603000Y-78867000D01*
X124560626Y-78867000D01*
X124437284Y-79073329D01*
X123405260Y-79073329D01*
X123405000Y-79025750D01*
X123246250Y-78867000D01*
X122047000Y-78867000D01*
X121793000Y-78867000D01*
X121773000Y-78867000D01*
X121773000Y-78613000D01*
X121793000Y-78613000D01*
X121793000Y-78593000D01*
X122047000Y-78593000D01*
X122047000Y-78613000D01*
X123246250Y-78613000D01*
X123405000Y-78454250D01*
X123408072Y-77890000D01*
X123395812Y-77765518D01*
X123359502Y-77645820D01*
X123333407Y-77597000D01*
X125052567Y-77597000D01*
X124927340Y-77673241D01*
M02*
