M48
; DRILL file {KiCad (5.1.2)-2} date 8/13/2019 12:16:23 AM
; FORMAT={-:-/ absolute / metric / decimal}
; #@! TF.CreationDate,2019-08-13T00:16:23-07:00
; #@! TF.GenerationSoftware,Kicad,Pcbnew,(5.1.2)-2
; #@! TF.FileFunction,Plated,1,2,PTH
FMAT,2
METRIC
T1C0.600
T2C0.700
T3C0.750
T4C0.800
T5C0.850
T6C0.900
T7C1.000
T8C1.100
T9C1.346
%
G90
G05
T1
X137.795Y-94.52
X137.795Y-96.52
X157.48Y-62.135
X157.48Y-64.135
T2
X149.225Y-106.045
X156.845Y-106.045
X128.27Y-62.23
X128.27Y-69.85
X151.765Y-61.595
X151.765Y-69.215
X146.685Y-119.38
X146.685Y-127.0
X144.78Y-90.805
X152.4Y-90.805
X157.48Y-72.39
X157.48Y-80.01
X147.32Y-61.595
X147.32Y-69.215
X130.81Y-73.66
X130.81Y-81.28
X144.78Y-103.505
X152.4Y-103.505
X144.78Y-100.965
X152.4Y-100.965
X141.605Y-113.03
X141.605Y-120.65
X144.78Y-93.345
X152.4Y-93.345
X128.27Y-73.66
X128.27Y-81.28
T3
X130.175Y-96.52
X130.175Y-98.52
T4
X134.62Y-114.3
X134.62Y-119.3
X151.765Y-72.43
X151.765Y-74.93
X133.985Y-101.6
X133.985Y-104.14
X133.985Y-106.68
X133.985Y-109.22
X141.605Y-101.6
X141.605Y-104.14
X141.605Y-106.68
X141.605Y-109.22
X149.225Y-109.855
X149.225Y-113.355
X157.48Y-67.35
X157.48Y-69.85
X136.525Y-124.46
X136.525Y-127.96
T5
X129.54Y-118.745
X129.54Y-128.745
X144.94Y-97.155
X154.94Y-97.155
T6
X149.225Y-84.455
X149.225Y-86.995
X157.48Y-84.455
X157.48Y-86.995
T7
X129.54Y-133.985
X128.905Y-87.63
X128.905Y-90.17
X129.54Y-139.7
X139.145Y-137.16
X144.145Y-137.16
T8
X129.54Y-104.775
X129.54Y-114.935
T9
X133.475Y-63.955
X133.475Y-67.755
X142.115Y-63.955
X142.115Y-67.755
T0
M30
