G04 #@! TF.GenerationSoftware,KiCad,Pcbnew,(5.1.2)-2*
G04 #@! TF.CreationDate,2019-08-13T00:16:00-07:00*
G04 #@! TF.ProjectId,PiPowerSystem,5069506f-7765-4725-9379-7374656d2e6b,rev?*
G04 #@! TF.SameCoordinates,Original*
G04 #@! TF.FileFunction,Soldermask,Top*
G04 #@! TF.FilePolarity,Negative*
%FSLAX46Y46*%
G04 Gerber Fmt 4.6, Leading zero omitted, Abs format (unit mm)*
G04 Created by KiCad (PCBNEW (5.1.2)-2) date 2019-08-13 00:16:00*
%MOMM*%
%LPD*%
G04 APERTURE LIST*
%ADD10C,0.100000*%
G04 APERTURE END LIST*
D10*
G36*
X130441000Y-140601000D02*
G01*
X128639000Y-140601000D01*
X128639000Y-138799000D01*
X130441000Y-138799000D01*
X130441000Y-140601000D01*
X130441000Y-140601000D01*
G37*
G36*
X145196000Y-138211000D02*
G01*
X143094000Y-138211000D01*
X143094000Y-136109000D01*
X145196000Y-136109000D01*
X145196000Y-138211000D01*
X145196000Y-138211000D01*
G37*
G36*
X139451564Y-136149389D02*
G01*
X139642833Y-136228615D01*
X139642835Y-136228616D01*
X139814973Y-136343635D01*
X139961365Y-136490027D01*
X140076385Y-136662167D01*
X140155611Y-136853436D01*
X140196000Y-137056484D01*
X140196000Y-137263516D01*
X140155611Y-137466564D01*
X140076385Y-137657833D01*
X140076384Y-137657835D01*
X139961365Y-137829973D01*
X139814973Y-137976365D01*
X139642835Y-138091384D01*
X139642834Y-138091385D01*
X139642833Y-138091385D01*
X139451564Y-138170611D01*
X139248516Y-138211000D01*
X139041484Y-138211000D01*
X138838436Y-138170611D01*
X138647167Y-138091385D01*
X138647166Y-138091385D01*
X138647165Y-138091384D01*
X138475027Y-137976365D01*
X138328635Y-137829973D01*
X138213616Y-137657835D01*
X138213615Y-137657833D01*
X138134389Y-137466564D01*
X138094000Y-137263516D01*
X138094000Y-137056484D01*
X138134389Y-136853436D01*
X138213615Y-136662167D01*
X138328635Y-136490027D01*
X138475027Y-136343635D01*
X138647165Y-136228616D01*
X138647167Y-136228615D01*
X138838436Y-136149389D01*
X139041484Y-136109000D01*
X139248516Y-136109000D01*
X139451564Y-136149389D01*
X139451564Y-136149389D01*
G37*
G36*
X130441000Y-134886000D02*
G01*
X128639000Y-134886000D01*
X128639000Y-133084000D01*
X130441000Y-133084000D01*
X130441000Y-134886000D01*
X130441000Y-134886000D01*
G37*
G36*
X129706823Y-127906313D02*
G01*
X129867242Y-127954976D01*
X129999906Y-128025886D01*
X130015078Y-128033996D01*
X130144659Y-128140341D01*
X130251004Y-128269922D01*
X130251005Y-128269924D01*
X130330024Y-128417758D01*
X130378687Y-128578177D01*
X130395117Y-128745000D01*
X130378687Y-128911823D01*
X130330024Y-129072242D01*
X130259114Y-129204906D01*
X130251004Y-129220078D01*
X130144659Y-129349659D01*
X130015078Y-129456004D01*
X130015076Y-129456005D01*
X129867242Y-129535024D01*
X129706823Y-129583687D01*
X129581804Y-129596000D01*
X129498196Y-129596000D01*
X129373177Y-129583687D01*
X129212758Y-129535024D01*
X129064924Y-129456005D01*
X129064922Y-129456004D01*
X128935341Y-129349659D01*
X128828996Y-129220078D01*
X128820886Y-129204906D01*
X128749976Y-129072242D01*
X128701313Y-128911823D01*
X128684883Y-128745000D01*
X128701313Y-128578177D01*
X128749976Y-128417758D01*
X128828995Y-128269924D01*
X128828996Y-128269922D01*
X128935341Y-128140341D01*
X129064922Y-128033996D01*
X129080094Y-128025886D01*
X129212758Y-127954976D01*
X129373177Y-127906313D01*
X129498196Y-127894000D01*
X129581804Y-127894000D01*
X129706823Y-127906313D01*
X129706823Y-127906313D01*
G37*
G36*
X136773228Y-127141703D02*
G01*
X136928100Y-127205853D01*
X137067481Y-127298985D01*
X137186015Y-127417519D01*
X137279147Y-127556900D01*
X137343297Y-127711772D01*
X137376000Y-127876184D01*
X137376000Y-128043816D01*
X137343297Y-128208228D01*
X137279147Y-128363100D01*
X137186015Y-128502481D01*
X137067481Y-128621015D01*
X136928100Y-128714147D01*
X136773228Y-128778297D01*
X136608816Y-128811000D01*
X136441184Y-128811000D01*
X136276772Y-128778297D01*
X136121900Y-128714147D01*
X135982519Y-128621015D01*
X135863985Y-128502481D01*
X135770853Y-128363100D01*
X135706703Y-128208228D01*
X135674000Y-128043816D01*
X135674000Y-127876184D01*
X135706703Y-127711772D01*
X135770853Y-127556900D01*
X135863985Y-127417519D01*
X135982519Y-127298985D01*
X136121900Y-127205853D01*
X136276772Y-127141703D01*
X136441184Y-127109000D01*
X136608816Y-127109000D01*
X136773228Y-127141703D01*
X136773228Y-127141703D01*
G37*
G36*
X146904059Y-126277860D02*
G01*
X147040732Y-126334472D01*
X147163735Y-126416660D01*
X147268340Y-126521265D01*
X147268341Y-126521267D01*
X147350529Y-126644270D01*
X147407140Y-126780941D01*
X147436000Y-126926032D01*
X147436000Y-127073968D01*
X147407140Y-127219059D01*
X147374034Y-127298985D01*
X147350528Y-127355732D01*
X147268340Y-127478735D01*
X147163735Y-127583340D01*
X147040732Y-127665528D01*
X147040731Y-127665529D01*
X147040730Y-127665529D01*
X146904059Y-127722140D01*
X146758968Y-127751000D01*
X146611032Y-127751000D01*
X146465941Y-127722140D01*
X146329270Y-127665529D01*
X146329269Y-127665529D01*
X146329268Y-127665528D01*
X146206265Y-127583340D01*
X146101660Y-127478735D01*
X146019472Y-127355732D01*
X145995967Y-127298985D01*
X145962860Y-127219059D01*
X145934000Y-127073968D01*
X145934000Y-126926032D01*
X145962860Y-126780941D01*
X146019471Y-126644270D01*
X146101659Y-126521267D01*
X146101660Y-126521265D01*
X146206265Y-126416660D01*
X146329268Y-126334472D01*
X146465941Y-126277860D01*
X146611032Y-126249000D01*
X146758968Y-126249000D01*
X146904059Y-126277860D01*
X146904059Y-126277860D01*
G37*
G36*
X137376000Y-125311000D02*
G01*
X135674000Y-125311000D01*
X135674000Y-123609000D01*
X137376000Y-123609000D01*
X137376000Y-125311000D01*
X137376000Y-125311000D01*
G37*
G36*
X141678665Y-119902622D02*
G01*
X141752222Y-119909867D01*
X141893786Y-119952810D01*
X142024252Y-120022546D01*
X142054040Y-120046992D01*
X142138607Y-120116393D01*
X142208008Y-120200960D01*
X142232454Y-120230748D01*
X142302190Y-120361214D01*
X142345133Y-120502778D01*
X142359633Y-120650000D01*
X142345133Y-120797222D01*
X142302190Y-120938786D01*
X142232454Y-121069252D01*
X142208008Y-121099040D01*
X142138607Y-121183607D01*
X142054040Y-121253008D01*
X142024252Y-121277454D01*
X141893786Y-121347190D01*
X141752222Y-121390133D01*
X141678665Y-121397378D01*
X141641888Y-121401000D01*
X141568112Y-121401000D01*
X141531335Y-121397378D01*
X141457778Y-121390133D01*
X141316214Y-121347190D01*
X141185748Y-121277454D01*
X141155960Y-121253008D01*
X141071393Y-121183607D01*
X141001992Y-121099040D01*
X140977546Y-121069252D01*
X140907810Y-120938786D01*
X140864867Y-120797222D01*
X140850367Y-120650000D01*
X140864867Y-120502778D01*
X140907810Y-120361214D01*
X140977546Y-120230748D01*
X141001992Y-120200960D01*
X141071393Y-120116393D01*
X141155960Y-120046992D01*
X141185748Y-120022546D01*
X141316214Y-119952810D01*
X141457778Y-119909867D01*
X141531335Y-119902622D01*
X141568112Y-119899000D01*
X141641888Y-119899000D01*
X141678665Y-119902622D01*
X141678665Y-119902622D01*
G37*
G36*
X134868228Y-118481703D02*
G01*
X135023100Y-118545853D01*
X135162481Y-118638985D01*
X135281015Y-118757519D01*
X135374147Y-118896900D01*
X135438297Y-119051772D01*
X135471000Y-119216184D01*
X135471000Y-119383816D01*
X135438297Y-119548228D01*
X135374147Y-119703100D01*
X135281015Y-119842481D01*
X135162481Y-119961015D01*
X135023100Y-120054147D01*
X134868228Y-120118297D01*
X134703816Y-120151000D01*
X134536184Y-120151000D01*
X134371772Y-120118297D01*
X134216900Y-120054147D01*
X134077519Y-119961015D01*
X133958985Y-119842481D01*
X133865853Y-119703100D01*
X133801703Y-119548228D01*
X133769000Y-119383816D01*
X133769000Y-119216184D01*
X133801703Y-119051772D01*
X133865853Y-118896900D01*
X133958985Y-118757519D01*
X134077519Y-118638985D01*
X134216900Y-118545853D01*
X134371772Y-118481703D01*
X134536184Y-118449000D01*
X134703816Y-118449000D01*
X134868228Y-118481703D01*
X134868228Y-118481703D01*
G37*
G36*
X146758665Y-118632622D02*
G01*
X146832222Y-118639867D01*
X146973786Y-118682810D01*
X147104252Y-118752546D01*
X147134040Y-118776992D01*
X147218607Y-118846393D01*
X147260058Y-118896903D01*
X147312454Y-118960748D01*
X147382190Y-119091214D01*
X147425133Y-119232778D01*
X147439633Y-119380000D01*
X147425133Y-119527222D01*
X147382190Y-119668786D01*
X147312454Y-119799252D01*
X147288008Y-119829040D01*
X147218607Y-119913607D01*
X147134040Y-119983008D01*
X147104252Y-120007454D01*
X146973786Y-120077190D01*
X146832222Y-120120133D01*
X146758665Y-120127378D01*
X146721888Y-120131000D01*
X146648112Y-120131000D01*
X146611335Y-120127378D01*
X146537778Y-120120133D01*
X146396214Y-120077190D01*
X146265748Y-120007454D01*
X146235960Y-119983008D01*
X146151393Y-119913607D01*
X146081992Y-119829040D01*
X146057546Y-119799252D01*
X145987810Y-119668786D01*
X145944867Y-119527222D01*
X145930367Y-119380000D01*
X145944867Y-119232778D01*
X145987810Y-119091214D01*
X146057546Y-118960748D01*
X146109942Y-118896903D01*
X146151393Y-118846393D01*
X146235960Y-118776992D01*
X146265748Y-118752546D01*
X146396214Y-118682810D01*
X146537778Y-118639867D01*
X146611335Y-118632622D01*
X146648112Y-118629000D01*
X146721888Y-118629000D01*
X146758665Y-118632622D01*
X146758665Y-118632622D01*
G37*
G36*
X129788228Y-117926703D02*
G01*
X129943100Y-117990853D01*
X130082481Y-118083985D01*
X130201015Y-118202519D01*
X130294147Y-118341900D01*
X130358297Y-118496772D01*
X130391000Y-118661184D01*
X130391000Y-118828816D01*
X130358297Y-118993228D01*
X130294147Y-119148100D01*
X130201015Y-119287481D01*
X130082481Y-119406015D01*
X129943100Y-119499147D01*
X129788228Y-119563297D01*
X129623816Y-119596000D01*
X129456184Y-119596000D01*
X129291772Y-119563297D01*
X129136900Y-119499147D01*
X128997519Y-119406015D01*
X128878985Y-119287481D01*
X128785853Y-119148100D01*
X128721703Y-118993228D01*
X128689000Y-118828816D01*
X128689000Y-118661184D01*
X128721703Y-118496772D01*
X128785853Y-118341900D01*
X128878985Y-118202519D01*
X128997519Y-118083985D01*
X129136900Y-117990853D01*
X129291772Y-117926703D01*
X129456184Y-117894000D01*
X129623816Y-117894000D01*
X129788228Y-117926703D01*
X129788228Y-117926703D01*
G37*
G36*
X130691000Y-116086000D02*
G01*
X128389000Y-116086000D01*
X128389000Y-113784000D01*
X130691000Y-113784000D01*
X130691000Y-116086000D01*
X130691000Y-116086000D01*
G37*
G36*
X134868228Y-113481703D02*
G01*
X135023100Y-113545853D01*
X135162481Y-113638985D01*
X135281015Y-113757519D01*
X135374147Y-113896900D01*
X135438297Y-114051772D01*
X135471000Y-114216184D01*
X135471000Y-114383816D01*
X135438297Y-114548228D01*
X135374147Y-114703100D01*
X135281015Y-114842481D01*
X135162481Y-114961015D01*
X135023100Y-115054147D01*
X134868228Y-115118297D01*
X134703816Y-115151000D01*
X134536184Y-115151000D01*
X134371772Y-115118297D01*
X134216900Y-115054147D01*
X134077519Y-114961015D01*
X133958985Y-114842481D01*
X133865853Y-114703100D01*
X133801703Y-114548228D01*
X133769000Y-114383816D01*
X133769000Y-114216184D01*
X133801703Y-114051772D01*
X133865853Y-113896900D01*
X133958985Y-113757519D01*
X134077519Y-113638985D01*
X134216900Y-113545853D01*
X134371772Y-113481703D01*
X134536184Y-113449000D01*
X134703816Y-113449000D01*
X134868228Y-113481703D01*
X134868228Y-113481703D01*
G37*
G36*
X149473228Y-112536703D02*
G01*
X149628100Y-112600853D01*
X149767481Y-112693985D01*
X149886015Y-112812519D01*
X149979147Y-112951900D01*
X150043297Y-113106772D01*
X150076000Y-113271184D01*
X150076000Y-113438816D01*
X150043297Y-113603228D01*
X149979147Y-113758100D01*
X149886015Y-113897481D01*
X149767481Y-114016015D01*
X149628100Y-114109147D01*
X149473228Y-114173297D01*
X149308816Y-114206000D01*
X149141184Y-114206000D01*
X148976772Y-114173297D01*
X148821900Y-114109147D01*
X148682519Y-114016015D01*
X148563985Y-113897481D01*
X148470853Y-113758100D01*
X148406703Y-113603228D01*
X148374000Y-113438816D01*
X148374000Y-113271184D01*
X148406703Y-113106772D01*
X148470853Y-112951900D01*
X148563985Y-112812519D01*
X148682519Y-112693985D01*
X148821900Y-112600853D01*
X148976772Y-112536703D01*
X149141184Y-112504000D01*
X149308816Y-112504000D01*
X149473228Y-112536703D01*
X149473228Y-112536703D01*
G37*
G36*
X141824059Y-112307860D02*
G01*
X141960732Y-112364472D01*
X142083735Y-112446660D01*
X142188340Y-112551265D01*
X142270528Y-112674268D01*
X142270529Y-112674270D01*
X142327140Y-112810941D01*
X142356000Y-112956032D01*
X142356000Y-113103968D01*
X142327140Y-113249059D01*
X142317976Y-113271184D01*
X142270528Y-113385732D01*
X142188340Y-113508735D01*
X142083735Y-113613340D01*
X141960732Y-113695528D01*
X141960731Y-113695529D01*
X141960730Y-113695529D01*
X141824059Y-113752140D01*
X141678968Y-113781000D01*
X141531032Y-113781000D01*
X141385941Y-113752140D01*
X141249270Y-113695529D01*
X141249269Y-113695529D01*
X141249268Y-113695528D01*
X141126265Y-113613340D01*
X141021660Y-113508735D01*
X140939472Y-113385732D01*
X140892025Y-113271184D01*
X140882860Y-113249059D01*
X140854000Y-113103968D01*
X140854000Y-112956032D01*
X140882860Y-112810941D01*
X140939471Y-112674270D01*
X140939472Y-112674268D01*
X141021660Y-112551265D01*
X141126265Y-112446660D01*
X141249268Y-112364472D01*
X141385941Y-112307860D01*
X141531032Y-112279000D01*
X141678968Y-112279000D01*
X141824059Y-112307860D01*
X141824059Y-112307860D01*
G37*
G36*
X150076000Y-110706000D02*
G01*
X148374000Y-110706000D01*
X148374000Y-109004000D01*
X150076000Y-109004000D01*
X150076000Y-110706000D01*
X150076000Y-110706000D01*
G37*
G36*
X134151823Y-108381313D02*
G01*
X134312242Y-108429976D01*
X134444906Y-108500886D01*
X134460078Y-108508996D01*
X134589659Y-108615341D01*
X134696004Y-108744922D01*
X134696005Y-108744924D01*
X134775024Y-108892758D01*
X134823687Y-109053177D01*
X134840117Y-109220000D01*
X134823687Y-109386823D01*
X134775024Y-109547242D01*
X134704114Y-109679906D01*
X134696004Y-109695078D01*
X134589659Y-109824659D01*
X134460078Y-109931004D01*
X134460076Y-109931005D01*
X134312242Y-110010024D01*
X134151823Y-110058687D01*
X134026804Y-110071000D01*
X133943196Y-110071000D01*
X133818177Y-110058687D01*
X133657758Y-110010024D01*
X133509924Y-109931005D01*
X133509922Y-109931004D01*
X133380341Y-109824659D01*
X133273996Y-109695078D01*
X133265886Y-109679906D01*
X133194976Y-109547242D01*
X133146313Y-109386823D01*
X133129883Y-109220000D01*
X133146313Y-109053177D01*
X133194976Y-108892758D01*
X133273995Y-108744924D01*
X133273996Y-108744922D01*
X133380341Y-108615341D01*
X133509922Y-108508996D01*
X133525094Y-108500886D01*
X133657758Y-108429976D01*
X133818177Y-108381313D01*
X133943196Y-108369000D01*
X134026804Y-108369000D01*
X134151823Y-108381313D01*
X134151823Y-108381313D01*
G37*
G36*
X141771823Y-108381313D02*
G01*
X141932242Y-108429976D01*
X142064906Y-108500886D01*
X142080078Y-108508996D01*
X142209659Y-108615341D01*
X142316004Y-108744922D01*
X142316005Y-108744924D01*
X142395024Y-108892758D01*
X142443687Y-109053177D01*
X142460117Y-109220000D01*
X142443687Y-109386823D01*
X142395024Y-109547242D01*
X142324114Y-109679906D01*
X142316004Y-109695078D01*
X142209659Y-109824659D01*
X142080078Y-109931004D01*
X142080076Y-109931005D01*
X141932242Y-110010024D01*
X141771823Y-110058687D01*
X141646804Y-110071000D01*
X141563196Y-110071000D01*
X141438177Y-110058687D01*
X141277758Y-110010024D01*
X141129924Y-109931005D01*
X141129922Y-109931004D01*
X141000341Y-109824659D01*
X140893996Y-109695078D01*
X140885886Y-109679906D01*
X140814976Y-109547242D01*
X140766313Y-109386823D01*
X140749883Y-109220000D01*
X140766313Y-109053177D01*
X140814976Y-108892758D01*
X140893995Y-108744924D01*
X140893996Y-108744922D01*
X141000341Y-108615341D01*
X141129922Y-108508996D01*
X141145094Y-108500886D01*
X141277758Y-108429976D01*
X141438177Y-108381313D01*
X141563196Y-108369000D01*
X141646804Y-108369000D01*
X141771823Y-108381313D01*
X141771823Y-108381313D01*
G37*
G36*
X134151823Y-105841313D02*
G01*
X134312242Y-105889976D01*
X134379638Y-105926000D01*
X134460078Y-105968996D01*
X134589659Y-106075341D01*
X134696004Y-106204922D01*
X134696005Y-106204924D01*
X134775024Y-106352758D01*
X134823687Y-106513177D01*
X134840117Y-106680000D01*
X134823687Y-106846823D01*
X134775024Y-107007242D01*
X134704114Y-107139906D01*
X134696004Y-107155078D01*
X134589659Y-107284659D01*
X134460078Y-107391004D01*
X134460076Y-107391005D01*
X134312242Y-107470024D01*
X134151823Y-107518687D01*
X134026804Y-107531000D01*
X133943196Y-107531000D01*
X133818177Y-107518687D01*
X133657758Y-107470024D01*
X133509924Y-107391005D01*
X133509922Y-107391004D01*
X133380341Y-107284659D01*
X133273996Y-107155078D01*
X133265886Y-107139906D01*
X133194976Y-107007242D01*
X133146313Y-106846823D01*
X133129883Y-106680000D01*
X133146313Y-106513177D01*
X133194976Y-106352758D01*
X133273995Y-106204924D01*
X133273996Y-106204922D01*
X133380341Y-106075341D01*
X133509922Y-105968996D01*
X133590362Y-105926000D01*
X133657758Y-105889976D01*
X133818177Y-105841313D01*
X133943196Y-105829000D01*
X134026804Y-105829000D01*
X134151823Y-105841313D01*
X134151823Y-105841313D01*
G37*
G36*
X141771823Y-105841313D02*
G01*
X141932242Y-105889976D01*
X141999638Y-105926000D01*
X142080078Y-105968996D01*
X142209659Y-106075341D01*
X142316004Y-106204922D01*
X142316005Y-106204924D01*
X142395024Y-106352758D01*
X142443687Y-106513177D01*
X142460117Y-106680000D01*
X142443687Y-106846823D01*
X142395024Y-107007242D01*
X142324114Y-107139906D01*
X142316004Y-107155078D01*
X142209659Y-107284659D01*
X142080078Y-107391004D01*
X142080076Y-107391005D01*
X141932242Y-107470024D01*
X141771823Y-107518687D01*
X141646804Y-107531000D01*
X141563196Y-107531000D01*
X141438177Y-107518687D01*
X141277758Y-107470024D01*
X141129924Y-107391005D01*
X141129922Y-107391004D01*
X141000341Y-107284659D01*
X140893996Y-107155078D01*
X140885886Y-107139906D01*
X140814976Y-107007242D01*
X140766313Y-106846823D01*
X140749883Y-106680000D01*
X140766313Y-106513177D01*
X140814976Y-106352758D01*
X140893995Y-106204924D01*
X140893996Y-106204922D01*
X141000341Y-106075341D01*
X141129922Y-105968996D01*
X141210362Y-105926000D01*
X141277758Y-105889976D01*
X141438177Y-105841313D01*
X141563196Y-105829000D01*
X141646804Y-105829000D01*
X141771823Y-105841313D01*
X141771823Y-105841313D01*
G37*
G36*
X157064059Y-105322860D02*
G01*
X157124294Y-105347810D01*
X157200732Y-105379472D01*
X157323735Y-105461660D01*
X157428340Y-105566265D01*
X157510528Y-105689268D01*
X157510529Y-105689270D01*
X157567140Y-105825941D01*
X157596000Y-105971032D01*
X157596000Y-106118968D01*
X157567140Y-106264059D01*
X157510528Y-106400732D01*
X157428340Y-106523735D01*
X157323735Y-106628340D01*
X157200732Y-106710528D01*
X157200731Y-106710529D01*
X157200730Y-106710529D01*
X157064059Y-106767140D01*
X156918968Y-106796000D01*
X156771032Y-106796000D01*
X156625941Y-106767140D01*
X156489270Y-106710529D01*
X156489269Y-106710529D01*
X156489268Y-106710528D01*
X156366265Y-106628340D01*
X156261660Y-106523735D01*
X156179472Y-106400732D01*
X156122860Y-106264059D01*
X156094000Y-106118968D01*
X156094000Y-105971032D01*
X156122860Y-105825941D01*
X156179471Y-105689270D01*
X156179472Y-105689268D01*
X156261660Y-105566265D01*
X156366265Y-105461660D01*
X156489268Y-105379472D01*
X156565707Y-105347810D01*
X156625941Y-105322860D01*
X156771032Y-105294000D01*
X156918968Y-105294000D01*
X157064059Y-105322860D01*
X157064059Y-105322860D01*
G37*
G36*
X149298665Y-105297622D02*
G01*
X149372222Y-105304867D01*
X149513786Y-105347810D01*
X149644252Y-105417546D01*
X149674040Y-105441992D01*
X149758607Y-105511393D01*
X149825429Y-105592818D01*
X149852454Y-105625748D01*
X149922190Y-105756214D01*
X149965133Y-105897778D01*
X149979633Y-106045000D01*
X149965133Y-106192222D01*
X149922190Y-106333786D01*
X149852454Y-106464252D01*
X149828008Y-106494040D01*
X149758607Y-106578607D01*
X149698004Y-106628341D01*
X149644252Y-106672454D01*
X149513786Y-106742190D01*
X149372222Y-106785133D01*
X149298665Y-106792378D01*
X149261888Y-106796000D01*
X149188112Y-106796000D01*
X149151335Y-106792378D01*
X149077778Y-106785133D01*
X148936214Y-106742190D01*
X148805748Y-106672454D01*
X148751996Y-106628341D01*
X148691393Y-106578607D01*
X148621992Y-106494040D01*
X148597546Y-106464252D01*
X148527810Y-106333786D01*
X148484867Y-106192222D01*
X148470367Y-106045000D01*
X148484867Y-105897778D01*
X148527810Y-105756214D01*
X148597546Y-105625748D01*
X148624571Y-105592818D01*
X148691393Y-105511393D01*
X148775960Y-105441992D01*
X148805748Y-105417546D01*
X148936214Y-105347810D01*
X149077778Y-105304867D01*
X149151335Y-105297622D01*
X149188112Y-105294000D01*
X149261888Y-105294000D01*
X149298665Y-105297622D01*
X149298665Y-105297622D01*
G37*
G36*
X129709271Y-103635103D02*
G01*
X129765635Y-103640654D01*
X129982600Y-103706470D01*
X129982602Y-103706471D01*
X130182555Y-103813347D01*
X130357818Y-103957182D01*
X130501653Y-104132445D01*
X130594859Y-104306823D01*
X130608530Y-104332400D01*
X130674346Y-104549365D01*
X130696569Y-104775000D01*
X130681301Y-104930024D01*
X130674346Y-105000634D01*
X130608529Y-105217602D01*
X130501653Y-105417555D01*
X130357818Y-105592818D01*
X130182555Y-105736653D01*
X130015507Y-105825941D01*
X129982600Y-105843530D01*
X129765635Y-105909346D01*
X129709271Y-105914897D01*
X129596545Y-105926000D01*
X129483455Y-105926000D01*
X129370729Y-105914897D01*
X129314365Y-105909346D01*
X129097400Y-105843530D01*
X129064493Y-105825941D01*
X128897445Y-105736653D01*
X128722182Y-105592818D01*
X128578347Y-105417555D01*
X128471471Y-105217602D01*
X128405654Y-105000634D01*
X128398700Y-104930024D01*
X128383431Y-104775000D01*
X128405654Y-104549365D01*
X128471470Y-104332400D01*
X128485141Y-104306823D01*
X128578347Y-104132445D01*
X128722182Y-103957182D01*
X128897445Y-103813347D01*
X129097398Y-103706471D01*
X129097400Y-103706470D01*
X129314365Y-103640654D01*
X129370729Y-103635103D01*
X129483455Y-103624000D01*
X129596545Y-103624000D01*
X129709271Y-103635103D01*
X129709271Y-103635103D01*
G37*
G36*
X134151823Y-103301313D02*
G01*
X134312242Y-103349976D01*
X134444906Y-103420886D01*
X134460078Y-103428996D01*
X134589659Y-103535341D01*
X134696004Y-103664922D01*
X134696005Y-103664924D01*
X134775024Y-103812758D01*
X134823687Y-103973177D01*
X134840117Y-104140000D01*
X134823687Y-104306823D01*
X134775024Y-104467242D01*
X134731128Y-104549365D01*
X134696004Y-104615078D01*
X134589659Y-104744659D01*
X134460078Y-104851004D01*
X134460076Y-104851005D01*
X134312242Y-104930024D01*
X134151823Y-104978687D01*
X134026804Y-104991000D01*
X133943196Y-104991000D01*
X133818177Y-104978687D01*
X133657758Y-104930024D01*
X133509924Y-104851005D01*
X133509922Y-104851004D01*
X133380341Y-104744659D01*
X133273996Y-104615078D01*
X133238872Y-104549365D01*
X133194976Y-104467242D01*
X133146313Y-104306823D01*
X133129883Y-104140000D01*
X133146313Y-103973177D01*
X133194976Y-103812758D01*
X133273995Y-103664924D01*
X133273996Y-103664922D01*
X133380341Y-103535341D01*
X133509922Y-103428996D01*
X133525094Y-103420886D01*
X133657758Y-103349976D01*
X133818177Y-103301313D01*
X133943196Y-103289000D01*
X134026804Y-103289000D01*
X134151823Y-103301313D01*
X134151823Y-103301313D01*
G37*
G36*
X141771823Y-103301313D02*
G01*
X141932242Y-103349976D01*
X142064906Y-103420886D01*
X142080078Y-103428996D01*
X142209659Y-103535341D01*
X142316004Y-103664922D01*
X142316005Y-103664924D01*
X142395024Y-103812758D01*
X142443687Y-103973177D01*
X142460117Y-104140000D01*
X142443687Y-104306823D01*
X142395024Y-104467242D01*
X142351128Y-104549365D01*
X142316004Y-104615078D01*
X142209659Y-104744659D01*
X142080078Y-104851004D01*
X142080076Y-104851005D01*
X141932242Y-104930024D01*
X141771823Y-104978687D01*
X141646804Y-104991000D01*
X141563196Y-104991000D01*
X141438177Y-104978687D01*
X141277758Y-104930024D01*
X141129924Y-104851005D01*
X141129922Y-104851004D01*
X141000341Y-104744659D01*
X140893996Y-104615078D01*
X140858872Y-104549365D01*
X140814976Y-104467242D01*
X140766313Y-104306823D01*
X140749883Y-104140000D01*
X140766313Y-103973177D01*
X140814976Y-103812758D01*
X140893995Y-103664924D01*
X140893996Y-103664922D01*
X141000341Y-103535341D01*
X141129922Y-103428996D01*
X141145094Y-103420886D01*
X141277758Y-103349976D01*
X141438177Y-103301313D01*
X141563196Y-103289000D01*
X141646804Y-103289000D01*
X141771823Y-103301313D01*
X141771823Y-103301313D01*
G37*
G36*
X152619059Y-102782860D02*
G01*
X152679294Y-102807810D01*
X152755732Y-102839472D01*
X152878735Y-102921660D01*
X152983340Y-103026265D01*
X153065528Y-103149268D01*
X153065529Y-103149270D01*
X153122140Y-103285941D01*
X153151000Y-103431032D01*
X153151000Y-103578968D01*
X153125639Y-103706470D01*
X153122140Y-103724059D01*
X153065528Y-103860732D01*
X152983340Y-103983735D01*
X152878735Y-104088340D01*
X152755732Y-104170528D01*
X152755731Y-104170529D01*
X152755730Y-104170529D01*
X152619059Y-104227140D01*
X152473968Y-104256000D01*
X152326032Y-104256000D01*
X152180941Y-104227140D01*
X152044270Y-104170529D01*
X152044269Y-104170529D01*
X152044268Y-104170528D01*
X151921265Y-104088340D01*
X151816660Y-103983735D01*
X151734472Y-103860732D01*
X151677860Y-103724059D01*
X151674361Y-103706470D01*
X151649000Y-103578968D01*
X151649000Y-103431032D01*
X151677860Y-103285941D01*
X151734471Y-103149270D01*
X151734472Y-103149268D01*
X151816660Y-103026265D01*
X151921265Y-102921660D01*
X152044268Y-102839472D01*
X152120707Y-102807810D01*
X152180941Y-102782860D01*
X152326032Y-102754000D01*
X152473968Y-102754000D01*
X152619059Y-102782860D01*
X152619059Y-102782860D01*
G37*
G36*
X144853665Y-102757622D02*
G01*
X144927222Y-102764867D01*
X145068786Y-102807810D01*
X145199252Y-102877546D01*
X145229040Y-102901992D01*
X145313607Y-102971393D01*
X145383008Y-103055960D01*
X145407454Y-103085748D01*
X145477190Y-103216214D01*
X145520133Y-103357778D01*
X145534633Y-103505000D01*
X145520133Y-103652222D01*
X145477190Y-103793786D01*
X145407454Y-103924252D01*
X145383008Y-103954040D01*
X145313607Y-104038607D01*
X145253004Y-104088341D01*
X145199252Y-104132454D01*
X145068786Y-104202190D01*
X144927222Y-104245133D01*
X144853665Y-104252378D01*
X144816888Y-104256000D01*
X144743112Y-104256000D01*
X144706335Y-104252378D01*
X144632778Y-104245133D01*
X144491214Y-104202190D01*
X144360748Y-104132454D01*
X144306996Y-104088341D01*
X144246393Y-104038607D01*
X144176992Y-103954040D01*
X144152546Y-103924252D01*
X144082810Y-103793786D01*
X144039867Y-103652222D01*
X144025367Y-103505000D01*
X144039867Y-103357778D01*
X144082810Y-103216214D01*
X144152546Y-103085748D01*
X144176992Y-103055960D01*
X144246393Y-102971393D01*
X144330960Y-102901992D01*
X144360748Y-102877546D01*
X144491214Y-102807810D01*
X144632778Y-102764867D01*
X144706335Y-102757622D01*
X144743112Y-102754000D01*
X144816888Y-102754000D01*
X144853665Y-102757622D01*
X144853665Y-102757622D01*
G37*
G36*
X134836000Y-102451000D02*
G01*
X133134000Y-102451000D01*
X133134000Y-100749000D01*
X134836000Y-100749000D01*
X134836000Y-102451000D01*
X134836000Y-102451000D01*
G37*
G36*
X141771823Y-100761313D02*
G01*
X141932242Y-100809976D01*
X142064906Y-100880886D01*
X142080078Y-100888996D01*
X142209659Y-100995341D01*
X142316004Y-101124922D01*
X142316005Y-101124924D01*
X142395024Y-101272758D01*
X142443687Y-101433177D01*
X142460117Y-101600000D01*
X142443687Y-101766823D01*
X142395024Y-101927242D01*
X142324114Y-102059906D01*
X142316004Y-102075078D01*
X142209659Y-102204659D01*
X142080078Y-102311004D01*
X142080076Y-102311005D01*
X141932242Y-102390024D01*
X141771823Y-102438687D01*
X141646804Y-102451000D01*
X141563196Y-102451000D01*
X141438177Y-102438687D01*
X141277758Y-102390024D01*
X141129924Y-102311005D01*
X141129922Y-102311004D01*
X141000341Y-102204659D01*
X140893996Y-102075078D01*
X140885886Y-102059906D01*
X140814976Y-101927242D01*
X140766313Y-101766823D01*
X140749883Y-101600000D01*
X140766313Y-101433177D01*
X140814976Y-101272758D01*
X140893995Y-101124924D01*
X140893996Y-101124922D01*
X141000341Y-100995341D01*
X141129922Y-100888996D01*
X141145094Y-100880886D01*
X141277758Y-100809976D01*
X141438177Y-100761313D01*
X141563196Y-100749000D01*
X141646804Y-100749000D01*
X141771823Y-100761313D01*
X141771823Y-100761313D01*
G37*
G36*
X152619059Y-100242860D02*
G01*
X152679294Y-100267810D01*
X152755732Y-100299472D01*
X152878735Y-100381660D01*
X152983340Y-100486265D01*
X153065528Y-100609268D01*
X153065529Y-100609270D01*
X153122140Y-100745941D01*
X153151000Y-100891032D01*
X153151000Y-101038968D01*
X153122140Y-101184059D01*
X153065528Y-101320732D01*
X152983340Y-101443735D01*
X152878735Y-101548340D01*
X152755732Y-101630528D01*
X152755731Y-101630529D01*
X152755730Y-101630529D01*
X152619059Y-101687140D01*
X152473968Y-101716000D01*
X152326032Y-101716000D01*
X152180941Y-101687140D01*
X152044270Y-101630529D01*
X152044269Y-101630529D01*
X152044268Y-101630528D01*
X151921265Y-101548340D01*
X151816660Y-101443735D01*
X151734472Y-101320732D01*
X151677860Y-101184059D01*
X151649000Y-101038968D01*
X151649000Y-100891032D01*
X151677860Y-100745941D01*
X151734471Y-100609270D01*
X151734472Y-100609268D01*
X151816660Y-100486265D01*
X151921265Y-100381660D01*
X152044268Y-100299472D01*
X152120707Y-100267810D01*
X152180941Y-100242860D01*
X152326032Y-100214000D01*
X152473968Y-100214000D01*
X152619059Y-100242860D01*
X152619059Y-100242860D01*
G37*
G36*
X144853665Y-100217622D02*
G01*
X144927222Y-100224867D01*
X145068786Y-100267810D01*
X145199252Y-100337546D01*
X145229040Y-100361992D01*
X145313607Y-100431393D01*
X145383008Y-100515960D01*
X145407454Y-100545748D01*
X145477190Y-100676214D01*
X145520133Y-100817778D01*
X145534633Y-100965000D01*
X145520133Y-101112222D01*
X145477190Y-101253786D01*
X145407454Y-101384252D01*
X145383008Y-101414040D01*
X145313607Y-101498607D01*
X145253004Y-101548341D01*
X145199252Y-101592454D01*
X145068786Y-101662190D01*
X144927222Y-101705133D01*
X144853665Y-101712378D01*
X144816888Y-101716000D01*
X144743112Y-101716000D01*
X144706335Y-101712378D01*
X144632778Y-101705133D01*
X144491214Y-101662190D01*
X144360748Y-101592454D01*
X144306996Y-101548341D01*
X144246393Y-101498607D01*
X144176992Y-101414040D01*
X144152546Y-101384252D01*
X144082810Y-101253786D01*
X144039867Y-101112222D01*
X144025367Y-100965000D01*
X144039867Y-100817778D01*
X144082810Y-100676214D01*
X144152546Y-100545748D01*
X144176992Y-100515960D01*
X144246393Y-100431393D01*
X144330960Y-100361992D01*
X144360748Y-100337546D01*
X144491214Y-100267810D01*
X144632778Y-100224867D01*
X144706335Y-100217622D01*
X144743112Y-100214000D01*
X144816888Y-100214000D01*
X144853665Y-100217622D01*
X144853665Y-100217622D01*
G37*
G36*
X130513855Y-97872140D02*
G01*
X130577618Y-97878420D01*
X130668404Y-97905960D01*
X130700336Y-97915646D01*
X130813425Y-97976094D01*
X130912554Y-98057446D01*
X130993906Y-98156575D01*
X131054354Y-98269664D01*
X131054355Y-98269668D01*
X131091580Y-98392382D01*
X131104149Y-98520000D01*
X131091580Y-98647618D01*
X131064040Y-98738404D01*
X131054354Y-98770336D01*
X130993906Y-98883425D01*
X130912554Y-98982554D01*
X130813425Y-99063906D01*
X130700336Y-99124354D01*
X130668404Y-99134040D01*
X130577618Y-99161580D01*
X130513855Y-99167860D01*
X130481974Y-99171000D01*
X129868026Y-99171000D01*
X129836145Y-99167860D01*
X129772382Y-99161580D01*
X129681596Y-99134040D01*
X129649664Y-99124354D01*
X129536575Y-99063906D01*
X129437446Y-98982554D01*
X129356094Y-98883425D01*
X129295646Y-98770336D01*
X129285960Y-98738404D01*
X129258420Y-98647618D01*
X129245851Y-98520000D01*
X129258420Y-98392382D01*
X129295645Y-98269668D01*
X129295646Y-98269664D01*
X129356094Y-98156575D01*
X129437446Y-98057446D01*
X129536575Y-97976094D01*
X129649664Y-97915646D01*
X129681596Y-97905960D01*
X129772382Y-97878420D01*
X129836145Y-97872140D01*
X129868026Y-97869000D01*
X130481974Y-97869000D01*
X130513855Y-97872140D01*
X130513855Y-97872140D01*
G37*
G36*
X155188228Y-96336703D02*
G01*
X155343100Y-96400853D01*
X155482481Y-96493985D01*
X155601015Y-96612519D01*
X155694147Y-96751900D01*
X155758297Y-96906772D01*
X155791000Y-97071184D01*
X155791000Y-97238816D01*
X155758297Y-97403228D01*
X155694147Y-97558100D01*
X155601015Y-97697481D01*
X155482481Y-97816015D01*
X155343100Y-97909147D01*
X155188228Y-97973297D01*
X155023816Y-98006000D01*
X154856184Y-98006000D01*
X154691772Y-97973297D01*
X154536900Y-97909147D01*
X154397519Y-97816015D01*
X154278985Y-97697481D01*
X154185853Y-97558100D01*
X154121703Y-97403228D01*
X154089000Y-97238816D01*
X154089000Y-97071184D01*
X154121703Y-96906772D01*
X154185853Y-96751900D01*
X154278985Y-96612519D01*
X154397519Y-96493985D01*
X154536900Y-96400853D01*
X154691772Y-96336703D01*
X154856184Y-96304000D01*
X155023816Y-96304000D01*
X155188228Y-96336703D01*
X155188228Y-96336703D01*
G37*
G36*
X145106823Y-96316313D02*
G01*
X145267242Y-96364976D01*
X145334361Y-96400852D01*
X145415078Y-96443996D01*
X145544659Y-96550341D01*
X145651004Y-96679922D01*
X145651005Y-96679924D01*
X145730024Y-96827758D01*
X145778687Y-96988177D01*
X145795117Y-97155000D01*
X145778687Y-97321823D01*
X145730024Y-97482242D01*
X145689477Y-97558100D01*
X145651004Y-97630078D01*
X145544659Y-97759659D01*
X145415078Y-97866004D01*
X145415076Y-97866005D01*
X145267242Y-97945024D01*
X145106823Y-97993687D01*
X144981804Y-98006000D01*
X144898196Y-98006000D01*
X144773177Y-97993687D01*
X144612758Y-97945024D01*
X144464924Y-97866005D01*
X144464922Y-97866004D01*
X144335341Y-97759659D01*
X144228996Y-97630078D01*
X144190523Y-97558100D01*
X144149976Y-97482242D01*
X144101313Y-97321823D01*
X144084883Y-97155000D01*
X144101313Y-96988177D01*
X144149976Y-96827758D01*
X144228995Y-96679924D01*
X144228996Y-96679922D01*
X144335341Y-96550341D01*
X144464922Y-96443996D01*
X144545639Y-96400852D01*
X144612758Y-96364976D01*
X144773177Y-96316313D01*
X144898196Y-96304000D01*
X144981804Y-96304000D01*
X145106823Y-96316313D01*
X145106823Y-96316313D01*
G37*
G36*
X138446000Y-97171000D02*
G01*
X137144000Y-97171000D01*
X137144000Y-95869000D01*
X138446000Y-95869000D01*
X138446000Y-97171000D01*
X138446000Y-97171000D01*
G37*
G36*
X130941242Y-95873404D02*
G01*
X130978337Y-95884657D01*
X131012515Y-95902925D01*
X131042481Y-95927519D01*
X131067075Y-95957485D01*
X131085343Y-95991663D01*
X131096596Y-96028758D01*
X131101000Y-96073474D01*
X131101000Y-96966526D01*
X131096596Y-97011242D01*
X131085343Y-97048337D01*
X131067075Y-97082515D01*
X131042481Y-97112481D01*
X131012515Y-97137075D01*
X130978337Y-97155343D01*
X130941242Y-97166596D01*
X130896526Y-97171000D01*
X129453474Y-97171000D01*
X129408758Y-97166596D01*
X129371663Y-97155343D01*
X129337485Y-97137075D01*
X129307519Y-97112481D01*
X129282925Y-97082515D01*
X129264657Y-97048337D01*
X129253404Y-97011242D01*
X129249000Y-96966526D01*
X129249000Y-96073474D01*
X129253404Y-96028758D01*
X129264657Y-95991663D01*
X129282925Y-95957485D01*
X129307519Y-95927519D01*
X129337485Y-95902925D01*
X129371663Y-95884657D01*
X129408758Y-95873404D01*
X129453474Y-95869000D01*
X130896526Y-95869000D01*
X130941242Y-95873404D01*
X130941242Y-95873404D01*
G37*
G36*
X137984890Y-93894017D02*
G01*
X138067753Y-93928340D01*
X138103364Y-93943091D01*
X138209988Y-94014335D01*
X138300665Y-94105012D01*
X138371909Y-94211636D01*
X138420983Y-94330110D01*
X138446000Y-94455882D01*
X138446000Y-94584118D01*
X138420983Y-94709890D01*
X138371909Y-94828364D01*
X138300665Y-94934988D01*
X138209988Y-95025665D01*
X138103364Y-95096909D01*
X138103363Y-95096910D01*
X138103362Y-95096910D01*
X137984890Y-95145983D01*
X137859119Y-95171000D01*
X137730881Y-95171000D01*
X137605110Y-95145983D01*
X137486638Y-95096910D01*
X137486637Y-95096910D01*
X137486636Y-95096909D01*
X137380012Y-95025665D01*
X137289335Y-94934988D01*
X137218091Y-94828364D01*
X137169017Y-94709890D01*
X137144000Y-94584118D01*
X137144000Y-94455882D01*
X137169017Y-94330110D01*
X137218091Y-94211636D01*
X137289335Y-94105012D01*
X137380012Y-94014335D01*
X137486636Y-93943091D01*
X137522248Y-93928340D01*
X137605110Y-93894017D01*
X137730881Y-93869000D01*
X137859119Y-93869000D01*
X137984890Y-93894017D01*
X137984890Y-93894017D01*
G37*
G36*
X152473665Y-92597622D02*
G01*
X152547222Y-92604867D01*
X152688786Y-92647810D01*
X152819252Y-92717546D01*
X152849040Y-92741992D01*
X152933607Y-92811393D01*
X153003008Y-92895960D01*
X153027454Y-92925748D01*
X153097190Y-93056214D01*
X153140133Y-93197778D01*
X153154633Y-93345000D01*
X153140133Y-93492222D01*
X153097190Y-93633786D01*
X153027454Y-93764252D01*
X153003008Y-93794040D01*
X152933607Y-93878607D01*
X152873004Y-93928341D01*
X152819252Y-93972454D01*
X152688786Y-94042190D01*
X152547222Y-94085133D01*
X152473665Y-94092378D01*
X152436888Y-94096000D01*
X152363112Y-94096000D01*
X152326335Y-94092378D01*
X152252778Y-94085133D01*
X152111214Y-94042190D01*
X151980748Y-93972454D01*
X151926996Y-93928341D01*
X151866393Y-93878607D01*
X151796992Y-93794040D01*
X151772546Y-93764252D01*
X151702810Y-93633786D01*
X151659867Y-93492222D01*
X151645367Y-93345000D01*
X151659867Y-93197778D01*
X151702810Y-93056214D01*
X151772546Y-92925748D01*
X151796992Y-92895960D01*
X151866393Y-92811393D01*
X151950960Y-92741992D01*
X151980748Y-92717546D01*
X152111214Y-92647810D01*
X152252778Y-92604867D01*
X152326335Y-92597622D01*
X152363112Y-92594000D01*
X152436888Y-92594000D01*
X152473665Y-92597622D01*
X152473665Y-92597622D01*
G37*
G36*
X144999059Y-92622860D02*
G01*
X145059294Y-92647810D01*
X145135732Y-92679472D01*
X145258735Y-92761660D01*
X145363340Y-92866265D01*
X145445528Y-92989268D01*
X145502140Y-93125941D01*
X145531000Y-93271033D01*
X145531000Y-93418967D01*
X145502140Y-93564059D01*
X145445528Y-93700732D01*
X145363340Y-93823735D01*
X145258735Y-93928340D01*
X145135732Y-94010528D01*
X145135731Y-94010529D01*
X145135730Y-94010529D01*
X144999059Y-94067140D01*
X144853968Y-94096000D01*
X144706032Y-94096000D01*
X144560941Y-94067140D01*
X144424270Y-94010529D01*
X144424269Y-94010529D01*
X144424268Y-94010528D01*
X144301265Y-93928340D01*
X144196660Y-93823735D01*
X144114472Y-93700732D01*
X144057860Y-93564059D01*
X144029000Y-93418967D01*
X144029000Y-93271033D01*
X144057860Y-93125941D01*
X144114472Y-92989268D01*
X144196660Y-92866265D01*
X144301265Y-92761660D01*
X144424268Y-92679472D01*
X144500707Y-92647810D01*
X144560941Y-92622860D01*
X144706032Y-92594000D01*
X144853968Y-92594000D01*
X144999059Y-92622860D01*
X144999059Y-92622860D01*
G37*
G36*
X144999059Y-90082860D02*
G01*
X145059294Y-90107810D01*
X145135732Y-90139472D01*
X145258735Y-90221660D01*
X145363340Y-90326265D01*
X145445528Y-90449268D01*
X145502140Y-90585941D01*
X145531000Y-90731033D01*
X145531000Y-90878967D01*
X145502140Y-91024059D01*
X145445528Y-91160732D01*
X145363340Y-91283735D01*
X145258735Y-91388340D01*
X145135732Y-91470528D01*
X145135731Y-91470529D01*
X145135730Y-91470529D01*
X144999059Y-91527140D01*
X144853968Y-91556000D01*
X144706032Y-91556000D01*
X144560941Y-91527140D01*
X144424270Y-91470529D01*
X144424269Y-91470529D01*
X144424268Y-91470528D01*
X144301265Y-91388340D01*
X144196660Y-91283735D01*
X144114472Y-91160732D01*
X144057860Y-91024059D01*
X144029000Y-90878967D01*
X144029000Y-90731033D01*
X144057860Y-90585941D01*
X144114472Y-90449268D01*
X144196660Y-90326265D01*
X144301265Y-90221660D01*
X144424268Y-90139472D01*
X144500707Y-90107810D01*
X144560941Y-90082860D01*
X144706032Y-90054000D01*
X144853968Y-90054000D01*
X144999059Y-90082860D01*
X144999059Y-90082860D01*
G37*
G36*
X152473665Y-90057622D02*
G01*
X152547222Y-90064867D01*
X152688786Y-90107810D01*
X152819252Y-90177546D01*
X152849040Y-90201992D01*
X152933607Y-90271393D01*
X153003008Y-90355960D01*
X153027454Y-90385748D01*
X153097190Y-90516214D01*
X153140133Y-90657778D01*
X153154633Y-90805000D01*
X153140133Y-90952222D01*
X153097190Y-91093786D01*
X153027454Y-91224252D01*
X153003008Y-91254040D01*
X152933607Y-91338607D01*
X152873004Y-91388341D01*
X152819252Y-91432454D01*
X152688786Y-91502190D01*
X152547222Y-91545133D01*
X152473665Y-91552378D01*
X152436888Y-91556000D01*
X152363112Y-91556000D01*
X152326335Y-91552378D01*
X152252778Y-91545133D01*
X152111214Y-91502190D01*
X151980748Y-91432454D01*
X151926996Y-91388341D01*
X151866393Y-91338607D01*
X151796992Y-91254040D01*
X151772546Y-91224252D01*
X151702810Y-91093786D01*
X151659867Y-90952222D01*
X151645367Y-90805000D01*
X151659867Y-90657778D01*
X151702810Y-90516214D01*
X151772546Y-90385748D01*
X151796992Y-90355960D01*
X151866393Y-90271393D01*
X151950960Y-90201992D01*
X151980748Y-90177546D01*
X152111214Y-90107810D01*
X152252778Y-90064867D01*
X152326335Y-90057622D01*
X152363112Y-90054000D01*
X152436888Y-90054000D01*
X152473665Y-90057622D01*
X152473665Y-90057622D01*
G37*
G36*
X135896500Y-91206000D02*
G01*
X134269500Y-91206000D01*
X134269500Y-90404000D01*
X135896500Y-90404000D01*
X135896500Y-91206000D01*
X135896500Y-91206000D01*
G37*
G36*
X141320500Y-91206000D02*
G01*
X139693500Y-91206000D01*
X139693500Y-90404000D01*
X141320500Y-90404000D01*
X141320500Y-91206000D01*
X141320500Y-91206000D01*
G37*
G36*
X129806000Y-91071000D02*
G01*
X128004000Y-91071000D01*
X128004000Y-89269000D01*
X129806000Y-89269000D01*
X129806000Y-91071000D01*
X129806000Y-91071000D01*
G37*
G36*
X139102500Y-90652000D02*
G01*
X136487500Y-90652000D01*
X136487500Y-87148000D01*
X139102500Y-87148000D01*
X139102500Y-90652000D01*
X139102500Y-90652000D01*
G37*
G36*
X141320500Y-89936000D02*
G01*
X139693500Y-89936000D01*
X139693500Y-89134000D01*
X141320500Y-89134000D01*
X141320500Y-89936000D01*
X141320500Y-89936000D01*
G37*
G36*
X135896500Y-89936000D02*
G01*
X134269500Y-89936000D01*
X134269500Y-89134000D01*
X135896500Y-89134000D01*
X135896500Y-89936000D01*
X135896500Y-89936000D01*
G37*
G36*
X141320500Y-88666000D02*
G01*
X139693500Y-88666000D01*
X139693500Y-87864000D01*
X141320500Y-87864000D01*
X141320500Y-88666000D01*
X141320500Y-88666000D01*
G37*
G36*
X135896500Y-88666000D02*
G01*
X134269500Y-88666000D01*
X134269500Y-87864000D01*
X135896500Y-87864000D01*
X135896500Y-88666000D01*
X135896500Y-88666000D01*
G37*
G36*
X129015442Y-86735518D02*
G01*
X129081627Y-86742037D01*
X129251466Y-86793557D01*
X129407991Y-86877222D01*
X129443729Y-86906552D01*
X129545186Y-86989814D01*
X129628448Y-87091271D01*
X129657778Y-87127009D01*
X129741443Y-87283534D01*
X129792963Y-87453373D01*
X129810359Y-87630000D01*
X129792963Y-87806627D01*
X129741443Y-87976466D01*
X129657778Y-88132991D01*
X129628448Y-88168729D01*
X129545186Y-88270186D01*
X129443729Y-88353448D01*
X129407991Y-88382778D01*
X129251466Y-88466443D01*
X129081627Y-88517963D01*
X129015442Y-88524482D01*
X128949260Y-88531000D01*
X128860740Y-88531000D01*
X128794558Y-88524482D01*
X128728373Y-88517963D01*
X128558534Y-88466443D01*
X128402009Y-88382778D01*
X128366271Y-88353448D01*
X128264814Y-88270186D01*
X128181552Y-88168729D01*
X128152222Y-88132991D01*
X128068557Y-87976466D01*
X128017037Y-87806627D01*
X127999641Y-87630000D01*
X128017037Y-87453373D01*
X128068557Y-87283534D01*
X128152222Y-87127009D01*
X128181552Y-87091271D01*
X128264814Y-86989814D01*
X128366271Y-86906552D01*
X128402009Y-86877222D01*
X128558534Y-86793557D01*
X128728373Y-86742037D01*
X128794558Y-86735518D01*
X128860740Y-86729000D01*
X128949260Y-86729000D01*
X129015442Y-86735518D01*
X129015442Y-86735518D01*
G37*
G36*
X158431000Y-87946000D02*
G01*
X156529000Y-87946000D01*
X156529000Y-86044000D01*
X158431000Y-86044000D01*
X158431000Y-87946000D01*
X158431000Y-87946000D01*
G37*
G36*
X150176000Y-87946000D02*
G01*
X148274000Y-87946000D01*
X148274000Y-86044000D01*
X150176000Y-86044000D01*
X150176000Y-87946000D01*
X150176000Y-87946000D01*
G37*
G36*
X135896500Y-87396000D02*
G01*
X134269500Y-87396000D01*
X134269500Y-86594000D01*
X135896500Y-86594000D01*
X135896500Y-87396000D01*
X135896500Y-87396000D01*
G37*
G36*
X141320500Y-87396000D02*
G01*
X139693500Y-87396000D01*
X139693500Y-86594000D01*
X141320500Y-86594000D01*
X141320500Y-87396000D01*
X141320500Y-87396000D01*
G37*
G36*
X149502395Y-83540546D02*
G01*
X149675466Y-83612234D01*
X149675467Y-83612235D01*
X149831227Y-83716310D01*
X149963690Y-83848773D01*
X149963691Y-83848775D01*
X150067766Y-84004534D01*
X150139454Y-84177605D01*
X150176000Y-84361333D01*
X150176000Y-84548667D01*
X150139454Y-84732395D01*
X150067766Y-84905466D01*
X150067765Y-84905467D01*
X149963690Y-85061227D01*
X149831227Y-85193690D01*
X149752818Y-85246081D01*
X149675466Y-85297766D01*
X149502395Y-85369454D01*
X149318667Y-85406000D01*
X149131333Y-85406000D01*
X148947605Y-85369454D01*
X148774534Y-85297766D01*
X148697182Y-85246081D01*
X148618773Y-85193690D01*
X148486310Y-85061227D01*
X148382235Y-84905467D01*
X148382234Y-84905466D01*
X148310546Y-84732395D01*
X148274000Y-84548667D01*
X148274000Y-84361333D01*
X148310546Y-84177605D01*
X148382234Y-84004534D01*
X148486309Y-83848775D01*
X148486310Y-83848773D01*
X148618773Y-83716310D01*
X148774533Y-83612235D01*
X148774534Y-83612234D01*
X148947605Y-83540546D01*
X149131333Y-83504000D01*
X149318667Y-83504000D01*
X149502395Y-83540546D01*
X149502395Y-83540546D01*
G37*
G36*
X157757395Y-83540546D02*
G01*
X157930466Y-83612234D01*
X157930467Y-83612235D01*
X158086227Y-83716310D01*
X158218690Y-83848773D01*
X158218691Y-83848775D01*
X158322766Y-84004534D01*
X158394454Y-84177605D01*
X158431000Y-84361333D01*
X158431000Y-84548667D01*
X158394454Y-84732395D01*
X158322766Y-84905466D01*
X158322765Y-84905467D01*
X158218690Y-85061227D01*
X158086227Y-85193690D01*
X158007818Y-85246081D01*
X157930466Y-85297766D01*
X157757395Y-85369454D01*
X157573667Y-85406000D01*
X157386333Y-85406000D01*
X157202605Y-85369454D01*
X157029534Y-85297766D01*
X156952182Y-85246081D01*
X156873773Y-85193690D01*
X156741310Y-85061227D01*
X156637235Y-84905467D01*
X156637234Y-84905466D01*
X156565546Y-84732395D01*
X156529000Y-84548667D01*
X156529000Y-84361333D01*
X156565546Y-84177605D01*
X156637234Y-84004534D01*
X156741309Y-83848775D01*
X156741310Y-83848773D01*
X156873773Y-83716310D01*
X157029533Y-83612235D01*
X157029534Y-83612234D01*
X157202605Y-83540546D01*
X157386333Y-83504000D01*
X157573667Y-83504000D01*
X157757395Y-83540546D01*
X157757395Y-83540546D01*
G37*
G36*
X128343665Y-80532622D02*
G01*
X128417222Y-80539867D01*
X128558786Y-80582810D01*
X128689252Y-80652546D01*
X128719040Y-80676992D01*
X128803607Y-80746393D01*
X128873008Y-80830960D01*
X128897454Y-80860748D01*
X128967190Y-80991214D01*
X129010133Y-81132778D01*
X129024633Y-81280000D01*
X129010133Y-81427222D01*
X128967190Y-81568786D01*
X128897454Y-81699252D01*
X128873008Y-81729040D01*
X128803607Y-81813607D01*
X128719040Y-81883008D01*
X128689252Y-81907454D01*
X128558786Y-81977190D01*
X128417222Y-82020133D01*
X128343665Y-82027378D01*
X128306888Y-82031000D01*
X128233112Y-82031000D01*
X128196335Y-82027378D01*
X128122778Y-82020133D01*
X127981214Y-81977190D01*
X127850748Y-81907454D01*
X127820960Y-81883008D01*
X127736393Y-81813607D01*
X127666992Y-81729040D01*
X127642546Y-81699252D01*
X127572810Y-81568786D01*
X127529867Y-81427222D01*
X127515367Y-81280000D01*
X127529867Y-81132778D01*
X127572810Y-80991214D01*
X127642546Y-80860748D01*
X127666992Y-80830960D01*
X127736393Y-80746393D01*
X127820960Y-80676992D01*
X127850748Y-80652546D01*
X127981214Y-80582810D01*
X128122778Y-80539867D01*
X128196335Y-80532622D01*
X128233112Y-80529000D01*
X128306888Y-80529000D01*
X128343665Y-80532622D01*
X128343665Y-80532622D01*
G37*
G36*
X130883665Y-80532622D02*
G01*
X130957222Y-80539867D01*
X131098786Y-80582810D01*
X131229252Y-80652546D01*
X131259040Y-80676992D01*
X131343607Y-80746393D01*
X131413008Y-80830960D01*
X131437454Y-80860748D01*
X131507190Y-80991214D01*
X131550133Y-81132778D01*
X131564633Y-81280000D01*
X131550133Y-81427222D01*
X131507190Y-81568786D01*
X131437454Y-81699252D01*
X131413008Y-81729040D01*
X131343607Y-81813607D01*
X131259040Y-81883008D01*
X131229252Y-81907454D01*
X131098786Y-81977190D01*
X130957222Y-82020133D01*
X130883665Y-82027378D01*
X130846888Y-82031000D01*
X130773112Y-82031000D01*
X130736335Y-82027378D01*
X130662778Y-82020133D01*
X130521214Y-81977190D01*
X130390748Y-81907454D01*
X130360960Y-81883008D01*
X130276393Y-81813607D01*
X130206992Y-81729040D01*
X130182546Y-81699252D01*
X130112810Y-81568786D01*
X130069867Y-81427222D01*
X130055367Y-81280000D01*
X130069867Y-81132778D01*
X130112810Y-80991214D01*
X130182546Y-80860748D01*
X130206992Y-80830960D01*
X130276393Y-80746393D01*
X130360960Y-80676992D01*
X130390748Y-80652546D01*
X130521214Y-80582810D01*
X130662778Y-80539867D01*
X130736335Y-80532622D01*
X130773112Y-80529000D01*
X130846888Y-80529000D01*
X130883665Y-80532622D01*
X130883665Y-80532622D01*
G37*
G36*
X157553665Y-79262622D02*
G01*
X157627222Y-79269867D01*
X157768786Y-79312810D01*
X157899252Y-79382546D01*
X157929040Y-79406992D01*
X158013607Y-79476393D01*
X158083008Y-79560960D01*
X158107454Y-79590748D01*
X158177190Y-79721214D01*
X158220133Y-79862778D01*
X158234633Y-80010000D01*
X158220133Y-80157222D01*
X158177190Y-80298786D01*
X158107454Y-80429252D01*
X158083008Y-80459040D01*
X158013607Y-80543607D01*
X157929040Y-80613008D01*
X157899252Y-80637454D01*
X157768786Y-80707190D01*
X157627222Y-80750133D01*
X157553665Y-80757378D01*
X157516888Y-80761000D01*
X157443112Y-80761000D01*
X157406335Y-80757378D01*
X157332778Y-80750133D01*
X157191214Y-80707190D01*
X157060748Y-80637454D01*
X157030960Y-80613008D01*
X156946393Y-80543607D01*
X156876992Y-80459040D01*
X156852546Y-80429252D01*
X156782810Y-80298786D01*
X156739867Y-80157222D01*
X156725367Y-80010000D01*
X156739867Y-79862778D01*
X156782810Y-79721214D01*
X156852546Y-79590748D01*
X156876992Y-79560960D01*
X156946393Y-79476393D01*
X157030960Y-79406992D01*
X157060748Y-79382546D01*
X157191214Y-79312810D01*
X157332778Y-79269867D01*
X157406335Y-79262622D01*
X157443112Y-79259000D01*
X157516888Y-79259000D01*
X157553665Y-79262622D01*
X157553665Y-79262622D01*
G37*
G36*
X152013228Y-74111703D02*
G01*
X152168100Y-74175853D01*
X152307481Y-74268985D01*
X152426015Y-74387519D01*
X152519147Y-74526900D01*
X152583297Y-74681772D01*
X152616000Y-74846184D01*
X152616000Y-75013816D01*
X152583297Y-75178228D01*
X152519147Y-75333100D01*
X152426015Y-75472481D01*
X152307481Y-75591015D01*
X152168100Y-75684147D01*
X152013228Y-75748297D01*
X151848816Y-75781000D01*
X151681184Y-75781000D01*
X151516772Y-75748297D01*
X151361900Y-75684147D01*
X151222519Y-75591015D01*
X151103985Y-75472481D01*
X151010853Y-75333100D01*
X150946703Y-75178228D01*
X150914000Y-75013816D01*
X150914000Y-74846184D01*
X150946703Y-74681772D01*
X151010853Y-74526900D01*
X151103985Y-74387519D01*
X151222519Y-74268985D01*
X151361900Y-74175853D01*
X151516772Y-74111703D01*
X151681184Y-74079000D01*
X151848816Y-74079000D01*
X152013228Y-74111703D01*
X152013228Y-74111703D01*
G37*
G36*
X128489059Y-72937860D02*
G01*
X128574718Y-72973341D01*
X128625732Y-72994472D01*
X128748735Y-73076660D01*
X128853340Y-73181265D01*
X128935528Y-73304268D01*
X128992140Y-73440941D01*
X129021000Y-73586033D01*
X129021000Y-73733967D01*
X128992140Y-73879059D01*
X128935528Y-74015732D01*
X128853340Y-74138735D01*
X128748735Y-74243340D01*
X128625732Y-74325528D01*
X128625731Y-74325529D01*
X128625730Y-74325529D01*
X128489059Y-74382140D01*
X128343968Y-74411000D01*
X128196032Y-74411000D01*
X128050941Y-74382140D01*
X127914270Y-74325529D01*
X127914269Y-74325529D01*
X127914268Y-74325528D01*
X127791265Y-74243340D01*
X127686660Y-74138735D01*
X127604472Y-74015732D01*
X127547860Y-73879059D01*
X127519000Y-73733967D01*
X127519000Y-73586033D01*
X127547860Y-73440941D01*
X127604472Y-73304268D01*
X127686660Y-73181265D01*
X127791265Y-73076660D01*
X127914268Y-72994472D01*
X127965283Y-72973341D01*
X128050941Y-72937860D01*
X128196032Y-72909000D01*
X128343968Y-72909000D01*
X128489059Y-72937860D01*
X128489059Y-72937860D01*
G37*
G36*
X131029059Y-72937860D02*
G01*
X131114718Y-72973341D01*
X131165732Y-72994472D01*
X131288735Y-73076660D01*
X131393340Y-73181265D01*
X131475528Y-73304268D01*
X131532140Y-73440941D01*
X131561000Y-73586033D01*
X131561000Y-73733967D01*
X131532140Y-73879059D01*
X131475528Y-74015732D01*
X131393340Y-74138735D01*
X131288735Y-74243340D01*
X131165732Y-74325528D01*
X131165731Y-74325529D01*
X131165730Y-74325529D01*
X131029059Y-74382140D01*
X130883968Y-74411000D01*
X130736032Y-74411000D01*
X130590941Y-74382140D01*
X130454270Y-74325529D01*
X130454269Y-74325529D01*
X130454268Y-74325528D01*
X130331265Y-74243340D01*
X130226660Y-74138735D01*
X130144472Y-74015732D01*
X130087860Y-73879059D01*
X130059000Y-73733967D01*
X130059000Y-73586033D01*
X130087860Y-73440941D01*
X130144472Y-73304268D01*
X130226660Y-73181265D01*
X130331265Y-73076660D01*
X130454268Y-72994472D01*
X130505283Y-72973341D01*
X130590941Y-72937860D01*
X130736032Y-72909000D01*
X130883968Y-72909000D01*
X131029059Y-72937860D01*
X131029059Y-72937860D01*
G37*
G36*
X152013228Y-71611703D02*
G01*
X152168100Y-71675853D01*
X152307481Y-71768985D01*
X152426015Y-71887519D01*
X152519147Y-72026900D01*
X152583297Y-72181772D01*
X152616000Y-72346184D01*
X152616000Y-72513816D01*
X152583297Y-72678228D01*
X152519147Y-72833100D01*
X152426015Y-72972481D01*
X152307481Y-73091015D01*
X152168100Y-73184147D01*
X152013228Y-73248297D01*
X151848816Y-73281000D01*
X151681184Y-73281000D01*
X151516772Y-73248297D01*
X151361900Y-73184147D01*
X151222519Y-73091015D01*
X151103985Y-72972481D01*
X151010853Y-72833100D01*
X150946703Y-72678228D01*
X150914000Y-72513816D01*
X150914000Y-72346184D01*
X150946703Y-72181772D01*
X151010853Y-72026900D01*
X151103985Y-71887519D01*
X151222519Y-71768985D01*
X151361900Y-71675853D01*
X151516772Y-71611703D01*
X151681184Y-71579000D01*
X151848816Y-71579000D01*
X152013228Y-71611703D01*
X152013228Y-71611703D01*
G37*
G36*
X157699059Y-71667860D02*
G01*
X157835732Y-71724472D01*
X157958735Y-71806660D01*
X158063340Y-71911265D01*
X158145528Y-72034268D01*
X158202140Y-72170941D01*
X158231000Y-72316033D01*
X158231000Y-72463967D01*
X158202140Y-72609059D01*
X158145528Y-72745732D01*
X158063340Y-72868735D01*
X157958735Y-72973340D01*
X157835732Y-73055528D01*
X157835731Y-73055529D01*
X157835730Y-73055529D01*
X157699059Y-73112140D01*
X157553968Y-73141000D01*
X157406032Y-73141000D01*
X157260941Y-73112140D01*
X157124270Y-73055529D01*
X157124269Y-73055529D01*
X157124268Y-73055528D01*
X157001265Y-72973340D01*
X156896660Y-72868735D01*
X156814472Y-72745732D01*
X156757860Y-72609059D01*
X156729000Y-72463967D01*
X156729000Y-72316033D01*
X156757860Y-72170941D01*
X156814472Y-72034268D01*
X156896660Y-71911265D01*
X157001265Y-71806660D01*
X157124268Y-71724472D01*
X157260941Y-71667860D01*
X157406032Y-71639000D01*
X157553968Y-71639000D01*
X157699059Y-71667860D01*
X157699059Y-71667860D01*
G37*
G36*
X157728228Y-69031703D02*
G01*
X157883100Y-69095853D01*
X158022481Y-69188985D01*
X158141015Y-69307519D01*
X158234147Y-69446900D01*
X158298297Y-69601772D01*
X158331000Y-69766184D01*
X158331000Y-69933816D01*
X158298297Y-70098228D01*
X158234147Y-70253100D01*
X158141015Y-70392481D01*
X158022481Y-70511015D01*
X157883100Y-70604147D01*
X157728228Y-70668297D01*
X157563816Y-70701000D01*
X157396184Y-70701000D01*
X157231772Y-70668297D01*
X157076900Y-70604147D01*
X156937519Y-70511015D01*
X156818985Y-70392481D01*
X156725853Y-70253100D01*
X156661703Y-70098228D01*
X156629000Y-69933816D01*
X156629000Y-69766184D01*
X156661703Y-69601772D01*
X156725853Y-69446900D01*
X156818985Y-69307519D01*
X156937519Y-69188985D01*
X157076900Y-69095853D01*
X157231772Y-69031703D01*
X157396184Y-68999000D01*
X157563816Y-68999000D01*
X157728228Y-69031703D01*
X157728228Y-69031703D01*
G37*
G36*
X128343665Y-69102622D02*
G01*
X128417222Y-69109867D01*
X128558786Y-69152810D01*
X128689252Y-69222546D01*
X128719040Y-69246992D01*
X128803607Y-69316393D01*
X128873008Y-69400960D01*
X128897454Y-69430748D01*
X128967190Y-69561214D01*
X129010133Y-69702778D01*
X129024633Y-69850000D01*
X129010133Y-69997222D01*
X128967190Y-70138786D01*
X128897454Y-70269252D01*
X128873008Y-70299040D01*
X128803607Y-70383607D01*
X128719040Y-70453008D01*
X128689252Y-70477454D01*
X128558786Y-70547190D01*
X128417222Y-70590133D01*
X128343665Y-70597378D01*
X128306888Y-70601000D01*
X128233112Y-70601000D01*
X128196335Y-70597378D01*
X128122778Y-70590133D01*
X127981214Y-70547190D01*
X127850748Y-70477454D01*
X127820960Y-70453008D01*
X127736393Y-70383607D01*
X127666992Y-70299040D01*
X127642546Y-70269252D01*
X127572810Y-70138786D01*
X127529867Y-69997222D01*
X127515367Y-69850000D01*
X127529867Y-69702778D01*
X127572810Y-69561214D01*
X127642546Y-69430748D01*
X127666992Y-69400960D01*
X127736393Y-69316393D01*
X127820960Y-69246992D01*
X127850748Y-69222546D01*
X127981214Y-69152810D01*
X128122778Y-69109867D01*
X128196335Y-69102622D01*
X128233112Y-69099000D01*
X128306888Y-69099000D01*
X128343665Y-69102622D01*
X128343665Y-69102622D01*
G37*
G36*
X151838665Y-68467622D02*
G01*
X151912222Y-68474867D01*
X152053786Y-68517810D01*
X152184252Y-68587546D01*
X152214040Y-68611992D01*
X152298607Y-68681393D01*
X152367720Y-68765610D01*
X152392454Y-68795748D01*
X152462190Y-68926214D01*
X152505133Y-69067778D01*
X152519633Y-69215000D01*
X152505133Y-69362222D01*
X152462190Y-69503786D01*
X152392454Y-69634252D01*
X152368008Y-69664040D01*
X152298607Y-69748607D01*
X152214040Y-69818008D01*
X152184252Y-69842454D01*
X152053786Y-69912190D01*
X151912222Y-69955133D01*
X151838665Y-69962378D01*
X151801888Y-69966000D01*
X151728112Y-69966000D01*
X151691335Y-69962378D01*
X151617778Y-69955133D01*
X151476214Y-69912190D01*
X151345748Y-69842454D01*
X151315960Y-69818008D01*
X151231393Y-69748607D01*
X151161992Y-69664040D01*
X151137546Y-69634252D01*
X151067810Y-69503786D01*
X151024867Y-69362222D01*
X151010367Y-69215000D01*
X151024867Y-69067778D01*
X151067810Y-68926214D01*
X151137546Y-68795748D01*
X151162280Y-68765610D01*
X151231393Y-68681393D01*
X151315960Y-68611992D01*
X151345748Y-68587546D01*
X151476214Y-68517810D01*
X151617778Y-68474867D01*
X151691335Y-68467622D01*
X151728112Y-68464000D01*
X151801888Y-68464000D01*
X151838665Y-68467622D01*
X151838665Y-68467622D01*
G37*
G36*
X147393665Y-68467622D02*
G01*
X147467222Y-68474867D01*
X147608786Y-68517810D01*
X147739252Y-68587546D01*
X147769040Y-68611992D01*
X147853607Y-68681393D01*
X147922720Y-68765610D01*
X147947454Y-68795748D01*
X148017190Y-68926214D01*
X148060133Y-69067778D01*
X148074633Y-69215000D01*
X148060133Y-69362222D01*
X148017190Y-69503786D01*
X147947454Y-69634252D01*
X147923008Y-69664040D01*
X147853607Y-69748607D01*
X147769040Y-69818008D01*
X147739252Y-69842454D01*
X147608786Y-69912190D01*
X147467222Y-69955133D01*
X147393665Y-69962378D01*
X147356888Y-69966000D01*
X147283112Y-69966000D01*
X147246335Y-69962378D01*
X147172778Y-69955133D01*
X147031214Y-69912190D01*
X146900748Y-69842454D01*
X146870960Y-69818008D01*
X146786393Y-69748607D01*
X146716992Y-69664040D01*
X146692546Y-69634252D01*
X146622810Y-69503786D01*
X146579867Y-69362222D01*
X146565367Y-69215000D01*
X146579867Y-69067778D01*
X146622810Y-68926214D01*
X146692546Y-68795748D01*
X146717280Y-68765610D01*
X146786393Y-68681393D01*
X146870960Y-68611992D01*
X146900748Y-68587546D01*
X147031214Y-68517810D01*
X147172778Y-68474867D01*
X147246335Y-68467622D01*
X147283112Y-68464000D01*
X147356888Y-68464000D01*
X147393665Y-68467622D01*
X147393665Y-68467622D01*
G37*
G36*
X142421564Y-66744389D02*
G01*
X142573976Y-66807520D01*
X142612835Y-66823616D01*
X142784973Y-66938635D01*
X142931365Y-67085027D01*
X143019807Y-67217389D01*
X143046385Y-67257167D01*
X143125611Y-67448436D01*
X143166000Y-67651484D01*
X143166000Y-67858516D01*
X143125611Y-68061564D01*
X143081401Y-68168297D01*
X143046384Y-68252835D01*
X142931365Y-68424973D01*
X142784973Y-68571365D01*
X142612835Y-68686384D01*
X142612834Y-68686385D01*
X142612833Y-68686385D01*
X142421564Y-68765611D01*
X142218516Y-68806000D01*
X142011484Y-68806000D01*
X141808436Y-68765611D01*
X141617167Y-68686385D01*
X141617166Y-68686385D01*
X141617165Y-68686384D01*
X141445027Y-68571365D01*
X141298635Y-68424973D01*
X141224932Y-68314669D01*
X141209387Y-68295727D01*
X141190445Y-68280182D01*
X141168834Y-68268631D01*
X141145385Y-68261518D01*
X141120999Y-68259116D01*
X141096613Y-68261518D01*
X141073164Y-68268631D01*
X141051553Y-68280182D01*
X141032611Y-68295727D01*
X141017066Y-68314669D01*
X141005515Y-68336280D01*
X140998402Y-68359729D01*
X140996000Y-68384115D01*
X140996000Y-68556000D01*
X140094000Y-68556000D01*
X140094000Y-67254000D01*
X141118917Y-67254000D01*
X141143303Y-67251598D01*
X141166752Y-67244485D01*
X141188363Y-67232934D01*
X141207305Y-67217389D01*
X141222850Y-67198447D01*
X141298635Y-67085027D01*
X141445027Y-66938635D01*
X141617165Y-66823616D01*
X141656024Y-66807520D01*
X141808436Y-66744389D01*
X142011484Y-66704000D01*
X142218516Y-66704000D01*
X142421564Y-66744389D01*
X142421564Y-66744389D01*
G37*
G36*
X133781564Y-66744389D02*
G01*
X133933976Y-66807520D01*
X133972835Y-66823616D01*
X134144973Y-66938635D01*
X134291365Y-67085027D01*
X134367150Y-67198447D01*
X134382695Y-67217389D01*
X134401637Y-67232934D01*
X134423248Y-67244485D01*
X134446697Y-67251598D01*
X134471083Y-67254000D01*
X135496000Y-67254000D01*
X135496000Y-68556000D01*
X134594000Y-68556000D01*
X134594000Y-68384115D01*
X134591598Y-68359729D01*
X134584485Y-68336280D01*
X134572934Y-68314669D01*
X134557389Y-68295727D01*
X134538447Y-68280182D01*
X134516836Y-68268631D01*
X134493387Y-68261518D01*
X134469001Y-68259116D01*
X134444615Y-68261518D01*
X134421166Y-68268631D01*
X134399555Y-68280182D01*
X134380613Y-68295727D01*
X134365068Y-68314669D01*
X134291365Y-68424973D01*
X134144973Y-68571365D01*
X133972835Y-68686384D01*
X133972834Y-68686385D01*
X133972833Y-68686385D01*
X133781564Y-68765611D01*
X133578516Y-68806000D01*
X133371484Y-68806000D01*
X133168436Y-68765611D01*
X132977167Y-68686385D01*
X132977166Y-68686385D01*
X132977165Y-68686384D01*
X132805027Y-68571365D01*
X132658635Y-68424973D01*
X132543616Y-68252835D01*
X132508599Y-68168297D01*
X132464389Y-68061564D01*
X132424000Y-67858516D01*
X132424000Y-67651484D01*
X132464389Y-67448436D01*
X132543615Y-67257167D01*
X132570194Y-67217389D01*
X132658635Y-67085027D01*
X132805027Y-66938635D01*
X132977165Y-66823616D01*
X133016024Y-66807520D01*
X133168436Y-66744389D01*
X133371484Y-66704000D01*
X133578516Y-66704000D01*
X133781564Y-66744389D01*
X133781564Y-66744389D01*
G37*
G36*
X139746000Y-68556000D02*
G01*
X135844000Y-68556000D01*
X135844000Y-67254000D01*
X139746000Y-67254000D01*
X139746000Y-68556000D01*
X139746000Y-68556000D01*
G37*
G36*
X157728228Y-66531703D02*
G01*
X157883100Y-66595853D01*
X158022481Y-66688985D01*
X158141015Y-66807519D01*
X158234147Y-66946900D01*
X158298297Y-67101772D01*
X158331000Y-67266184D01*
X158331000Y-67433816D01*
X158298297Y-67598228D01*
X158234147Y-67753100D01*
X158141015Y-67892481D01*
X158022481Y-68011015D01*
X157883100Y-68104147D01*
X157728228Y-68168297D01*
X157563816Y-68201000D01*
X157396184Y-68201000D01*
X157231772Y-68168297D01*
X157076900Y-68104147D01*
X156937519Y-68011015D01*
X156818985Y-67892481D01*
X156725853Y-67753100D01*
X156661703Y-67598228D01*
X156629000Y-67433816D01*
X156629000Y-67266184D01*
X156661703Y-67101772D01*
X156725853Y-66946900D01*
X156818985Y-66807519D01*
X156937519Y-66688985D01*
X157076900Y-66595853D01*
X157231772Y-66531703D01*
X157396184Y-66499000D01*
X157563816Y-66499000D01*
X157728228Y-66531703D01*
X157728228Y-66531703D01*
G37*
G36*
X142421564Y-62944389D02*
G01*
X142612833Y-63023615D01*
X142612835Y-63023616D01*
X142784973Y-63138635D01*
X142931365Y-63285027D01*
X143046385Y-63457167D01*
X143125611Y-63648436D01*
X143166000Y-63851484D01*
X143166000Y-64058516D01*
X143125611Y-64261564D01*
X143046385Y-64452833D01*
X143046384Y-64452835D01*
X142931365Y-64624973D01*
X142784973Y-64771365D01*
X142612835Y-64886384D01*
X142612834Y-64886385D01*
X142612833Y-64886385D01*
X142421564Y-64965611D01*
X142218516Y-65006000D01*
X142011484Y-65006000D01*
X141808436Y-64965611D01*
X141617167Y-64886385D01*
X141617166Y-64886385D01*
X141617165Y-64886384D01*
X141445027Y-64771365D01*
X141298635Y-64624973D01*
X141183616Y-64452835D01*
X141183615Y-64452833D01*
X141104389Y-64261564D01*
X141064000Y-64058516D01*
X141064000Y-63851484D01*
X141104389Y-63648436D01*
X141183615Y-63457167D01*
X141298635Y-63285027D01*
X141445027Y-63138635D01*
X141617165Y-63023616D01*
X141617167Y-63023615D01*
X141808436Y-62944389D01*
X142011484Y-62904000D01*
X142218516Y-62904000D01*
X142421564Y-62944389D01*
X142421564Y-62944389D01*
G37*
G36*
X133781564Y-62944389D02*
G01*
X133972833Y-63023615D01*
X133972835Y-63023616D01*
X134144973Y-63138635D01*
X134291365Y-63285027D01*
X134406385Y-63457167D01*
X134485611Y-63648436D01*
X134526000Y-63851484D01*
X134526000Y-64058516D01*
X134485611Y-64261564D01*
X134406385Y-64452833D01*
X134406384Y-64452835D01*
X134291365Y-64624973D01*
X134144973Y-64771365D01*
X133972835Y-64886384D01*
X133972834Y-64886385D01*
X133972833Y-64886385D01*
X133781564Y-64965611D01*
X133578516Y-65006000D01*
X133371484Y-65006000D01*
X133168436Y-64965611D01*
X132977167Y-64886385D01*
X132977166Y-64886385D01*
X132977165Y-64886384D01*
X132805027Y-64771365D01*
X132658635Y-64624973D01*
X132543616Y-64452835D01*
X132543615Y-64452833D01*
X132464389Y-64261564D01*
X132424000Y-64058516D01*
X132424000Y-63851484D01*
X132464389Y-63648436D01*
X132543615Y-63457167D01*
X132658635Y-63285027D01*
X132805027Y-63138635D01*
X132977165Y-63023616D01*
X132977167Y-63023615D01*
X133168436Y-62944389D01*
X133371484Y-62904000D01*
X133578516Y-62904000D01*
X133781564Y-62944389D01*
X133781564Y-62944389D01*
G37*
G36*
X158131000Y-64786000D02*
G01*
X156829000Y-64786000D01*
X156829000Y-63484000D01*
X158131000Y-63484000D01*
X158131000Y-64786000D01*
X158131000Y-64786000D01*
G37*
G36*
X128489059Y-61507860D02*
G01*
X128625732Y-61564472D01*
X128748735Y-61646660D01*
X128853340Y-61751265D01*
X128935528Y-61874268D01*
X128992140Y-62010941D01*
X129021000Y-62156033D01*
X129021000Y-62303967D01*
X128992140Y-62449059D01*
X128935528Y-62585732D01*
X128853340Y-62708735D01*
X128748735Y-62813340D01*
X128625732Y-62895528D01*
X128625731Y-62895529D01*
X128625730Y-62895529D01*
X128489059Y-62952140D01*
X128343968Y-62981000D01*
X128196032Y-62981000D01*
X128050941Y-62952140D01*
X127914270Y-62895529D01*
X127914269Y-62895529D01*
X127914268Y-62895528D01*
X127791265Y-62813340D01*
X127686660Y-62708735D01*
X127604472Y-62585732D01*
X127547860Y-62449059D01*
X127519000Y-62303967D01*
X127519000Y-62156033D01*
X127547860Y-62010941D01*
X127604472Y-61874268D01*
X127686660Y-61751265D01*
X127791265Y-61646660D01*
X127914268Y-61564472D01*
X128050941Y-61507860D01*
X128196032Y-61479000D01*
X128343968Y-61479000D01*
X128489059Y-61507860D01*
X128489059Y-61507860D01*
G37*
G36*
X157664073Y-61507860D02*
G01*
X157669890Y-61509017D01*
X157788364Y-61558091D01*
X157894988Y-61629335D01*
X157985665Y-61720012D01*
X158056909Y-61826636D01*
X158105983Y-61945110D01*
X158131000Y-62070882D01*
X158131000Y-62199118D01*
X158105983Y-62324890D01*
X158056909Y-62443364D01*
X157985665Y-62549988D01*
X157894988Y-62640665D01*
X157788364Y-62711909D01*
X157788363Y-62711910D01*
X157788362Y-62711910D01*
X157669890Y-62760983D01*
X157544119Y-62786000D01*
X157415881Y-62786000D01*
X157290110Y-62760983D01*
X157171638Y-62711910D01*
X157171637Y-62711910D01*
X157171636Y-62711909D01*
X157065012Y-62640665D01*
X156974335Y-62549988D01*
X156903091Y-62443364D01*
X156854017Y-62324890D01*
X156829000Y-62199118D01*
X156829000Y-62070882D01*
X156854017Y-61945110D01*
X156903091Y-61826636D01*
X156974335Y-61720012D01*
X157065012Y-61629335D01*
X157171636Y-61558091D01*
X157290110Y-61509017D01*
X157295927Y-61507860D01*
X157415881Y-61484000D01*
X157544119Y-61484000D01*
X157664073Y-61507860D01*
X157664073Y-61507860D01*
G37*
G36*
X147539059Y-60872860D02*
G01*
X147675732Y-60929472D01*
X147798735Y-61011660D01*
X147903340Y-61116265D01*
X147985528Y-61239268D01*
X148042140Y-61375941D01*
X148071000Y-61521033D01*
X148071000Y-61668967D01*
X148042140Y-61814059D01*
X147985528Y-61950732D01*
X147903340Y-62073735D01*
X147798735Y-62178340D01*
X147675732Y-62260528D01*
X147675731Y-62260529D01*
X147675730Y-62260529D01*
X147539059Y-62317140D01*
X147393968Y-62346000D01*
X147246032Y-62346000D01*
X147100941Y-62317140D01*
X146964270Y-62260529D01*
X146964269Y-62260529D01*
X146964268Y-62260528D01*
X146841265Y-62178340D01*
X146736660Y-62073735D01*
X146654472Y-61950732D01*
X146597860Y-61814059D01*
X146569000Y-61668967D01*
X146569000Y-61521033D01*
X146597860Y-61375941D01*
X146654472Y-61239268D01*
X146736660Y-61116265D01*
X146841265Y-61011660D01*
X146964268Y-60929472D01*
X147100941Y-60872860D01*
X147246032Y-60844000D01*
X147393968Y-60844000D01*
X147539059Y-60872860D01*
X147539059Y-60872860D01*
G37*
G36*
X151984059Y-60872860D02*
G01*
X152120732Y-60929472D01*
X152243735Y-61011660D01*
X152348340Y-61116265D01*
X152430528Y-61239268D01*
X152487140Y-61375941D01*
X152516000Y-61521033D01*
X152516000Y-61668967D01*
X152487140Y-61814059D01*
X152430528Y-61950732D01*
X152348340Y-62073735D01*
X152243735Y-62178340D01*
X152120732Y-62260528D01*
X152120731Y-62260529D01*
X152120730Y-62260529D01*
X151984059Y-62317140D01*
X151838968Y-62346000D01*
X151691032Y-62346000D01*
X151545941Y-62317140D01*
X151409270Y-62260529D01*
X151409269Y-62260529D01*
X151409268Y-62260528D01*
X151286265Y-62178340D01*
X151181660Y-62073735D01*
X151099472Y-61950732D01*
X151042860Y-61814059D01*
X151014000Y-61668967D01*
X151014000Y-61521033D01*
X151042860Y-61375941D01*
X151099472Y-61239268D01*
X151181660Y-61116265D01*
X151286265Y-61011660D01*
X151409268Y-60929472D01*
X151545941Y-60872860D01*
X151691032Y-60844000D01*
X151838968Y-60844000D01*
X151984059Y-60872860D01*
X151984059Y-60872860D01*
G37*
M02*
