G04 #@! TF.GenerationSoftware,KiCad,Pcbnew,(5.1.2)-2*
G04 #@! TF.CreationDate,2019-08-13T00:16:00-07:00*
G04 #@! TF.ProjectId,PiPowerSystem,5069506f-7765-4725-9379-7374656d2e6b,rev?*
G04 #@! TF.SameCoordinates,Original*
G04 #@! TF.FileFunction,Copper,L2,Bot*
G04 #@! TF.FilePolarity,Positive*
%FSLAX46Y46*%
G04 Gerber Fmt 4.6, Leading zero omitted, Abs format (unit mm)*
G04 Created by KiCad (PCBNEW (5.1.2)-2) date 2019-08-13 00:16:00*
%MOMM*%
%LPD*%
G04 APERTURE LIST*
%ADD10O,1.700000X1.700000*%
%ADD11R,1.700000X1.700000*%
%ADD12C,0.100000*%
%ADD13C,1.200000*%
%ADD14O,1.750000X1.200000*%
%ADD15R,1.600000X1.600000*%
%ADD16C,1.600000*%
%ADD17R,2.000000X2.000000*%
%ADD18C,2.000000*%
%ADD19R,1.200000X1.200000*%
%ADD20R,2.200000X2.200000*%
%ADD21O,2.200000X2.200000*%
%ADD22R,1.800000X1.800000*%
%ADD23C,1.800000*%
%ADD24O,1.600000X1.600000*%
%ADD25O,1.400000X1.400000*%
%ADD26C,1.400000*%
%ADD27C,0.300000*%
%ADD28C,0.254000*%
G04 APERTURE END LIST*
D10*
X128905000Y-87630000D03*
D11*
X128905000Y-90170000D03*
D12*
G36*
X130824505Y-95921204D02*
G01*
X130848773Y-95924804D01*
X130872572Y-95930765D01*
X130895671Y-95939030D01*
X130917850Y-95949520D01*
X130938893Y-95962132D01*
X130958599Y-95976747D01*
X130976777Y-95993223D01*
X130993253Y-96011401D01*
X131007868Y-96031107D01*
X131020480Y-96052150D01*
X131030970Y-96074329D01*
X131039235Y-96097428D01*
X131045196Y-96121227D01*
X131048796Y-96145495D01*
X131050000Y-96169999D01*
X131050000Y-96870001D01*
X131048796Y-96894505D01*
X131045196Y-96918773D01*
X131039235Y-96942572D01*
X131030970Y-96965671D01*
X131020480Y-96987850D01*
X131007868Y-97008893D01*
X130993253Y-97028599D01*
X130976777Y-97046777D01*
X130958599Y-97063253D01*
X130938893Y-97077868D01*
X130917850Y-97090480D01*
X130895671Y-97100970D01*
X130872572Y-97109235D01*
X130848773Y-97115196D01*
X130824505Y-97118796D01*
X130800001Y-97120000D01*
X129549999Y-97120000D01*
X129525495Y-97118796D01*
X129501227Y-97115196D01*
X129477428Y-97109235D01*
X129454329Y-97100970D01*
X129432150Y-97090480D01*
X129411107Y-97077868D01*
X129391401Y-97063253D01*
X129373223Y-97046777D01*
X129356747Y-97028599D01*
X129342132Y-97008893D01*
X129329520Y-96987850D01*
X129319030Y-96965671D01*
X129310765Y-96942572D01*
X129304804Y-96918773D01*
X129301204Y-96894505D01*
X129300000Y-96870001D01*
X129300000Y-96169999D01*
X129301204Y-96145495D01*
X129304804Y-96121227D01*
X129310765Y-96097428D01*
X129319030Y-96074329D01*
X129329520Y-96052150D01*
X129342132Y-96031107D01*
X129356747Y-96011401D01*
X129373223Y-95993223D01*
X129391401Y-95976747D01*
X129411107Y-95962132D01*
X129432150Y-95949520D01*
X129454329Y-95939030D01*
X129477428Y-95930765D01*
X129501227Y-95924804D01*
X129525495Y-95921204D01*
X129549999Y-95920000D01*
X130800001Y-95920000D01*
X130824505Y-95921204D01*
X130824505Y-95921204D01*
G37*
D13*
X130175000Y-96520000D03*
D14*
X130175000Y-98520000D03*
D15*
X149225000Y-109855000D03*
D16*
X149225000Y-113355000D03*
X134620000Y-114300000D03*
X134620000Y-119300000D03*
D17*
X144145000Y-137160000D03*
D18*
X139145000Y-137160000D03*
D16*
X136525000Y-127960000D03*
D15*
X136525000Y-124460000D03*
D16*
X151765000Y-72430000D03*
X151765000Y-74930000D03*
D19*
X137795000Y-96520000D03*
D13*
X137795000Y-94520000D03*
D16*
X157480000Y-69850000D03*
X157480000Y-67350000D03*
D13*
X157480000Y-62135000D03*
D19*
X157480000Y-64135000D03*
D20*
X129540000Y-114935000D03*
D21*
X129540000Y-104775000D03*
D22*
X149225000Y-86995000D03*
D23*
X149225000Y-84455000D03*
X157480000Y-84455000D03*
D22*
X157480000Y-86995000D03*
D15*
X133985000Y-101600000D03*
D24*
X141605000Y-109220000D03*
X133985000Y-104140000D03*
X141605000Y-106680000D03*
X133985000Y-106680000D03*
X141605000Y-104140000D03*
X133985000Y-109220000D03*
X141605000Y-101600000D03*
D18*
X142115000Y-63955000D03*
X133475000Y-63955000D03*
X133475000Y-67755000D03*
X142115000Y-67755000D03*
D11*
X129540000Y-133985000D03*
X129540000Y-139700000D03*
D16*
X154940000Y-97155000D03*
D24*
X144940000Y-97155000D03*
X129540000Y-128745000D03*
D16*
X129540000Y-118745000D03*
D25*
X147320000Y-69215000D03*
D26*
X147320000Y-61595000D03*
X156845000Y-106045000D03*
D25*
X149225000Y-106045000D03*
D26*
X128270000Y-62230000D03*
D25*
X128270000Y-69850000D03*
X144780000Y-103505000D03*
D26*
X152400000Y-103505000D03*
D25*
X128270000Y-81280000D03*
D26*
X128270000Y-73660000D03*
X130810000Y-73660000D03*
D25*
X130810000Y-81280000D03*
X152400000Y-90805000D03*
D26*
X144780000Y-90805000D03*
X144780000Y-93345000D03*
D25*
X152400000Y-93345000D03*
D26*
X157480000Y-72390000D03*
D25*
X157480000Y-80010000D03*
D26*
X151765000Y-61595000D03*
D25*
X151765000Y-69215000D03*
X146685000Y-119380000D03*
D26*
X146685000Y-127000000D03*
X141605000Y-113030000D03*
D25*
X141605000Y-120650000D03*
X144780000Y-100965000D03*
D26*
X152400000Y-100965000D03*
D27*
X136525000Y-123360000D02*
X136525000Y-124460000D01*
X136525000Y-119089998D02*
X136525000Y-123360000D01*
X127570001Y-110134999D02*
X136525000Y-119089998D01*
X127570001Y-81979999D02*
X127570001Y-110134999D01*
X128270000Y-81280000D02*
X127570001Y-81979999D01*
X128969999Y-81979999D02*
X128270000Y-81280000D01*
X129320001Y-82330001D02*
X128969999Y-81979999D01*
X147100001Y-82330001D02*
X129320001Y-82330001D01*
X149225000Y-84455000D02*
X147100001Y-82330001D01*
X151700001Y-104204999D02*
X152400000Y-103505000D01*
X151349999Y-104555001D02*
X151700001Y-104204999D01*
X144275999Y-104555001D02*
X151349999Y-104555001D01*
X143860998Y-104140000D02*
X144275999Y-104555001D01*
X141605000Y-104140000D02*
X143860998Y-104140000D01*
D28*
G36*
X146020875Y-61929344D02*
G01*
X146111065Y-62176366D01*
X146164963Y-62277203D01*
X146398731Y-62336664D01*
X147013395Y-61722000D01*
X147626605Y-61722000D01*
X148241269Y-62336664D01*
X148475037Y-62277203D01*
X148585934Y-62038758D01*
X148648183Y-61783260D01*
X148650796Y-61722000D01*
X150433749Y-61722000D01*
X150465875Y-61929344D01*
X150556065Y-62176366D01*
X150609963Y-62277203D01*
X150843731Y-62336664D01*
X151458395Y-61722000D01*
X152071605Y-61722000D01*
X152686269Y-62336664D01*
X152920037Y-62277203D01*
X153030934Y-62038758D01*
X153093183Y-61783260D01*
X153095796Y-61722000D01*
X156311011Y-61722000D01*
X156305763Y-61733516D01*
X156250000Y-61970313D01*
X156241505Y-62213438D01*
X156280605Y-62453549D01*
X156365798Y-62681418D01*
X156406652Y-62757852D01*
X156630234Y-62805158D01*
X156513128Y-62922264D01*
X156571006Y-62980142D01*
X156525506Y-63004463D01*
X156428815Y-63083815D01*
X156349463Y-63180506D01*
X156290498Y-63290820D01*
X156254188Y-63410518D01*
X156241928Y-63535000D01*
X156241928Y-64735000D01*
X156254188Y-64859482D01*
X156290498Y-64979180D01*
X156349463Y-65089494D01*
X156428815Y-65186185D01*
X156525506Y-65265537D01*
X156635820Y-65324502D01*
X156755518Y-65360812D01*
X156880000Y-65373072D01*
X158080000Y-65373072D01*
X158204482Y-65360812D01*
X158324180Y-65324502D01*
X158434494Y-65265537D01*
X158531185Y-65186185D01*
X158610537Y-65089494D01*
X158669502Y-64979180D01*
X158705812Y-64859482D01*
X158718072Y-64735000D01*
X158718072Y-63535000D01*
X158705812Y-63410518D01*
X158669502Y-63290820D01*
X158610537Y-63180506D01*
X158531185Y-63083815D01*
X158434494Y-63004463D01*
X158388994Y-62980142D01*
X158446872Y-62922264D01*
X158329766Y-62805158D01*
X158553348Y-62757852D01*
X158654237Y-62536484D01*
X158710000Y-62299687D01*
X158718495Y-62056562D01*
X158679395Y-61816451D01*
X158644083Y-61722000D01*
X159893000Y-61722000D01*
X159893000Y-141478000D01*
X127762000Y-141478000D01*
X127762000Y-140550000D01*
X128051928Y-140550000D01*
X128064188Y-140674482D01*
X128100498Y-140794180D01*
X128159463Y-140904494D01*
X128238815Y-141001185D01*
X128335506Y-141080537D01*
X128445820Y-141139502D01*
X128565518Y-141175812D01*
X128690000Y-141188072D01*
X129254250Y-141185000D01*
X129413000Y-141026250D01*
X129413000Y-139827000D01*
X129667000Y-139827000D01*
X129667000Y-141026250D01*
X129825750Y-141185000D01*
X130390000Y-141188072D01*
X130514482Y-141175812D01*
X130634180Y-141139502D01*
X130744494Y-141080537D01*
X130841185Y-141001185D01*
X130920537Y-140904494D01*
X130979502Y-140794180D01*
X131015812Y-140674482D01*
X131028072Y-140550000D01*
X131025000Y-139985750D01*
X130866250Y-139827000D01*
X129667000Y-139827000D01*
X129413000Y-139827000D01*
X128213750Y-139827000D01*
X128055000Y-139985750D01*
X128051928Y-140550000D01*
X127762000Y-140550000D01*
X127762000Y-138850000D01*
X128051928Y-138850000D01*
X128055000Y-139414250D01*
X128213750Y-139573000D01*
X129413000Y-139573000D01*
X129413000Y-138373750D01*
X129667000Y-138373750D01*
X129667000Y-139573000D01*
X130866250Y-139573000D01*
X131025000Y-139414250D01*
X131028072Y-138850000D01*
X131015812Y-138725518D01*
X130979502Y-138605820D01*
X130920537Y-138495506D01*
X130841185Y-138398815D01*
X130744494Y-138319463D01*
X130699501Y-138295413D01*
X138189192Y-138295413D01*
X138284956Y-138559814D01*
X138574571Y-138700704D01*
X138886108Y-138782384D01*
X139207595Y-138801718D01*
X139526675Y-138757961D01*
X139831088Y-138652795D01*
X140005044Y-138559814D01*
X140100808Y-138295413D01*
X139145000Y-137339605D01*
X138189192Y-138295413D01*
X130699501Y-138295413D01*
X130634180Y-138260498D01*
X130514482Y-138224188D01*
X130390000Y-138211928D01*
X129825750Y-138215000D01*
X129667000Y-138373750D01*
X129413000Y-138373750D01*
X129254250Y-138215000D01*
X128690000Y-138211928D01*
X128565518Y-138224188D01*
X128445820Y-138260498D01*
X128335506Y-138319463D01*
X128238815Y-138398815D01*
X128159463Y-138495506D01*
X128100498Y-138605820D01*
X128064188Y-138725518D01*
X128051928Y-138850000D01*
X127762000Y-138850000D01*
X127762000Y-137222595D01*
X137503282Y-137222595D01*
X137547039Y-137541675D01*
X137652205Y-137846088D01*
X137745186Y-138020044D01*
X138009587Y-138115808D01*
X138965395Y-137160000D01*
X139324605Y-137160000D01*
X140280413Y-138115808D01*
X140544814Y-138020044D01*
X140685704Y-137730429D01*
X140767384Y-137418892D01*
X140786718Y-137097405D01*
X140742961Y-136778325D01*
X140637795Y-136473912D01*
X140544814Y-136299956D01*
X140280413Y-136204192D01*
X139324605Y-137160000D01*
X138965395Y-137160000D01*
X138009587Y-136204192D01*
X137745186Y-136299956D01*
X137604296Y-136589571D01*
X137522616Y-136901108D01*
X137503282Y-137222595D01*
X127762000Y-137222595D01*
X127762000Y-136024587D01*
X138189192Y-136024587D01*
X139145000Y-136980395D01*
X139965395Y-136160000D01*
X142506928Y-136160000D01*
X142506928Y-138160000D01*
X142519188Y-138284482D01*
X142555498Y-138404180D01*
X142614463Y-138514494D01*
X142693815Y-138611185D01*
X142790506Y-138690537D01*
X142900820Y-138749502D01*
X143020518Y-138785812D01*
X143145000Y-138798072D01*
X145145000Y-138798072D01*
X145269482Y-138785812D01*
X145389180Y-138749502D01*
X145499494Y-138690537D01*
X145596185Y-138611185D01*
X145675537Y-138514494D01*
X145734502Y-138404180D01*
X145770812Y-138284482D01*
X145783072Y-138160000D01*
X145783072Y-136160000D01*
X145770812Y-136035518D01*
X145734502Y-135915820D01*
X145675537Y-135805506D01*
X145596185Y-135708815D01*
X145499494Y-135629463D01*
X145389180Y-135570498D01*
X145269482Y-135534188D01*
X145145000Y-135521928D01*
X143145000Y-135521928D01*
X143020518Y-135534188D01*
X142900820Y-135570498D01*
X142790506Y-135629463D01*
X142693815Y-135708815D01*
X142614463Y-135805506D01*
X142555498Y-135915820D01*
X142519188Y-136035518D01*
X142506928Y-136160000D01*
X139965395Y-136160000D01*
X140100808Y-136024587D01*
X140005044Y-135760186D01*
X139715429Y-135619296D01*
X139403892Y-135537616D01*
X139082405Y-135518282D01*
X138763325Y-135562039D01*
X138458912Y-135667205D01*
X138284956Y-135760186D01*
X138189192Y-136024587D01*
X127762000Y-136024587D01*
X127762000Y-133135000D01*
X128051928Y-133135000D01*
X128051928Y-134835000D01*
X128064188Y-134959482D01*
X128100498Y-135079180D01*
X128159463Y-135189494D01*
X128238815Y-135286185D01*
X128335506Y-135365537D01*
X128445820Y-135424502D01*
X128565518Y-135460812D01*
X128690000Y-135473072D01*
X130390000Y-135473072D01*
X130514482Y-135460812D01*
X130634180Y-135424502D01*
X130744494Y-135365537D01*
X130841185Y-135286185D01*
X130920537Y-135189494D01*
X130979502Y-135079180D01*
X131015812Y-134959482D01*
X131028072Y-134835000D01*
X131028072Y-133135000D01*
X131015812Y-133010518D01*
X130979502Y-132890820D01*
X130920537Y-132780506D01*
X130841185Y-132683815D01*
X130744494Y-132604463D01*
X130634180Y-132545498D01*
X130514482Y-132509188D01*
X130390000Y-132496928D01*
X128690000Y-132496928D01*
X128565518Y-132509188D01*
X128445820Y-132545498D01*
X128335506Y-132604463D01*
X128238815Y-132683815D01*
X128159463Y-132780506D01*
X128100498Y-132890820D01*
X128064188Y-133010518D01*
X128051928Y-133135000D01*
X127762000Y-133135000D01*
X127762000Y-128745000D01*
X128098057Y-128745000D01*
X128125764Y-129026309D01*
X128207818Y-129296808D01*
X128341068Y-129546101D01*
X128520392Y-129764608D01*
X128738899Y-129943932D01*
X128988192Y-130077182D01*
X129258691Y-130159236D01*
X129469508Y-130180000D01*
X129610492Y-130180000D01*
X129821309Y-130159236D01*
X130091808Y-130077182D01*
X130341101Y-129943932D01*
X130559608Y-129764608D01*
X130738932Y-129546101D01*
X130872182Y-129296808D01*
X130954236Y-129026309D01*
X130961485Y-128952702D01*
X135711903Y-128952702D01*
X135783486Y-129196671D01*
X136038996Y-129317571D01*
X136313184Y-129386300D01*
X136595512Y-129400217D01*
X136875130Y-129358787D01*
X137141292Y-129263603D01*
X137266514Y-129196671D01*
X137338097Y-128952702D01*
X136525000Y-128139605D01*
X135711903Y-128952702D01*
X130961485Y-128952702D01*
X130981943Y-128745000D01*
X130954236Y-128463691D01*
X130872182Y-128193192D01*
X130785228Y-128030512D01*
X135084783Y-128030512D01*
X135126213Y-128310130D01*
X135221397Y-128576292D01*
X135288329Y-128701514D01*
X135532298Y-128773097D01*
X136345395Y-127960000D01*
X136704605Y-127960000D01*
X137517702Y-128773097D01*
X137761671Y-128701514D01*
X137882571Y-128446004D01*
X137951300Y-128171816D01*
X137963650Y-127921269D01*
X145943336Y-127921269D01*
X146002797Y-128155037D01*
X146241242Y-128265934D01*
X146496740Y-128328183D01*
X146759473Y-128339390D01*
X147019344Y-128299125D01*
X147266366Y-128208935D01*
X147367203Y-128155037D01*
X147426664Y-127921269D01*
X146685000Y-127179605D01*
X145943336Y-127921269D01*
X137963650Y-127921269D01*
X137965217Y-127889488D01*
X137923787Y-127609870D01*
X137828603Y-127343708D01*
X137761671Y-127218486D01*
X137517702Y-127146903D01*
X136704605Y-127960000D01*
X136345395Y-127960000D01*
X135532298Y-127146903D01*
X135288329Y-127218486D01*
X135167429Y-127473996D01*
X135098700Y-127748184D01*
X135084783Y-128030512D01*
X130785228Y-128030512D01*
X130738932Y-127943899D01*
X130559608Y-127725392D01*
X130341101Y-127546068D01*
X130091808Y-127412818D01*
X129821309Y-127330764D01*
X129610492Y-127310000D01*
X129469508Y-127310000D01*
X129258691Y-127330764D01*
X128988192Y-127412818D01*
X128738899Y-127546068D01*
X128520392Y-127725392D01*
X128341068Y-127943899D01*
X128207818Y-128193192D01*
X128125764Y-128463691D01*
X128098057Y-128745000D01*
X127762000Y-128745000D01*
X127762000Y-126967298D01*
X135711903Y-126967298D01*
X136525000Y-127780395D01*
X137230922Y-127074473D01*
X145345610Y-127074473D01*
X145385875Y-127334344D01*
X145476065Y-127581366D01*
X145529963Y-127682203D01*
X145763731Y-127741664D01*
X146505395Y-127000000D01*
X146864605Y-127000000D01*
X147606269Y-127741664D01*
X147840037Y-127682203D01*
X147950934Y-127443758D01*
X148013183Y-127188260D01*
X148024390Y-126925527D01*
X147984125Y-126665656D01*
X147893935Y-126418634D01*
X147840037Y-126317797D01*
X147606269Y-126258336D01*
X146864605Y-127000000D01*
X146505395Y-127000000D01*
X145763731Y-126258336D01*
X145529963Y-126317797D01*
X145419066Y-126556242D01*
X145356817Y-126811740D01*
X145345610Y-127074473D01*
X137230922Y-127074473D01*
X137338097Y-126967298D01*
X137266514Y-126723329D01*
X137011004Y-126602429D01*
X136736816Y-126533700D01*
X136454488Y-126519783D01*
X136174870Y-126561213D01*
X135908708Y-126656397D01*
X135783486Y-126723329D01*
X135711903Y-126967298D01*
X127762000Y-126967298D01*
X127762000Y-126078731D01*
X145943336Y-126078731D01*
X146685000Y-126820395D01*
X147426664Y-126078731D01*
X147367203Y-125844963D01*
X147128758Y-125734066D01*
X146873260Y-125671817D01*
X146610527Y-125660610D01*
X146350656Y-125700875D01*
X146103634Y-125791065D01*
X146002797Y-125844963D01*
X145943336Y-126078731D01*
X127762000Y-126078731D01*
X127762000Y-120292702D01*
X133806903Y-120292702D01*
X133878486Y-120536671D01*
X134133996Y-120657571D01*
X134408184Y-120726300D01*
X134690512Y-120740217D01*
X134970130Y-120698787D01*
X135236292Y-120603603D01*
X135361514Y-120536671D01*
X135433097Y-120292702D01*
X134620000Y-119479605D01*
X133806903Y-120292702D01*
X127762000Y-120292702D01*
X127762000Y-118603665D01*
X128105000Y-118603665D01*
X128105000Y-118886335D01*
X128160147Y-119163574D01*
X128268320Y-119424727D01*
X128425363Y-119659759D01*
X128625241Y-119859637D01*
X128860273Y-120016680D01*
X129121426Y-120124853D01*
X129398665Y-120180000D01*
X129681335Y-120180000D01*
X129958574Y-120124853D01*
X130219727Y-120016680D01*
X130454759Y-119859637D01*
X130654637Y-119659759D01*
X130811680Y-119424727D01*
X130834136Y-119370512D01*
X133179783Y-119370512D01*
X133221213Y-119650130D01*
X133316397Y-119916292D01*
X133383329Y-120041514D01*
X133627298Y-120113097D01*
X134440395Y-119300000D01*
X133627298Y-118486903D01*
X133383329Y-118558486D01*
X133262429Y-118813996D01*
X133193700Y-119088184D01*
X133179783Y-119370512D01*
X130834136Y-119370512D01*
X130919853Y-119163574D01*
X130975000Y-118886335D01*
X130975000Y-118603665D01*
X130919853Y-118326426D01*
X130811680Y-118065273D01*
X130654637Y-117830241D01*
X130454759Y-117630363D01*
X130219727Y-117473320D01*
X129958574Y-117365147D01*
X129681335Y-117310000D01*
X129398665Y-117310000D01*
X129121426Y-117365147D01*
X128860273Y-117473320D01*
X128625241Y-117630363D01*
X128425363Y-117830241D01*
X128268320Y-118065273D01*
X128160147Y-118326426D01*
X128105000Y-118603665D01*
X127762000Y-118603665D01*
X127762000Y-111437155D01*
X129521773Y-113196928D01*
X128440000Y-113196928D01*
X128315518Y-113209188D01*
X128195820Y-113245498D01*
X128085506Y-113304463D01*
X127988815Y-113383815D01*
X127909463Y-113480506D01*
X127850498Y-113590820D01*
X127814188Y-113710518D01*
X127801928Y-113835000D01*
X127801928Y-116035000D01*
X127814188Y-116159482D01*
X127850498Y-116279180D01*
X127909463Y-116389494D01*
X127988815Y-116486185D01*
X128085506Y-116565537D01*
X128195820Y-116624502D01*
X128315518Y-116660812D01*
X128440000Y-116673072D01*
X130640000Y-116673072D01*
X130764482Y-116660812D01*
X130884180Y-116624502D01*
X130994494Y-116565537D01*
X131091185Y-116486185D01*
X131170537Y-116389494D01*
X131229502Y-116279180D01*
X131265812Y-116159482D01*
X131278072Y-116035000D01*
X131278072Y-114953227D01*
X134237598Y-117912754D01*
X134003708Y-117996397D01*
X133878486Y-118063329D01*
X133806903Y-118307298D01*
X134620000Y-119120395D01*
X134634143Y-119106253D01*
X134813748Y-119285858D01*
X134799605Y-119300000D01*
X135612702Y-120113097D01*
X135740000Y-120075746D01*
X135740001Y-123021928D01*
X135725000Y-123021928D01*
X135600518Y-123034188D01*
X135480820Y-123070498D01*
X135370506Y-123129463D01*
X135273815Y-123208815D01*
X135194463Y-123305506D01*
X135135498Y-123415820D01*
X135099188Y-123535518D01*
X135086928Y-123660000D01*
X135086928Y-125260000D01*
X135099188Y-125384482D01*
X135135498Y-125504180D01*
X135194463Y-125614494D01*
X135273815Y-125711185D01*
X135370506Y-125790537D01*
X135480820Y-125849502D01*
X135600518Y-125885812D01*
X135725000Y-125898072D01*
X137325000Y-125898072D01*
X137449482Y-125885812D01*
X137569180Y-125849502D01*
X137679494Y-125790537D01*
X137776185Y-125711185D01*
X137855537Y-125614494D01*
X137914502Y-125504180D01*
X137950812Y-125384482D01*
X137963072Y-125260000D01*
X137963072Y-123660000D01*
X137950812Y-123535518D01*
X137914502Y-123415820D01*
X137855537Y-123305506D01*
X137776185Y-123208815D01*
X137679494Y-123129463D01*
X137569180Y-123070498D01*
X137449482Y-123034188D01*
X137325000Y-123021928D01*
X137310000Y-123021928D01*
X137310000Y-120650000D01*
X140263541Y-120650000D01*
X140289317Y-120911706D01*
X140365653Y-121163354D01*
X140489618Y-121395275D01*
X140656445Y-121598555D01*
X140859725Y-121765382D01*
X141091646Y-121889347D01*
X141343294Y-121965683D01*
X141539421Y-121985000D01*
X141670579Y-121985000D01*
X141866706Y-121965683D01*
X142118354Y-121889347D01*
X142350275Y-121765382D01*
X142553555Y-121598555D01*
X142720382Y-121395275D01*
X142844347Y-121163354D01*
X142920683Y-120911706D01*
X142946459Y-120650000D01*
X142920683Y-120388294D01*
X142844347Y-120136646D01*
X142720382Y-119904725D01*
X142553555Y-119701445D01*
X142350275Y-119534618D01*
X142118354Y-119410653D01*
X142017304Y-119380000D01*
X145343541Y-119380000D01*
X145369317Y-119641706D01*
X145445653Y-119893354D01*
X145569618Y-120125275D01*
X145736445Y-120328555D01*
X145939725Y-120495382D01*
X146171646Y-120619347D01*
X146423294Y-120695683D01*
X146619421Y-120715000D01*
X146750579Y-120715000D01*
X146946706Y-120695683D01*
X147198354Y-120619347D01*
X147430275Y-120495382D01*
X147633555Y-120328555D01*
X147800382Y-120125275D01*
X147924347Y-119893354D01*
X148000683Y-119641706D01*
X148026459Y-119380000D01*
X148000683Y-119118294D01*
X147924347Y-118866646D01*
X147800382Y-118634725D01*
X147633555Y-118431445D01*
X147430275Y-118264618D01*
X147198354Y-118140653D01*
X146946706Y-118064317D01*
X146750579Y-118045000D01*
X146619421Y-118045000D01*
X146423294Y-118064317D01*
X146171646Y-118140653D01*
X145939725Y-118264618D01*
X145736445Y-118431445D01*
X145569618Y-118634725D01*
X145445653Y-118866646D01*
X145369317Y-119118294D01*
X145343541Y-119380000D01*
X142017304Y-119380000D01*
X141866706Y-119334317D01*
X141670579Y-119315000D01*
X141539421Y-119315000D01*
X141343294Y-119334317D01*
X141091646Y-119410653D01*
X140859725Y-119534618D01*
X140656445Y-119701445D01*
X140489618Y-119904725D01*
X140365653Y-120136646D01*
X140289317Y-120388294D01*
X140263541Y-120650000D01*
X137310000Y-120650000D01*
X137310000Y-119128550D01*
X137313797Y-119089997D01*
X137310000Y-119051444D01*
X137310000Y-119051437D01*
X137298641Y-118936111D01*
X137253754Y-118788138D01*
X137180862Y-118651765D01*
X137082764Y-118532234D01*
X137052817Y-118507657D01*
X134230869Y-115685710D01*
X134478665Y-115735000D01*
X134761335Y-115735000D01*
X135038574Y-115679853D01*
X135299727Y-115571680D01*
X135534759Y-115414637D01*
X135734637Y-115214759D01*
X135891680Y-114979727D01*
X135999853Y-114718574D01*
X136055000Y-114441335D01*
X136055000Y-114158665D01*
X135999853Y-113881426D01*
X135891680Y-113620273D01*
X135734637Y-113385241D01*
X135534759Y-113185363D01*
X135299727Y-113028320D01*
X135038574Y-112920147D01*
X134929820Y-112898514D01*
X140270000Y-112898514D01*
X140270000Y-113161486D01*
X140321304Y-113419405D01*
X140421939Y-113662359D01*
X140568038Y-113881013D01*
X140753987Y-114066962D01*
X140972641Y-114213061D01*
X141215595Y-114313696D01*
X141473514Y-114365000D01*
X141736486Y-114365000D01*
X141823447Y-114347702D01*
X148411903Y-114347702D01*
X148483486Y-114591671D01*
X148738996Y-114712571D01*
X149013184Y-114781300D01*
X149295512Y-114795217D01*
X149575130Y-114753787D01*
X149841292Y-114658603D01*
X149966514Y-114591671D01*
X150038097Y-114347702D01*
X149225000Y-113534605D01*
X148411903Y-114347702D01*
X141823447Y-114347702D01*
X141994405Y-114313696D01*
X142237359Y-114213061D01*
X142456013Y-114066962D01*
X142641962Y-113881013D01*
X142788061Y-113662359D01*
X142886166Y-113425512D01*
X147784783Y-113425512D01*
X147826213Y-113705130D01*
X147921397Y-113971292D01*
X147988329Y-114096514D01*
X148232298Y-114168097D01*
X149045395Y-113355000D01*
X149404605Y-113355000D01*
X150217702Y-114168097D01*
X150461671Y-114096514D01*
X150582571Y-113841004D01*
X150651300Y-113566816D01*
X150665217Y-113284488D01*
X150623787Y-113004870D01*
X150528603Y-112738708D01*
X150461671Y-112613486D01*
X150217702Y-112541903D01*
X149404605Y-113355000D01*
X149045395Y-113355000D01*
X148232298Y-112541903D01*
X147988329Y-112613486D01*
X147867429Y-112868996D01*
X147798700Y-113143184D01*
X147784783Y-113425512D01*
X142886166Y-113425512D01*
X142888696Y-113419405D01*
X142940000Y-113161486D01*
X142940000Y-112898514D01*
X142888696Y-112640595D01*
X142788061Y-112397641D01*
X142764446Y-112362298D01*
X148411903Y-112362298D01*
X149225000Y-113175395D01*
X150038097Y-112362298D01*
X149966514Y-112118329D01*
X149711004Y-111997429D01*
X149436816Y-111928700D01*
X149154488Y-111914783D01*
X148874870Y-111956213D01*
X148608708Y-112051397D01*
X148483486Y-112118329D01*
X148411903Y-112362298D01*
X142764446Y-112362298D01*
X142641962Y-112178987D01*
X142456013Y-111993038D01*
X142237359Y-111846939D01*
X141994405Y-111746304D01*
X141736486Y-111695000D01*
X141473514Y-111695000D01*
X141215595Y-111746304D01*
X140972641Y-111846939D01*
X140753987Y-111993038D01*
X140568038Y-112178987D01*
X140421939Y-112397641D01*
X140321304Y-112640595D01*
X140270000Y-112898514D01*
X134929820Y-112898514D01*
X134761335Y-112865000D01*
X134478665Y-112865000D01*
X134201426Y-112920147D01*
X133940273Y-113028320D01*
X133705241Y-113185363D01*
X133505363Y-113385241D01*
X133348320Y-113620273D01*
X133240147Y-113881426D01*
X133185000Y-114158665D01*
X133185000Y-114441335D01*
X133234290Y-114689131D01*
X128355001Y-109809842D01*
X128355001Y-109569039D01*
X132593096Y-109569039D01*
X132633754Y-109703087D01*
X132753963Y-109957420D01*
X132921481Y-110183414D01*
X133129869Y-110372385D01*
X133371119Y-110517070D01*
X133635960Y-110611909D01*
X133858000Y-110490624D01*
X133858000Y-109347000D01*
X134112000Y-109347000D01*
X134112000Y-110490624D01*
X134334040Y-110611909D01*
X134598881Y-110517070D01*
X134840131Y-110372385D01*
X135048519Y-110183414D01*
X135216037Y-109957420D01*
X135336246Y-109703087D01*
X135376904Y-109569039D01*
X135254915Y-109347000D01*
X134112000Y-109347000D01*
X133858000Y-109347000D01*
X132715085Y-109347000D01*
X132593096Y-109569039D01*
X128355001Y-109569039D01*
X128355001Y-106680000D01*
X132543057Y-106680000D01*
X132570764Y-106961309D01*
X132652818Y-107231808D01*
X132786068Y-107481101D01*
X132965392Y-107699608D01*
X133183899Y-107878932D01*
X133321682Y-107952579D01*
X133129869Y-108067615D01*
X132921481Y-108256586D01*
X132753963Y-108482580D01*
X132633754Y-108736913D01*
X132593096Y-108870961D01*
X132715085Y-109093000D01*
X133858000Y-109093000D01*
X133858000Y-109073000D01*
X134112000Y-109073000D01*
X134112000Y-109093000D01*
X135254915Y-109093000D01*
X135376904Y-108870961D01*
X135336246Y-108736913D01*
X135216037Y-108482580D01*
X135048519Y-108256586D01*
X134840131Y-108067615D01*
X134648318Y-107952579D01*
X134786101Y-107878932D01*
X135004608Y-107699608D01*
X135183932Y-107481101D01*
X135317182Y-107231808D01*
X135399236Y-106961309D01*
X135426943Y-106680000D01*
X135399236Y-106398691D01*
X135317182Y-106128192D01*
X135183932Y-105878899D01*
X135004608Y-105660392D01*
X134786101Y-105481068D01*
X134648318Y-105407421D01*
X134840131Y-105292385D01*
X135048519Y-105103414D01*
X135216037Y-104877420D01*
X135336246Y-104623087D01*
X135376904Y-104489039D01*
X135254915Y-104267000D01*
X134112000Y-104267000D01*
X134112000Y-104287000D01*
X133858000Y-104287000D01*
X133858000Y-104267000D01*
X132715085Y-104267000D01*
X132593096Y-104489039D01*
X132633754Y-104623087D01*
X132753963Y-104877420D01*
X132921481Y-105103414D01*
X133129869Y-105292385D01*
X133321682Y-105407421D01*
X133183899Y-105481068D01*
X132965392Y-105660392D01*
X132786068Y-105878899D01*
X132652818Y-106128192D01*
X132570764Y-106398691D01*
X132543057Y-106680000D01*
X128355001Y-106680000D01*
X128355001Y-106046967D01*
X128571422Y-106224579D01*
X128872832Y-106385686D01*
X129199881Y-106484895D01*
X129454775Y-106510000D01*
X129625225Y-106510000D01*
X129880119Y-106484895D01*
X130207168Y-106385686D01*
X130508578Y-106224579D01*
X130772766Y-106007766D01*
X130989579Y-105743578D01*
X131150686Y-105442168D01*
X131249895Y-105115119D01*
X131283394Y-104775000D01*
X131249895Y-104434881D01*
X131150686Y-104107832D01*
X130989579Y-103806422D01*
X130772766Y-103542234D01*
X130508578Y-103325421D01*
X130207168Y-103164314D01*
X129880119Y-103065105D01*
X129625225Y-103040000D01*
X129454775Y-103040000D01*
X129199881Y-103065105D01*
X128872832Y-103164314D01*
X128571422Y-103325421D01*
X128355001Y-103503033D01*
X128355001Y-100800000D01*
X132546928Y-100800000D01*
X132546928Y-102400000D01*
X132559188Y-102524482D01*
X132595498Y-102644180D01*
X132654463Y-102754494D01*
X132733815Y-102851185D01*
X132830506Y-102930537D01*
X132940820Y-102989502D01*
X133060518Y-103025812D01*
X133085080Y-103028231D01*
X132921481Y-103176586D01*
X132753963Y-103402580D01*
X132633754Y-103656913D01*
X132593096Y-103790961D01*
X132715085Y-104013000D01*
X133858000Y-104013000D01*
X133858000Y-103993000D01*
X134112000Y-103993000D01*
X134112000Y-104013000D01*
X135254915Y-104013000D01*
X135376904Y-103790961D01*
X135336246Y-103656913D01*
X135216037Y-103402580D01*
X135048519Y-103176586D01*
X134884920Y-103028231D01*
X134909482Y-103025812D01*
X135029180Y-102989502D01*
X135139494Y-102930537D01*
X135236185Y-102851185D01*
X135315537Y-102754494D01*
X135374502Y-102644180D01*
X135410812Y-102524482D01*
X135423072Y-102400000D01*
X135423072Y-101600000D01*
X140163057Y-101600000D01*
X140190764Y-101881309D01*
X140272818Y-102151808D01*
X140406068Y-102401101D01*
X140585392Y-102619608D01*
X140803899Y-102798932D01*
X140936858Y-102870000D01*
X140803899Y-102941068D01*
X140585392Y-103120392D01*
X140406068Y-103338899D01*
X140272818Y-103588192D01*
X140190764Y-103858691D01*
X140163057Y-104140000D01*
X140190764Y-104421309D01*
X140272818Y-104691808D01*
X140406068Y-104941101D01*
X140585392Y-105159608D01*
X140803899Y-105338932D01*
X140936858Y-105410000D01*
X140803899Y-105481068D01*
X140585392Y-105660392D01*
X140406068Y-105878899D01*
X140272818Y-106128192D01*
X140190764Y-106398691D01*
X140163057Y-106680000D01*
X140190764Y-106961309D01*
X140272818Y-107231808D01*
X140406068Y-107481101D01*
X140585392Y-107699608D01*
X140803899Y-107878932D01*
X140936858Y-107950000D01*
X140803899Y-108021068D01*
X140585392Y-108200392D01*
X140406068Y-108418899D01*
X140272818Y-108668192D01*
X140190764Y-108938691D01*
X140163057Y-109220000D01*
X140190764Y-109501309D01*
X140272818Y-109771808D01*
X140406068Y-110021101D01*
X140585392Y-110239608D01*
X140803899Y-110418932D01*
X141053192Y-110552182D01*
X141323691Y-110634236D01*
X141534508Y-110655000D01*
X141675492Y-110655000D01*
X141886309Y-110634236D01*
X142156808Y-110552182D01*
X142406101Y-110418932D01*
X142624608Y-110239608D01*
X142803932Y-110021101D01*
X142937182Y-109771808D01*
X143019236Y-109501309D01*
X143046943Y-109220000D01*
X143030692Y-109055000D01*
X147786928Y-109055000D01*
X147786928Y-110655000D01*
X147799188Y-110779482D01*
X147835498Y-110899180D01*
X147894463Y-111009494D01*
X147973815Y-111106185D01*
X148070506Y-111185537D01*
X148180820Y-111244502D01*
X148300518Y-111280812D01*
X148425000Y-111293072D01*
X150025000Y-111293072D01*
X150149482Y-111280812D01*
X150269180Y-111244502D01*
X150379494Y-111185537D01*
X150476185Y-111106185D01*
X150555537Y-111009494D01*
X150614502Y-110899180D01*
X150650812Y-110779482D01*
X150663072Y-110655000D01*
X150663072Y-109055000D01*
X150650812Y-108930518D01*
X150614502Y-108810820D01*
X150555537Y-108700506D01*
X150476185Y-108603815D01*
X150379494Y-108524463D01*
X150269180Y-108465498D01*
X150149482Y-108429188D01*
X150025000Y-108416928D01*
X148425000Y-108416928D01*
X148300518Y-108429188D01*
X148180820Y-108465498D01*
X148070506Y-108524463D01*
X147973815Y-108603815D01*
X147894463Y-108700506D01*
X147835498Y-108810820D01*
X147799188Y-108930518D01*
X147786928Y-109055000D01*
X143030692Y-109055000D01*
X143019236Y-108938691D01*
X142937182Y-108668192D01*
X142803932Y-108418899D01*
X142624608Y-108200392D01*
X142406101Y-108021068D01*
X142273142Y-107950000D01*
X142406101Y-107878932D01*
X142624608Y-107699608D01*
X142803932Y-107481101D01*
X142937182Y-107231808D01*
X143019236Y-106961309D01*
X143046943Y-106680000D01*
X143019236Y-106398691D01*
X142937182Y-106128192D01*
X142803932Y-105878899D01*
X142624608Y-105660392D01*
X142406101Y-105481068D01*
X142273142Y-105410000D01*
X142406101Y-105338932D01*
X142624608Y-105159608D01*
X142803932Y-104941101D01*
X142812538Y-104925000D01*
X143535841Y-104925000D01*
X143693652Y-105082811D01*
X143718235Y-105112765D01*
X143837766Y-105210863D01*
X143974139Y-105283755D01*
X144122112Y-105328642D01*
X144237438Y-105340001D01*
X144237445Y-105340001D01*
X144275998Y-105343798D01*
X144314551Y-105340001D01*
X148088090Y-105340001D01*
X147985653Y-105531646D01*
X147909317Y-105783294D01*
X147883541Y-106045000D01*
X147909317Y-106306706D01*
X147985653Y-106558354D01*
X148109618Y-106790275D01*
X148276445Y-106993555D01*
X148479725Y-107160382D01*
X148711646Y-107284347D01*
X148963294Y-107360683D01*
X149159421Y-107380000D01*
X149290579Y-107380000D01*
X149486706Y-107360683D01*
X149738354Y-107284347D01*
X149970275Y-107160382D01*
X150173555Y-106993555D01*
X150340382Y-106790275D01*
X150464347Y-106558354D01*
X150540683Y-106306706D01*
X150566459Y-106045000D01*
X150553509Y-105913514D01*
X155510000Y-105913514D01*
X155510000Y-106176486D01*
X155561304Y-106434405D01*
X155661939Y-106677359D01*
X155808038Y-106896013D01*
X155993987Y-107081962D01*
X156212641Y-107228061D01*
X156455595Y-107328696D01*
X156713514Y-107380000D01*
X156976486Y-107380000D01*
X157234405Y-107328696D01*
X157477359Y-107228061D01*
X157696013Y-107081962D01*
X157881962Y-106896013D01*
X158028061Y-106677359D01*
X158128696Y-106434405D01*
X158180000Y-106176486D01*
X158180000Y-105913514D01*
X158128696Y-105655595D01*
X158028061Y-105412641D01*
X157881962Y-105193987D01*
X157696013Y-105008038D01*
X157477359Y-104861939D01*
X157234405Y-104761304D01*
X156976486Y-104710000D01*
X156713514Y-104710000D01*
X156455595Y-104761304D01*
X156212641Y-104861939D01*
X155993987Y-105008038D01*
X155808038Y-105193987D01*
X155661939Y-105412641D01*
X155561304Y-105655595D01*
X155510000Y-105913514D01*
X150553509Y-105913514D01*
X150540683Y-105783294D01*
X150464347Y-105531646D01*
X150361910Y-105340001D01*
X151311446Y-105340001D01*
X151349999Y-105343798D01*
X151388552Y-105340001D01*
X151388560Y-105340001D01*
X151503886Y-105328642D01*
X151651859Y-105283755D01*
X151788232Y-105210863D01*
X151907763Y-105112765D01*
X151932346Y-105082810D01*
X152190645Y-104824511D01*
X152268514Y-104840000D01*
X152531486Y-104840000D01*
X152789405Y-104788696D01*
X153032359Y-104688061D01*
X153251013Y-104541962D01*
X153436962Y-104356013D01*
X153583061Y-104137359D01*
X153683696Y-103894405D01*
X153735000Y-103636486D01*
X153735000Y-103373514D01*
X153683696Y-103115595D01*
X153583061Y-102872641D01*
X153436962Y-102653987D01*
X153251013Y-102468038D01*
X153032359Y-102321939D01*
X152822470Y-102235000D01*
X153032359Y-102148061D01*
X153251013Y-102001962D01*
X153436962Y-101816013D01*
X153583061Y-101597359D01*
X153683696Y-101354405D01*
X153735000Y-101096486D01*
X153735000Y-100833514D01*
X153683696Y-100575595D01*
X153583061Y-100332641D01*
X153436962Y-100113987D01*
X153251013Y-99928038D01*
X153032359Y-99781939D01*
X152789405Y-99681304D01*
X152531486Y-99630000D01*
X152268514Y-99630000D01*
X152010595Y-99681304D01*
X151767641Y-99781939D01*
X151548987Y-99928038D01*
X151363038Y-100113987D01*
X151216939Y-100332641D01*
X151116304Y-100575595D01*
X151065000Y-100833514D01*
X151065000Y-101096486D01*
X151116304Y-101354405D01*
X151216939Y-101597359D01*
X151363038Y-101816013D01*
X151548987Y-102001962D01*
X151767641Y-102148061D01*
X151977530Y-102235000D01*
X151767641Y-102321939D01*
X151548987Y-102468038D01*
X151363038Y-102653987D01*
X151216939Y-102872641D01*
X151116304Y-103115595D01*
X151065000Y-103373514D01*
X151065000Y-103636486D01*
X151080489Y-103714355D01*
X151024843Y-103770001D01*
X146094683Y-103770001D01*
X146095683Y-103766706D01*
X146121459Y-103505000D01*
X146095683Y-103243294D01*
X146019347Y-102991646D01*
X145895382Y-102759725D01*
X145728555Y-102556445D01*
X145525275Y-102389618D01*
X145293354Y-102265653D01*
X145192304Y-102235000D01*
X145293354Y-102204347D01*
X145525275Y-102080382D01*
X145728555Y-101913555D01*
X145895382Y-101710275D01*
X146019347Y-101478354D01*
X146095683Y-101226706D01*
X146121459Y-100965000D01*
X146095683Y-100703294D01*
X146019347Y-100451646D01*
X145895382Y-100219725D01*
X145728555Y-100016445D01*
X145525275Y-99849618D01*
X145293354Y-99725653D01*
X145041706Y-99649317D01*
X144845579Y-99630000D01*
X144714421Y-99630000D01*
X144518294Y-99649317D01*
X144266646Y-99725653D01*
X144034725Y-99849618D01*
X143831445Y-100016445D01*
X143664618Y-100219725D01*
X143540653Y-100451646D01*
X143464317Y-100703294D01*
X143438541Y-100965000D01*
X143464317Y-101226706D01*
X143540653Y-101478354D01*
X143664618Y-101710275D01*
X143831445Y-101913555D01*
X144034725Y-102080382D01*
X144266646Y-102204347D01*
X144367696Y-102235000D01*
X144266646Y-102265653D01*
X144034725Y-102389618D01*
X143831445Y-102556445D01*
X143664618Y-102759725D01*
X143540653Y-102991646D01*
X143464317Y-103243294D01*
X143453315Y-103355000D01*
X142812538Y-103355000D01*
X142803932Y-103338899D01*
X142624608Y-103120392D01*
X142406101Y-102941068D01*
X142273142Y-102870000D01*
X142406101Y-102798932D01*
X142624608Y-102619608D01*
X142803932Y-102401101D01*
X142937182Y-102151808D01*
X143019236Y-101881309D01*
X143046943Y-101600000D01*
X143019236Y-101318691D01*
X142937182Y-101048192D01*
X142803932Y-100798899D01*
X142624608Y-100580392D01*
X142406101Y-100401068D01*
X142156808Y-100267818D01*
X141886309Y-100185764D01*
X141675492Y-100165000D01*
X141534508Y-100165000D01*
X141323691Y-100185764D01*
X141053192Y-100267818D01*
X140803899Y-100401068D01*
X140585392Y-100580392D01*
X140406068Y-100798899D01*
X140272818Y-101048192D01*
X140190764Y-101318691D01*
X140163057Y-101600000D01*
X135423072Y-101600000D01*
X135423072Y-100800000D01*
X135410812Y-100675518D01*
X135374502Y-100555820D01*
X135315537Y-100445506D01*
X135236185Y-100348815D01*
X135139494Y-100269463D01*
X135029180Y-100210498D01*
X134909482Y-100174188D01*
X134785000Y-100161928D01*
X133185000Y-100161928D01*
X133060518Y-100174188D01*
X132940820Y-100210498D01*
X132830506Y-100269463D01*
X132733815Y-100348815D01*
X132654463Y-100445506D01*
X132595498Y-100555820D01*
X132559188Y-100675518D01*
X132546928Y-100800000D01*
X128355001Y-100800000D01*
X128355001Y-98837609D01*
X128706538Y-98837609D01*
X128710409Y-98875282D01*
X128802579Y-99100533D01*
X128936922Y-99303474D01*
X129108275Y-99476307D01*
X129310054Y-99612390D01*
X129534504Y-99706493D01*
X129773000Y-99755000D01*
X130048000Y-99755000D01*
X130048000Y-98647000D01*
X130302000Y-98647000D01*
X130302000Y-99755000D01*
X130577000Y-99755000D01*
X130815496Y-99706493D01*
X131039946Y-99612390D01*
X131241725Y-99476307D01*
X131413078Y-99303474D01*
X131547421Y-99100533D01*
X131639591Y-98875282D01*
X131643462Y-98837609D01*
X131518731Y-98647000D01*
X130302000Y-98647000D01*
X130048000Y-98647000D01*
X128831269Y-98647000D01*
X128706538Y-98837609D01*
X128355001Y-98837609D01*
X128355001Y-96169999D01*
X128661928Y-96169999D01*
X128661928Y-96870001D01*
X128678992Y-97043255D01*
X128729528Y-97209851D01*
X128811595Y-97363387D01*
X128922038Y-97497962D01*
X129056613Y-97608405D01*
X129061406Y-97610967D01*
X128936922Y-97736526D01*
X128802579Y-97939467D01*
X128710409Y-98164718D01*
X128706538Y-98202391D01*
X128831269Y-98393000D01*
X130048000Y-98393000D01*
X130048000Y-98373000D01*
X130302000Y-98373000D01*
X130302000Y-98393000D01*
X131518731Y-98393000D01*
X131643462Y-98202391D01*
X131639591Y-98164718D01*
X131547421Y-97939467D01*
X131413078Y-97736526D01*
X131288594Y-97610967D01*
X131293387Y-97608405D01*
X131427962Y-97497962D01*
X131538405Y-97363387D01*
X131620472Y-97209851D01*
X131647727Y-97120000D01*
X136556928Y-97120000D01*
X136569188Y-97244482D01*
X136605498Y-97364180D01*
X136664463Y-97474494D01*
X136743815Y-97571185D01*
X136840506Y-97650537D01*
X136950820Y-97709502D01*
X137070518Y-97745812D01*
X137195000Y-97758072D01*
X137509250Y-97755000D01*
X137668000Y-97596250D01*
X137668000Y-96647000D01*
X137922000Y-96647000D01*
X137922000Y-97596250D01*
X138080750Y-97755000D01*
X138395000Y-97758072D01*
X138519482Y-97745812D01*
X138639180Y-97709502D01*
X138749494Y-97650537D01*
X138846185Y-97571185D01*
X138925537Y-97474494D01*
X138984502Y-97364180D01*
X139020812Y-97244482D01*
X139029624Y-97155000D01*
X143498057Y-97155000D01*
X143525764Y-97436309D01*
X143607818Y-97706808D01*
X143741068Y-97956101D01*
X143920392Y-98174608D01*
X144138899Y-98353932D01*
X144388192Y-98487182D01*
X144658691Y-98569236D01*
X144869508Y-98590000D01*
X145010492Y-98590000D01*
X145221309Y-98569236D01*
X145491808Y-98487182D01*
X145741101Y-98353932D01*
X145959608Y-98174608D01*
X146138932Y-97956101D01*
X146272182Y-97706808D01*
X146354236Y-97436309D01*
X146381943Y-97155000D01*
X146368023Y-97013665D01*
X153505000Y-97013665D01*
X153505000Y-97296335D01*
X153560147Y-97573574D01*
X153668320Y-97834727D01*
X153825363Y-98069759D01*
X154025241Y-98269637D01*
X154260273Y-98426680D01*
X154521426Y-98534853D01*
X154798665Y-98590000D01*
X155081335Y-98590000D01*
X155358574Y-98534853D01*
X155619727Y-98426680D01*
X155854759Y-98269637D01*
X156054637Y-98069759D01*
X156211680Y-97834727D01*
X156319853Y-97573574D01*
X156375000Y-97296335D01*
X156375000Y-97013665D01*
X156319853Y-96736426D01*
X156211680Y-96475273D01*
X156054637Y-96240241D01*
X155854759Y-96040363D01*
X155619727Y-95883320D01*
X155358574Y-95775147D01*
X155081335Y-95720000D01*
X154798665Y-95720000D01*
X154521426Y-95775147D01*
X154260273Y-95883320D01*
X154025241Y-96040363D01*
X153825363Y-96240241D01*
X153668320Y-96475273D01*
X153560147Y-96736426D01*
X153505000Y-97013665D01*
X146368023Y-97013665D01*
X146354236Y-96873691D01*
X146272182Y-96603192D01*
X146138932Y-96353899D01*
X145959608Y-96135392D01*
X145741101Y-95956068D01*
X145491808Y-95822818D01*
X145221309Y-95740764D01*
X145010492Y-95720000D01*
X144869508Y-95720000D01*
X144658691Y-95740764D01*
X144388192Y-95822818D01*
X144138899Y-95956068D01*
X143920392Y-96135392D01*
X143741068Y-96353899D01*
X143607818Y-96603192D01*
X143525764Y-96873691D01*
X143498057Y-97155000D01*
X139029624Y-97155000D01*
X139033072Y-97120000D01*
X139030000Y-96805750D01*
X138871250Y-96647000D01*
X137922000Y-96647000D01*
X137668000Y-96647000D01*
X136718750Y-96647000D01*
X136560000Y-96805750D01*
X136556928Y-97120000D01*
X131647727Y-97120000D01*
X131671008Y-97043255D01*
X131688072Y-96870001D01*
X131688072Y-96169999D01*
X131671008Y-95996745D01*
X131647728Y-95920000D01*
X136556928Y-95920000D01*
X136560000Y-96234250D01*
X136718750Y-96393000D01*
X137668000Y-96393000D01*
X137668000Y-96373000D01*
X137922000Y-96373000D01*
X137922000Y-96393000D01*
X138871250Y-96393000D01*
X139030000Y-96234250D01*
X139033072Y-95920000D01*
X139020812Y-95795518D01*
X138984502Y-95675820D01*
X138925537Y-95565506D01*
X138846185Y-95468815D01*
X138749494Y-95389463D01*
X138699053Y-95362501D01*
X138754287Y-95307267D01*
X138889443Y-95104992D01*
X138982540Y-94880236D01*
X139030000Y-94641637D01*
X139030000Y-94398363D01*
X138982540Y-94159764D01*
X138889443Y-93935008D01*
X138754287Y-93732733D01*
X138582267Y-93560713D01*
X138379992Y-93425557D01*
X138155236Y-93332460D01*
X137916637Y-93285000D01*
X137673363Y-93285000D01*
X137434764Y-93332460D01*
X137210008Y-93425557D01*
X137007733Y-93560713D01*
X136835713Y-93732733D01*
X136700557Y-93935008D01*
X136607460Y-94159764D01*
X136560000Y-94398363D01*
X136560000Y-94641637D01*
X136607460Y-94880236D01*
X136700557Y-95104992D01*
X136835713Y-95307267D01*
X136890947Y-95362501D01*
X136840506Y-95389463D01*
X136743815Y-95468815D01*
X136664463Y-95565506D01*
X136605498Y-95675820D01*
X136569188Y-95795518D01*
X136556928Y-95920000D01*
X131647728Y-95920000D01*
X131620472Y-95830149D01*
X131538405Y-95676613D01*
X131427962Y-95542038D01*
X131293387Y-95431595D01*
X131139851Y-95349528D01*
X130973255Y-95298992D01*
X130800001Y-95281928D01*
X129549999Y-95281928D01*
X129376745Y-95298992D01*
X129210149Y-95349528D01*
X129056613Y-95431595D01*
X128922038Y-95542038D01*
X128811595Y-95676613D01*
X128729528Y-95830149D01*
X128678992Y-95996745D01*
X128661928Y-96169999D01*
X128355001Y-96169999D01*
X128355001Y-91656439D01*
X128619250Y-91655000D01*
X128778000Y-91496250D01*
X128778000Y-90297000D01*
X129032000Y-90297000D01*
X129032000Y-91496250D01*
X129190750Y-91655000D01*
X129755000Y-91658072D01*
X129879482Y-91645812D01*
X129999180Y-91609502D01*
X130109494Y-91550537D01*
X130206185Y-91471185D01*
X130285537Y-91374494D01*
X130344502Y-91264180D01*
X130380812Y-91144482D01*
X130393072Y-91020000D01*
X130391186Y-90673514D01*
X143445000Y-90673514D01*
X143445000Y-90936486D01*
X143496304Y-91194405D01*
X143596939Y-91437359D01*
X143743038Y-91656013D01*
X143928987Y-91841962D01*
X144147641Y-91988061D01*
X144357530Y-92075000D01*
X144147641Y-92161939D01*
X143928987Y-92308038D01*
X143743038Y-92493987D01*
X143596939Y-92712641D01*
X143496304Y-92955595D01*
X143445000Y-93213514D01*
X143445000Y-93476486D01*
X143496304Y-93734405D01*
X143596939Y-93977359D01*
X143743038Y-94196013D01*
X143928987Y-94381962D01*
X144147641Y-94528061D01*
X144390595Y-94628696D01*
X144648514Y-94680000D01*
X144911486Y-94680000D01*
X145169405Y-94628696D01*
X145412359Y-94528061D01*
X145631013Y-94381962D01*
X145816962Y-94196013D01*
X145963061Y-93977359D01*
X146063696Y-93734405D01*
X146115000Y-93476486D01*
X146115000Y-93213514D01*
X146063696Y-92955595D01*
X145963061Y-92712641D01*
X145816962Y-92493987D01*
X145631013Y-92308038D01*
X145412359Y-92161939D01*
X145202470Y-92075000D01*
X145412359Y-91988061D01*
X145631013Y-91841962D01*
X145816962Y-91656013D01*
X145963061Y-91437359D01*
X146063696Y-91194405D01*
X146115000Y-90936486D01*
X146115000Y-90805000D01*
X151058541Y-90805000D01*
X151084317Y-91066706D01*
X151160653Y-91318354D01*
X151284618Y-91550275D01*
X151451445Y-91753555D01*
X151654725Y-91920382D01*
X151886646Y-92044347D01*
X151987696Y-92075000D01*
X151886646Y-92105653D01*
X151654725Y-92229618D01*
X151451445Y-92396445D01*
X151284618Y-92599725D01*
X151160653Y-92831646D01*
X151084317Y-93083294D01*
X151058541Y-93345000D01*
X151084317Y-93606706D01*
X151160653Y-93858354D01*
X151284618Y-94090275D01*
X151451445Y-94293555D01*
X151654725Y-94460382D01*
X151886646Y-94584347D01*
X152138294Y-94660683D01*
X152334421Y-94680000D01*
X152465579Y-94680000D01*
X152661706Y-94660683D01*
X152913354Y-94584347D01*
X153145275Y-94460382D01*
X153348555Y-94293555D01*
X153515382Y-94090275D01*
X153639347Y-93858354D01*
X153715683Y-93606706D01*
X153741459Y-93345000D01*
X153715683Y-93083294D01*
X153639347Y-92831646D01*
X153515382Y-92599725D01*
X153348555Y-92396445D01*
X153145275Y-92229618D01*
X152913354Y-92105653D01*
X152812304Y-92075000D01*
X152913354Y-92044347D01*
X153145275Y-91920382D01*
X153348555Y-91753555D01*
X153515382Y-91550275D01*
X153639347Y-91318354D01*
X153715683Y-91066706D01*
X153741459Y-90805000D01*
X153715683Y-90543294D01*
X153639347Y-90291646D01*
X153515382Y-90059725D01*
X153348555Y-89856445D01*
X153145275Y-89689618D01*
X152913354Y-89565653D01*
X152661706Y-89489317D01*
X152465579Y-89470000D01*
X152334421Y-89470000D01*
X152138294Y-89489317D01*
X151886646Y-89565653D01*
X151654725Y-89689618D01*
X151451445Y-89856445D01*
X151284618Y-90059725D01*
X151160653Y-90291646D01*
X151084317Y-90543294D01*
X151058541Y-90805000D01*
X146115000Y-90805000D01*
X146115000Y-90673514D01*
X146063696Y-90415595D01*
X145963061Y-90172641D01*
X145816962Y-89953987D01*
X145631013Y-89768038D01*
X145412359Y-89621939D01*
X145169405Y-89521304D01*
X144911486Y-89470000D01*
X144648514Y-89470000D01*
X144390595Y-89521304D01*
X144147641Y-89621939D01*
X143928987Y-89768038D01*
X143743038Y-89953987D01*
X143596939Y-90172641D01*
X143496304Y-90415595D01*
X143445000Y-90673514D01*
X130391186Y-90673514D01*
X130390000Y-90455750D01*
X130231250Y-90297000D01*
X129032000Y-90297000D01*
X128778000Y-90297000D01*
X128758000Y-90297000D01*
X128758000Y-90043000D01*
X128778000Y-90043000D01*
X128778000Y-90023000D01*
X129032000Y-90023000D01*
X129032000Y-90043000D01*
X130231250Y-90043000D01*
X130390000Y-89884250D01*
X130393072Y-89320000D01*
X130380812Y-89195518D01*
X130344502Y-89075820D01*
X130285537Y-88965506D01*
X130206185Y-88868815D01*
X130109494Y-88789463D01*
X129999180Y-88730498D01*
X129930313Y-88709607D01*
X129960134Y-88685134D01*
X130145706Y-88459014D01*
X130283599Y-88201034D01*
X130368513Y-87921111D01*
X130397185Y-87630000D01*
X130368513Y-87338889D01*
X130283599Y-87058966D01*
X130145706Y-86800986D01*
X129960134Y-86574866D01*
X129734014Y-86389294D01*
X129476034Y-86251401D01*
X129196111Y-86166487D01*
X128977950Y-86145000D01*
X128832050Y-86145000D01*
X128613889Y-86166487D01*
X128355001Y-86245020D01*
X128355001Y-82613087D01*
X128480563Y-82600720D01*
X128737650Y-82857806D01*
X128762237Y-82887765D01*
X128881768Y-82985863D01*
X129018141Y-83058755D01*
X129166114Y-83103643D01*
X129241027Y-83111021D01*
X129281440Y-83115001D01*
X129281445Y-83115001D01*
X129320001Y-83118798D01*
X129358557Y-83115001D01*
X146774844Y-83115001D01*
X147735403Y-84075560D01*
X147690000Y-84303816D01*
X147690000Y-84606184D01*
X147748989Y-84902743D01*
X147864701Y-85182095D01*
X148032688Y-85433505D01*
X148099127Y-85499944D01*
X148080820Y-85505498D01*
X147970506Y-85564463D01*
X147873815Y-85643815D01*
X147794463Y-85740506D01*
X147735498Y-85850820D01*
X147699188Y-85970518D01*
X147686928Y-86095000D01*
X147686928Y-87895000D01*
X147699188Y-88019482D01*
X147735498Y-88139180D01*
X147794463Y-88249494D01*
X147873815Y-88346185D01*
X147970506Y-88425537D01*
X148080820Y-88484502D01*
X148200518Y-88520812D01*
X148325000Y-88533072D01*
X150125000Y-88533072D01*
X150249482Y-88520812D01*
X150369180Y-88484502D01*
X150479494Y-88425537D01*
X150576185Y-88346185D01*
X150655537Y-88249494D01*
X150714502Y-88139180D01*
X150750812Y-88019482D01*
X150763072Y-87895000D01*
X150763072Y-86095000D01*
X155941928Y-86095000D01*
X155941928Y-87895000D01*
X155954188Y-88019482D01*
X155990498Y-88139180D01*
X156049463Y-88249494D01*
X156128815Y-88346185D01*
X156225506Y-88425537D01*
X156335820Y-88484502D01*
X156455518Y-88520812D01*
X156580000Y-88533072D01*
X158380000Y-88533072D01*
X158504482Y-88520812D01*
X158624180Y-88484502D01*
X158734494Y-88425537D01*
X158831185Y-88346185D01*
X158910537Y-88249494D01*
X158969502Y-88139180D01*
X159005812Y-88019482D01*
X159018072Y-87895000D01*
X159018072Y-86095000D01*
X159005812Y-85970518D01*
X158969502Y-85850820D01*
X158910537Y-85740506D01*
X158831185Y-85643815D01*
X158734494Y-85564463D01*
X158624180Y-85505498D01*
X158605873Y-85499944D01*
X158672312Y-85433505D01*
X158840299Y-85182095D01*
X158956011Y-84902743D01*
X159015000Y-84606184D01*
X159015000Y-84303816D01*
X158956011Y-84007257D01*
X158840299Y-83727905D01*
X158672312Y-83476495D01*
X158458505Y-83262688D01*
X158207095Y-83094701D01*
X157927743Y-82978989D01*
X157631184Y-82920000D01*
X157328816Y-82920000D01*
X157032257Y-82978989D01*
X156752905Y-83094701D01*
X156501495Y-83262688D01*
X156287688Y-83476495D01*
X156119701Y-83727905D01*
X156003989Y-84007257D01*
X155945000Y-84303816D01*
X155945000Y-84606184D01*
X156003989Y-84902743D01*
X156119701Y-85182095D01*
X156287688Y-85433505D01*
X156354127Y-85499944D01*
X156335820Y-85505498D01*
X156225506Y-85564463D01*
X156128815Y-85643815D01*
X156049463Y-85740506D01*
X155990498Y-85850820D01*
X155954188Y-85970518D01*
X155941928Y-86095000D01*
X150763072Y-86095000D01*
X150750812Y-85970518D01*
X150714502Y-85850820D01*
X150655537Y-85740506D01*
X150576185Y-85643815D01*
X150479494Y-85564463D01*
X150369180Y-85505498D01*
X150350873Y-85499944D01*
X150417312Y-85433505D01*
X150585299Y-85182095D01*
X150701011Y-84902743D01*
X150760000Y-84606184D01*
X150760000Y-84303816D01*
X150701011Y-84007257D01*
X150585299Y-83727905D01*
X150417312Y-83476495D01*
X150203505Y-83262688D01*
X149952095Y-83094701D01*
X149672743Y-82978989D01*
X149376184Y-82920000D01*
X149073816Y-82920000D01*
X148845560Y-82965403D01*
X147682347Y-81802190D01*
X147657765Y-81772237D01*
X147538234Y-81674139D01*
X147401861Y-81601247D01*
X147253888Y-81556360D01*
X147138562Y-81545001D01*
X147138554Y-81545001D01*
X147100001Y-81541204D01*
X147061448Y-81545001D01*
X132124683Y-81545001D01*
X132125683Y-81541706D01*
X132151459Y-81280000D01*
X132125683Y-81018294D01*
X132049347Y-80766646D01*
X131925382Y-80534725D01*
X131758555Y-80331445D01*
X131555275Y-80164618D01*
X131323354Y-80040653D01*
X131222304Y-80010000D01*
X156138541Y-80010000D01*
X156164317Y-80271706D01*
X156240653Y-80523354D01*
X156364618Y-80755275D01*
X156531445Y-80958555D01*
X156734725Y-81125382D01*
X156966646Y-81249347D01*
X157218294Y-81325683D01*
X157414421Y-81345000D01*
X157545579Y-81345000D01*
X157741706Y-81325683D01*
X157993354Y-81249347D01*
X158225275Y-81125382D01*
X158428555Y-80958555D01*
X158595382Y-80755275D01*
X158719347Y-80523354D01*
X158795683Y-80271706D01*
X158821459Y-80010000D01*
X158795683Y-79748294D01*
X158719347Y-79496646D01*
X158595382Y-79264725D01*
X158428555Y-79061445D01*
X158225275Y-78894618D01*
X157993354Y-78770653D01*
X157741706Y-78694317D01*
X157545579Y-78675000D01*
X157414421Y-78675000D01*
X157218294Y-78694317D01*
X156966646Y-78770653D01*
X156734725Y-78894618D01*
X156531445Y-79061445D01*
X156364618Y-79264725D01*
X156240653Y-79496646D01*
X156164317Y-79748294D01*
X156138541Y-80010000D01*
X131222304Y-80010000D01*
X131071706Y-79964317D01*
X130875579Y-79945000D01*
X130744421Y-79945000D01*
X130548294Y-79964317D01*
X130296646Y-80040653D01*
X130064725Y-80164618D01*
X129861445Y-80331445D01*
X129694618Y-80534725D01*
X129570653Y-80766646D01*
X129540000Y-80867696D01*
X129509347Y-80766646D01*
X129385382Y-80534725D01*
X129218555Y-80331445D01*
X129015275Y-80164618D01*
X128783354Y-80040653D01*
X128531706Y-79964317D01*
X128335579Y-79945000D01*
X128204421Y-79945000D01*
X128008294Y-79964317D01*
X127762000Y-80039029D01*
X127762000Y-74894572D01*
X127880595Y-74943696D01*
X128138514Y-74995000D01*
X128401486Y-74995000D01*
X128659405Y-74943696D01*
X128902359Y-74843061D01*
X129121013Y-74696962D01*
X129236706Y-74581269D01*
X130068336Y-74581269D01*
X130127797Y-74815037D01*
X130366242Y-74925934D01*
X130621740Y-74988183D01*
X130884473Y-74999390D01*
X131144344Y-74959125D01*
X131391366Y-74868935D01*
X131492203Y-74815037D01*
X131551664Y-74581269D01*
X130810000Y-73839605D01*
X130068336Y-74581269D01*
X129236706Y-74581269D01*
X129306962Y-74511013D01*
X129453061Y-74292359D01*
X129541621Y-74078556D01*
X129601065Y-74241366D01*
X129654963Y-74342203D01*
X129888731Y-74401664D01*
X130630395Y-73660000D01*
X130989605Y-73660000D01*
X131731269Y-74401664D01*
X131965037Y-74342203D01*
X132075934Y-74103758D01*
X132138183Y-73848260D01*
X132149390Y-73585527D01*
X132109125Y-73325656D01*
X132018935Y-73078634D01*
X131965037Y-72977797D01*
X131731269Y-72918336D01*
X130989605Y-73660000D01*
X130630395Y-73660000D01*
X129888731Y-72918336D01*
X129654963Y-72977797D01*
X129544066Y-73216242D01*
X129539294Y-73235827D01*
X129453061Y-73027641D01*
X129306962Y-72808987D01*
X129236706Y-72738731D01*
X130068336Y-72738731D01*
X130810000Y-73480395D01*
X131551664Y-72738731D01*
X131492203Y-72504963D01*
X131253758Y-72394066D01*
X130998260Y-72331817D01*
X130735527Y-72320610D01*
X130475656Y-72360875D01*
X130228634Y-72451065D01*
X130127797Y-72504963D01*
X130068336Y-72738731D01*
X129236706Y-72738731D01*
X129121013Y-72623038D01*
X128902359Y-72476939D01*
X128659405Y-72376304D01*
X128401486Y-72325000D01*
X128138514Y-72325000D01*
X127880595Y-72376304D01*
X127762000Y-72425428D01*
X127762000Y-72288665D01*
X150330000Y-72288665D01*
X150330000Y-72571335D01*
X150385147Y-72848574D01*
X150493320Y-73109727D01*
X150650363Y-73344759D01*
X150850241Y-73544637D01*
X151052827Y-73680000D01*
X150850241Y-73815363D01*
X150650363Y-74015241D01*
X150493320Y-74250273D01*
X150385147Y-74511426D01*
X150330000Y-74788665D01*
X150330000Y-75071335D01*
X150385147Y-75348574D01*
X150493320Y-75609727D01*
X150650363Y-75844759D01*
X150850241Y-76044637D01*
X151085273Y-76201680D01*
X151346426Y-76309853D01*
X151623665Y-76365000D01*
X151906335Y-76365000D01*
X152183574Y-76309853D01*
X152444727Y-76201680D01*
X152679759Y-76044637D01*
X152879637Y-75844759D01*
X153036680Y-75609727D01*
X153144853Y-75348574D01*
X153200000Y-75071335D01*
X153200000Y-74788665D01*
X153144853Y-74511426D01*
X153036680Y-74250273D01*
X152879637Y-74015241D01*
X152679759Y-73815363D01*
X152477173Y-73680000D01*
X152679759Y-73544637D01*
X152879637Y-73344759D01*
X153036680Y-73109727D01*
X153144853Y-72848574D01*
X153200000Y-72571335D01*
X153200000Y-72288665D01*
X153144853Y-72011426D01*
X153036680Y-71750273D01*
X152879637Y-71515241D01*
X152679759Y-71315363D01*
X152444727Y-71158320D01*
X152183574Y-71050147D01*
X151906335Y-70995000D01*
X151623665Y-70995000D01*
X151346426Y-71050147D01*
X151085273Y-71158320D01*
X150850241Y-71315363D01*
X150650363Y-71515241D01*
X150493320Y-71750273D01*
X150385147Y-72011426D01*
X150330000Y-72288665D01*
X127762000Y-72288665D01*
X127762000Y-71078944D01*
X127828956Y-71110047D01*
X127936671Y-71142716D01*
X128143000Y-71019374D01*
X128143000Y-69977000D01*
X128397000Y-69977000D01*
X128397000Y-71019374D01*
X128603329Y-71142716D01*
X128711044Y-71110047D01*
X128948392Y-70999792D01*
X129159670Y-70845351D01*
X129336759Y-70652660D01*
X129472853Y-70429123D01*
X129562722Y-70183330D01*
X129440201Y-69977000D01*
X128397000Y-69977000D01*
X128143000Y-69977000D01*
X128123000Y-69977000D01*
X128123000Y-69723000D01*
X128143000Y-69723000D01*
X128143000Y-68680626D01*
X128397000Y-68680626D01*
X128397000Y-69723000D01*
X129440201Y-69723000D01*
X129562722Y-69516670D01*
X129472853Y-69270877D01*
X129336759Y-69047340D01*
X129159670Y-68854649D01*
X128948392Y-68700208D01*
X128711044Y-68589953D01*
X128603329Y-68557284D01*
X128397000Y-68680626D01*
X128143000Y-68680626D01*
X127936671Y-68557284D01*
X127828956Y-68589953D01*
X127762000Y-68621056D01*
X127762000Y-67593967D01*
X131840000Y-67593967D01*
X131840000Y-67916033D01*
X131902832Y-68231912D01*
X132026082Y-68529463D01*
X132205013Y-68797252D01*
X132432748Y-69024987D01*
X132700537Y-69203918D01*
X132998088Y-69327168D01*
X133313967Y-69390000D01*
X133636033Y-69390000D01*
X133951912Y-69327168D01*
X134249463Y-69203918D01*
X134517252Y-69024987D01*
X134744987Y-68797252D01*
X134923918Y-68529463D01*
X135047168Y-68231912D01*
X135110000Y-67916033D01*
X135110000Y-67593967D01*
X140480000Y-67593967D01*
X140480000Y-67916033D01*
X140542832Y-68231912D01*
X140666082Y-68529463D01*
X140845013Y-68797252D01*
X141072748Y-69024987D01*
X141340537Y-69203918D01*
X141638088Y-69327168D01*
X141953967Y-69390000D01*
X142276033Y-69390000D01*
X142591912Y-69327168D01*
X142862708Y-69215000D01*
X145978541Y-69215000D01*
X146004317Y-69476706D01*
X146080653Y-69728354D01*
X146204618Y-69960275D01*
X146371445Y-70163555D01*
X146574725Y-70330382D01*
X146806646Y-70454347D01*
X147058294Y-70530683D01*
X147254421Y-70550000D01*
X147385579Y-70550000D01*
X147581706Y-70530683D01*
X147833354Y-70454347D01*
X148065275Y-70330382D01*
X148268555Y-70163555D01*
X148435382Y-69960275D01*
X148559347Y-69728354D01*
X148635683Y-69476706D01*
X148661459Y-69215000D01*
X150423541Y-69215000D01*
X150449317Y-69476706D01*
X150525653Y-69728354D01*
X150649618Y-69960275D01*
X150816445Y-70163555D01*
X151019725Y-70330382D01*
X151251646Y-70454347D01*
X151503294Y-70530683D01*
X151699421Y-70550000D01*
X151830579Y-70550000D01*
X152026706Y-70530683D01*
X152278354Y-70454347D01*
X152510275Y-70330382D01*
X152713555Y-70163555D01*
X152880382Y-69960275D01*
X153004347Y-69728354D01*
X153080683Y-69476706D01*
X153106459Y-69215000D01*
X153080683Y-68953294D01*
X153004347Y-68701646D01*
X152880382Y-68469725D01*
X152713555Y-68266445D01*
X152510275Y-68099618D01*
X152278354Y-67975653D01*
X152026706Y-67899317D01*
X151830579Y-67880000D01*
X151699421Y-67880000D01*
X151503294Y-67899317D01*
X151251646Y-67975653D01*
X151019725Y-68099618D01*
X150816445Y-68266445D01*
X150649618Y-68469725D01*
X150525653Y-68701646D01*
X150449317Y-68953294D01*
X150423541Y-69215000D01*
X148661459Y-69215000D01*
X148635683Y-68953294D01*
X148559347Y-68701646D01*
X148435382Y-68469725D01*
X148268555Y-68266445D01*
X148065275Y-68099618D01*
X147833354Y-67975653D01*
X147581706Y-67899317D01*
X147385579Y-67880000D01*
X147254421Y-67880000D01*
X147058294Y-67899317D01*
X146806646Y-67975653D01*
X146574725Y-68099618D01*
X146371445Y-68266445D01*
X146204618Y-68469725D01*
X146080653Y-68701646D01*
X146004317Y-68953294D01*
X145978541Y-69215000D01*
X142862708Y-69215000D01*
X142889463Y-69203918D01*
X143157252Y-69024987D01*
X143384987Y-68797252D01*
X143563918Y-68529463D01*
X143687168Y-68231912D01*
X143750000Y-67916033D01*
X143750000Y-67593967D01*
X143687168Y-67278088D01*
X143658412Y-67208665D01*
X156045000Y-67208665D01*
X156045000Y-67491335D01*
X156100147Y-67768574D01*
X156208320Y-68029727D01*
X156365363Y-68264759D01*
X156565241Y-68464637D01*
X156767827Y-68600000D01*
X156565241Y-68735363D01*
X156365363Y-68935241D01*
X156208320Y-69170273D01*
X156100147Y-69431426D01*
X156045000Y-69708665D01*
X156045000Y-69991335D01*
X156100147Y-70268574D01*
X156208320Y-70529727D01*
X156365363Y-70764759D01*
X156565241Y-70964637D01*
X156800273Y-71121680D01*
X156926874Y-71174120D01*
X156847641Y-71206939D01*
X156628987Y-71353038D01*
X156443038Y-71538987D01*
X156296939Y-71757641D01*
X156196304Y-72000595D01*
X156145000Y-72258514D01*
X156145000Y-72521486D01*
X156196304Y-72779405D01*
X156296939Y-73022359D01*
X156443038Y-73241013D01*
X156628987Y-73426962D01*
X156847641Y-73573061D01*
X157090595Y-73673696D01*
X157348514Y-73725000D01*
X157611486Y-73725000D01*
X157869405Y-73673696D01*
X158112359Y-73573061D01*
X158331013Y-73426962D01*
X158516962Y-73241013D01*
X158663061Y-73022359D01*
X158763696Y-72779405D01*
X158815000Y-72521486D01*
X158815000Y-72258514D01*
X158763696Y-72000595D01*
X158663061Y-71757641D01*
X158516962Y-71538987D01*
X158331013Y-71353038D01*
X158112359Y-71206939D01*
X158033126Y-71174120D01*
X158159727Y-71121680D01*
X158394759Y-70964637D01*
X158594637Y-70764759D01*
X158751680Y-70529727D01*
X158859853Y-70268574D01*
X158915000Y-69991335D01*
X158915000Y-69708665D01*
X158859853Y-69431426D01*
X158751680Y-69170273D01*
X158594637Y-68935241D01*
X158394759Y-68735363D01*
X158192173Y-68600000D01*
X158394759Y-68464637D01*
X158594637Y-68264759D01*
X158751680Y-68029727D01*
X158859853Y-67768574D01*
X158915000Y-67491335D01*
X158915000Y-67208665D01*
X158859853Y-66931426D01*
X158751680Y-66670273D01*
X158594637Y-66435241D01*
X158394759Y-66235363D01*
X158159727Y-66078320D01*
X157898574Y-65970147D01*
X157621335Y-65915000D01*
X157338665Y-65915000D01*
X157061426Y-65970147D01*
X156800273Y-66078320D01*
X156565241Y-66235363D01*
X156365363Y-66435241D01*
X156208320Y-66670273D01*
X156100147Y-66931426D01*
X156045000Y-67208665D01*
X143658412Y-67208665D01*
X143563918Y-66980537D01*
X143384987Y-66712748D01*
X143157252Y-66485013D01*
X142889463Y-66306082D01*
X142591912Y-66182832D01*
X142276033Y-66120000D01*
X141953967Y-66120000D01*
X141638088Y-66182832D01*
X141340537Y-66306082D01*
X141072748Y-66485013D01*
X140845013Y-66712748D01*
X140666082Y-66980537D01*
X140542832Y-67278088D01*
X140480000Y-67593967D01*
X135110000Y-67593967D01*
X135047168Y-67278088D01*
X134923918Y-66980537D01*
X134744987Y-66712748D01*
X134517252Y-66485013D01*
X134249463Y-66306082D01*
X133951912Y-66182832D01*
X133636033Y-66120000D01*
X133313967Y-66120000D01*
X132998088Y-66182832D01*
X132700537Y-66306082D01*
X132432748Y-66485013D01*
X132205013Y-66712748D01*
X132026082Y-66980537D01*
X131902832Y-67278088D01*
X131840000Y-67593967D01*
X127762000Y-67593967D01*
X127762000Y-63793967D01*
X131840000Y-63793967D01*
X131840000Y-64116033D01*
X131902832Y-64431912D01*
X132026082Y-64729463D01*
X132205013Y-64997252D01*
X132432748Y-65224987D01*
X132700537Y-65403918D01*
X132998088Y-65527168D01*
X133313967Y-65590000D01*
X133636033Y-65590000D01*
X133951912Y-65527168D01*
X134249463Y-65403918D01*
X134517252Y-65224987D01*
X134744987Y-64997252D01*
X134923918Y-64729463D01*
X135047168Y-64431912D01*
X135110000Y-64116033D01*
X135110000Y-63793967D01*
X140480000Y-63793967D01*
X140480000Y-64116033D01*
X140542832Y-64431912D01*
X140666082Y-64729463D01*
X140845013Y-64997252D01*
X141072748Y-65224987D01*
X141340537Y-65403918D01*
X141638088Y-65527168D01*
X141953967Y-65590000D01*
X142276033Y-65590000D01*
X142591912Y-65527168D01*
X142889463Y-65403918D01*
X143157252Y-65224987D01*
X143384987Y-64997252D01*
X143563918Y-64729463D01*
X143687168Y-64431912D01*
X143750000Y-64116033D01*
X143750000Y-63793967D01*
X143687168Y-63478088D01*
X143563918Y-63180537D01*
X143384987Y-62912748D01*
X143157252Y-62685013D01*
X142904709Y-62516269D01*
X146578336Y-62516269D01*
X146637797Y-62750037D01*
X146876242Y-62860934D01*
X147131740Y-62923183D01*
X147394473Y-62934390D01*
X147654344Y-62894125D01*
X147901366Y-62803935D01*
X148002203Y-62750037D01*
X148061664Y-62516269D01*
X151023336Y-62516269D01*
X151082797Y-62750037D01*
X151321242Y-62860934D01*
X151576740Y-62923183D01*
X151839473Y-62934390D01*
X152099344Y-62894125D01*
X152346366Y-62803935D01*
X152447203Y-62750037D01*
X152506664Y-62516269D01*
X151765000Y-61774605D01*
X151023336Y-62516269D01*
X148061664Y-62516269D01*
X147320000Y-61774605D01*
X146578336Y-62516269D01*
X142904709Y-62516269D01*
X142889463Y-62506082D01*
X142591912Y-62382832D01*
X142276033Y-62320000D01*
X141953967Y-62320000D01*
X141638088Y-62382832D01*
X141340537Y-62506082D01*
X141072748Y-62685013D01*
X140845013Y-62912748D01*
X140666082Y-63180537D01*
X140542832Y-63478088D01*
X140480000Y-63793967D01*
X135110000Y-63793967D01*
X135047168Y-63478088D01*
X134923918Y-63180537D01*
X134744987Y-62912748D01*
X134517252Y-62685013D01*
X134249463Y-62506082D01*
X133951912Y-62382832D01*
X133636033Y-62320000D01*
X133313967Y-62320000D01*
X132998088Y-62382832D01*
X132700537Y-62506082D01*
X132432748Y-62685013D01*
X132205013Y-62912748D01*
X132026082Y-63180537D01*
X131902832Y-63478088D01*
X131840000Y-63793967D01*
X127762000Y-63793967D01*
X127762000Y-63464572D01*
X127880595Y-63513696D01*
X128138514Y-63565000D01*
X128401486Y-63565000D01*
X128659405Y-63513696D01*
X128902359Y-63413061D01*
X129121013Y-63266962D01*
X129306962Y-63081013D01*
X129453061Y-62862359D01*
X129553696Y-62619405D01*
X129605000Y-62361486D01*
X129605000Y-62098514D01*
X129553696Y-61840595D01*
X129504572Y-61722000D01*
X145988749Y-61722000D01*
X146020875Y-61929344D01*
X146020875Y-61929344D01*
G37*
X146020875Y-61929344D02*
X146111065Y-62176366D01*
X146164963Y-62277203D01*
X146398731Y-62336664D01*
X147013395Y-61722000D01*
X147626605Y-61722000D01*
X148241269Y-62336664D01*
X148475037Y-62277203D01*
X148585934Y-62038758D01*
X148648183Y-61783260D01*
X148650796Y-61722000D01*
X150433749Y-61722000D01*
X150465875Y-61929344D01*
X150556065Y-62176366D01*
X150609963Y-62277203D01*
X150843731Y-62336664D01*
X151458395Y-61722000D01*
X152071605Y-61722000D01*
X152686269Y-62336664D01*
X152920037Y-62277203D01*
X153030934Y-62038758D01*
X153093183Y-61783260D01*
X153095796Y-61722000D01*
X156311011Y-61722000D01*
X156305763Y-61733516D01*
X156250000Y-61970313D01*
X156241505Y-62213438D01*
X156280605Y-62453549D01*
X156365798Y-62681418D01*
X156406652Y-62757852D01*
X156630234Y-62805158D01*
X156513128Y-62922264D01*
X156571006Y-62980142D01*
X156525506Y-63004463D01*
X156428815Y-63083815D01*
X156349463Y-63180506D01*
X156290498Y-63290820D01*
X156254188Y-63410518D01*
X156241928Y-63535000D01*
X156241928Y-64735000D01*
X156254188Y-64859482D01*
X156290498Y-64979180D01*
X156349463Y-65089494D01*
X156428815Y-65186185D01*
X156525506Y-65265537D01*
X156635820Y-65324502D01*
X156755518Y-65360812D01*
X156880000Y-65373072D01*
X158080000Y-65373072D01*
X158204482Y-65360812D01*
X158324180Y-65324502D01*
X158434494Y-65265537D01*
X158531185Y-65186185D01*
X158610537Y-65089494D01*
X158669502Y-64979180D01*
X158705812Y-64859482D01*
X158718072Y-64735000D01*
X158718072Y-63535000D01*
X158705812Y-63410518D01*
X158669502Y-63290820D01*
X158610537Y-63180506D01*
X158531185Y-63083815D01*
X158434494Y-63004463D01*
X158388994Y-62980142D01*
X158446872Y-62922264D01*
X158329766Y-62805158D01*
X158553348Y-62757852D01*
X158654237Y-62536484D01*
X158710000Y-62299687D01*
X158718495Y-62056562D01*
X158679395Y-61816451D01*
X158644083Y-61722000D01*
X159893000Y-61722000D01*
X159893000Y-141478000D01*
X127762000Y-141478000D01*
X127762000Y-140550000D01*
X128051928Y-140550000D01*
X128064188Y-140674482D01*
X128100498Y-140794180D01*
X128159463Y-140904494D01*
X128238815Y-141001185D01*
X128335506Y-141080537D01*
X128445820Y-141139502D01*
X128565518Y-141175812D01*
X128690000Y-141188072D01*
X129254250Y-141185000D01*
X129413000Y-141026250D01*
X129413000Y-139827000D01*
X129667000Y-139827000D01*
X129667000Y-141026250D01*
X129825750Y-141185000D01*
X130390000Y-141188072D01*
X130514482Y-141175812D01*
X130634180Y-141139502D01*
X130744494Y-141080537D01*
X130841185Y-141001185D01*
X130920537Y-140904494D01*
X130979502Y-140794180D01*
X131015812Y-140674482D01*
X131028072Y-140550000D01*
X131025000Y-139985750D01*
X130866250Y-139827000D01*
X129667000Y-139827000D01*
X129413000Y-139827000D01*
X128213750Y-139827000D01*
X128055000Y-139985750D01*
X128051928Y-140550000D01*
X127762000Y-140550000D01*
X127762000Y-138850000D01*
X128051928Y-138850000D01*
X128055000Y-139414250D01*
X128213750Y-139573000D01*
X129413000Y-139573000D01*
X129413000Y-138373750D01*
X129667000Y-138373750D01*
X129667000Y-139573000D01*
X130866250Y-139573000D01*
X131025000Y-139414250D01*
X131028072Y-138850000D01*
X131015812Y-138725518D01*
X130979502Y-138605820D01*
X130920537Y-138495506D01*
X130841185Y-138398815D01*
X130744494Y-138319463D01*
X130699501Y-138295413D01*
X138189192Y-138295413D01*
X138284956Y-138559814D01*
X138574571Y-138700704D01*
X138886108Y-138782384D01*
X139207595Y-138801718D01*
X139526675Y-138757961D01*
X139831088Y-138652795D01*
X140005044Y-138559814D01*
X140100808Y-138295413D01*
X139145000Y-137339605D01*
X138189192Y-138295413D01*
X130699501Y-138295413D01*
X130634180Y-138260498D01*
X130514482Y-138224188D01*
X130390000Y-138211928D01*
X129825750Y-138215000D01*
X129667000Y-138373750D01*
X129413000Y-138373750D01*
X129254250Y-138215000D01*
X128690000Y-138211928D01*
X128565518Y-138224188D01*
X128445820Y-138260498D01*
X128335506Y-138319463D01*
X128238815Y-138398815D01*
X128159463Y-138495506D01*
X128100498Y-138605820D01*
X128064188Y-138725518D01*
X128051928Y-138850000D01*
X127762000Y-138850000D01*
X127762000Y-137222595D01*
X137503282Y-137222595D01*
X137547039Y-137541675D01*
X137652205Y-137846088D01*
X137745186Y-138020044D01*
X138009587Y-138115808D01*
X138965395Y-137160000D01*
X139324605Y-137160000D01*
X140280413Y-138115808D01*
X140544814Y-138020044D01*
X140685704Y-137730429D01*
X140767384Y-137418892D01*
X140786718Y-137097405D01*
X140742961Y-136778325D01*
X140637795Y-136473912D01*
X140544814Y-136299956D01*
X140280413Y-136204192D01*
X139324605Y-137160000D01*
X138965395Y-137160000D01*
X138009587Y-136204192D01*
X137745186Y-136299956D01*
X137604296Y-136589571D01*
X137522616Y-136901108D01*
X137503282Y-137222595D01*
X127762000Y-137222595D01*
X127762000Y-136024587D01*
X138189192Y-136024587D01*
X139145000Y-136980395D01*
X139965395Y-136160000D01*
X142506928Y-136160000D01*
X142506928Y-138160000D01*
X142519188Y-138284482D01*
X142555498Y-138404180D01*
X142614463Y-138514494D01*
X142693815Y-138611185D01*
X142790506Y-138690537D01*
X142900820Y-138749502D01*
X143020518Y-138785812D01*
X143145000Y-138798072D01*
X145145000Y-138798072D01*
X145269482Y-138785812D01*
X145389180Y-138749502D01*
X145499494Y-138690537D01*
X145596185Y-138611185D01*
X145675537Y-138514494D01*
X145734502Y-138404180D01*
X145770812Y-138284482D01*
X145783072Y-138160000D01*
X145783072Y-136160000D01*
X145770812Y-136035518D01*
X145734502Y-135915820D01*
X145675537Y-135805506D01*
X145596185Y-135708815D01*
X145499494Y-135629463D01*
X145389180Y-135570498D01*
X145269482Y-135534188D01*
X145145000Y-135521928D01*
X143145000Y-135521928D01*
X143020518Y-135534188D01*
X142900820Y-135570498D01*
X142790506Y-135629463D01*
X142693815Y-135708815D01*
X142614463Y-135805506D01*
X142555498Y-135915820D01*
X142519188Y-136035518D01*
X142506928Y-136160000D01*
X139965395Y-136160000D01*
X140100808Y-136024587D01*
X140005044Y-135760186D01*
X139715429Y-135619296D01*
X139403892Y-135537616D01*
X139082405Y-135518282D01*
X138763325Y-135562039D01*
X138458912Y-135667205D01*
X138284956Y-135760186D01*
X138189192Y-136024587D01*
X127762000Y-136024587D01*
X127762000Y-133135000D01*
X128051928Y-133135000D01*
X128051928Y-134835000D01*
X128064188Y-134959482D01*
X128100498Y-135079180D01*
X128159463Y-135189494D01*
X128238815Y-135286185D01*
X128335506Y-135365537D01*
X128445820Y-135424502D01*
X128565518Y-135460812D01*
X128690000Y-135473072D01*
X130390000Y-135473072D01*
X130514482Y-135460812D01*
X130634180Y-135424502D01*
X130744494Y-135365537D01*
X130841185Y-135286185D01*
X130920537Y-135189494D01*
X130979502Y-135079180D01*
X131015812Y-134959482D01*
X131028072Y-134835000D01*
X131028072Y-133135000D01*
X131015812Y-133010518D01*
X130979502Y-132890820D01*
X130920537Y-132780506D01*
X130841185Y-132683815D01*
X130744494Y-132604463D01*
X130634180Y-132545498D01*
X130514482Y-132509188D01*
X130390000Y-132496928D01*
X128690000Y-132496928D01*
X128565518Y-132509188D01*
X128445820Y-132545498D01*
X128335506Y-132604463D01*
X128238815Y-132683815D01*
X128159463Y-132780506D01*
X128100498Y-132890820D01*
X128064188Y-133010518D01*
X128051928Y-133135000D01*
X127762000Y-133135000D01*
X127762000Y-128745000D01*
X128098057Y-128745000D01*
X128125764Y-129026309D01*
X128207818Y-129296808D01*
X128341068Y-129546101D01*
X128520392Y-129764608D01*
X128738899Y-129943932D01*
X128988192Y-130077182D01*
X129258691Y-130159236D01*
X129469508Y-130180000D01*
X129610492Y-130180000D01*
X129821309Y-130159236D01*
X130091808Y-130077182D01*
X130341101Y-129943932D01*
X130559608Y-129764608D01*
X130738932Y-129546101D01*
X130872182Y-129296808D01*
X130954236Y-129026309D01*
X130961485Y-128952702D01*
X135711903Y-128952702D01*
X135783486Y-129196671D01*
X136038996Y-129317571D01*
X136313184Y-129386300D01*
X136595512Y-129400217D01*
X136875130Y-129358787D01*
X137141292Y-129263603D01*
X137266514Y-129196671D01*
X137338097Y-128952702D01*
X136525000Y-128139605D01*
X135711903Y-128952702D01*
X130961485Y-128952702D01*
X130981943Y-128745000D01*
X130954236Y-128463691D01*
X130872182Y-128193192D01*
X130785228Y-128030512D01*
X135084783Y-128030512D01*
X135126213Y-128310130D01*
X135221397Y-128576292D01*
X135288329Y-128701514D01*
X135532298Y-128773097D01*
X136345395Y-127960000D01*
X136704605Y-127960000D01*
X137517702Y-128773097D01*
X137761671Y-128701514D01*
X137882571Y-128446004D01*
X137951300Y-128171816D01*
X137963650Y-127921269D01*
X145943336Y-127921269D01*
X146002797Y-128155037D01*
X146241242Y-128265934D01*
X146496740Y-128328183D01*
X146759473Y-128339390D01*
X147019344Y-128299125D01*
X147266366Y-128208935D01*
X147367203Y-128155037D01*
X147426664Y-127921269D01*
X146685000Y-127179605D01*
X145943336Y-127921269D01*
X137963650Y-127921269D01*
X137965217Y-127889488D01*
X137923787Y-127609870D01*
X137828603Y-127343708D01*
X137761671Y-127218486D01*
X137517702Y-127146903D01*
X136704605Y-127960000D01*
X136345395Y-127960000D01*
X135532298Y-127146903D01*
X135288329Y-127218486D01*
X135167429Y-127473996D01*
X135098700Y-127748184D01*
X135084783Y-128030512D01*
X130785228Y-128030512D01*
X130738932Y-127943899D01*
X130559608Y-127725392D01*
X130341101Y-127546068D01*
X130091808Y-127412818D01*
X129821309Y-127330764D01*
X129610492Y-127310000D01*
X129469508Y-127310000D01*
X129258691Y-127330764D01*
X128988192Y-127412818D01*
X128738899Y-127546068D01*
X128520392Y-127725392D01*
X128341068Y-127943899D01*
X128207818Y-128193192D01*
X128125764Y-128463691D01*
X128098057Y-128745000D01*
X127762000Y-128745000D01*
X127762000Y-126967298D01*
X135711903Y-126967298D01*
X136525000Y-127780395D01*
X137230922Y-127074473D01*
X145345610Y-127074473D01*
X145385875Y-127334344D01*
X145476065Y-127581366D01*
X145529963Y-127682203D01*
X145763731Y-127741664D01*
X146505395Y-127000000D01*
X146864605Y-127000000D01*
X147606269Y-127741664D01*
X147840037Y-127682203D01*
X147950934Y-127443758D01*
X148013183Y-127188260D01*
X148024390Y-126925527D01*
X147984125Y-126665656D01*
X147893935Y-126418634D01*
X147840037Y-126317797D01*
X147606269Y-126258336D01*
X146864605Y-127000000D01*
X146505395Y-127000000D01*
X145763731Y-126258336D01*
X145529963Y-126317797D01*
X145419066Y-126556242D01*
X145356817Y-126811740D01*
X145345610Y-127074473D01*
X137230922Y-127074473D01*
X137338097Y-126967298D01*
X137266514Y-126723329D01*
X137011004Y-126602429D01*
X136736816Y-126533700D01*
X136454488Y-126519783D01*
X136174870Y-126561213D01*
X135908708Y-126656397D01*
X135783486Y-126723329D01*
X135711903Y-126967298D01*
X127762000Y-126967298D01*
X127762000Y-126078731D01*
X145943336Y-126078731D01*
X146685000Y-126820395D01*
X147426664Y-126078731D01*
X147367203Y-125844963D01*
X147128758Y-125734066D01*
X146873260Y-125671817D01*
X146610527Y-125660610D01*
X146350656Y-125700875D01*
X146103634Y-125791065D01*
X146002797Y-125844963D01*
X145943336Y-126078731D01*
X127762000Y-126078731D01*
X127762000Y-120292702D01*
X133806903Y-120292702D01*
X133878486Y-120536671D01*
X134133996Y-120657571D01*
X134408184Y-120726300D01*
X134690512Y-120740217D01*
X134970130Y-120698787D01*
X135236292Y-120603603D01*
X135361514Y-120536671D01*
X135433097Y-120292702D01*
X134620000Y-119479605D01*
X133806903Y-120292702D01*
X127762000Y-120292702D01*
X127762000Y-118603665D01*
X128105000Y-118603665D01*
X128105000Y-118886335D01*
X128160147Y-119163574D01*
X128268320Y-119424727D01*
X128425363Y-119659759D01*
X128625241Y-119859637D01*
X128860273Y-120016680D01*
X129121426Y-120124853D01*
X129398665Y-120180000D01*
X129681335Y-120180000D01*
X129958574Y-120124853D01*
X130219727Y-120016680D01*
X130454759Y-119859637D01*
X130654637Y-119659759D01*
X130811680Y-119424727D01*
X130834136Y-119370512D01*
X133179783Y-119370512D01*
X133221213Y-119650130D01*
X133316397Y-119916292D01*
X133383329Y-120041514D01*
X133627298Y-120113097D01*
X134440395Y-119300000D01*
X133627298Y-118486903D01*
X133383329Y-118558486D01*
X133262429Y-118813996D01*
X133193700Y-119088184D01*
X133179783Y-119370512D01*
X130834136Y-119370512D01*
X130919853Y-119163574D01*
X130975000Y-118886335D01*
X130975000Y-118603665D01*
X130919853Y-118326426D01*
X130811680Y-118065273D01*
X130654637Y-117830241D01*
X130454759Y-117630363D01*
X130219727Y-117473320D01*
X129958574Y-117365147D01*
X129681335Y-117310000D01*
X129398665Y-117310000D01*
X129121426Y-117365147D01*
X128860273Y-117473320D01*
X128625241Y-117630363D01*
X128425363Y-117830241D01*
X128268320Y-118065273D01*
X128160147Y-118326426D01*
X128105000Y-118603665D01*
X127762000Y-118603665D01*
X127762000Y-111437155D01*
X129521773Y-113196928D01*
X128440000Y-113196928D01*
X128315518Y-113209188D01*
X128195820Y-113245498D01*
X128085506Y-113304463D01*
X127988815Y-113383815D01*
X127909463Y-113480506D01*
X127850498Y-113590820D01*
X127814188Y-113710518D01*
X127801928Y-113835000D01*
X127801928Y-116035000D01*
X127814188Y-116159482D01*
X127850498Y-116279180D01*
X127909463Y-116389494D01*
X127988815Y-116486185D01*
X128085506Y-116565537D01*
X128195820Y-116624502D01*
X128315518Y-116660812D01*
X128440000Y-116673072D01*
X130640000Y-116673072D01*
X130764482Y-116660812D01*
X130884180Y-116624502D01*
X130994494Y-116565537D01*
X131091185Y-116486185D01*
X131170537Y-116389494D01*
X131229502Y-116279180D01*
X131265812Y-116159482D01*
X131278072Y-116035000D01*
X131278072Y-114953227D01*
X134237598Y-117912754D01*
X134003708Y-117996397D01*
X133878486Y-118063329D01*
X133806903Y-118307298D01*
X134620000Y-119120395D01*
X134634143Y-119106253D01*
X134813748Y-119285858D01*
X134799605Y-119300000D01*
X135612702Y-120113097D01*
X135740000Y-120075746D01*
X135740001Y-123021928D01*
X135725000Y-123021928D01*
X135600518Y-123034188D01*
X135480820Y-123070498D01*
X135370506Y-123129463D01*
X135273815Y-123208815D01*
X135194463Y-123305506D01*
X135135498Y-123415820D01*
X135099188Y-123535518D01*
X135086928Y-123660000D01*
X135086928Y-125260000D01*
X135099188Y-125384482D01*
X135135498Y-125504180D01*
X135194463Y-125614494D01*
X135273815Y-125711185D01*
X135370506Y-125790537D01*
X135480820Y-125849502D01*
X135600518Y-125885812D01*
X135725000Y-125898072D01*
X137325000Y-125898072D01*
X137449482Y-125885812D01*
X137569180Y-125849502D01*
X137679494Y-125790537D01*
X137776185Y-125711185D01*
X137855537Y-125614494D01*
X137914502Y-125504180D01*
X137950812Y-125384482D01*
X137963072Y-125260000D01*
X137963072Y-123660000D01*
X137950812Y-123535518D01*
X137914502Y-123415820D01*
X137855537Y-123305506D01*
X137776185Y-123208815D01*
X137679494Y-123129463D01*
X137569180Y-123070498D01*
X137449482Y-123034188D01*
X137325000Y-123021928D01*
X137310000Y-123021928D01*
X137310000Y-120650000D01*
X140263541Y-120650000D01*
X140289317Y-120911706D01*
X140365653Y-121163354D01*
X140489618Y-121395275D01*
X140656445Y-121598555D01*
X140859725Y-121765382D01*
X141091646Y-121889347D01*
X141343294Y-121965683D01*
X141539421Y-121985000D01*
X141670579Y-121985000D01*
X141866706Y-121965683D01*
X142118354Y-121889347D01*
X142350275Y-121765382D01*
X142553555Y-121598555D01*
X142720382Y-121395275D01*
X142844347Y-121163354D01*
X142920683Y-120911706D01*
X142946459Y-120650000D01*
X142920683Y-120388294D01*
X142844347Y-120136646D01*
X142720382Y-119904725D01*
X142553555Y-119701445D01*
X142350275Y-119534618D01*
X142118354Y-119410653D01*
X142017304Y-119380000D01*
X145343541Y-119380000D01*
X145369317Y-119641706D01*
X145445653Y-119893354D01*
X145569618Y-120125275D01*
X145736445Y-120328555D01*
X145939725Y-120495382D01*
X146171646Y-120619347D01*
X146423294Y-120695683D01*
X146619421Y-120715000D01*
X146750579Y-120715000D01*
X146946706Y-120695683D01*
X147198354Y-120619347D01*
X147430275Y-120495382D01*
X147633555Y-120328555D01*
X147800382Y-120125275D01*
X147924347Y-119893354D01*
X148000683Y-119641706D01*
X148026459Y-119380000D01*
X148000683Y-119118294D01*
X147924347Y-118866646D01*
X147800382Y-118634725D01*
X147633555Y-118431445D01*
X147430275Y-118264618D01*
X147198354Y-118140653D01*
X146946706Y-118064317D01*
X146750579Y-118045000D01*
X146619421Y-118045000D01*
X146423294Y-118064317D01*
X146171646Y-118140653D01*
X145939725Y-118264618D01*
X145736445Y-118431445D01*
X145569618Y-118634725D01*
X145445653Y-118866646D01*
X145369317Y-119118294D01*
X145343541Y-119380000D01*
X142017304Y-119380000D01*
X141866706Y-119334317D01*
X141670579Y-119315000D01*
X141539421Y-119315000D01*
X141343294Y-119334317D01*
X141091646Y-119410653D01*
X140859725Y-119534618D01*
X140656445Y-119701445D01*
X140489618Y-119904725D01*
X140365653Y-120136646D01*
X140289317Y-120388294D01*
X140263541Y-120650000D01*
X137310000Y-120650000D01*
X137310000Y-119128550D01*
X137313797Y-119089997D01*
X137310000Y-119051444D01*
X137310000Y-119051437D01*
X137298641Y-118936111D01*
X137253754Y-118788138D01*
X137180862Y-118651765D01*
X137082764Y-118532234D01*
X137052817Y-118507657D01*
X134230869Y-115685710D01*
X134478665Y-115735000D01*
X134761335Y-115735000D01*
X135038574Y-115679853D01*
X135299727Y-115571680D01*
X135534759Y-115414637D01*
X135734637Y-115214759D01*
X135891680Y-114979727D01*
X135999853Y-114718574D01*
X136055000Y-114441335D01*
X136055000Y-114158665D01*
X135999853Y-113881426D01*
X135891680Y-113620273D01*
X135734637Y-113385241D01*
X135534759Y-113185363D01*
X135299727Y-113028320D01*
X135038574Y-112920147D01*
X134929820Y-112898514D01*
X140270000Y-112898514D01*
X140270000Y-113161486D01*
X140321304Y-113419405D01*
X140421939Y-113662359D01*
X140568038Y-113881013D01*
X140753987Y-114066962D01*
X140972641Y-114213061D01*
X141215595Y-114313696D01*
X141473514Y-114365000D01*
X141736486Y-114365000D01*
X141823447Y-114347702D01*
X148411903Y-114347702D01*
X148483486Y-114591671D01*
X148738996Y-114712571D01*
X149013184Y-114781300D01*
X149295512Y-114795217D01*
X149575130Y-114753787D01*
X149841292Y-114658603D01*
X149966514Y-114591671D01*
X150038097Y-114347702D01*
X149225000Y-113534605D01*
X148411903Y-114347702D01*
X141823447Y-114347702D01*
X141994405Y-114313696D01*
X142237359Y-114213061D01*
X142456013Y-114066962D01*
X142641962Y-113881013D01*
X142788061Y-113662359D01*
X142886166Y-113425512D01*
X147784783Y-113425512D01*
X147826213Y-113705130D01*
X147921397Y-113971292D01*
X147988329Y-114096514D01*
X148232298Y-114168097D01*
X149045395Y-113355000D01*
X149404605Y-113355000D01*
X150217702Y-114168097D01*
X150461671Y-114096514D01*
X150582571Y-113841004D01*
X150651300Y-113566816D01*
X150665217Y-113284488D01*
X150623787Y-113004870D01*
X150528603Y-112738708D01*
X150461671Y-112613486D01*
X150217702Y-112541903D01*
X149404605Y-113355000D01*
X149045395Y-113355000D01*
X148232298Y-112541903D01*
X147988329Y-112613486D01*
X147867429Y-112868996D01*
X147798700Y-113143184D01*
X147784783Y-113425512D01*
X142886166Y-113425512D01*
X142888696Y-113419405D01*
X142940000Y-113161486D01*
X142940000Y-112898514D01*
X142888696Y-112640595D01*
X142788061Y-112397641D01*
X142764446Y-112362298D01*
X148411903Y-112362298D01*
X149225000Y-113175395D01*
X150038097Y-112362298D01*
X149966514Y-112118329D01*
X149711004Y-111997429D01*
X149436816Y-111928700D01*
X149154488Y-111914783D01*
X148874870Y-111956213D01*
X148608708Y-112051397D01*
X148483486Y-112118329D01*
X148411903Y-112362298D01*
X142764446Y-112362298D01*
X142641962Y-112178987D01*
X142456013Y-111993038D01*
X142237359Y-111846939D01*
X141994405Y-111746304D01*
X141736486Y-111695000D01*
X141473514Y-111695000D01*
X141215595Y-111746304D01*
X140972641Y-111846939D01*
X140753987Y-111993038D01*
X140568038Y-112178987D01*
X140421939Y-112397641D01*
X140321304Y-112640595D01*
X140270000Y-112898514D01*
X134929820Y-112898514D01*
X134761335Y-112865000D01*
X134478665Y-112865000D01*
X134201426Y-112920147D01*
X133940273Y-113028320D01*
X133705241Y-113185363D01*
X133505363Y-113385241D01*
X133348320Y-113620273D01*
X133240147Y-113881426D01*
X133185000Y-114158665D01*
X133185000Y-114441335D01*
X133234290Y-114689131D01*
X128355001Y-109809842D01*
X128355001Y-109569039D01*
X132593096Y-109569039D01*
X132633754Y-109703087D01*
X132753963Y-109957420D01*
X132921481Y-110183414D01*
X133129869Y-110372385D01*
X133371119Y-110517070D01*
X133635960Y-110611909D01*
X133858000Y-110490624D01*
X133858000Y-109347000D01*
X134112000Y-109347000D01*
X134112000Y-110490624D01*
X134334040Y-110611909D01*
X134598881Y-110517070D01*
X134840131Y-110372385D01*
X135048519Y-110183414D01*
X135216037Y-109957420D01*
X135336246Y-109703087D01*
X135376904Y-109569039D01*
X135254915Y-109347000D01*
X134112000Y-109347000D01*
X133858000Y-109347000D01*
X132715085Y-109347000D01*
X132593096Y-109569039D01*
X128355001Y-109569039D01*
X128355001Y-106680000D01*
X132543057Y-106680000D01*
X132570764Y-106961309D01*
X132652818Y-107231808D01*
X132786068Y-107481101D01*
X132965392Y-107699608D01*
X133183899Y-107878932D01*
X133321682Y-107952579D01*
X133129869Y-108067615D01*
X132921481Y-108256586D01*
X132753963Y-108482580D01*
X132633754Y-108736913D01*
X132593096Y-108870961D01*
X132715085Y-109093000D01*
X133858000Y-109093000D01*
X133858000Y-109073000D01*
X134112000Y-109073000D01*
X134112000Y-109093000D01*
X135254915Y-109093000D01*
X135376904Y-108870961D01*
X135336246Y-108736913D01*
X135216037Y-108482580D01*
X135048519Y-108256586D01*
X134840131Y-108067615D01*
X134648318Y-107952579D01*
X134786101Y-107878932D01*
X135004608Y-107699608D01*
X135183932Y-107481101D01*
X135317182Y-107231808D01*
X135399236Y-106961309D01*
X135426943Y-106680000D01*
X135399236Y-106398691D01*
X135317182Y-106128192D01*
X135183932Y-105878899D01*
X135004608Y-105660392D01*
X134786101Y-105481068D01*
X134648318Y-105407421D01*
X134840131Y-105292385D01*
X135048519Y-105103414D01*
X135216037Y-104877420D01*
X135336246Y-104623087D01*
X135376904Y-104489039D01*
X135254915Y-104267000D01*
X134112000Y-104267000D01*
X134112000Y-104287000D01*
X133858000Y-104287000D01*
X133858000Y-104267000D01*
X132715085Y-104267000D01*
X132593096Y-104489039D01*
X132633754Y-104623087D01*
X132753963Y-104877420D01*
X132921481Y-105103414D01*
X133129869Y-105292385D01*
X133321682Y-105407421D01*
X133183899Y-105481068D01*
X132965392Y-105660392D01*
X132786068Y-105878899D01*
X132652818Y-106128192D01*
X132570764Y-106398691D01*
X132543057Y-106680000D01*
X128355001Y-106680000D01*
X128355001Y-106046967D01*
X128571422Y-106224579D01*
X128872832Y-106385686D01*
X129199881Y-106484895D01*
X129454775Y-106510000D01*
X129625225Y-106510000D01*
X129880119Y-106484895D01*
X130207168Y-106385686D01*
X130508578Y-106224579D01*
X130772766Y-106007766D01*
X130989579Y-105743578D01*
X131150686Y-105442168D01*
X131249895Y-105115119D01*
X131283394Y-104775000D01*
X131249895Y-104434881D01*
X131150686Y-104107832D01*
X130989579Y-103806422D01*
X130772766Y-103542234D01*
X130508578Y-103325421D01*
X130207168Y-103164314D01*
X129880119Y-103065105D01*
X129625225Y-103040000D01*
X129454775Y-103040000D01*
X129199881Y-103065105D01*
X128872832Y-103164314D01*
X128571422Y-103325421D01*
X128355001Y-103503033D01*
X128355001Y-100800000D01*
X132546928Y-100800000D01*
X132546928Y-102400000D01*
X132559188Y-102524482D01*
X132595498Y-102644180D01*
X132654463Y-102754494D01*
X132733815Y-102851185D01*
X132830506Y-102930537D01*
X132940820Y-102989502D01*
X133060518Y-103025812D01*
X133085080Y-103028231D01*
X132921481Y-103176586D01*
X132753963Y-103402580D01*
X132633754Y-103656913D01*
X132593096Y-103790961D01*
X132715085Y-104013000D01*
X133858000Y-104013000D01*
X133858000Y-103993000D01*
X134112000Y-103993000D01*
X134112000Y-104013000D01*
X135254915Y-104013000D01*
X135376904Y-103790961D01*
X135336246Y-103656913D01*
X135216037Y-103402580D01*
X135048519Y-103176586D01*
X134884920Y-103028231D01*
X134909482Y-103025812D01*
X135029180Y-102989502D01*
X135139494Y-102930537D01*
X135236185Y-102851185D01*
X135315537Y-102754494D01*
X135374502Y-102644180D01*
X135410812Y-102524482D01*
X135423072Y-102400000D01*
X135423072Y-101600000D01*
X140163057Y-101600000D01*
X140190764Y-101881309D01*
X140272818Y-102151808D01*
X140406068Y-102401101D01*
X140585392Y-102619608D01*
X140803899Y-102798932D01*
X140936858Y-102870000D01*
X140803899Y-102941068D01*
X140585392Y-103120392D01*
X140406068Y-103338899D01*
X140272818Y-103588192D01*
X140190764Y-103858691D01*
X140163057Y-104140000D01*
X140190764Y-104421309D01*
X140272818Y-104691808D01*
X140406068Y-104941101D01*
X140585392Y-105159608D01*
X140803899Y-105338932D01*
X140936858Y-105410000D01*
X140803899Y-105481068D01*
X140585392Y-105660392D01*
X140406068Y-105878899D01*
X140272818Y-106128192D01*
X140190764Y-106398691D01*
X140163057Y-106680000D01*
X140190764Y-106961309D01*
X140272818Y-107231808D01*
X140406068Y-107481101D01*
X140585392Y-107699608D01*
X140803899Y-107878932D01*
X140936858Y-107950000D01*
X140803899Y-108021068D01*
X140585392Y-108200392D01*
X140406068Y-108418899D01*
X140272818Y-108668192D01*
X140190764Y-108938691D01*
X140163057Y-109220000D01*
X140190764Y-109501309D01*
X140272818Y-109771808D01*
X140406068Y-110021101D01*
X140585392Y-110239608D01*
X140803899Y-110418932D01*
X141053192Y-110552182D01*
X141323691Y-110634236D01*
X141534508Y-110655000D01*
X141675492Y-110655000D01*
X141886309Y-110634236D01*
X142156808Y-110552182D01*
X142406101Y-110418932D01*
X142624608Y-110239608D01*
X142803932Y-110021101D01*
X142937182Y-109771808D01*
X143019236Y-109501309D01*
X143046943Y-109220000D01*
X143030692Y-109055000D01*
X147786928Y-109055000D01*
X147786928Y-110655000D01*
X147799188Y-110779482D01*
X147835498Y-110899180D01*
X147894463Y-111009494D01*
X147973815Y-111106185D01*
X148070506Y-111185537D01*
X148180820Y-111244502D01*
X148300518Y-111280812D01*
X148425000Y-111293072D01*
X150025000Y-111293072D01*
X150149482Y-111280812D01*
X150269180Y-111244502D01*
X150379494Y-111185537D01*
X150476185Y-111106185D01*
X150555537Y-111009494D01*
X150614502Y-110899180D01*
X150650812Y-110779482D01*
X150663072Y-110655000D01*
X150663072Y-109055000D01*
X150650812Y-108930518D01*
X150614502Y-108810820D01*
X150555537Y-108700506D01*
X150476185Y-108603815D01*
X150379494Y-108524463D01*
X150269180Y-108465498D01*
X150149482Y-108429188D01*
X150025000Y-108416928D01*
X148425000Y-108416928D01*
X148300518Y-108429188D01*
X148180820Y-108465498D01*
X148070506Y-108524463D01*
X147973815Y-108603815D01*
X147894463Y-108700506D01*
X147835498Y-108810820D01*
X147799188Y-108930518D01*
X147786928Y-109055000D01*
X143030692Y-109055000D01*
X143019236Y-108938691D01*
X142937182Y-108668192D01*
X142803932Y-108418899D01*
X142624608Y-108200392D01*
X142406101Y-108021068D01*
X142273142Y-107950000D01*
X142406101Y-107878932D01*
X142624608Y-107699608D01*
X142803932Y-107481101D01*
X142937182Y-107231808D01*
X143019236Y-106961309D01*
X143046943Y-106680000D01*
X143019236Y-106398691D01*
X142937182Y-106128192D01*
X142803932Y-105878899D01*
X142624608Y-105660392D01*
X142406101Y-105481068D01*
X142273142Y-105410000D01*
X142406101Y-105338932D01*
X142624608Y-105159608D01*
X142803932Y-104941101D01*
X142812538Y-104925000D01*
X143535841Y-104925000D01*
X143693652Y-105082811D01*
X143718235Y-105112765D01*
X143837766Y-105210863D01*
X143974139Y-105283755D01*
X144122112Y-105328642D01*
X144237438Y-105340001D01*
X144237445Y-105340001D01*
X144275998Y-105343798D01*
X144314551Y-105340001D01*
X148088090Y-105340001D01*
X147985653Y-105531646D01*
X147909317Y-105783294D01*
X147883541Y-106045000D01*
X147909317Y-106306706D01*
X147985653Y-106558354D01*
X148109618Y-106790275D01*
X148276445Y-106993555D01*
X148479725Y-107160382D01*
X148711646Y-107284347D01*
X148963294Y-107360683D01*
X149159421Y-107380000D01*
X149290579Y-107380000D01*
X149486706Y-107360683D01*
X149738354Y-107284347D01*
X149970275Y-107160382D01*
X150173555Y-106993555D01*
X150340382Y-106790275D01*
X150464347Y-106558354D01*
X150540683Y-106306706D01*
X150566459Y-106045000D01*
X150553509Y-105913514D01*
X155510000Y-105913514D01*
X155510000Y-106176486D01*
X155561304Y-106434405D01*
X155661939Y-106677359D01*
X155808038Y-106896013D01*
X155993987Y-107081962D01*
X156212641Y-107228061D01*
X156455595Y-107328696D01*
X156713514Y-107380000D01*
X156976486Y-107380000D01*
X157234405Y-107328696D01*
X157477359Y-107228061D01*
X157696013Y-107081962D01*
X157881962Y-106896013D01*
X158028061Y-106677359D01*
X158128696Y-106434405D01*
X158180000Y-106176486D01*
X158180000Y-105913514D01*
X158128696Y-105655595D01*
X158028061Y-105412641D01*
X157881962Y-105193987D01*
X157696013Y-105008038D01*
X157477359Y-104861939D01*
X157234405Y-104761304D01*
X156976486Y-104710000D01*
X156713514Y-104710000D01*
X156455595Y-104761304D01*
X156212641Y-104861939D01*
X155993987Y-105008038D01*
X155808038Y-105193987D01*
X155661939Y-105412641D01*
X155561304Y-105655595D01*
X155510000Y-105913514D01*
X150553509Y-105913514D01*
X150540683Y-105783294D01*
X150464347Y-105531646D01*
X150361910Y-105340001D01*
X151311446Y-105340001D01*
X151349999Y-105343798D01*
X151388552Y-105340001D01*
X151388560Y-105340001D01*
X151503886Y-105328642D01*
X151651859Y-105283755D01*
X151788232Y-105210863D01*
X151907763Y-105112765D01*
X151932346Y-105082810D01*
X152190645Y-104824511D01*
X152268514Y-104840000D01*
X152531486Y-104840000D01*
X152789405Y-104788696D01*
X153032359Y-104688061D01*
X153251013Y-104541962D01*
X153436962Y-104356013D01*
X153583061Y-104137359D01*
X153683696Y-103894405D01*
X153735000Y-103636486D01*
X153735000Y-103373514D01*
X153683696Y-103115595D01*
X153583061Y-102872641D01*
X153436962Y-102653987D01*
X153251013Y-102468038D01*
X153032359Y-102321939D01*
X152822470Y-102235000D01*
X153032359Y-102148061D01*
X153251013Y-102001962D01*
X153436962Y-101816013D01*
X153583061Y-101597359D01*
X153683696Y-101354405D01*
X153735000Y-101096486D01*
X153735000Y-100833514D01*
X153683696Y-100575595D01*
X153583061Y-100332641D01*
X153436962Y-100113987D01*
X153251013Y-99928038D01*
X153032359Y-99781939D01*
X152789405Y-99681304D01*
X152531486Y-99630000D01*
X152268514Y-99630000D01*
X152010595Y-99681304D01*
X151767641Y-99781939D01*
X151548987Y-99928038D01*
X151363038Y-100113987D01*
X151216939Y-100332641D01*
X151116304Y-100575595D01*
X151065000Y-100833514D01*
X151065000Y-101096486D01*
X151116304Y-101354405D01*
X151216939Y-101597359D01*
X151363038Y-101816013D01*
X151548987Y-102001962D01*
X151767641Y-102148061D01*
X151977530Y-102235000D01*
X151767641Y-102321939D01*
X151548987Y-102468038D01*
X151363038Y-102653987D01*
X151216939Y-102872641D01*
X151116304Y-103115595D01*
X151065000Y-103373514D01*
X151065000Y-103636486D01*
X151080489Y-103714355D01*
X151024843Y-103770001D01*
X146094683Y-103770001D01*
X146095683Y-103766706D01*
X146121459Y-103505000D01*
X146095683Y-103243294D01*
X146019347Y-102991646D01*
X145895382Y-102759725D01*
X145728555Y-102556445D01*
X145525275Y-102389618D01*
X145293354Y-102265653D01*
X145192304Y-102235000D01*
X145293354Y-102204347D01*
X145525275Y-102080382D01*
X145728555Y-101913555D01*
X145895382Y-101710275D01*
X146019347Y-101478354D01*
X146095683Y-101226706D01*
X146121459Y-100965000D01*
X146095683Y-100703294D01*
X146019347Y-100451646D01*
X145895382Y-100219725D01*
X145728555Y-100016445D01*
X145525275Y-99849618D01*
X145293354Y-99725653D01*
X145041706Y-99649317D01*
X144845579Y-99630000D01*
X144714421Y-99630000D01*
X144518294Y-99649317D01*
X144266646Y-99725653D01*
X144034725Y-99849618D01*
X143831445Y-100016445D01*
X143664618Y-100219725D01*
X143540653Y-100451646D01*
X143464317Y-100703294D01*
X143438541Y-100965000D01*
X143464317Y-101226706D01*
X143540653Y-101478354D01*
X143664618Y-101710275D01*
X143831445Y-101913555D01*
X144034725Y-102080382D01*
X144266646Y-102204347D01*
X144367696Y-102235000D01*
X144266646Y-102265653D01*
X144034725Y-102389618D01*
X143831445Y-102556445D01*
X143664618Y-102759725D01*
X143540653Y-102991646D01*
X143464317Y-103243294D01*
X143453315Y-103355000D01*
X142812538Y-103355000D01*
X142803932Y-103338899D01*
X142624608Y-103120392D01*
X142406101Y-102941068D01*
X142273142Y-102870000D01*
X142406101Y-102798932D01*
X142624608Y-102619608D01*
X142803932Y-102401101D01*
X142937182Y-102151808D01*
X143019236Y-101881309D01*
X143046943Y-101600000D01*
X143019236Y-101318691D01*
X142937182Y-101048192D01*
X142803932Y-100798899D01*
X142624608Y-100580392D01*
X142406101Y-100401068D01*
X142156808Y-100267818D01*
X141886309Y-100185764D01*
X141675492Y-100165000D01*
X141534508Y-100165000D01*
X141323691Y-100185764D01*
X141053192Y-100267818D01*
X140803899Y-100401068D01*
X140585392Y-100580392D01*
X140406068Y-100798899D01*
X140272818Y-101048192D01*
X140190764Y-101318691D01*
X140163057Y-101600000D01*
X135423072Y-101600000D01*
X135423072Y-100800000D01*
X135410812Y-100675518D01*
X135374502Y-100555820D01*
X135315537Y-100445506D01*
X135236185Y-100348815D01*
X135139494Y-100269463D01*
X135029180Y-100210498D01*
X134909482Y-100174188D01*
X134785000Y-100161928D01*
X133185000Y-100161928D01*
X133060518Y-100174188D01*
X132940820Y-100210498D01*
X132830506Y-100269463D01*
X132733815Y-100348815D01*
X132654463Y-100445506D01*
X132595498Y-100555820D01*
X132559188Y-100675518D01*
X132546928Y-100800000D01*
X128355001Y-100800000D01*
X128355001Y-98837609D01*
X128706538Y-98837609D01*
X128710409Y-98875282D01*
X128802579Y-99100533D01*
X128936922Y-99303474D01*
X129108275Y-99476307D01*
X129310054Y-99612390D01*
X129534504Y-99706493D01*
X129773000Y-99755000D01*
X130048000Y-99755000D01*
X130048000Y-98647000D01*
X130302000Y-98647000D01*
X130302000Y-99755000D01*
X130577000Y-99755000D01*
X130815496Y-99706493D01*
X131039946Y-99612390D01*
X131241725Y-99476307D01*
X131413078Y-99303474D01*
X131547421Y-99100533D01*
X131639591Y-98875282D01*
X131643462Y-98837609D01*
X131518731Y-98647000D01*
X130302000Y-98647000D01*
X130048000Y-98647000D01*
X128831269Y-98647000D01*
X128706538Y-98837609D01*
X128355001Y-98837609D01*
X128355001Y-96169999D01*
X128661928Y-96169999D01*
X128661928Y-96870001D01*
X128678992Y-97043255D01*
X128729528Y-97209851D01*
X128811595Y-97363387D01*
X128922038Y-97497962D01*
X129056613Y-97608405D01*
X129061406Y-97610967D01*
X128936922Y-97736526D01*
X128802579Y-97939467D01*
X128710409Y-98164718D01*
X128706538Y-98202391D01*
X128831269Y-98393000D01*
X130048000Y-98393000D01*
X130048000Y-98373000D01*
X130302000Y-98373000D01*
X130302000Y-98393000D01*
X131518731Y-98393000D01*
X131643462Y-98202391D01*
X131639591Y-98164718D01*
X131547421Y-97939467D01*
X131413078Y-97736526D01*
X131288594Y-97610967D01*
X131293387Y-97608405D01*
X131427962Y-97497962D01*
X131538405Y-97363387D01*
X131620472Y-97209851D01*
X131647727Y-97120000D01*
X136556928Y-97120000D01*
X136569188Y-97244482D01*
X136605498Y-97364180D01*
X136664463Y-97474494D01*
X136743815Y-97571185D01*
X136840506Y-97650537D01*
X136950820Y-97709502D01*
X137070518Y-97745812D01*
X137195000Y-97758072D01*
X137509250Y-97755000D01*
X137668000Y-97596250D01*
X137668000Y-96647000D01*
X137922000Y-96647000D01*
X137922000Y-97596250D01*
X138080750Y-97755000D01*
X138395000Y-97758072D01*
X138519482Y-97745812D01*
X138639180Y-97709502D01*
X138749494Y-97650537D01*
X138846185Y-97571185D01*
X138925537Y-97474494D01*
X138984502Y-97364180D01*
X139020812Y-97244482D01*
X139029624Y-97155000D01*
X143498057Y-97155000D01*
X143525764Y-97436309D01*
X143607818Y-97706808D01*
X143741068Y-97956101D01*
X143920392Y-98174608D01*
X144138899Y-98353932D01*
X144388192Y-98487182D01*
X144658691Y-98569236D01*
X144869508Y-98590000D01*
X145010492Y-98590000D01*
X145221309Y-98569236D01*
X145491808Y-98487182D01*
X145741101Y-98353932D01*
X145959608Y-98174608D01*
X146138932Y-97956101D01*
X146272182Y-97706808D01*
X146354236Y-97436309D01*
X146381943Y-97155000D01*
X146368023Y-97013665D01*
X153505000Y-97013665D01*
X153505000Y-97296335D01*
X153560147Y-97573574D01*
X153668320Y-97834727D01*
X153825363Y-98069759D01*
X154025241Y-98269637D01*
X154260273Y-98426680D01*
X154521426Y-98534853D01*
X154798665Y-98590000D01*
X155081335Y-98590000D01*
X155358574Y-98534853D01*
X155619727Y-98426680D01*
X155854759Y-98269637D01*
X156054637Y-98069759D01*
X156211680Y-97834727D01*
X156319853Y-97573574D01*
X156375000Y-97296335D01*
X156375000Y-97013665D01*
X156319853Y-96736426D01*
X156211680Y-96475273D01*
X156054637Y-96240241D01*
X155854759Y-96040363D01*
X155619727Y-95883320D01*
X155358574Y-95775147D01*
X155081335Y-95720000D01*
X154798665Y-95720000D01*
X154521426Y-95775147D01*
X154260273Y-95883320D01*
X154025241Y-96040363D01*
X153825363Y-96240241D01*
X153668320Y-96475273D01*
X153560147Y-96736426D01*
X153505000Y-97013665D01*
X146368023Y-97013665D01*
X146354236Y-96873691D01*
X146272182Y-96603192D01*
X146138932Y-96353899D01*
X145959608Y-96135392D01*
X145741101Y-95956068D01*
X145491808Y-95822818D01*
X145221309Y-95740764D01*
X145010492Y-95720000D01*
X144869508Y-95720000D01*
X144658691Y-95740764D01*
X144388192Y-95822818D01*
X144138899Y-95956068D01*
X143920392Y-96135392D01*
X143741068Y-96353899D01*
X143607818Y-96603192D01*
X143525764Y-96873691D01*
X143498057Y-97155000D01*
X139029624Y-97155000D01*
X139033072Y-97120000D01*
X139030000Y-96805750D01*
X138871250Y-96647000D01*
X137922000Y-96647000D01*
X137668000Y-96647000D01*
X136718750Y-96647000D01*
X136560000Y-96805750D01*
X136556928Y-97120000D01*
X131647727Y-97120000D01*
X131671008Y-97043255D01*
X131688072Y-96870001D01*
X131688072Y-96169999D01*
X131671008Y-95996745D01*
X131647728Y-95920000D01*
X136556928Y-95920000D01*
X136560000Y-96234250D01*
X136718750Y-96393000D01*
X137668000Y-96393000D01*
X137668000Y-96373000D01*
X137922000Y-96373000D01*
X137922000Y-96393000D01*
X138871250Y-96393000D01*
X139030000Y-96234250D01*
X139033072Y-95920000D01*
X139020812Y-95795518D01*
X138984502Y-95675820D01*
X138925537Y-95565506D01*
X138846185Y-95468815D01*
X138749494Y-95389463D01*
X138699053Y-95362501D01*
X138754287Y-95307267D01*
X138889443Y-95104992D01*
X138982540Y-94880236D01*
X139030000Y-94641637D01*
X139030000Y-94398363D01*
X138982540Y-94159764D01*
X138889443Y-93935008D01*
X138754287Y-93732733D01*
X138582267Y-93560713D01*
X138379992Y-93425557D01*
X138155236Y-93332460D01*
X137916637Y-93285000D01*
X137673363Y-93285000D01*
X137434764Y-93332460D01*
X137210008Y-93425557D01*
X137007733Y-93560713D01*
X136835713Y-93732733D01*
X136700557Y-93935008D01*
X136607460Y-94159764D01*
X136560000Y-94398363D01*
X136560000Y-94641637D01*
X136607460Y-94880236D01*
X136700557Y-95104992D01*
X136835713Y-95307267D01*
X136890947Y-95362501D01*
X136840506Y-95389463D01*
X136743815Y-95468815D01*
X136664463Y-95565506D01*
X136605498Y-95675820D01*
X136569188Y-95795518D01*
X136556928Y-95920000D01*
X131647728Y-95920000D01*
X131620472Y-95830149D01*
X131538405Y-95676613D01*
X131427962Y-95542038D01*
X131293387Y-95431595D01*
X131139851Y-95349528D01*
X130973255Y-95298992D01*
X130800001Y-95281928D01*
X129549999Y-95281928D01*
X129376745Y-95298992D01*
X129210149Y-95349528D01*
X129056613Y-95431595D01*
X128922038Y-95542038D01*
X128811595Y-95676613D01*
X128729528Y-95830149D01*
X128678992Y-95996745D01*
X128661928Y-96169999D01*
X128355001Y-96169999D01*
X128355001Y-91656439D01*
X128619250Y-91655000D01*
X128778000Y-91496250D01*
X128778000Y-90297000D01*
X129032000Y-90297000D01*
X129032000Y-91496250D01*
X129190750Y-91655000D01*
X129755000Y-91658072D01*
X129879482Y-91645812D01*
X129999180Y-91609502D01*
X130109494Y-91550537D01*
X130206185Y-91471185D01*
X130285537Y-91374494D01*
X130344502Y-91264180D01*
X130380812Y-91144482D01*
X130393072Y-91020000D01*
X130391186Y-90673514D01*
X143445000Y-90673514D01*
X143445000Y-90936486D01*
X143496304Y-91194405D01*
X143596939Y-91437359D01*
X143743038Y-91656013D01*
X143928987Y-91841962D01*
X144147641Y-91988061D01*
X144357530Y-92075000D01*
X144147641Y-92161939D01*
X143928987Y-92308038D01*
X143743038Y-92493987D01*
X143596939Y-92712641D01*
X143496304Y-92955595D01*
X143445000Y-93213514D01*
X143445000Y-93476486D01*
X143496304Y-93734405D01*
X143596939Y-93977359D01*
X143743038Y-94196013D01*
X143928987Y-94381962D01*
X144147641Y-94528061D01*
X144390595Y-94628696D01*
X144648514Y-94680000D01*
X144911486Y-94680000D01*
X145169405Y-94628696D01*
X145412359Y-94528061D01*
X145631013Y-94381962D01*
X145816962Y-94196013D01*
X145963061Y-93977359D01*
X146063696Y-93734405D01*
X146115000Y-93476486D01*
X146115000Y-93213514D01*
X146063696Y-92955595D01*
X145963061Y-92712641D01*
X145816962Y-92493987D01*
X145631013Y-92308038D01*
X145412359Y-92161939D01*
X145202470Y-92075000D01*
X145412359Y-91988061D01*
X145631013Y-91841962D01*
X145816962Y-91656013D01*
X145963061Y-91437359D01*
X146063696Y-91194405D01*
X146115000Y-90936486D01*
X146115000Y-90805000D01*
X151058541Y-90805000D01*
X151084317Y-91066706D01*
X151160653Y-91318354D01*
X151284618Y-91550275D01*
X151451445Y-91753555D01*
X151654725Y-91920382D01*
X151886646Y-92044347D01*
X151987696Y-92075000D01*
X151886646Y-92105653D01*
X151654725Y-92229618D01*
X151451445Y-92396445D01*
X151284618Y-92599725D01*
X151160653Y-92831646D01*
X151084317Y-93083294D01*
X151058541Y-93345000D01*
X151084317Y-93606706D01*
X151160653Y-93858354D01*
X151284618Y-94090275D01*
X151451445Y-94293555D01*
X151654725Y-94460382D01*
X151886646Y-94584347D01*
X152138294Y-94660683D01*
X152334421Y-94680000D01*
X152465579Y-94680000D01*
X152661706Y-94660683D01*
X152913354Y-94584347D01*
X153145275Y-94460382D01*
X153348555Y-94293555D01*
X153515382Y-94090275D01*
X153639347Y-93858354D01*
X153715683Y-93606706D01*
X153741459Y-93345000D01*
X153715683Y-93083294D01*
X153639347Y-92831646D01*
X153515382Y-92599725D01*
X153348555Y-92396445D01*
X153145275Y-92229618D01*
X152913354Y-92105653D01*
X152812304Y-92075000D01*
X152913354Y-92044347D01*
X153145275Y-91920382D01*
X153348555Y-91753555D01*
X153515382Y-91550275D01*
X153639347Y-91318354D01*
X153715683Y-91066706D01*
X153741459Y-90805000D01*
X153715683Y-90543294D01*
X153639347Y-90291646D01*
X153515382Y-90059725D01*
X153348555Y-89856445D01*
X153145275Y-89689618D01*
X152913354Y-89565653D01*
X152661706Y-89489317D01*
X152465579Y-89470000D01*
X152334421Y-89470000D01*
X152138294Y-89489317D01*
X151886646Y-89565653D01*
X151654725Y-89689618D01*
X151451445Y-89856445D01*
X151284618Y-90059725D01*
X151160653Y-90291646D01*
X151084317Y-90543294D01*
X151058541Y-90805000D01*
X146115000Y-90805000D01*
X146115000Y-90673514D01*
X146063696Y-90415595D01*
X145963061Y-90172641D01*
X145816962Y-89953987D01*
X145631013Y-89768038D01*
X145412359Y-89621939D01*
X145169405Y-89521304D01*
X144911486Y-89470000D01*
X144648514Y-89470000D01*
X144390595Y-89521304D01*
X144147641Y-89621939D01*
X143928987Y-89768038D01*
X143743038Y-89953987D01*
X143596939Y-90172641D01*
X143496304Y-90415595D01*
X143445000Y-90673514D01*
X130391186Y-90673514D01*
X130390000Y-90455750D01*
X130231250Y-90297000D01*
X129032000Y-90297000D01*
X128778000Y-90297000D01*
X128758000Y-90297000D01*
X128758000Y-90043000D01*
X128778000Y-90043000D01*
X128778000Y-90023000D01*
X129032000Y-90023000D01*
X129032000Y-90043000D01*
X130231250Y-90043000D01*
X130390000Y-89884250D01*
X130393072Y-89320000D01*
X130380812Y-89195518D01*
X130344502Y-89075820D01*
X130285537Y-88965506D01*
X130206185Y-88868815D01*
X130109494Y-88789463D01*
X129999180Y-88730498D01*
X129930313Y-88709607D01*
X129960134Y-88685134D01*
X130145706Y-88459014D01*
X130283599Y-88201034D01*
X130368513Y-87921111D01*
X130397185Y-87630000D01*
X130368513Y-87338889D01*
X130283599Y-87058966D01*
X130145706Y-86800986D01*
X129960134Y-86574866D01*
X129734014Y-86389294D01*
X129476034Y-86251401D01*
X129196111Y-86166487D01*
X128977950Y-86145000D01*
X128832050Y-86145000D01*
X128613889Y-86166487D01*
X128355001Y-86245020D01*
X128355001Y-82613087D01*
X128480563Y-82600720D01*
X128737650Y-82857806D01*
X128762237Y-82887765D01*
X128881768Y-82985863D01*
X129018141Y-83058755D01*
X129166114Y-83103643D01*
X129241027Y-83111021D01*
X129281440Y-83115001D01*
X129281445Y-83115001D01*
X129320001Y-83118798D01*
X129358557Y-83115001D01*
X146774844Y-83115001D01*
X147735403Y-84075560D01*
X147690000Y-84303816D01*
X147690000Y-84606184D01*
X147748989Y-84902743D01*
X147864701Y-85182095D01*
X148032688Y-85433505D01*
X148099127Y-85499944D01*
X148080820Y-85505498D01*
X147970506Y-85564463D01*
X147873815Y-85643815D01*
X147794463Y-85740506D01*
X147735498Y-85850820D01*
X147699188Y-85970518D01*
X147686928Y-86095000D01*
X147686928Y-87895000D01*
X147699188Y-88019482D01*
X147735498Y-88139180D01*
X147794463Y-88249494D01*
X147873815Y-88346185D01*
X147970506Y-88425537D01*
X148080820Y-88484502D01*
X148200518Y-88520812D01*
X148325000Y-88533072D01*
X150125000Y-88533072D01*
X150249482Y-88520812D01*
X150369180Y-88484502D01*
X150479494Y-88425537D01*
X150576185Y-88346185D01*
X150655537Y-88249494D01*
X150714502Y-88139180D01*
X150750812Y-88019482D01*
X150763072Y-87895000D01*
X150763072Y-86095000D01*
X155941928Y-86095000D01*
X155941928Y-87895000D01*
X155954188Y-88019482D01*
X155990498Y-88139180D01*
X156049463Y-88249494D01*
X156128815Y-88346185D01*
X156225506Y-88425537D01*
X156335820Y-88484502D01*
X156455518Y-88520812D01*
X156580000Y-88533072D01*
X158380000Y-88533072D01*
X158504482Y-88520812D01*
X158624180Y-88484502D01*
X158734494Y-88425537D01*
X158831185Y-88346185D01*
X158910537Y-88249494D01*
X158969502Y-88139180D01*
X159005812Y-88019482D01*
X159018072Y-87895000D01*
X159018072Y-86095000D01*
X159005812Y-85970518D01*
X158969502Y-85850820D01*
X158910537Y-85740506D01*
X158831185Y-85643815D01*
X158734494Y-85564463D01*
X158624180Y-85505498D01*
X158605873Y-85499944D01*
X158672312Y-85433505D01*
X158840299Y-85182095D01*
X158956011Y-84902743D01*
X159015000Y-84606184D01*
X159015000Y-84303816D01*
X158956011Y-84007257D01*
X158840299Y-83727905D01*
X158672312Y-83476495D01*
X158458505Y-83262688D01*
X158207095Y-83094701D01*
X157927743Y-82978989D01*
X157631184Y-82920000D01*
X157328816Y-82920000D01*
X157032257Y-82978989D01*
X156752905Y-83094701D01*
X156501495Y-83262688D01*
X156287688Y-83476495D01*
X156119701Y-83727905D01*
X156003989Y-84007257D01*
X155945000Y-84303816D01*
X155945000Y-84606184D01*
X156003989Y-84902743D01*
X156119701Y-85182095D01*
X156287688Y-85433505D01*
X156354127Y-85499944D01*
X156335820Y-85505498D01*
X156225506Y-85564463D01*
X156128815Y-85643815D01*
X156049463Y-85740506D01*
X155990498Y-85850820D01*
X155954188Y-85970518D01*
X155941928Y-86095000D01*
X150763072Y-86095000D01*
X150750812Y-85970518D01*
X150714502Y-85850820D01*
X150655537Y-85740506D01*
X150576185Y-85643815D01*
X150479494Y-85564463D01*
X150369180Y-85505498D01*
X150350873Y-85499944D01*
X150417312Y-85433505D01*
X150585299Y-85182095D01*
X150701011Y-84902743D01*
X150760000Y-84606184D01*
X150760000Y-84303816D01*
X150701011Y-84007257D01*
X150585299Y-83727905D01*
X150417312Y-83476495D01*
X150203505Y-83262688D01*
X149952095Y-83094701D01*
X149672743Y-82978989D01*
X149376184Y-82920000D01*
X149073816Y-82920000D01*
X148845560Y-82965403D01*
X147682347Y-81802190D01*
X147657765Y-81772237D01*
X147538234Y-81674139D01*
X147401861Y-81601247D01*
X147253888Y-81556360D01*
X147138562Y-81545001D01*
X147138554Y-81545001D01*
X147100001Y-81541204D01*
X147061448Y-81545001D01*
X132124683Y-81545001D01*
X132125683Y-81541706D01*
X132151459Y-81280000D01*
X132125683Y-81018294D01*
X132049347Y-80766646D01*
X131925382Y-80534725D01*
X131758555Y-80331445D01*
X131555275Y-80164618D01*
X131323354Y-80040653D01*
X131222304Y-80010000D01*
X156138541Y-80010000D01*
X156164317Y-80271706D01*
X156240653Y-80523354D01*
X156364618Y-80755275D01*
X156531445Y-80958555D01*
X156734725Y-81125382D01*
X156966646Y-81249347D01*
X157218294Y-81325683D01*
X157414421Y-81345000D01*
X157545579Y-81345000D01*
X157741706Y-81325683D01*
X157993354Y-81249347D01*
X158225275Y-81125382D01*
X158428555Y-80958555D01*
X158595382Y-80755275D01*
X158719347Y-80523354D01*
X158795683Y-80271706D01*
X158821459Y-80010000D01*
X158795683Y-79748294D01*
X158719347Y-79496646D01*
X158595382Y-79264725D01*
X158428555Y-79061445D01*
X158225275Y-78894618D01*
X157993354Y-78770653D01*
X157741706Y-78694317D01*
X157545579Y-78675000D01*
X157414421Y-78675000D01*
X157218294Y-78694317D01*
X156966646Y-78770653D01*
X156734725Y-78894618D01*
X156531445Y-79061445D01*
X156364618Y-79264725D01*
X156240653Y-79496646D01*
X156164317Y-79748294D01*
X156138541Y-80010000D01*
X131222304Y-80010000D01*
X131071706Y-79964317D01*
X130875579Y-79945000D01*
X130744421Y-79945000D01*
X130548294Y-79964317D01*
X130296646Y-80040653D01*
X130064725Y-80164618D01*
X129861445Y-80331445D01*
X129694618Y-80534725D01*
X129570653Y-80766646D01*
X129540000Y-80867696D01*
X129509347Y-80766646D01*
X129385382Y-80534725D01*
X129218555Y-80331445D01*
X129015275Y-80164618D01*
X128783354Y-80040653D01*
X128531706Y-79964317D01*
X128335579Y-79945000D01*
X128204421Y-79945000D01*
X128008294Y-79964317D01*
X127762000Y-80039029D01*
X127762000Y-74894572D01*
X127880595Y-74943696D01*
X128138514Y-74995000D01*
X128401486Y-74995000D01*
X128659405Y-74943696D01*
X128902359Y-74843061D01*
X129121013Y-74696962D01*
X129236706Y-74581269D01*
X130068336Y-74581269D01*
X130127797Y-74815037D01*
X130366242Y-74925934D01*
X130621740Y-74988183D01*
X130884473Y-74999390D01*
X131144344Y-74959125D01*
X131391366Y-74868935D01*
X131492203Y-74815037D01*
X131551664Y-74581269D01*
X130810000Y-73839605D01*
X130068336Y-74581269D01*
X129236706Y-74581269D01*
X129306962Y-74511013D01*
X129453061Y-74292359D01*
X129541621Y-74078556D01*
X129601065Y-74241366D01*
X129654963Y-74342203D01*
X129888731Y-74401664D01*
X130630395Y-73660000D01*
X130989605Y-73660000D01*
X131731269Y-74401664D01*
X131965037Y-74342203D01*
X132075934Y-74103758D01*
X132138183Y-73848260D01*
X132149390Y-73585527D01*
X132109125Y-73325656D01*
X132018935Y-73078634D01*
X131965037Y-72977797D01*
X131731269Y-72918336D01*
X130989605Y-73660000D01*
X130630395Y-73660000D01*
X129888731Y-72918336D01*
X129654963Y-72977797D01*
X129544066Y-73216242D01*
X129539294Y-73235827D01*
X129453061Y-73027641D01*
X129306962Y-72808987D01*
X129236706Y-72738731D01*
X130068336Y-72738731D01*
X130810000Y-73480395D01*
X131551664Y-72738731D01*
X131492203Y-72504963D01*
X131253758Y-72394066D01*
X130998260Y-72331817D01*
X130735527Y-72320610D01*
X130475656Y-72360875D01*
X130228634Y-72451065D01*
X130127797Y-72504963D01*
X130068336Y-72738731D01*
X129236706Y-72738731D01*
X129121013Y-72623038D01*
X128902359Y-72476939D01*
X128659405Y-72376304D01*
X128401486Y-72325000D01*
X128138514Y-72325000D01*
X127880595Y-72376304D01*
X127762000Y-72425428D01*
X127762000Y-72288665D01*
X150330000Y-72288665D01*
X150330000Y-72571335D01*
X150385147Y-72848574D01*
X150493320Y-73109727D01*
X150650363Y-73344759D01*
X150850241Y-73544637D01*
X151052827Y-73680000D01*
X150850241Y-73815363D01*
X150650363Y-74015241D01*
X150493320Y-74250273D01*
X150385147Y-74511426D01*
X150330000Y-74788665D01*
X150330000Y-75071335D01*
X150385147Y-75348574D01*
X150493320Y-75609727D01*
X150650363Y-75844759D01*
X150850241Y-76044637D01*
X151085273Y-76201680D01*
X151346426Y-76309853D01*
X151623665Y-76365000D01*
X151906335Y-76365000D01*
X152183574Y-76309853D01*
X152444727Y-76201680D01*
X152679759Y-76044637D01*
X152879637Y-75844759D01*
X153036680Y-75609727D01*
X153144853Y-75348574D01*
X153200000Y-75071335D01*
X153200000Y-74788665D01*
X153144853Y-74511426D01*
X153036680Y-74250273D01*
X152879637Y-74015241D01*
X152679759Y-73815363D01*
X152477173Y-73680000D01*
X152679759Y-73544637D01*
X152879637Y-73344759D01*
X153036680Y-73109727D01*
X153144853Y-72848574D01*
X153200000Y-72571335D01*
X153200000Y-72288665D01*
X153144853Y-72011426D01*
X153036680Y-71750273D01*
X152879637Y-71515241D01*
X152679759Y-71315363D01*
X152444727Y-71158320D01*
X152183574Y-71050147D01*
X151906335Y-70995000D01*
X151623665Y-70995000D01*
X151346426Y-71050147D01*
X151085273Y-71158320D01*
X150850241Y-71315363D01*
X150650363Y-71515241D01*
X150493320Y-71750273D01*
X150385147Y-72011426D01*
X150330000Y-72288665D01*
X127762000Y-72288665D01*
X127762000Y-71078944D01*
X127828956Y-71110047D01*
X127936671Y-71142716D01*
X128143000Y-71019374D01*
X128143000Y-69977000D01*
X128397000Y-69977000D01*
X128397000Y-71019374D01*
X128603329Y-71142716D01*
X128711044Y-71110047D01*
X128948392Y-70999792D01*
X129159670Y-70845351D01*
X129336759Y-70652660D01*
X129472853Y-70429123D01*
X129562722Y-70183330D01*
X129440201Y-69977000D01*
X128397000Y-69977000D01*
X128143000Y-69977000D01*
X128123000Y-69977000D01*
X128123000Y-69723000D01*
X128143000Y-69723000D01*
X128143000Y-68680626D01*
X128397000Y-68680626D01*
X128397000Y-69723000D01*
X129440201Y-69723000D01*
X129562722Y-69516670D01*
X129472853Y-69270877D01*
X129336759Y-69047340D01*
X129159670Y-68854649D01*
X128948392Y-68700208D01*
X128711044Y-68589953D01*
X128603329Y-68557284D01*
X128397000Y-68680626D01*
X128143000Y-68680626D01*
X127936671Y-68557284D01*
X127828956Y-68589953D01*
X127762000Y-68621056D01*
X127762000Y-67593967D01*
X131840000Y-67593967D01*
X131840000Y-67916033D01*
X131902832Y-68231912D01*
X132026082Y-68529463D01*
X132205013Y-68797252D01*
X132432748Y-69024987D01*
X132700537Y-69203918D01*
X132998088Y-69327168D01*
X133313967Y-69390000D01*
X133636033Y-69390000D01*
X133951912Y-69327168D01*
X134249463Y-69203918D01*
X134517252Y-69024987D01*
X134744987Y-68797252D01*
X134923918Y-68529463D01*
X135047168Y-68231912D01*
X135110000Y-67916033D01*
X135110000Y-67593967D01*
X140480000Y-67593967D01*
X140480000Y-67916033D01*
X140542832Y-68231912D01*
X140666082Y-68529463D01*
X140845013Y-68797252D01*
X141072748Y-69024987D01*
X141340537Y-69203918D01*
X141638088Y-69327168D01*
X141953967Y-69390000D01*
X142276033Y-69390000D01*
X142591912Y-69327168D01*
X142862708Y-69215000D01*
X145978541Y-69215000D01*
X146004317Y-69476706D01*
X146080653Y-69728354D01*
X146204618Y-69960275D01*
X146371445Y-70163555D01*
X146574725Y-70330382D01*
X146806646Y-70454347D01*
X147058294Y-70530683D01*
X147254421Y-70550000D01*
X147385579Y-70550000D01*
X147581706Y-70530683D01*
X147833354Y-70454347D01*
X148065275Y-70330382D01*
X148268555Y-70163555D01*
X148435382Y-69960275D01*
X148559347Y-69728354D01*
X148635683Y-69476706D01*
X148661459Y-69215000D01*
X150423541Y-69215000D01*
X150449317Y-69476706D01*
X150525653Y-69728354D01*
X150649618Y-69960275D01*
X150816445Y-70163555D01*
X151019725Y-70330382D01*
X151251646Y-70454347D01*
X151503294Y-70530683D01*
X151699421Y-70550000D01*
X151830579Y-70550000D01*
X152026706Y-70530683D01*
X152278354Y-70454347D01*
X152510275Y-70330382D01*
X152713555Y-70163555D01*
X152880382Y-69960275D01*
X153004347Y-69728354D01*
X153080683Y-69476706D01*
X153106459Y-69215000D01*
X153080683Y-68953294D01*
X153004347Y-68701646D01*
X152880382Y-68469725D01*
X152713555Y-68266445D01*
X152510275Y-68099618D01*
X152278354Y-67975653D01*
X152026706Y-67899317D01*
X151830579Y-67880000D01*
X151699421Y-67880000D01*
X151503294Y-67899317D01*
X151251646Y-67975653D01*
X151019725Y-68099618D01*
X150816445Y-68266445D01*
X150649618Y-68469725D01*
X150525653Y-68701646D01*
X150449317Y-68953294D01*
X150423541Y-69215000D01*
X148661459Y-69215000D01*
X148635683Y-68953294D01*
X148559347Y-68701646D01*
X148435382Y-68469725D01*
X148268555Y-68266445D01*
X148065275Y-68099618D01*
X147833354Y-67975653D01*
X147581706Y-67899317D01*
X147385579Y-67880000D01*
X147254421Y-67880000D01*
X147058294Y-67899317D01*
X146806646Y-67975653D01*
X146574725Y-68099618D01*
X146371445Y-68266445D01*
X146204618Y-68469725D01*
X146080653Y-68701646D01*
X146004317Y-68953294D01*
X145978541Y-69215000D01*
X142862708Y-69215000D01*
X142889463Y-69203918D01*
X143157252Y-69024987D01*
X143384987Y-68797252D01*
X143563918Y-68529463D01*
X143687168Y-68231912D01*
X143750000Y-67916033D01*
X143750000Y-67593967D01*
X143687168Y-67278088D01*
X143658412Y-67208665D01*
X156045000Y-67208665D01*
X156045000Y-67491335D01*
X156100147Y-67768574D01*
X156208320Y-68029727D01*
X156365363Y-68264759D01*
X156565241Y-68464637D01*
X156767827Y-68600000D01*
X156565241Y-68735363D01*
X156365363Y-68935241D01*
X156208320Y-69170273D01*
X156100147Y-69431426D01*
X156045000Y-69708665D01*
X156045000Y-69991335D01*
X156100147Y-70268574D01*
X156208320Y-70529727D01*
X156365363Y-70764759D01*
X156565241Y-70964637D01*
X156800273Y-71121680D01*
X156926874Y-71174120D01*
X156847641Y-71206939D01*
X156628987Y-71353038D01*
X156443038Y-71538987D01*
X156296939Y-71757641D01*
X156196304Y-72000595D01*
X156145000Y-72258514D01*
X156145000Y-72521486D01*
X156196304Y-72779405D01*
X156296939Y-73022359D01*
X156443038Y-73241013D01*
X156628987Y-73426962D01*
X156847641Y-73573061D01*
X157090595Y-73673696D01*
X157348514Y-73725000D01*
X157611486Y-73725000D01*
X157869405Y-73673696D01*
X158112359Y-73573061D01*
X158331013Y-73426962D01*
X158516962Y-73241013D01*
X158663061Y-73022359D01*
X158763696Y-72779405D01*
X158815000Y-72521486D01*
X158815000Y-72258514D01*
X158763696Y-72000595D01*
X158663061Y-71757641D01*
X158516962Y-71538987D01*
X158331013Y-71353038D01*
X158112359Y-71206939D01*
X158033126Y-71174120D01*
X158159727Y-71121680D01*
X158394759Y-70964637D01*
X158594637Y-70764759D01*
X158751680Y-70529727D01*
X158859853Y-70268574D01*
X158915000Y-69991335D01*
X158915000Y-69708665D01*
X158859853Y-69431426D01*
X158751680Y-69170273D01*
X158594637Y-68935241D01*
X158394759Y-68735363D01*
X158192173Y-68600000D01*
X158394759Y-68464637D01*
X158594637Y-68264759D01*
X158751680Y-68029727D01*
X158859853Y-67768574D01*
X158915000Y-67491335D01*
X158915000Y-67208665D01*
X158859853Y-66931426D01*
X158751680Y-66670273D01*
X158594637Y-66435241D01*
X158394759Y-66235363D01*
X158159727Y-66078320D01*
X157898574Y-65970147D01*
X157621335Y-65915000D01*
X157338665Y-65915000D01*
X157061426Y-65970147D01*
X156800273Y-66078320D01*
X156565241Y-66235363D01*
X156365363Y-66435241D01*
X156208320Y-66670273D01*
X156100147Y-66931426D01*
X156045000Y-67208665D01*
X143658412Y-67208665D01*
X143563918Y-66980537D01*
X143384987Y-66712748D01*
X143157252Y-66485013D01*
X142889463Y-66306082D01*
X142591912Y-66182832D01*
X142276033Y-66120000D01*
X141953967Y-66120000D01*
X141638088Y-66182832D01*
X141340537Y-66306082D01*
X141072748Y-66485013D01*
X140845013Y-66712748D01*
X140666082Y-66980537D01*
X140542832Y-67278088D01*
X140480000Y-67593967D01*
X135110000Y-67593967D01*
X135047168Y-67278088D01*
X134923918Y-66980537D01*
X134744987Y-66712748D01*
X134517252Y-66485013D01*
X134249463Y-66306082D01*
X133951912Y-66182832D01*
X133636033Y-66120000D01*
X133313967Y-66120000D01*
X132998088Y-66182832D01*
X132700537Y-66306082D01*
X132432748Y-66485013D01*
X132205013Y-66712748D01*
X132026082Y-66980537D01*
X131902832Y-67278088D01*
X131840000Y-67593967D01*
X127762000Y-67593967D01*
X127762000Y-63793967D01*
X131840000Y-63793967D01*
X131840000Y-64116033D01*
X131902832Y-64431912D01*
X132026082Y-64729463D01*
X132205013Y-64997252D01*
X132432748Y-65224987D01*
X132700537Y-65403918D01*
X132998088Y-65527168D01*
X133313967Y-65590000D01*
X133636033Y-65590000D01*
X133951912Y-65527168D01*
X134249463Y-65403918D01*
X134517252Y-65224987D01*
X134744987Y-64997252D01*
X134923918Y-64729463D01*
X135047168Y-64431912D01*
X135110000Y-64116033D01*
X135110000Y-63793967D01*
X140480000Y-63793967D01*
X140480000Y-64116033D01*
X140542832Y-64431912D01*
X140666082Y-64729463D01*
X140845013Y-64997252D01*
X141072748Y-65224987D01*
X141340537Y-65403918D01*
X141638088Y-65527168D01*
X141953967Y-65590000D01*
X142276033Y-65590000D01*
X142591912Y-65527168D01*
X142889463Y-65403918D01*
X143157252Y-65224987D01*
X143384987Y-64997252D01*
X143563918Y-64729463D01*
X143687168Y-64431912D01*
X143750000Y-64116033D01*
X143750000Y-63793967D01*
X143687168Y-63478088D01*
X143563918Y-63180537D01*
X143384987Y-62912748D01*
X143157252Y-62685013D01*
X142904709Y-62516269D01*
X146578336Y-62516269D01*
X146637797Y-62750037D01*
X146876242Y-62860934D01*
X147131740Y-62923183D01*
X147394473Y-62934390D01*
X147654344Y-62894125D01*
X147901366Y-62803935D01*
X148002203Y-62750037D01*
X148061664Y-62516269D01*
X151023336Y-62516269D01*
X151082797Y-62750037D01*
X151321242Y-62860934D01*
X151576740Y-62923183D01*
X151839473Y-62934390D01*
X152099344Y-62894125D01*
X152346366Y-62803935D01*
X152447203Y-62750037D01*
X152506664Y-62516269D01*
X151765000Y-61774605D01*
X151023336Y-62516269D01*
X148061664Y-62516269D01*
X147320000Y-61774605D01*
X146578336Y-62516269D01*
X142904709Y-62516269D01*
X142889463Y-62506082D01*
X142591912Y-62382832D01*
X142276033Y-62320000D01*
X141953967Y-62320000D01*
X141638088Y-62382832D01*
X141340537Y-62506082D01*
X141072748Y-62685013D01*
X140845013Y-62912748D01*
X140666082Y-63180537D01*
X140542832Y-63478088D01*
X140480000Y-63793967D01*
X135110000Y-63793967D01*
X135047168Y-63478088D01*
X134923918Y-63180537D01*
X134744987Y-62912748D01*
X134517252Y-62685013D01*
X134249463Y-62506082D01*
X133951912Y-62382832D01*
X133636033Y-62320000D01*
X133313967Y-62320000D01*
X132998088Y-62382832D01*
X132700537Y-62506082D01*
X132432748Y-62685013D01*
X132205013Y-62912748D01*
X132026082Y-63180537D01*
X131902832Y-63478088D01*
X131840000Y-63793967D01*
X127762000Y-63793967D01*
X127762000Y-63464572D01*
X127880595Y-63513696D01*
X128138514Y-63565000D01*
X128401486Y-63565000D01*
X128659405Y-63513696D01*
X128902359Y-63413061D01*
X129121013Y-63266962D01*
X129306962Y-63081013D01*
X129453061Y-62862359D01*
X129553696Y-62619405D01*
X129605000Y-62361486D01*
X129605000Y-62098514D01*
X129553696Y-61840595D01*
X129504572Y-61722000D01*
X145988749Y-61722000D01*
X146020875Y-61929344D01*
G36*
X157673748Y-62120858D02*
G01*
X157659605Y-62135000D01*
X157673748Y-62149143D01*
X157494143Y-62328748D01*
X157480000Y-62314605D01*
X157465858Y-62328748D01*
X157286253Y-62149143D01*
X157300395Y-62135000D01*
X157286253Y-62120858D01*
X157465858Y-61941253D01*
X157480000Y-61955395D01*
X157494143Y-61941253D01*
X157673748Y-62120858D01*
X157673748Y-62120858D01*
G37*
X157673748Y-62120858D02*
X157659605Y-62135000D01*
X157673748Y-62149143D01*
X157494143Y-62328748D01*
X157480000Y-62314605D01*
X157465858Y-62328748D01*
X157286253Y-62149143D01*
X157300395Y-62135000D01*
X157286253Y-62120858D01*
X157465858Y-61941253D01*
X157480000Y-61955395D01*
X157494143Y-61941253D01*
X157673748Y-62120858D01*
M02*
